<svg xmlns="http://www.w3.org/2000/svg" width="16.759" height="16.755" viewBox="0 0 16.759 16.755">
  <path id="Icon_awesome-instagram" data-name="Icon awesome-instagram" d="M8.376,6.319a4.3,4.3,0,1,0,4.3,4.3A4.289,4.289,0,0,0,8.376,6.319Zm0,7.089a2.793,2.793,0,1,1,2.793-2.793A2.8,2.8,0,0,1,8.376,13.408Zm5.473-7.264a1,1,0,1,1-1-1A1,1,0,0,1,13.849,6.144Zm2.845,1.017A4.959,4.959,0,0,0,15.341,3.65,4.991,4.991,0,0,0,11.831,2.3c-1.383-.079-5.53-.079-6.913,0a4.984,4.984,0,0,0-3.511,1.35A4.975,4.975,0,0,0,.054,7.157c-.079,1.383-.079,5.53,0,6.913A4.959,4.959,0,0,0,1.407,17.58a5,5,0,0,0,3.511,1.353c1.383.079,5.53.079,6.913,0a4.959,4.959,0,0,0,3.511-1.353,4.991,4.991,0,0,0,1.353-3.511c.079-1.383.079-5.526,0-6.909Zm-1.787,8.393a2.828,2.828,0,0,1-1.593,1.593c-1.1.437-3.72.336-4.939.336s-3.84.1-4.939-.336a2.828,2.828,0,0,1-1.593-1.593c-.437-1.1-.336-3.72-.336-4.939s-.1-3.84.336-4.939A2.828,2.828,0,0,1,3.437,4.084c1.1-.437,3.72-.336,4.939-.336s3.84-.1,4.939.336a2.828,2.828,0,0,1,1.593,1.593c.437,1.1.336,3.72.336,4.939S15.345,14.455,14.908,15.554Z" transform="translate(0.005 -2.238)"/>
</svg>
