<svg xmlns="http://www.w3.org/2000/svg" xmlns:xlink="http://www.w3.org/1999/xlink" width="1366" height="10" viewBox="0 0 1366 10">
  <defs>
    <clipPath id="clip-path">
      <rect width="1366" height="10" fill="none"/>
    </clipPath>
  </defs>
  <g id="リピートグリッド_33" data-name="リピートグリッド 33" clip-path="url(#clip-path)">
    <g id="グループ_43475" data-name="グループ 43475" transform="translate(773 -256)">
      <rect id="長方形_2199" data-name="長方形 2199" width="71" height="10" transform="translate(-773 256)" fill="#9c2d2b"/>
      <rect id="長方形_2202" data-name="長方形 2202" width="71" height="10" transform="translate(-631 256)" fill="#bc5537"/>
      <rect id="長方形_2204" data-name="長方形 2204" width="71" height="10" transform="translate(-489 256)" fill="#1b452a"/>
      <rect id="長方形_2200" data-name="長方形 2200" width="71" height="10" transform="translate(-702 256)" fill="#408959"/>
      <rect id="長方形_2201" data-name="長方形 2201" width="71" height="10" transform="translate(-560 256)" fill="#2e6a78"/>
      <rect id="長方形_2203" data-name="長方形 2203" width="71" height="10" transform="translate(-418 256)" fill="#53abae"/>
    </g>
    <g id="グループ_43475-2" data-name="グループ 43475" transform="translate(1199 -256)">
      <rect id="長方形_2199-2" data-name="長方形 2199" width="71" height="10" transform="translate(-773 256)" fill="#9c2d2b"/>
      <rect id="長方形_2202-2" data-name="長方形 2202" width="71" height="10" transform="translate(-631 256)" fill="#bc5537"/>
      <rect id="長方形_2204-2" data-name="長方形 2204" width="71" height="10" transform="translate(-489 256)" fill="#1b452a"/>
      <rect id="長方形_2200-2" data-name="長方形 2200" width="71" height="10" transform="translate(-702 256)" fill="#408959"/>
      <rect id="長方形_2201-2" data-name="長方形 2201" width="71" height="10" transform="translate(-560 256)" fill="#2e6a78"/>
      <rect id="長方形_2203-2" data-name="長方形 2203" width="71" height="10" transform="translate(-418 256)" fill="#53abae"/>
    </g>
    <g id="グループ_43475-3" data-name="グループ 43475" transform="translate(1625 -256)">
      <rect id="長方形_2199-3" data-name="長方形 2199" width="71" height="10" transform="translate(-773 256)" fill="#9c2d2b"/>
      <rect id="長方形_2202-3" data-name="長方形 2202" width="71" height="10" transform="translate(-631 256)" fill="#bc5537"/>
      <rect id="長方形_2204-3" data-name="長方形 2204" width="71" height="10" transform="translate(-489 256)" fill="#1b452a"/>
      <rect id="長方形_2200-3" data-name="長方形 2200" width="71" height="10" transform="translate(-702 256)" fill="#408959"/>
      <rect id="長方形_2201-3" data-name="長方形 2201" width="71" height="10" transform="translate(-560 256)" fill="#2e6a78"/>
      <rect id="長方形_2203-3" data-name="長方形 2203" width="71" height="10" transform="translate(-418 256)" fill="#53abae"/>
    </g>
    <g id="グループ_43475-4" data-name="グループ 43475" transform="translate(2051 -256)">
      <rect id="長方形_2199-4" data-name="長方形 2199" width="71" height="10" transform="translate(-773 256)" fill="#9c2d2b"/>
      <rect id="長方形_2202-4" data-name="長方形 2202" width="71" height="10" transform="translate(-631 256)" fill="#bc5537"/>
      <rect id="長方形_2204-4" data-name="長方形 2204" width="71" height="10" transform="translate(-489 256)" fill="#1b452a"/>
      <rect id="長方形_2200-4" data-name="長方形 2200" width="71" height="10" transform="translate(-702 256)" fill="#408959"/>
      <rect id="長方形_2201-4" data-name="長方形 2201" width="71" height="10" transform="translate(-560 256)" fill="#2e6a78"/>
      <rect id="長方形_2203-4" data-name="長方形 2203" width="71" height="10" transform="translate(-418 256)" fill="#53abae"/>
    </g>
  </g>
</svg>
