<svg xmlns="http://www.w3.org/2000/svg" xmlns:xlink="http://www.w3.org/1999/xlink" width="219.718" height="51.996" viewBox="0 0 219.718 51.996">
  <defs>
    <clipPath id="clip-path">
      <rect id="長方形_1" data-name="長方形 1" width="219.718" height="51.996" fill="none"/>
    </clipPath>
  </defs>
  <g id="グループ_43610" data-name="グループ 43610" transform="translate(0 0)">
    <g id="グループ_1" data-name="グループ 1" transform="translate(0 0)" clip-path="url(#clip-path)">
      <path id="パス_1" data-name="パス 1" d="M26.024,13.414c.835-.032,1.6-.046,2.241-.034a32.252,32.252,0,0,0-2.284-3.621c.046,1.205.066,2.427.043,3.655" transform="translate(-6.826 -2.564)" fill="#004628"/>
      <path id="パス_2" data-name="パス 2" d="M40.291,21.122a11.366,11.366,0,0,1-.852-2.4l4.549-.84c-.159-1.163-.416-3.053-.544-4.057a23.184,23.184,0,0,1-3.276.24,24.621,24.621,0,0,1-.4-2.451c.142-.077,7.052-.879,9.56-.549a11.6,11.6,0,0,1,0,2.095s-1.489.179-3.265.38V17.5l4.733-.874.189.981a66.74,66.74,0,0,1-10.7,3.515M54.823.4c.754.94,1.413,1.663,2.417,2.981L55.377,4.739C54.34,3.421,53.556,2.545,52.93,1.822ZM38.98,5.508c1.048-.1,2.3-.156,3.567-.189,1.155-.03,3.812-.015,6.585.043-.36-1.534-.655-3.009-.85-4.31L49.929.914s.739,1.915,1.75,4.516c2.359.074,4.484.181,5.464.321l.339.049.253,2.137-5,.213c1.923,4.924,4.194,10.669,4.59,11.375l1.239-.032v.553S55.2,21.228,53.6,18.616c-1.019-1.655-2.533-5.949-3.726-10.341l-11.221.479-.084-3.206Z" transform="translate(-10.132 -0.104)" fill="#ca4d2c"/>
      <path id="パス_3" data-name="パス 3" d="M79.378,8.858a43.991,43.991,0,0,1,7.879.476v1.61c-.778.22-7.677.453-7.677.453a14.579,14.579,0,0,1-.2-2.54M87.65,21.769S86.4,18.2,86.3,17.4l1.481-.633a11.321,11.321,0,0,1,2.289,4.194,14.657,14.657,0,0,1-2.416.812M91.319,15.9h-8.94l-1.853,3.979,6.02-.709.439,1.343a83.03,83.03,0,0,1-9.49,1.72c-.173-1-.355-1.956-.355-1.956l.415-.049C77.874,19,78.478,16.96,78.8,15.9H75.6V13.341c1.882-.061,5.785-.133,8.49-.063,1.245.032,5.662.24,7.23.919ZM102.346.733c.754.94,1.413,1.663,2.417,2.981L102.9,5.076c-1.037-1.318-1.82-2.194-2.446-2.917Z" transform="translate(-19.863 -0.192)" fill="#004628"/>
      <path id="パス_4" data-name="パス 4" d="M122.291,4.209l3.28-.434a28.281,28.281,0,0,1,.422,5.634c1.4.1,2.259.31,3.664.518l-.015,1.862-3.686.138a37.021,37.021,0,0,1-.743,6.56c1.851.1,3.787.26,4.891.422l.274.042.206,1.78-12.322.515-.071-2.67.336-.032c.846-.079,1.862-.128,2.884-.155.47-.012,1.085-.006,1.772.014l-.4-6.355-3.279.123-.071-2.67s1.427-.086,3.182-.128Z" transform="translate(-31.051 -0.992)" fill="#22adaf"/>
      <path id="パス_5" data-name="パス 5" d="M24.445,7.388c-.006-.153-.007-.31-.014-.463C26.307,6.737,27.8,6.58,27.8,6.58a11.611,11.611,0,0,0,0-2.1,24.48,24.48,0,0,0-3.525-.032c-.1-1.3-.24-2.545-.4-3.719l-3.744.274.1,1.632a32.413,32.413,0,0,1,4.213,4.749" transform="translate(-5.29 -0.192)" fill="#056c7a"/>
      <path id="パス_6" data-name="パス 6" d="M30.176,14.736a10.529,10.529,0,0,0-1.1-.067c.38.706.729,1.431,1.058,2.166l.039,0a11.532,11.532,0,0,0,0-2.1" transform="translate(-7.64 -3.854)" fill="#056c7a"/>
      <path id="パス_7" data-name="パス 7" d="M9.281,16.7a16.37,16.37,0,0,0,2,3.254l1.863-1.363c-1-1.318-1.663-2.041-2.416-2.981Z" transform="translate(-2.438 -4.101)" fill="#004628"/>
      <path id="パス_8" data-name="パス 8" d="M22.578,11.612c.024-1.228,0-2.449-.043-3.655a32.413,32.413,0,0,0-4.213-4.749l.122,2.059c-.749.059-1.441.12-2.022.175.372-1.138.571-1.969.571-1.969L14.764,2.9l-1.9,6.928a9.617,9.617,0,0,1,1.328.387,12.585,12.585,0,0,0,1.2-2.109C15.912,8.1,17.147,8,18.6,7.871l.235,3.964c-2.51.189-4.679.417-4.748.453a24.428,24.428,0,0,0,.4,2.451,27.862,27.862,0,0,0,3.465-.217c-1.079,1.393-2.882,3.769-4.028,5.543,1.015,1.076,1.453.906,1.453.906l3.81-3.209.265,4.475,1.678-.066a36.272,36.272,0,0,0,1.346-8.081c1.791-.178,3.21-.327,3.4-.347-.329-.736-.678-1.461-1.058-2.166-.637-.013-1.406,0-2.241.034" transform="translate(-3.38 -0.762)" fill="#004628"/>
      <path id="パス_9" data-name="パス 9" d="M4.225,15.849c.344,2.973.642,5.174.642,5.174a5.451,5.451,0,0,0,1.443-.1c.21-2.4.223-6.967.188-10.739,1.365-.259,2.276-.456,2.276-.456L8.744,8.245l-2.268.111C6.442,5.89,6.4,4.1,6.4,4.1l-3.177.264c.044,1.242.139,2.666.26,4.144-1.253.065-2.268.12-2.378.136a11.491,11.491,0,0,0,.22,2.383c.8-.1,1.591-.224,2.353-.347.029.311.06.622.09.931C3,12.939,1.076,16.222,0,17.82a5.016,5.016,0,0,0,1.014,1.015,15.424,15.424,0,0,0,3.21-2.987" transform="translate(0 -1.076)" fill="#004628"/>
      <path id="パス_10" data-name="パス 10" d="M30.46,23.8c-1-1.318-1.663-2.041-2.416-2.981L26.6,21.914a16.368,16.368,0,0,0,2,3.253Z" transform="translate(-6.988 -5.471)" fill="#004628"/>
      <path id="パス_11" data-name="パス 11" d="M46.377,21.274V17.315c1.777-.2,3.265-.38,3.265-.38a11.525,11.525,0,0,0,0-2.095c-2.508-.33-9.419.472-9.56.549a24.621,24.621,0,0,0,.4,2.451,23.115,23.115,0,0,0,3.276-.239c.128,1,.385,2.895.544,4.056l-4.549.84a11.351,11.351,0,0,0,.852,2.4,66.774,66.774,0,0,0,10.7-3.515l-.189-.981Z" transform="translate(-10.444 -3.878)" fill="#ca4d2c"/>
      <path id="パス_12" data-name="パス 12" d="M62.359,3.377C61.356,2.059,60.7,1.336,59.943.4L58.049,1.823c.626.723,1.41,1.6,2.447,2.917Z" transform="translate(-15.251 -0.104)" fill="#ca4d2c"/>
      <path id="パス_13" data-name="パス 13" d="M70.613,12.12l1.035,1.347a13.915,13.915,0,0,0,2.308-.962V9.535Z" transform="translate(-18.552 -2.505)" fill="#ca4d2c"/>
      <path id="パス_14" data-name="パス 14" d="M49.87,8.459c1.193,4.393,2.707,8.686,3.726,10.341,1.607,2.612,4.972,1.432,4.972,1.432v-.553l-1.239.032c-.4-.706-2.667-6.452-4.589-11.375l4.994-.213-.253-2.137-.338-.049c-.981-.14-3.106-.247-5.464-.321-1.012-2.6-1.75-4.516-1.75-4.516l-1.648.139c.2,1.3.491,2.777.851,4.31-2.774-.059-5.431-.074-6.585-.043-1.264.033-2.519.092-3.567.189l-.415.039.085,3.206Z" transform="translate(-10.132 -0.289)" fill="#ca4d2c"/>
      <path id="パス_15" data-name="パス 15" d="M82.512,5.231l10.583,5.9s.374-.374.956-1a34.546,34.546,0,0,0-8.944-7.1c.336-.286.654-.555.927-.782L84.236,0,75.625,6.66l-.478.37V10a44.413,44.413,0,0,0,4.781-2.734c.844-.619,1.73-1.328,2.583-2.035" transform="translate(-19.743 0)" fill="#004628"/>
      <path id="パス_16" data-name="パス 16" d="M104.476,9.849l.246,1.724a30.094,30.094,0,0,0,6.28-.866,61.144,61.144,0,0,1-5.7,6.924,3.347,3.347,0,0,0,.49.866,12.246,12.246,0,0,0,3.265-1.292c.189,1.342.568,3.934.972,6.184.71.049,1.556.027,1.556.027a35.693,35.693,0,0,0,.341-8.591,11.537,11.537,0,0,0,1.037-1.42V8.629Z" transform="translate(-27.448 -2.267)" fill="#004628"/>
      <path id="パス_17" data-name="パス 17" d="M90.1,23.108c.1.8,1.354,4.374,1.354,4.374a14.649,14.649,0,0,0,2.415-.812,11.315,11.315,0,0,0-2.289-4.194l-1.481.633" transform="translate(-23.673 -5.905)" fill="#004628"/>
      <path id="パス_18" data-name="パス 18" d="M88.589,13.82V12.209a44.069,44.069,0,0,0-7.88-.476,14.651,14.651,0,0,0,.2,2.541s6.9-.234,7.678-.453" transform="translate(-21.195 -3.068)" fill="#004628"/>
      <path id="パス_19" data-name="パス 19" d="M113.618,3.714c-1-1.318-1.663-2.041-2.417-2.981L109.308,2.16c.626.723,1.41,1.6,2.447,2.917Z" transform="translate(-28.718 -0.192)" fill="#004628"/>
      <path id="パス_20" data-name="パス 20" d="M114.989,18.481l.737.56V17.688Z" transform="translate(-30.211 -4.647)" fill="#004628"/>
      <path id="パス_21" data-name="パス 21" d="M75.6,17.8v2.555H78.8c-.319,1.063-.923,3.1-1.242,4.329l-.415.049s.183.96.356,1.957a83.1,83.1,0,0,0,9.49-1.721l-.439-1.342-6.02.708,1.852-3.979h8.941l.005-1.7c-1.567-.68-5.984-.888-7.23-.92-2.7-.07-6.608,0-8.49.063" transform="translate(-19.863 -4.653)" fill="#004628"/>
      <path id="パス_22" data-name="パス 22" d="M116.293,8.57l-.305.044V13.39a10.75,10.75,0,0,0,1.382-3.25Z" transform="translate(-30.473 -2.251)" fill="#22adaf"/>
      <path id="パス_23" data-name="パス 23" d="M119.5,12.168l3.279-.123.4,6.355c-.687-.02-1.3-.026-1.772-.013-1.022.027-2.037.075-2.884.155l-.336.032.071,2.671,12.322-.515-.206-1.78-.274-.042c-1.1-.162-3.04-.321-4.89-.422a37.091,37.091,0,0,0,.742-6.56l3.686-.138.015-1.862c-1.4-.207-2.264-.418-3.664-.518a28.281,28.281,0,0,0-.422-5.634l-3.28.434.324,5.162c-1.755.041-3.182.128-3.182.128Z" transform="translate(-31.051 -0.992)" fill="#22adaf"/>
      <path id="パス_24" data-name="パス 24" d="M118.658,19.633a7,7,0,0,0-1.981-2.953l-.689.743v1.353l1.985,1.509s.156-.125.685-.652" transform="translate(-30.473 -4.382)" fill="#22adaf"/>
      <path id="パス_25" data-name="パス 25" d="M172.659,39.134s-.927.282-.722.921a1.47,1.47,0,0,0,2.122.69c1.125-.46,1.867-1.841,3.426-1.79a2.1,2.1,0,0,1,1.943,2.342c-.1.742-.512,1.75-2.685,2.159s-4.781.256-5.676-1.688.754-2.966,1.592-2.634" transform="translate(-44.876 -10.234)" fill="#d08d67"/>
      <path id="パス_26" data-name="パス 26" d="M188.619,39.134s.927.282.722.921a1.47,1.47,0,0,1-2.122.69c-1.125-.46-1.866-1.841-3.426-1.79A2.1,2.1,0,0,0,181.85,41.3c.1.742.511,1.75,2.684,2.159s4.781.256,5.676-1.688-.754-2.966-1.592-2.634" transform="translate(-47.773 -10.234)" fill="#d08d67"/>
      <path id="パス_27" data-name="パス 27" d="M215.2,56.126c-.3,3.746-4.242,8.445-4.242,8.445l-1.809-.63s1.6-9.163,1.6-14.01l3.5-.382a14.866,14.866,0,0,1,.948,6.576" transform="translate(-54.948 -13.018)" fill="#22adaf"/>
      <path id="パス_28" data-name="パス 28" d="M295,41.8c.477,1.3.93,2.322,1.541,4.121l-2.521.8c-.647-1.81-1.181-3.049-1.6-4.062Z" transform="translate(-76.827 -10.982)" fill="#004628"/>
      <path id="パス_29" data-name="パス 29" d="M28.744,55.707q-.664,1.255-1.433,2.441A8.742,8.742,0,0,0,31.2,63.412L32.467,62.3V60.325l-2.956-4.9Z" transform="translate(-7.175 -14.562)" fill="#056c7a"/>
      <path id="パス_30" data-name="パス 30" d="M26.841,56.45a16.258,16.258,0,0,0,.346,1.8q.768-1.187,1.434-2.441Z" transform="translate(-7.052 -14.661)" fill="#004628"/>
      <path id="パス_31" data-name="パス 31" d="M1.028,60.874l2.238,1.556,5.106-5.113L6.864,55.067a8.973,8.973,0,0,0-5.836,5.807" transform="translate(-0.27 -14.467)" fill="#004628"/>
      <path id="パス_32" data-name="パス 32" d="M17.7,45.246h7.4l.007-1.947c-1.64-.649-5.757-.922-7.993-1.017-.56-2.527-1.1-4.294-1.1-4.294H12.625s0,1.728,0,4.223c-2.742,0-5.617.056-7.263.105v2.93h7.258c-.013,6.5-.047,15.05-.138,15.27-.145.355-1.887.649-1.887.649v.81c5.721-.723,7.666-3.288,7.771-9.6a39.232,39.232,0,0,0-.662-7.131" transform="translate(-1.408 -9.98)" fill="#004628"/>
      <path id="パス_33" data-name="パス 33" d="M137.518,56.258l9.273-.068V53.14s-4.935-1.407-8.72-2.05l-.552.552Z" transform="translate(-36.129 -13.422)" fill="#aa1f24"/>
      <path id="パス_34" data-name="パス 34" d="M128.02,65.933h3.049a55.535,55.535,0,0,0,2.955-11.673c.042-.4.076-.8.106-1.21l-6.11,6.109Z" transform="translate(-33.634 -13.937)" fill="#aa1f24"/>
      <path id="パス_35" data-name="パス 35" d="M137.518,51.61l.552-.552c-.186-.032-.372-.063-.552-.091Z" transform="translate(-36.129 -13.39)" fill="#056c7a"/>
      <path id="パス_36" data-name="パス 36" d="M113.039,39.879l-3.581-2.345v6.273a27.639,27.639,0,0,0,3.581-3.928" transform="translate(-28.757 -9.861)" fill="#056c7a"/>
      <path id="パス_37" data-name="パス 37" d="M134.024,38.857h-6V55.43l6.11-6.109a74.19,74.19,0,0,0-.106-10.464" transform="translate(-33.634 -10.208)" fill="#056c7a"/>
      <path id="パス_38" data-name="パス 38" d="M57.87,65.224a3.773,3.773,0,0,1,.84.783,18.432,18.432,0,0,0,8.573-9.793H62.658a20.389,20.389,0,0,1-4.788,9.01" transform="translate(-15.204 -14.769)" fill="#ca4d2c"/>
      <path id="パス_39" data-name="パス 39" d="M35.083,63.359,34.3,62.07v1.973Z" transform="translate(-9.012 -16.307)" fill="#ca4d2c"/>
      <path id="パス_40" data-name="パス 40" d="M97.958,66.764h2.853a44.794,44.794,0,0,0,1.312-8.911c.016-.564.007-1.11-.018-1.64H96.99Z" transform="translate(-25.482 -14.769)" fill="#ca4d2c"/>
      <path id="パス_41" data-name="パス 41" d="M65.78,41.993H44.931c-1.281,4.455,1.183,8.653,1.183,8.653l2.5-1.133v-4.74H59.787a23.083,23.083,0,0,1-.626,7.7h4.625A28.617,28.617,0,0,0,65.78,41.993" transform="translate(-11.708 -11.032)" fill="#aa1f24"/>
      <path id="パス_42" data-name="パス 42" d="M82.564,48.573a6.492,6.492,0,0,0,.156,1.2,19.523,19.523,0,0,0,10.313-.579l.167,1.818h5.116A23.026,23.026,0,0,0,97.768,47a28.966,28.966,0,0,0,4.624-3.49V37.236l-1.276-.835C93.245,48.368,82.564,48.573,82.564,48.573" transform="translate(-21.692 -9.563)" fill="#aa1f24"/>
      <path id="パス_43" data-name="パス 43" d="M188.191,48.384l-.276-1.928-5.484.766-.756.105v2.963c2.074-.407,5.246-1.132,6.515-1.907" transform="translate(-47.731 -12.205)" fill="#004628"/>
      <path id="パス_44" data-name="パス 44" d="M200.929,41.124v1.64h4.122V40.718c-2.594.105-4.265.263-4.122.406" transform="translate(-52.787 -10.697)" fill="#004628"/>
      <path id="パス_45" data-name="パス 45" d="M184.1,67.785V65.623s-1.011.076-2.42.1v2.74a21.559,21.559,0,0,0,2.42-.676" transform="translate(-47.731 -17.241)" fill="#ca4d2c"/>
      <path id="パス_46" data-name="パス 46" d="M167.627,57c-.953-1.237-1.284-4.209-1.33-7.421,2.34-.271,5.74-.7,8.227-1.116.34-.056.891-.154,1.55-.284V45.22l-9.747,1.361c.133-4.269.588-8.148.588-8.148h-3.484s-6.248,14.153-.95,20.142c3.723,4.21,10.118,3.522,13.593,2.743v-2.74c-2.848.046-7.331-.124-8.447-1.574" transform="translate(-42.128 -10.097)" fill="#ca4d2c"/>
      <path id="パス_47" data-name="パス 47" d="M206.523,40.675v2.047h12.983a9.8,9.8,0,0,1-4.129,7.578c.583.894.984,1.608.984,1.608s6.8-1.617,8.481-10.034v-.81a144.272,144.272,0,0,0-18.318-.389" transform="translate(-54.259 -10.655)" fill="#22adaf"/>
      <path id="パス_48" data-name="パス 48" d="M210.745,49.932c0,4.847-1.6,14.009-1.6,14.009l1.809.631s3.939-4.7,4.242-8.445a14.871,14.871,0,0,0-.948-6.577Z" transform="translate(-54.948 -13.018)" fill="#22adaf"/>
      <path id="パス_49" data-name="パス 49" d="M231.528,41.263l-.159-.016v.81c.053-.265.116-.515.159-.794" transform="translate(-60.786 -10.836)" fill="#aa1f24"/>
      <path id="パス_50" data-name="パス 50" d="M236.288,51.316l.02,4.376h9.781V51.117c-3.07.015-6.109.085-9.8.2" transform="translate(-62.079 -13.429)" fill="#aa1f24"/>
      <path id="パス_51" data-name="パス 51" d="M295.327,56.553V53.5s-1.73-.493-3.927-1.03v4.108Z" transform="translate(-76.558 -13.786)" fill="#004628"/>
      <path id="パス_52" data-name="パス 52" d="M274.919,70.186h3.049s.134-.353.341-.947h-3.389Z" transform="translate(-72.228 -18.191)" fill="#004628"/>
      <path id="パス_53" data-name="パス 53" d="M280.922,38.857h-6v1.924h6.134c-.065-1.18-.13-1.924-.13-1.924" transform="translate(-72.228 -10.208)" fill="#004628"/>
      <path id="パス_54" data-name="パス 54" d="M292.341,48.144c-.283-.839-.61-1.811-.941-2.745v3.037Z" transform="translate(-76.558 -11.927)" fill="#004628"/>
      <path id="パス_55" data-name="パス 55" d="M296.545,45.921c-.611-1.8-1.064-2.825-1.541-4.121l-2.578.861c.417,1.014.95,2.252,1.6,4.062Z" transform="translate(-76.828 -10.982)" fill="#004628"/>
      <path id="パス_56" data-name="パス 56" d="M287.785,44.29c.829,2.174,1.292,3.621,1.405,4.075l1.26-.39V44.937c-.159-.446-.317-.885-.474-1.292Z" transform="translate(-75.608 -11.466)" fill="#ca4d2c"/>
      <path id="パス_57" data-name="パス 57" d="M261.973,51.315c-4.967-.156-8.7-.217-12.392-.2v4.575h12.41Z" transform="translate(-65.571 -13.428)" fill="#ca4d2c"/>
      <path id="パス_58" data-name="パス 58" d="M284.15,56.225l5.345-.039V52.078c-1.7-.414-3.672-.854-5.345-1.111Z" transform="translate(-74.653 -13.39)" fill="#ca4d2c"/>
      <path id="パス_59" data-name="パス 59" d="M278.308,61.942a52.8,52.8,0,0,0,2.614-10.726,65.6,65.6,0,0,0,.13-9.75h-6.133V61.942Z" transform="translate(-72.228 -10.894)" fill="#ca4d2c"/>
    </g>
  </g>
</svg>
