<svg xmlns="http://www.w3.org/2000/svg" xmlns:xlink="http://www.w3.org/1999/xlink" width="105.007" height="18.743" viewBox="0 0 105.007 18.743">
  <defs>
    <clipPath id="clip-path">
      <rect id="長方形_2582" data-name="長方形 2582" width="105.007" height="18.743" transform="translate(0 0)" fill="none"/>
    </clipPath>
  </defs>
  <g id="グループ_43607" data-name="グループ 43607" clip-path="url(#clip-path)">
    <path id="パス_18458" data-name="パス 18458" d="M13.913,6.277H10.084V7.9c0,.824,0,1.714-.066,2.56A16.879,16.879,0,0,1,13.2,11.686L12.244,13.8a16.612,16.612,0,0,0-2.56-1,7.352,7.352,0,0,1-2.114,4.318,4.864,4.864,0,0,1-5.231.668A3.982,3.982,0,0,1,0,14.558a4.775,4.775,0,0,1,2.227-3.939,7.8,7.8,0,0,1,5.453-.78,18.684,18.684,0,0,0,.067-2A49.964,49.964,0,0,0,7.19.556L9.528.223c.045.668.267,2,.379,3.717h4.007Zm-6.5,5.9c-2.115-.379-3.3,0-3.9.4a2.438,2.438,0,0,0-1.179,1.981,1.705,1.705,0,0,0,1.067,1.113,2.569,2.569,0,0,0,2.716-.378,5.221,5.221,0,0,0,1.292-3.116" transform="translate(0 -0.112)" fill="#171c61"/>
    <path id="パス_18459" data-name="パス 18459" d="M49.231.445l2.4.045-.112,8.681h-2.4Zm4.185,18.521L51.9,17.118c7.346-6.167,2.671-12.288,2.515-12.51l1.826-1.492c.11.045,6.344,8.126-2.828,15.85" transform="translate(-24.51 -0.222)" fill="#171c61"/>
    <path id="パス_18460" data-name="パス 18460" d="M102.406,13.285c-.957-.378-1.892-.712-2.782-1.046a36.883,36.883,0,0,1-1,4.318L96.4,15.845c.334-1.112.712-2.782,1-4.341a31.016,31.016,0,0,0-3.784-.778c-.4,2.515-1.18,4.941-2.849,5.9a3.761,3.761,0,0,1-4.23.045,3.809,3.809,0,0,1-1.491-3.161,5.146,5.146,0,0,1,.111-1,4.547,4.547,0,0,1,2.56-3.384A7.585,7.585,0,0,1,91.5,8.276c.044-.89.11-1.781.11-2.6V5h-2.4V2.667h4.63l.044,1.112a17.009,17.009,0,0,1,.066,2.115c0,.712,0,1.6-.066,2.494a33.557,33.557,0,0,1,3.895.845l.291-1.959,2.337.334c0,.067-.179,1-.4,2.293A30.12,30.12,0,0,1,103.3,11.17Zm-11.2-2.671a6.6,6.6,0,0,0-2.449.556,2.539,2.539,0,0,0-1.335,1.847,2.261,2.261,0,0,0-.045.557,1.486,1.486,0,0,0,.49,1.225,1.685,1.685,0,0,0,1.737-.179c.778-.445,1.336-2.048,1.6-4.007" transform="translate(-42.434 -1.331)" fill="#171c61"/>
    <path id="パス_18461" data-name="パス 18461" d="M139.661,6.5c-.111,1-.177,1.892-.223,2.449a6.772,6.772,0,0,1,5.009,2.181,6.007,6.007,0,0,1,1.224,3.763,12.989,12.989,0,0,1-.668,3.85l-2.226-.735c.778-2.494.712-4.318-.179-5.387-1.336-1.669-4.34-1.336-4.34-1.336l-1.447.178.177-1.447.335-3.518h-3.517V4.163h3.74L137.924,0l2.337.223s-.156,1.892-.378,3.94h7.569V6.5Z" transform="translate(-66.766 0)" fill="#171c61"/>
    <path id="パス_18462" data-name="パス 18462" d="M177.448,5.565a24,24,0,0,1-3.338,7.346l-1.848-1.291C175.778,6.566,175.935,0,175.935,0h14.58V5.565ZM190.96,16.294V18.52H176.223V16.294h7.5v-.779H181.9V13.289h1.825V12.176a8.389,8.389,0,0,1-3.228-.491L181.945,8.9H179.83V6.678h9.683V8.9h-1.38l1.336,2.828-1.959.89s-.267-.556-.49-1.113a3.314,3.314,0,0,1-1.069.334v1.447h2.293v2.226h-2.293v.779ZM177.938,3.339h10.35V2.226h-10.24a7.046,7.046,0,0,1-.11,1.114m5.787,6.722a6.919,6.919,0,0,0,3.294-.823l.668-.334h-3.338a8.466,8.466,0,0,0-.624,1.157" transform="translate(-85.954 0)" fill="#171c61"/>
  </g>
</svg>
