<svg id="求人の無料アイコン1" xmlns="http://www.w3.org/2000/svg" width="34.195" height="34.219" viewBox="0 0 34.195 34.219">
  <path id="パス_18428" data-name="パス 18428" d="M134.033,248.432a6.082,6.082,0,0,1-6.977,0,7.25,7.25,0,0,0-3.442,3.2c-.861,1.531-.186,3.7,1.3,3.7h11.256c1.489,0,2.164-2.165,1.3-3.7A7.244,7.244,0,0,0,134.033,248.432Z" transform="translate(-115.01 -231.828)" fill="#36adaf"/>
  <path id="パス_18429" data-name="パス 18429" d="M168.357,99.317a4.6,4.6,0,0,0,4.6-4.6v-1.1a4.6,4.6,0,1,0-9.2,0v1.1A4.6,4.6,0,0,0,168.357,99.317Z" transform="translate(-152.823 -83.061)" fill="#36adaf"/>
  <path id="パス_18430" data-name="パス 18430" d="M33.411,29.536,28.342,24.6a15.541,15.541,0,1,0-3.558,3.559l4.936,5.068a2.4,2.4,0,0,0,3.783.143A2.452,2.452,0,0,0,33.411,29.536ZM6.887,24.366a12.489,12.489,0,1,1,17.663,0A12.49,12.49,0,0,1,6.887,24.366Z" transform="translate(-0.184 0.001)" fill="#36adaf"/>
</svg>
