<svg id="情報アイコン" xmlns="http://www.w3.org/2000/svg" width="35.094" height="35.094" viewBox="0 0 35.094 35.094">
  <path id="パス_18431" data-name="パス 18431" d="M29.954,5.139a17.546,17.546,0,1,0,5.14,12.408A17.5,17.5,0,0,0,29.954,5.139ZM27.661,27.66A14.3,14.3,0,1,1,31.85,17.547,14.253,14.253,0,0,1,27.661,27.66Z" transform="translate(0 0)" fill="#134628"/>
  <path id="パス_18432" data-name="パス 18432" d="M215.624,122.188a2.654,2.654,0,1,0-2.654-2.654A2.655,2.655,0,0,0,215.624,122.188Z" transform="translate(-198.373 -108.869)" fill="#134628"/>
  <path id="パス_18433" data-name="パス 18433" d="M205.467,221.978h-.361a.668.668,0,0,1-.669-.668v-9.344a.35.35,0,0,0-.514-.31l-4.561,2.535c-1.327.663-.69,1.456-.2,1.435s1.966-.165,1.966-.165v5.849a.668.668,0,0,1-.669.668h-.708a.335.335,0,0,0-.335.334v1.459a.335.335,0,0,0,.335.335h5.712a.335.335,0,0,0,.335-.335v-1.459A.335.335,0,0,0,205.467,221.978Z" transform="translate(-184.962 -197.111)" fill="#134628"/>
</svg>
