<svg xmlns="http://www.w3.org/2000/svg" width="54.171" height="15.143" viewBox="0 0 54.171 15.143">
  <g id="グループ_43611" data-name="グループ 43611" transform="translate(0 0)">
    <path id="パス_18418" data-name="パス 18418" d="M176.787,39.537s-2.995.91-2.332,2.976,3.221,3.717,6.857,2.23,6.032-5.949,11.071-5.785,6.609,5.172,6.28,7.567-1.653,5.654-8.677,6.976-15.45.827-18.343-5.454,2.437-9.585,5.144-8.51" transform="translate(-170.809 -38.953)" fill="#d08d67"/>
    <path id="パス_18419" data-name="パス 18419" d="M203.753,39.537s2.995.91,2.333,2.976-3.221,3.717-6.857,2.23-6.03-5.949-11.071-5.785-6.609,5.172-6.278,7.567,1.651,5.654,8.675,6.976S206,54.327,208.9,48.047s-2.437-9.585-5.144-8.51" transform="translate(-155.562 -38.953)" fill="#d08d67"/>
  </g>
</svg>
