<svg xmlns="http://www.w3.org/2000/svg" width="48.205" height="30.833" viewBox="0 0 48.205 30.833">
  <g id="ノートPCでネットショッピングの無料アイコン素材" transform="translate(0 -92.256)">
    <path id="パス_21543" data-name="パス 21543" d="M45.553,95.59h33.59v19.487h3.333V95.59a3.333,3.333,0,0,0-3.333-3.334H45.553a3.333,3.333,0,0,0-3.334,3.334v19.487h3.334Z" transform="translate(-38.244)" fill="#ca4d2c"/>
    <path id="パス_21544" data-name="パス 21544" d="M.309,360.057H0v.646a4.973,4.973,0,0,0,4.974,4.973H43.232a4.973,4.973,0,0,0,4.974-4.973v-.646Zm20.781,3.114v-.609a.4.4,0,0,1,.4-.4h5.224a.4.4,0,0,1,.4.4v.609a.4.4,0,0,1-.4.4H21.491A.4.4,0,0,1,21.09,363.171Z" transform="translate(0 -242.587)" fill="#ca4d2c"/>
    <path id="パス_21545" data-name="パス 21545" d="M173.257,168.539l-1.016,0v0h-.015l.2,1.588h6.1l.688,0-.189,1.519h-5.7l-.7,0v0h-.015l.2,1.588h5.378l.641,0-.188,1.519h-7.591l-1.124-7.981a.678.678,0,0,0-.671-.583h-3.318v.584a1,1,0,0,0,1,1h1.523l1.061,7.53a1.2,1.2,0,0,0,1.19,1.034h8.62a1.2,1.2,0,0,0,1.192-1.054l.745-6.013.091-.723h0l0-.015Z" transform="translate(-150.312 -66.976)" fill="#ca4d2c"/>
    <path id="パス_21546" data-name="パス 21546" d="M210.718,287.026a1.75,1.75,0,1,0,1.75-1.75A1.75,1.75,0,0,0,210.718,287.026Z" transform="translate(-190.879 -174.847)" fill="#ca4d2c"/>
    <path id="パス_21547" data-name="パス 21547" d="M279.477,287.026a1.75,1.75,0,1,0,1.75-1.75A1.75,1.75,0,0,0,279.477,287.026Z" transform="translate(-253.164 -174.847)" fill="#ca4d2c"/>
  </g>
</svg>
