<?xml version="1.0" encoding="utf-8"?>
<!-- Generator: Adobe Illustrator 27.9.1, SVG Export Plug-In . SVG Version: 6.00 Build 0)  -->
<svg version="1.1" id="レイヤー_1" xmlns="http://www.w3.org/2000/svg" xmlns:xlink="http://www.w3.org/1999/xlink" x="0px"
	 y="0px" viewBox="0 0 512 512" style="enable-background:new 0 0 512 512;" xml:space="preserve">
<style type="text/css">
	.st0{fill:#333333;}
</style>
<g>
	<path class="st0" d="M172.9,130.6H472L308.6,259c-3.5,2.7-7.6,4-11.3,4.4c-3.8-0.4-7.9-1.7-11.4-4.4l-116.8-91.7
		c-1.2-1-2.6-1.8-4.2-2.2c5.5-7.8,8.6-17.1,8.5-27.2C173.4,135.5,173.2,133.1,172.9,130.6L172.9,130.6z M96.8,48.1
		c0.4,0.1,1,0.3,2.3,0.9c2.7,1.3,6.9,4.5,11,9c8.3,9.1,16.7,22.8,21,31.9c0.1,0.3,0.3,0.6,0.4,0.9c12.3,21,17.6,37.2,17.7,47.3
		c0.2,10.1-2.6,14.5-11.2,19.5l-22.2,12.8c-14.5,8.3-21.3,23.2-23,37.2c-1.7,13.9,0.8,27.4,7,38.1l54.8,94.4
		c6.2,10.7,16.8,19.6,29.7,25.1c13,5.5,29.4,7.1,43.8-1.2l22.2-12.8c8.6-4.9,13.8-5,22.5,0.2c8.8,5.2,20.1,17.8,32.3,38.8
		c0.2,0.3,0.3,0.6,0.5,0.9c5.7,8.3,13.5,22.3,17.3,34c1.9,5.8,2.6,11.1,2.4,14c-0.3,2.9-0.3,2.6-1.1,3.1l-16.9,9.7
		c-42.4,18.4-81.3,14.2-116-3.8c-34.8-18.1-65.1-50.8-86.2-89.1c-0.1-0.1-0.1-0.2-0.2-0.2L59,279.1c-0.1-0.1-0.1-0.1-0.2-0.2
		C36,241.4,22.6,199,24.3,160C26,121,41.8,85.5,79,58.1l16.9-9.6C96.3,48.3,96.4,48.1,96.8,48.1L96.8,48.1z M97,24.4
		c-4.5-0.1-9,0.9-13.1,3.2L66,37.9c-0.4,0.2-0.8,0.5-1.1,0.7C21.9,70.1,2.1,113.8,0.2,159c-1.9,45.1,13.1,91.7,38,132.4l46.1,79.4
		l-0.1-0.2c23,41.8,55.9,78,96.2,98.9c40.3,20.9,88.3,25.8,137.1,4.4c0.4-0.2,0.8-0.4,1.2-0.6l17.9-10.3
		c8.3-4.7,12.4-13.9,13.1-21.9c0.7-8-0.9-15.7-3.4-23.4c-4.8-15.1-13.3-29.8-20.2-39.9c-13.2-22.6-25.9-38.3-40.5-47.1
		c-14.8-8.8-32.6-8.7-47-0.4l-22.2,12.8c-6.6,3.8-14.2,3.3-22.3-0.1c-8-3.4-15.5-10.2-18.2-15l-54.8-94.4c-2.8-4.8-5-14.6-4-23.3
		c1-8.6,4.5-15.4,11.1-19.2l21.6-12.4c0.6,2.9,2.2,5.5,4.6,7.3L271,277.8c7.6,6,16.6,9.3,25.7,9.8c0.5,0,0.9,0,1.4,0
		c9.1-0.5,18-3.9,25.6-9.8l160.8-126.4v208.7c0,3.2-3.6,7.4-10.7,7.4H362.4c-6.7,0-12.1,5.4-12.1,12c0,6.7,5.4,12.1,12.1,12h111.3
		c18.2,0,34.9-13.2,34.9-31.4V138c0-18.3-16.7-31.4-34.9-31.4H166.3c-3.4-8.5-7.9-17.5-13.6-27.3c-5.3-11-13.9-25.6-24.7-37.3
		c-5.4-5.9-11.3-11.2-18.6-14.6v0C105.8,25.6,101.4,24.5,97,24.4L97,24.4z"/>
</g>
</svg>
