<?xml version="1.0" encoding="utf-8"?>
<!-- Generator: Adobe Illustrator 27.9.1, SVG Export Plug-In . SVG Version: 6.00 Build 0)  -->
<svg version="1.1" id="レイヤー_1" xmlns="http://www.w3.org/2000/svg" xmlns:xlink="http://www.w3.org/1999/xlink" x="0px"
	 y="0px" viewBox="0 0 512 512" style="enable-background:new 0 0 512 512;" xml:space="preserve">
<style type="text/css">
	.st0{fill:#333333;}
</style>
<g>
	<path class="st0" d="M218.5,262.7c-15.6,0-29.1-6.3-35.9-11.8c-3.7-2.9-4.4-8.3-1.5-12c1.6-2.1,4-3.2,6.7-3.2
		c1.9,0,3.7,0.6,5.2,1.8c2.7,2,12.4,8.3,25.2,8.3c8.8,0,17.2-2.9,25-8.5c1.5-1.1,3.2-1.6,5-1.6c2.7,0,5.3,1.3,6.9,3.6
		c2.7,3.8,1.9,9.2-1.9,11.9C242.4,258.8,230.7,262.7,218.5,262.7z"/>
	<path class="st0" d="M185.8,203.9c-0.3,0-0.5,0-0.8,0c-2.8-0.2-5.4-1.5-7.3-3.6c-1.9-2.1-2.8-4.9-2.6-7.7c0.4-5.5,5-9.9,10.6-9.9
		c0.3,0,0.5,0,0.8,0c2.8,0.2,5.4,1.5,7.3,3.6c1.9,2.1,2.8,4.9,2.6,7.7C196,199.6,191.3,203.9,185.8,203.9z"/>
	<path class="st0" d="M250.3,203.9c-5.8,0-10.6-4.8-10.6-10.6c0-5.8,4.8-10.6,10.6-10.6s10.6,4.8,10.6,10.6
		C260.9,199.1,256.2,203.9,250.3,203.9z"/>
	<path class="st0" d="M410.3,237.8c-15.7,0-29.2-6.3-36-11.8c-3.7-3-4.3-8.4-1.4-12.1c1.6-2.1,4.1-3.2,6.7-3.2
		c1.9,0,3.7,0.6,5.1,1.8c1.9,1.4,11.6,8.3,25.2,8.3c8.8,0,17.2-2.9,25.1-8.5c1.5-1.1,3.2-1.6,5-1.6c2.7,0,5.3,1.3,6.9,3.6
		c2.7,3.8,1.9,9.2-1.9,11.9C434.2,233.9,422.5,237.8,410.3,237.8z"/>
	<circle class="st0" cx="377.4" cy="168.5" r="10.6"/>
	<path class="st0" d="M442,179.1c-5.8,0-10.6-4.8-10.6-10.6c0-5.8,4.8-10.6,10.6-10.6s10.6,4.8,10.6,10.6
		C452.6,174.2,447.8,179,442,179.1z"/>
	<path class="st0" d="M325.4,415.5c-3.4,0-6.4-1.9-7.7-5c-12.8-28.5-31.8-52.3-52.2-65.3l-2.9-1.8l-3,1.6c-2.6,1.4-5.4,2.8-8.5,4.1
		c-1.1,0.5-2.2,0.7-3.4,0.7c-3.4,0-6.5-2-7.8-5c-1.9-4.3,0-9.3,4.3-11.2c4.9-2.2,9.6-4.7,14-7.5l0.2-0.1c0.1-0.1,0.2-0.1,0.4-0.3
		c31.4-20.2,50.1-54.5,50.1-91.7c0-60-48.9-108.9-108.9-108.9S91.1,174,91.1,234c0,49.6,33.5,92.9,81.5,105.4c2.2,0.6,4,1.9,5.2,3.9
		c1.2,2,1.5,4.3,0.9,6.5c-0.9,3.6-4.4,6.3-8.2,6.3c-0.4,0-1.1-0.1-2.2-0.3c-9.4-2.4-18.7-6.1-27.6-10.9l-3.1-1.7l-2.9,2
		c-19.4,13.5-31.5,37.9-42.2,59.4l-0.5,1c-1.4,2.9-4.4,4.7-7.6,4.7c-1.3,0-2.5-0.3-3.8-0.9c-4.2-2.1-5.9-7.2-3.8-11.4l0.5-1
		c0.7-1.4,1.4-2.8,2.2-4.3l0.1-0.3c2.3-4.5,4.7-9.2,7.1-13.8l5-9.3L80.8,370c-1.2,0.1-2.4,0.2-3.4,0.2c-2.9,0-5.3-0.4-7.4-1.1
		c-6.1-2.1-10.2-7.3-10.9-13.8c-1.6-15,15.4-46.2,27.2-59.1l2.7-2.9l-1.8-3.6c-8.7-17.5-13.1-36.2-13.1-55.5
		c0-69.4,56.5-125.9,125.9-125.9c28.7,0,56.7,9.9,78.9,27.9l4.6,3.7l3.7-4.6c23.8-30,59.6-47.2,98.2-47.2
		c69.4,0,125.9,56.5,125.9,125.9c0,36.4-15.8,71-43.4,95l-4.9,4.2l4.7,4.4c18.7,17.5,30.8,44.7,40.6,66.5l2.9,6.5
		c1.9,4.3,0,9.4-4.3,11.3c-1.1,0.4-2.3,0.7-3.4,0.7c-3.4,0-6.4-1.9-7.7-5l-3-6.6c-10.2-22.8-22.8-51.2-42-65.5l-3-2.2l-3.3,1.8
		c-2.6,1.4-5.4,2.7-8,4c-1.2,0.5-2.4,0.7-3.5,0.7c-3.4,0-6.5-2-7.8-5.1c-0.9-2.1-1-4.4-0.1-6.5c0.8-2.1,2.4-3.8,4.5-4.7
		c4.9-2.2,9.6-4.7,14-7.5l0.1-0.1c0.1-0.1,0.2-0.2,0.4-0.3c31.4-20.2,50.1-54.5,50.1-91.7c0-60-48.9-108.9-108.9-108.9
		c-34.5,0-66.2,15.9-87,43.7l-2.7,3.6l2.8,3.5c18,22.6,27.5,49.7,27.5,78.3c0,18.9-4.4,38-12.9,55.2l-2,4l3.4,2.9
		c12.8,11,27.4,18.8,43.4,23c2.2,0.6,4,1.9,5.2,3.9c1.2,2,1.5,4.3,0.9,6.5c-0.9,3.6-4.4,6.3-8.2,6.3c-0.4,0-1.1-0.1-2.2-0.3
		c-17.4-4.5-33.3-12.5-47.2-23.8l-4.6-3.7l-3.6,4.6c-4.2,5.4-9.2,10.6-14.8,15.6l-5.2,4.6l5.4,4.3c19.9,15.8,37.6,39.3,49.6,66.2
		c1.9,4.3,0,9.4-4.3,11.3C327.8,415.2,326.6,415.5,325.4,415.5z M93.5,314.1c-6.2,9.2-12.9,22.3-15.7,30.6l-3.4,10.3l10.5-2.9
		c9.9-2.7,25.5-10.4,31.5-15.6l5.1-4.4l-5-4.4c-5.1-4.5-9.7-9.2-13.6-14.1l-4.9-6.1L93.5,314.1z"/>
	<path class="st0" d="M50.8,274.5c-2.2,0-4.2-0.8-5.8-2.2l-19.2-17.8c-1.7-1.5-2.6-3.6-2.7-5.9c-0.1-2.3,0.7-4.5,2.3-6.2
		c1.6-1.8,3.8-2.7,6.2-2.7c2.1,0,4.2,0.8,5.8,2.3l19.3,17.7c3.4,3.1,3.6,8.5,0.5,12C55.4,273.5,53.2,274.5,50.8,274.5z"/>
	<path class="st0" d="M39,307.3c-0.5,0-1.2-0.1-2-0.3l-0.1,0c-7.4-1.8-22.4-3.6-28.6-4.3c-2.3-0.3-4.4-1.4-5.8-3.2
		c-1.4-1.7-1.9-3.9-1.7-6c0.5-4.4,4.1-7.7,8.4-7.7c0.3,0,0.6,0,1,0.1l0.5,0.1c13.3,1.6,24.3,3.2,30.2,4.6c4.5,1.1,7.3,5.7,6.3,10.3
		C46.4,304.5,42.9,307.3,39,307.3z"/>
	<path class="st0" d="M15.1,356.2c-3.4,0-6.6-2.1-7.9-5.2c-1.8-4.4,0.2-9.3,4.6-11.2c3.4-1.4,6.8-3.4,10.3-5.5l0.3-0.2
		c3.8-2.2,7.3-4.4,11.4-6.2c1.1-0.5,2.2-0.7,3.4-0.7c3.4,0,6.5,2,7.8,5c0.9,2.1,1,4.4,0.1,6.5c-0.8,2.1-2.4,3.8-4.5,4.7
		c-2.8,1.2-5.7,2.9-8.7,4.6l-1,0.6c-3.8,2.3-8,4.8-12.8,6.9C17.4,356,16.4,356.2,15.1,356.2z"/>
</g>
</svg>
