<?xml version="1.0" encoding="utf-8"?>
<!-- Generator: Adobe Illustrator 27.9.1, SVG Export Plug-In . SVG Version: 6.00 Build 0)  -->
<svg version="1.1" id="レイヤー_1" xmlns="http://www.w3.org/2000/svg" xmlns:xlink="http://www.w3.org/1999/xlink" x="0px"
	 y="0px" viewBox="0 0 255.1 128.6" style="enable-background:new 0 0 255.1 128.6;" xml:space="preserve">
<style type="text/css">
	.st0{fill:#E77A20;}
	.st1{fill:#954F00;enable-background:new    ;}
	.st2{fill:#444347;}
</style>
<g>
	<g id="グループ_295_00000031202187876867888100000012357409676948330649_">
		<path id="パス_1974_00000103968921229547529270000005566013438943522696_" class="st0" d="M110.9,90c0.6,0.1,1.1,0.4,1.5,0.8
			c0.7,0.7,2.7,1.1,4.6,1.1c1.9,0,3.6-0.1,5.2-0.8c1.6-0.7,2.2-1.5,3.6-1.7c1.4-0.2,5.5,0,5.3-1.4c-0.3-2.3-6-2.5-8.7-2.6
			c-1,0-2-0.2-2.8-0.7c-1.1-0.6-2.5-0.8-3.8-0.8c-2.3,0-4.2,1-4.2,2.2c0,0-3.2,0.5-3.2,1.8C108.5,88.8,109.6,89.8,110.9,90"/>
	</g>
	<path id="パス_1953_00000150823473075972271280000001199493530935211939_" class="st1" d="M33.8,31.3h-29c-1.3,0-2.5-0.5-3.4-1.4
		C0.5,29,0.1,25,0.1,23.7l0.3-6.9L0,9c0-2.7,2.2-4.8,4.8-4.8h29c2.7,0,4.8,2.2,4.8,4.8c0,0,0,0,0,0l-0.3,7.5c-0.1,1.2-0.1,2.4,0,3.6
		l0.6,5.1c0.2,1.4-0.2,2.8-1,3.8c-0.2,0.3-0.4,0.5-0.7,0.8C36.3,30.8,35.1,31.3,33.8,31.3 M19.3,8.5c-5.4,0-9.8,4.4-9.9,9.8
		c0,2.6,1,5.1,2.9,7C26.1,37.7,37.8,9.5,19.3,8.5 M6.2,10.2c-1,0-1.8,0.8-1.8,1.8c0,1,0.8,1.6,1.8,1.6c1,0,1.5-0.7,1.5-1.7
		C7.7,10.9,7.2,10.2,6.2,10.2L6.2,10.2z M19.3,25.1c-12.7-0.7-4.6-20,4.8-11.5C28.4,17.5,25.2,25.3,19.3,25.1"/>
	<path id="パス_1954_00000002373069764411921830000012365298672448593338_" class="st1" d="M37.3,5.5c-0.9-0.9-2-1.3-3.2-1.3H28
		c-0.7,0-1.3-0.5-1.4-1.2c-0.2-1.7-1.5-3-2.9-3h-9c-1.5,0-2.7,1.3-2.9,3.1l0,0.3c0,0.4-0.4,0.7-0.8,0.7h-0.6c0,0,0-0.1,0-0.1V3.9
		c0-0.7-0.6-1.3-1.3-1.3H5.4c-0.7,0-1.3,0.6-1.3,1.3V4c0,0.1,0,0.1,0,0.2C1.8,4.4,0,6.4,0,8.7L0.2,12h4.2c0-1,0.8-1.8,1.8-1.8
		c0.5,0,0.7,0.2,1,0.6c0.3,0.3,0.5,0.7,0.4,1.2l4.1,0.1c3.9-4.4,11.1-3.9,15.3,0h11.4l0.1-3.3C38.7,7.5,38.2,6.3,37.3,5.5"/>
	<path id="パス_1955_00000004528506974312719140000011182093459759250843_" class="st0" d="M125.7,128.5c3,0.2,1.5-3.7,1.3-5.5
		c-0.2-1.8-10.5-21.3-12.4-23.7c-8.3-18.6-14.4,13.6-18.6-3.9c-0.3-1.6-2.3-11.6-7.6-11c-5.8,0.6-11.3,15-16.6,21.3
		c-13.8,22.4-21.4,21.6,6.9,22.2C89.2,126.9,122.7,128.3,125.7,128.5"/>
	<path id="パス_1956_00000034056652442753299380000009851634810810943920_" class="st0" d="M28.3,126c-1.3,6.5-9.1-1.3-2.5-2.5
		C27.1,123.5,28.3,124.6,28.3,126L28.3,126"/>
	<path id="パス_1957_00000177475641014110698400000007640446502230335114_" class="st0" d="M43.3,126c-1.3,6.5-9.1-1.3-2.5-2.5
		C42.2,123.5,43.3,124.6,43.3,126L43.3,126"/>
	<path id="パス_1958_00000066500211778592442010000013354718974860643968_" class="st0" d="M47.8,106.2c-2.3,0.1-33.9-3.9-33,4
		c0.8,3.5-2.5,16,4,15.8h1.9c0.5,0,0.9-0.4,1-0.9c0.8-4.3,7.5-4.3,8.2,0c0.1,0.5,0.5,0.9,1,0.9h4.7c0.5,0,0.9-0.3,1-0.8
		c0.7-4.3,7.6-4.3,8.3,0.1c0.1,0.5,0.4,0.8,0.9,0.8c2.8,0.1,6-0.7,6-4C51,118.5,54.3,106,47.8,106.2 M23.2,117.7
		c0,2.3-4.8,2.3-4.8,0c0.4-1.4-1.1-7.1,1.6-7C24.4,109.4,23,115.3,23.2,117.7 M29.4,113.9c-0.7,3.1-6.1,1.6-4.8-1.7
		C25.3,109.1,30.7,110.6,29.4,113.9 M35.7,113.9c-0.7,3.1-6.1,1.6-4.8-1.7C31.5,109.1,36.9,110.6,35.7,113.9 M41.9,113.9
		c-0.7,3.1-6.1,1.6-4.8-1.7C37.8,109.1,43.2,110.6,41.9,113.9 M48.2,113.9c-0.7,3.1-6.1,1.6-4.8-1.7C44,109.1,49.4,110.6,48.2,113.9
		"/>
	<path class="st0" d="M5.3,93.3c-2.7,0-5,2.2-5,5c0,2.6,2,4.7,4.5,4.9c0,0.3,0,0.6,0,1c-0.5,0-1,0-1.4,0C-1,104,1.7,114.7,1,116.9
		c0,2.1,1.7,2.5,3.5,2.5c0,1.4,0,2.8,0.1,3.9H2.2l-0.9,5.2h8.1l-0.9-5.2H5.8c0-1.1,0.1-2.5,0.1-3.9c0.5,0,0.9,0,1.2,0v0
		c4.4,0.3,1.8-10.4,2.5-12.7c0-2.1-1.8-2.5-3.7-2.5c0-0.4-0.1-0.7-0.1-1c2.5-0.3,4.4-2.4,4.4-4.9l0,0c0,0,0,0,0,0
		C10.3,95.6,8.1,93.3,5.3,93.3z"/>
	<g>
		<path class="st0" d="M93.2,28.8c0.6-2.4-3.2-3.2-3.7-0.8C89,30.4,92.7,31.3,93.2,28.8z"/>
		<path class="st0" d="M98.3,30.7c0.6-2.4-3.2-3.2-3.7-0.8C94,32.3,97.8,33.1,98.3,30.7z"/>
		<path class="st0" d="M87,35.3C87,35.3,87,35.3,87,35.3c0.1,0.1,0.2,0.1,0.3,0.1c0,0,0,0,0,0c0.1,0,0.2,0,0.3-0.1
			c0,0,0.1,0,0.1-0.1c0.1-0.1,0.2-0.2,0.2-0.3c0,0,0,0,0-0.1c0-0.1,0-0.3-0.1-0.4C87,33.4,80.5,24,77.1,23.8c-0.6,0-1.1,0.2-1.4,0.6
			c-0.4,0.4-0.5,0.9-0.4,1.5C75.8,29.2,85.8,34.6,87,35.3z"/>
		<path class="st0" d="M108.8,37.5c-2.7-2.3-13.7-0.7-14.9-0.5c-0.3,0-0.5,0.3-0.5,0.5c0,0.3,0.1,0.5,0.4,0.6
			c1,0.4,8.1,3.1,12.4,3.1c1.1,0,1.9-0.2,2.5-0.6c0.6-0.4,0.9-1,0.9-1.8C109.5,38.4,109.2,37.9,108.8,37.5z"/>
		<path class="st0" d="M86.6,37.6c0.3,0,0.5-0.2,0.5-0.5c0-0.3-0.1-0.5-0.4-0.6c-1.5-0.6-9-3.6-11.4-2c-0.5,0.4-0.8,0.9-0.8,1.6
			c0,0.5,0.2,0.9,0.6,1.2c0.9,0.7,2.8,1,4.9,1C83,38.1,86,37.6,86.6,37.6z"/>
		<path class="st0" d="M93.4,39.4c-0.2-0.1-0.5-0.1-0.7,0.1c-0.2,0.2-0.2,0.5,0,0.7c0.9,1.3,5.6,7.9,8.2,8.1c0,0,0.1,0,0.1,0
			c0.4,0,0.8-0.2,1.1-0.5c0.3-0.3,0.4-0.8,0.3-1.2C101.9,44.1,94.8,40.2,93.4,39.4z"/>
		<path class="st0" d="M92.6,31.6c-0.8-0.2-1.6,0.2-1.9,1c0,0.1-3.5,11.1-13.2,11.8c-0.8,0.1-1.5,0.8-1.4,1.6c0,0.5,0.3,0.9,0.8,1.2
			h0c0.2,0.1,0.5,0.2,0.7,0.2c0,0,0.1,0,0.1,0c4.9-0.4,9.3-2.9,12.5-7.4c2.4-3.3,3.4-6.5,3.4-6.6C93.9,32.7,93.4,31.9,92.6,31.6z"/>
	</g>
	<g id="グループ_298_00000123405885250819345730000010038240711811470521_">
		<path id="パス_1975_00000044156131197511557680000001019503619085118117_" class="st0" d="M67.6,101.8c-0.7,0.2-1.3,0.6-1.8,1.2
			c-0.8,1.2-3.4,1.8-5.8,1.8s-4.5-0.1-6.4-1.2c-2-1.1-2.7-2.5-4.5-2.9c-1.8-0.4-6.8,0-6.6-2.3c0.3-3.9,7.4-4.2,10.8-4.2
			c1.2,0,2.5-0.4,3.5-1.1c1.4-0.9,3-1.4,4.7-1.4c2.8,0,5.2,1.7,5.2,3.7c0,0.1,4,0.9,4,2.9C70.6,99.8,69.2,101.4,67.6,101.8"/>
	</g>
	<path class="st0" d="M120.8,0L120.8,0c-6.2,1.8-30.2,0.5-22.3,13.1c0.7,0.7,1.6,1.8,2.6,3.1c2.4-1.8,9.4-8.7,10.2-7
		c8.8,10.2,5.1,6.6-4.1,15.1c4.6,5.4,9.8,9,13.7,1.5C122.5,19.6,135.7-0.5,120.8,0z"/>
	<path class="st0" d="M65.3,26.1l1.1-2.3c0.3-0.6,0.2-1.3-1.8-2.3l-3.4-1.6c-0.6-0.3-1.1-0.2-1.5,0.7l-1,2.1
		c-0.1,0.1-0.1,0.2-0.1,0.4c-1.5,0.1-3.2,0.7-4.9,1.9c-2.4,2.1-3.2,5.4-2.2,8.4c-3.3,1.3-8,2.5-9.5,7.1
		c-6.4,21.9,29.7,18.3,19.2-1.9l0,0c5.8-2.8,6.3-8.5,3.9-12.2C65.2,26.4,65.3,26.2,65.3,26.1z M55.5,30c-1.8-0.9-0.5-3.3,1.3-2.7
		C58.6,28.1,57.3,30.9,55.5,30z M60,31.9c-1.6-0.4-0.4-3.6,1.3-2.7C63.1,30,61.9,32.4,60,31.9z"/>
	<path class="st0" d="M86.2,13.8c4.5-1.5-5.9-7.6-9.4-7.8c-0.6-1.4-1.3-4.6-3.6-3.7c-1.7,1.1-4.4,0.6-5.8,1.5c-3,1.9,0.2,2-6.2,3.3
		l0,0c-2.7-0.9-4-8-5.9-6.7c-0.3,1.5-0.3,3-0.1,4.5c0.4,2.5-5.8,4.3-3.8,5.1c1.6,0.2,6.1-0.7,8.2,0.3l0,0l0,0c0.1,0.1,1.2,0.9,1.2,1
		c4.2,7.4,21.6,11.3,25.7,3.7l0,0C86.2,14.7,85.6,14.1,86.2,13.8z M69.1,10.6c-0.3,1.6-0.1,2.2-0.1,2.2s-2.4-0.6-2.1-2.6
		c0.4-2.8,3.3-1.6,3.3-1.6S69.5,9,69.1,10.6z M72.5,14.7c-0.3,1.6-0.1,2.2-0.1,2.2s-2.4-0.6-2.1-2.6c0.4-2.8,3.3-1.6,3.3-1.6
		S72.8,13,72.5,14.7z M74.1,9.2c-0.3,1.6-0.1,2.2-0.1,2.2s-2.4-0.6-2.1-2.6c0.4-2.8,3.3-1.6,3.3-1.6S74.5,7.6,74.1,9.2z M83,12.7
		c-0.1,0.9-0.9,1.5-1.8,1.4c-0.9-0.1-1.5-1-1.4-1.9c0.1-0.9,0.9-1.5,1.8-1.4C82.5,11,83.2,11.8,83,12.7z"/>
	<g>
		<path class="st0" d="M19,55l0.2,0.1l0.2-0.1c0.9-0.4,1.4-2.5,1.4-3.7c0-0.6-0.1-1.2-0.4-1.8L20,49.6l0.3-0.2
			c-0.3-0.5-0.7-0.8-1.2-0.8c-0.5,0-0.9,0.3-1.2,0.9c-0.3,0.6-0.4,1.2-0.4,1.8C17.6,52.5,18.1,54.5,19,55z"/>
		<path class="st0" d="M9.4,54.2c-0.2,0.4-0.2,1,0.1,1.5c0.4,0.5,0.8,0.9,1.4,1.2c0.8,0.4,2,0.9,3,0.9c0.4,0,0.7-0.1,1-0.2l0.2-0.1
			l0-0.2c0.1-1-1.4-2.5-2.5-3.1c-0.5-0.3-1.1-0.5-1.8-0.6l0,0.4l0-0.4C10.1,53.6,9.6,53.8,9.4,54.2z"/>
		<path class="st0" d="M23.3,57.3l0,0.2l0.2,0.1c0.2,0.2,0.6,0.2,1,0.2c1,0,2.2-0.4,3-0.9c0.5-0.3,1-0.7,1.4-1.2
			c0.3-0.5,0.4-1,0.1-1.5c-0.2-0.4-0.7-0.7-1.3-0.6l0,0.4l0-0.4c-0.6,0.1-1.2,0.2-1.8,0.6C24.8,54.8,23.2,56.3,23.3,57.3z"/>
		<path class="st0" d="M19.3,64.7l-0.2-0.1L19,64.7c-0.9,0.4-1.4,2.5-1.4,3.7c0,0.6,0.1,1.2,0.4,1.8c0.3,0.5,0.7,0.8,1.2,0.9
			c0,0,0,0,0,0c0.5,0,0.9-0.3,1.2-0.8L20,70.1l0.3,0.2c0.3-0.6,0.4-1.2,0.4-1.8C20.8,67.2,20.3,65.2,19.3,64.7z"/>
		<path class="st0" d="M15,62.4l0-0.2l-0.2-0.1c-0.8-0.6-2.9,0-3.9,0.6c-0.5,0.3-1,0.7-1.4,1.2c-0.3,0.5-0.4,1-0.1,1.5
			c0.2,0.4,0.7,0.6,1.2,0.6c0,0,0.1,0,0.1,0l0-0.4l0,0.4c0.6-0.1,1.2-0.2,1.8-0.6C13.6,64.9,15.1,63.5,15,62.4z"/>
		<path class="st0" d="M28.9,65.5c0.2-0.4,0.2-1-0.1-1.5c-0.4-0.5-0.8-0.9-1.4-1.2c-1.1-0.6-3.1-1.2-4-0.6l-0.2,0.1l0,0.2
			c-0.1,1,1.4,2.5,2.5,3.1c0.5,0.3,1.1,0.5,1.8,0.6l0-0.4l0,0.4c0,0,0.1,0,0.1,0C28.3,66.1,28.7,65.9,28.9,65.5z"/>
		<path class="st0" d="M19.2,57.4C19.2,57.4,19.2,57.4,19.2,57.4c-1.4,0-2.5,1.1-2.5,2.5c0,1.4,1.1,2.5,2.5,2.5c0,0,0,0,0,0
			c1.3,0,2.4-1,2.5-2.3l0,0l0-0.2C21.6,58.5,20.5,57.4,19.2,57.4z"/>
		<path class="st0" d="M2.5,56.5c0.5,0.1,1.2,0.2,1.8,0.2c0.9,0,1.8-0.2,2.2-0.6L6.6,56l0-0.2c-0.2-1-2-2-3.2-2.4
			c-0.6-0.2-1.2-0.2-1.8-0.1l0.1,0.4l-0.1-0.4c-0.6,0.1-1,0.5-1.1,0.9c-0.1,0.5,0.1,1,0.5,1.4C1.3,56.1,1.9,56.4,2.5,56.5z"/>
		<path class="st0" d="M15.5,41.1c-0.4-0.4-0.9-0.6-1.4-0.5c-0.5,0.1-0.8,0.5-0.9,1.1l0.3,0.1l-0.3-0.1c-0.1,0.6-0.1,1.2,0.1,1.8
			c0.3,1.2,1.3,3.1,2.3,3.3l0.2,0l0.1-0.1c0.8-0.7,0.7-2.8,0.4-4C16.2,42.1,15.9,41.5,15.5,41.1z"/>
		<path class="st0" d="M22.5,46.8l0.2,0c1-0.2,2-2,2.4-3.2c0.2-0.6,0.2-1.2,0.1-1.8c-0.1-0.6-0.5-1-0.9-1.1c-0.5-0.1-1,0.1-1.4,0.5
			l0.2,0.2l-0.2-0.2c-0.4,0.5-0.7,1-0.8,1.6c-0.3,1.2-0.4,3.3,0.4,4L22.5,46.8z"/>
		<path class="st0" d="M28.4,50.2l0.2,0.1c0.1,0,0.3,0.1,0.4,0.1c1,0,2.5-0.9,3.2-1.7c0.4-0.4,0.8-1,1-1.6c0.2-0.6,0.1-1.1-0.2-1.5
			c-0.3-0.4-0.9-0.4-1.5-0.3l0.1,0.3l-0.1-0.3c-0.6,0.2-1.1,0.6-1.6,1c-0.9,0.9-2,2.7-1.7,3.6L28.4,50.2z"/>
		<path class="st0" d="M31.7,55.9l0,0.2l0.1,0.1c0.4,0.5,1.3,0.6,2.2,0.6c0.6,0,1.3-0.1,1.8-0.2c0.6-0.2,1.2-0.4,1.6-0.8
			c0.4-0.4,0.6-0.9,0.5-1.4c-0.1-0.5-0.5-0.8-1.1-0.9l-0.1,0.3l0.1-0.3c-0.6-0.1-1.2-0.1-1.8,0.1C33.8,53.9,31.9,54.9,31.7,55.9z"/>
		<path class="st0" d="M15.7,72l-0.2,0c-1,0.2-2,2-2.4,3.2c-0.2,0.6-0.2,1.2-0.1,1.8c0.1,0.6,0.5,1,0.9,1.1c0.1,0,0.2,0,0.3,0
			c0.4,0,0.8-0.2,1.1-0.5l-0.3-0.2l0.3,0.2c0.4-0.5,0.7-1,0.8-1.6c0.3-1.2,0.4-3.3-0.4-4L15.7,72z"/>
		<path class="st0" d="M10,68.6l-0.2-0.1c-1-0.3-2.8,0.7-3.7,1.6c-0.4,0.4-0.8,1-1,1.6c-0.2,0.6-0.1,1.1,0.2,1.5
			c0.2,0.2,0.5,0.4,0.9,0.4c0.2,0,0.4,0,0.6-0.1L6.7,73l0,0l0,0l0.1,0.4c0.6-0.2,1.1-0.6,1.6-1c0.9-0.9,2-2.7,1.7-3.6L10,68.6z"/>
		<path class="st0" d="M6.6,62.9l0-0.2l-0.1-0.1c-0.7-0.8-2.8-0.7-4-0.4c-0.6,0.2-1.2,0.4-1.6,0.8c-0.4,0.4-0.6,0.9-0.5,1.4
			c0.1,0.5,0.5,0.8,1.1,0.9L1.6,65l-0.1,0.3c0.2,0,0.5,0.1,0.7,0.1c0.4,0,0.7,0,1.1-0.1C4.5,64.9,6.4,63.9,6.6,62.9z"/>
		<path class="st0" d="M32.2,70.3c-0.9-0.9-2.7-2-3.6-1.6l-0.2,0.1l-0.1,0.2c-0.3,1,0.7,2.8,1.6,3.7c0.4,0.4,1,0.8,1.5,1l0.1-0.4
			l0,0l0,0l-0.1,0.4c0.2,0.1,0.4,0.1,0.6,0.1c0.3,0,0.7-0.1,0.9-0.3c0.3-0.3,0.4-0.9,0.3-1.5C33,71.2,32.6,70.7,32.2,70.3z"/>
		<path class="st0" d="M37.5,63.2c-0.5-0.4-1-0.7-1.6-0.8c-1.2-0.3-3.3-0.4-4,0.4l-0.1,0.1l0,0.2c0.2,1,2,2,3.2,2.4
			c0.4,0.1,0.8,0.2,1.1,0.2c0.2,0,0.5,0,0.7-0.1l-0.1-0.4l0.1,0.4c0.6-0.1,1-0.5,1.1-0.9C38.1,64.1,37.9,63.5,37.5,63.2z"/>
		<path class="st0" d="M22.8,72.9l-0.2,0L22.5,73c-0.8,0.7-0.7,2.8-0.4,4c0.2,0.6,0.4,1.2,0.8,1.6l0.3-0.3l0,0l-0.3,0.3
			c0.3,0.4,0.7,0.6,1.1,0.6c0.1,0,0.2,0,0.3,0c0.5-0.1,0.8-0.5,0.9-1.1c0.1-0.6,0.1-1.2-0.1-1.8C24.8,75,23.8,73.1,22.8,72.9z"/>
		<path class="st0" d="M5.7,46.6l-0.3,0.1c0.2,0.6,0.6,1.1,1,1.5c0.8,0.8,2.2,1.6,3.2,1.6c0.2,0,0.3,0,0.4-0.1l0.2-0.1l0.1-0.2
			c0.3-1-0.8-2.8-1.7-3.6c-0.4-0.4-1-0.8-1.6-1c-0.6-0.2-1.1-0.1-1.4,0.3c-0.3,0.4-0.4,0.9-0.2,1.5L5.7,46.6z"/>
	</g>
	<g>
		<g>
			<path class="st0" d="M28.8,86l0.3,0c0-0.4-0.2-0.8-0.6-0.9c-0.3-0.2-0.7-0.1-1.1,0.2c-0.3,0.3-0.6,0.7-0.8,1.1
				c-0.3,0.7-0.6,2.3-0.1,2.9l0.1,0.1l0.1,0c0.8,0,1.7-1.4,2-2.1c0.2-0.4,0.3-0.9,0.3-1.3L28.8,86z"/>
			<path class="st0" d="M22.4,86.9c-0.3-0.4-0.6-0.7-1-0.9l-0.1,0.2l0.1-0.2c-0.4-0.2-0.8-0.2-1.1,0c-0.3,0.2-0.4,0.6-0.3,1.1
				c0.1,0.4,0.3,0.9,0.6,1.2c0.3,0.4,1.1,1.2,1.8,1.4c0.3,0.1,0.5,0.2,0.7,0.1l0.1,0l0.1-0.1C23.6,89,22.9,87.5,22.4,86.9z"/>
			<path class="st0" d="M28.8,92.4c0.1,0.2,0.3,0.3,0.6,0.4c0.7,0.3,1.7,0.3,2.3,0.3c0.5,0,0.9-0.2,1.3-0.4c0.4-0.2,0.6-0.6,0.5-1
				c0-0.4-0.3-0.7-0.7-0.8l-0.1,0.2l0.1-0.2c-0.4-0.1-0.9-0.2-1.3-0.1c-0.8,0.1-2.3,0.6-2.6,1.4l0,0.1L28.8,92.4z"/>
			<path class="st0" d="M24,95.9l-0.1-0.1l-0.1,0c-0.8,0-1.7,1.4-2,2.1c-0.2,0.4-0.3,0.9-0.3,1.3c0,0.4,0.2,0.8,0.6,0.9c0,0,0,0,0,0
				c0.3,0.1,0.7,0.1,1.1-0.2l-0.2-0.2l0.2,0.2c0.3-0.3,0.6-0.7,0.8-1.1C24.2,98.2,24.5,96.5,24,95.9z"/>
			<path class="st0" d="M21.7,92.9c-0.4-0.7-2.1-0.8-2.8-0.7c-0.5,0-0.9,0.2-1.3,0.4c-0.4,0.2-0.6,0.6-0.5,1c0,0.3,0.3,0.6,0.6,0.8
				c0,0,0.1,0,0.1,0l0.1-0.2l-0.1,0.2c0.4,0.1,0.9,0.2,1.3,0.1c0.8-0.1,2.3-0.6,2.6-1.4l0-0.1L21.7,92.9z"/>
			<path class="st0" d="M30,96.9c-0.5-0.6-1.7-1.7-2.5-1.6l-0.1,0l-0.1,0.1c-0.4,0.7,0.3,2.2,0.8,2.8c0.3,0.4,0.6,0.7,1,0.9l0.1-0.2
				l-0.1,0.2c0,0,0.1,0,0.1,0c0.4,0.2,0.7,0.1,1-0.1c0.3-0.2,0.4-0.6,0.3-1.1C30.4,97.7,30.2,97.3,30,96.9z"/>
		</g>
		<path id="パス_2318_00000117664531845087817950000010516039179660529318_" class="st0" d="M26.6,93.2c-0.3,0.8-1.2,1.1-2,0.8
			c-0.8-0.3-1.1-1.2-0.8-2c0.3-0.8,1.2-1.1,2-0.8l0,0C26.6,91.6,27,92.5,26.6,93.2L26.6,93.2L26.6,93.2L26.6,93.2z"/>
	</g>
	<g>
		<g>
			<path class="st0" d="M46.2,73.1c-0.1-0.3-0.3-0.5-0.6-0.6c-0.3-0.1-0.6-0.1-0.8,0c-0.3,0.1-0.6,0.4-0.7,0.6
				c-0.2,0.5-0.3,1-0.3,1.5c0,1,0.4,2.7,1.2,3.1l0.1,0.1l0.1-0.1c0.8-0.4,1.2-2.1,1.2-3.1C46.5,74.1,46.4,73.6,46.2,73.1L46.2,73.1z
				"/>
			<path class="st0" d="M39.4,77c-0.5-0.3-1-0.4-1.5-0.5l0,0.3l0,0l0,0h0l0-0.3c-0.5,0-0.9,0.2-1.1,0.5c-0.2,0.3-0.1,0.8,0.1,1.2
				c0.3,0.4,0.7,0.8,1.2,1c0.7,0.4,1.7,0.7,2.6,0.7c0.3,0,0.6-0.1,0.8-0.2l0.1-0.1l0-0.1C41.6,78.8,40.3,77.6,39.4,77z"/>
			<path class="st0" d="M48.9,79.8c0.2,0.1,0.5,0.2,0.8,0.2c0.8,0,1.9-0.4,2.6-0.7c0.5-0.2,0.9-0.6,1.2-1c0.3-0.4,0.3-0.8,0.1-1.2
				c-0.2-0.4-0.6-0.6-1.1-0.5l0,0.3l0,0l0-0.3c-0.5,0-1,0.2-1.5,0.5c-0.9,0.5-2.3,1.7-2.2,2.6l0,0.1L48.9,79.8z"/>
			<path class="st0" d="M45.3,85.8l-0.1-0.1L45,85.8c-0.8,0.4-1.2,2.1-1.2,3.1c0,0.5,0.1,1,0.3,1.5c0.1,0.3,0.4,0.6,0.7,0.7
				c0.1,0,0.2,0.1,0.4,0.1c0.5,0,0.9-0.3,1-0.7h0c0.2-0.5,0.3-1,0.3-1.5C46.5,87.9,46.1,86.2,45.3,85.8z"/>
			<path class="st0" d="M41.4,83.7c-0.7-0.5-2.5,0-3.4,0.5c-0.5,0.2-0.9,0.6-1.2,1c-0.3,0.4-0.3,0.8-0.1,1.2c0.2,0.3,0.6,0.5,1,0.5
				c0,0,0.1,0,0.1,0l0-0.3c0,0,0,0,0,0l0,0l0,0.3c0.5,0,1-0.2,1.5-0.5c0.9-0.5,2.3-1.7,2.2-2.6l0-0.1L41.4,83.7z"/>
			<path class="st0" d="M52.3,84.2c-0.9-0.5-2.7-1-3.4-0.5l-0.1,0.1l0,0.1C48.7,84.7,50,86,51,86.5c0.5,0.3,1,0.4,1.5,0.5l0-0.3l0,0
				l0,0.3c0,0,0.1,0,0.1,0c0.5,0,0.8-0.2,1-0.5c0.2-0.3,0.1-0.8-0.1-1.2C53.2,84.8,52.8,84.5,52.3,84.2z"/>
		</g>
		<path id="パス_2325_00000011714462905838983510000001850363678396529572_" class="st0" d="M46.9,81.7c0,1-0.7,1.8-1.7,1.8
			c-1,0-1.8-0.7-1.8-1.7s0.7-1.8,1.7-1.8c0,0,0,0,0.1,0h0C46.1,80,46.9,80.7,46.9,81.7L46.9,81.7L46.9,81.7z"/>
	</g>
	<path class="st0" d="M57.1,69.3l1-5.1c1-2.2,3.4-3.4,5.8-2.9L76.5,64l7.3-10.4c0.9-1.5,2.7-2.1,4.3-1.5l6,2.3
		c0.8,0.3,0.7,1.5-0.1,1.7l-4.5,0.1c-0.8,0.2-1.6,0.6-2.1,1.3L79,66.5L79,67.6c-0.1,0.8-1,1.3-1.6,0.8l-1.2-0.7l-10.7-1.6
		c-1.4-0.2-2.7,0.1-3.8,0.9l-2.9,3.1C58.1,70.8,57,70.2,57.1,69.3z"/>
	<path class="st0" d="M128.5,56c0.4-0.7,0-1.6-0.7-2c-0.3-0.1-0.5-0.3-0.6-0.6c-0.1-0.3-0.2-0.6-0.1-0.9c0.1-0.8-0.3-1.6-1.1-1.8
		c-1.7-0.3-2.8-1.1-4.5-0.3c-0.4,0.2-1.5,1.4-1.8,1.6c0-0.4,0-0.8-0.1-1.2c-0.3-1.9,0.5-3.3-2.4-4.8c-0.7-0.4-1.5-0.5-2.1,0.1
		c-0.2,0.2-0.5,0.4-0.8,0.4c-0.3,0-0.6,0-0.9-0.2c-0.7-0.4-1.4,0-2,0.5c-1.8,1.6-1.2,3.4-0.9,5.3c0.1,0.4,0.1,0.8,0.3,1.1
		c-0.4-0.1-0.8-0.1-1.1-0.3c-1.9-1.2-3.8-0.9-5.3-0.1c-0.7,0.4-0.9,2.2-0.5,2.9c0.1,0.3,0.2,0.6,0.2,0.9c-0.1,0.3-0.2,0.6-0.4,0.8
		c-0.6,0.6-0.7,1.3-0.4,2.1c0.9,2,3.1,2.2,5,2.5c0.4,0.1,0.7,0.1,1.1,0.1c-0.2,0.3-0.5,0.7-0.7,1.1c-0.9,1.7-1.9,3.4-0.9,5.4
		c0.4,0.7,0.9,1.3,1.7,1.2c0.3,0,0.6,0,0.9,0.1c0.3,0.1,0.5,0.4,0.6,0.6c0.4,0.7,1.1,1,1.9,0.7c3.2-0.9,3.7-2.1,3.9-3.8
		c0-0.5,0.4-0.9,0.6-1.4c0.3,0.4,0.6,0.8,1,1.2c1.4,1.4,1.4,1.9,3.2,2.2c0.8,0.1,3.2-0.2,3.3-1c0-0.3,0.2-0.6,0.4-0.8
		c0.2-0.2,0.5-0.3,0.8-0.4c0.8-0.1,1.4-0.8,1.3-1.6c-0.3-1.7,0.2-3-1.1-4.4c-0.3-0.3-1.9-1.1-2.3-1.4c0.3-0.1,0.6-0.4,1-0.4
		C127.3,59.4,127.7,57.6,128.5,56z M113.8,61.4c-1.9,0-2-2.7,0-2.9C115.7,58.2,115.7,61.4,113.8,61.4z M116.4,54.8
		c2.1-0.3,2.1,3.3,0,3.3C114.2,58.1,114.2,55,116.4,54.8z M118.4,61.4c-2,0-2-2.8,0-3C120.3,58.1,120.3,61.4,118.4,61.4z"/>
	<path class="st0" d="M83.1,73.6l3.9-3.9c1.6-1.2,3.6-1.1,4.7,0.5l5.5,7.1l8.9-3.8c1.2-0.8,2.6-0.4,3.2,0.8l2.4,5.1
		c0.3,0.7-0.3,1.6-0.9,1.3l-2.7-2.1c-0.6-0.3-1.2-0.3-1.8,0l-9.1,3.3l-0.6,0.8c-0.4,0.6-1.2,0.6-1.4-0.1l-0.3-1.1L89.5,75
		c-0.7-0.8-1.6-1.2-2.7-1.1l-3.2,1C82.9,75.2,82.6,74.2,83.1,73.6z"/>
	<g id="グループ_298_00000062888018877113060620000012650479794769789366_">
		<path id="パス_1975_00000093862879847325604730000015451093703538513839_" class="st0" d="M76,84c-0.5,0.1-0.9,0.5-1.2,0.9
			c-0.6,0.8-2.2,1.3-3.8,1.3s-3-0.1-4.2-0.9c-1.3-0.8-1.8-1.8-3-2.1s-4.5,0-4.4-1.7c0.2-2.9,4.9-3.1,7.1-3.1c0.8,0,1.6-0.3,2.3-0.8
			c0.9-0.7,2-1,3.1-1c1.9,0,3.4,1.2,3.4,2.7c0,0,2.7,0.7,2.6,2.2C77.9,82.5,77,83.7,76,84"/>
	</g>
</g>
<g>
	<path id="パス_2456_00000183947460170894392060000008399698993160868281_" class="st2" d="M200.1,20.6c2.3-0.1,5.6-0.3,6.5-0.2
		c0.1,1.1,0.2,7.7,0,8.6c-0.8,0.1-3.6,0.2-5.8,0.2c-4.9,0.1-5.1,0.1-5.3,0.3l0,0c-0.4,0.5-0.3,3.5,0.1,4c0.2,0.2,0.3,0.3,7.1,0.2
		c3.7-0.1,5.4-0.1,6.2-0.2c0.7-0.1,0.8-0.1,0.8-0.2l-0.3-0.3l0.3,0.3c0.2-0.2,0.3-0.2,0.5-4c0.1-2.1,0-6.9,0.1-8.9
		c0.1-3.5,0-3.6-0.1-3.8l0,0c-0.2-0.2-0.4-0.4-7.7-0.3c-7.4,0.1-7.6,0.3-7.7,0.4c-0.4,0.5-0.3,3.4,0.2,3.9
		C195.3,20.9,195.4,20.9,200.1,20.6"/>
	<path id="パス_2457_00000080190859188873240170000017030666746675835308_" class="st2" d="M197.7,80.5L197.7,80.5
		c1.4-0.1,2.3-0.1,2.9-0.2c0.9-0.1,1-0.2,1.1-0.3c0.3-0.4,0.4-1.1,0.5-1.4l0-0.1c0-0.3,0-0.9-0.5-1.4c-0.1-0.1-0.4-0.4-4.7-0.2
		c-3,0.1-3.2,0.2-3.3,0.4c-0.1,0.1-0.3,0.3-0.3,1.5c0,0.8,0.1,1.3,0.4,1.5C193.8,80.5,194,80.7,197.7,80.5"/>
	<path id="パス_2458_00000151505052662217763440000005990234400464432283_" class="st2" d="M200.5,85.6L200.5,85.6
		c1.4-0.2,1.5-0.3,1.6-0.4c0.2-0.2,0.3-0.7,0.3-1.3c0-0.5-0.1-1.1-0.4-1.4c-0.2-0.1-0.3-0.3-4-0.1c-3.7,0.2-3.9,0.4-4,0.5l0,0
		c-0.4,0.5-0.2,2.4,0.2,2.8l0,0c0.2,0.1,0.3,0.3,4,0C199.2,85.7,199.9,85.7,200.5,85.6"/>
	<path id="パス_2459_00000024691568134129185730000017516575909278898052_" class="st2" d="M209.9,80.8c-0.2,0-0.4,0-6.2,5.3
		c-5.7,5.2-5.8,5.5-5.8,5.7l0,0c0,0.7,2.1,2.4,2.6,2.7c0.1,0.1,0.3,0.1,0.5,0.1c0.1,0,0.2-0.1,0.3-0.1l0,0l11-10.8
		c0.1-0.1,0.2-0.4,0-0.8C212,82.3,210.5,80.8,209.9,80.8"/>
	<path id="パス_2460_00000146495955508870569440000014566631308820950195_" class="st2" d="M210.2,112.5c-0.3-0.3-1.1-0.3-2.4-0.3
		c-0.6,0-1.4,0-1.9,0c-0.1-1.3-0.2-2.5-0.2-3.8c2.5-0.1,2.6-0.4,2.7-0.5l0,0c0.3-0.2,0-2.4-0.2-2.8l0,0c-0.2-0.2-0.4-0.3-4.4-0.2
		c-4,0.1-4.2,0.2-4.4,0.4c-0.2,0.2-0.2,0.9-0.2,1.5c0,0.6,0.1,1,0.4,1.2c0.1,0.1,0.4,0.4,2.5,0.5c0,0.3,0.1,2.1,0.1,2.3
		c0,0.5,0,1,0,1.5c-0.5,0.1-1.6,0.1-2.1,0.1c-1.6,0-1.9,0.1-2.2,0.3c-0.5,0.5-0.3,2.2,0.2,2.6c0.2,0.2,0.3,0.3,5.8,0.3l0.3,0
		c4.2-0.1,5.6-0.1,5.9-0.3S210.4,112.7,210.2,112.5L210.2,112.5z"/>
	<path id="パス_2461_00000108283013553946377560000010388314872110245003_" class="st2" d="M153.9,35.6c0.2,0,0.3,0,0.4-0.1
		c0.2-0.1,0.9-1.1,2-6.2c0.8-3.2,1.6-10.5,1.8-12.1l0,0c0.1-0.5,0.1-0.7,0-0.8c-0.3-0.3-0.7-0.6-1.6-0.7c-0.5-0.1-1-0.1-1.5,0
		c-0.2,0-0.3,0.1-0.5,0.2c-0.2,0.1-0.9,5.9-1.8,10.7c-1,4.9-2.7,7.9-2.6,8.1c0.1,0.2,1.3,0.7,1.9,0.8
		C152.6,35.5,153.2,35.6,153.9,35.6"/>
	<path id="パス_2462_00000155118421717574152610000005605729454624367293_" class="st2" d="M170.2,28.4L170.2,28.4
		c-0.3-0.1-0.7,0.1-2,0.9c-0.6,0.4-1.7,1-2.2,1.2l-0.3,0.1l-0.1-0.3c-0.2-1-0.3-4-0.4-6.2c-0.2-4.2-0.3-7.6-0.6-7.8
		c-0.3-0.3-3.2-0.6-3.4,0.1c-0.2,0.5-0.4,4.3,0.5,17.3l0.1,0.8c0,0.4,0.8,0.8,1.4,1.3c0.5,0.4,0.7,0.4,0.9,0.4
		c0.1,0,0.4,0.1,3.9-1.7c3.7-2,4.1-2.4,4.1-2.6C172.2,31.2,170.9,28.6,170.2,28.4"/>
	<path id="パス_2463_00000010300158340682983960000018093734724977768355_" class="st2" d="M203.2,50.9c0-0.5,0-0.6-0.3-0.9
		c-0.1-0.2-0.3-0.9-4-1.1c-3.7-0.2-3.9,0-4,0.1l0,0c-0.4,0.4-0.5,2.7-0.1,3.2l0,0c0.1,0.1,0.3,0.3,4,0.5c1,0,1.8,0.1,2.3,0.1l0,0
		c1.4,0,1.6-0.1,1.7-0.2C203,52.4,203.1,51.6,203.2,50.9"/>
	<path id="パス_2464_00000143587483518987305270000007618709606233037965_" class="st2" d="M202.5,56.4c-6.3,4.6-6.3,4.8-6.4,5
		l0,0c-0.1,0.7,1.9,2.6,2.3,2.9c0.1,0.1,0.3,0.1,0.4,0.1c0.1,0,0.2,0,0.3-0.1l0,0c2-1.6,11.8-9.3,12-9.6l0,0
		c0.1-0.1,0.3-0.4,0.1-0.8c-0.2-0.5-1.5-2.2-2.2-2.2C209,51.8,208.8,51.8,202.5,56.4"/>
	<path id="パス_2465_00000054246920740387780920000008359241063351571126_" class="st2" d="M168.6,59.3L168.6,59.3
		c-0.1,0-0.2,0.1-0.3,0.1c-0.2,0.1-0.3,0.3-0.3,0.5c0.2,4.4,0.4,4.5,0.6,4.7l0,0c0.4,0.3,1.8,0.3,2.3,0.2c0.1,0,0.2,0,0.2-0.1
		c0.1,0,0.2-0.1,0.3-0.3c0.3-0.5-0.1-4.7-0.1-4.7C171.1,58.9,168.6,59.3,168.6,59.3"/>
	<path id="パス_2466_00000044167108040331097700000013443431523816382596_" class="st2" d="M165.9,65.1c0.3,0,0.6,0,0.9-0.1
		c0.1,0,0.2-0.1,0.3-0.2c0.1-0.1,0.2-0.3,0.1-2.4c0-0.8-0.1-2.1-0.2-2.4c-0.1-0.4-0.6-0.5-0.8-0.5c0,0-1.8-0.2-2.2,0.4
		c-0.1,0.2-0.2,0.4,0,4.4l0,0.2c0,0.2,0.1,0.5,0.6,0.6l0,0C165.1,65,165.5,65.1,165.9,65.1"/>
	<path id="パス_2467_00000119096021140791172220000003284318363197000846_" class="st2" d="M152.3,60.6c-0.1,0.1-0.4,0.3-0.5,1.4
		c-0.1,0.8,0,1.3,0.2,1.5c0.1,0.2,0.3,0.4,4,0.6v0c1.4,0.1,2.3,0.1,2.9,0.1c0.9,0,1-0.1,1.1-0.2c0.4-0.3,0.6-1.1,0.6-1.3l0-0.1
		c0-0.3,0.1-0.9-0.3-1.4c-0.1-0.1-0.3-0.4-4.6-0.7C152.6,60.3,152.4,60.4,152.3,60.6"/>
	<path id="パス_2468_00000132790236888761315390000003369982630302389414_" class="st2" d="M158.2,69.4L158.2,69.4
		c1.4,0,1.6-0.1,1.7-0.2c0.2-0.2,0.4-0.6,0.4-1.3c0-0.5,0-1.1-0.3-1.4c-0.1-0.2-0.3-0.4-4-0.5c-3.7-0.2-3.9,0-4,0.1l0,0
		c-0.4,0.4-0.5,2.4-0.1,2.8l0,0c0.1,0.1,0.3,0.3,4,0.4C156.9,69.4,157.6,69.4,158.2,69.4"/>
	<path id="パス_2469_00000103964850985686364470000002755485967595679135_" class="st2" d="M156.8,81.2L156.8,81.2
		c2-1.6,11.8-9.4,12-9.6l0,0c0.1-0.1,0.3-0.4,0.1-0.8c-0.2-0.5-1.5-2.2-2.2-2.2c-0.2,0-0.4,0-6.7,4.6c-6.3,4.6-6.3,4.8-6.4,5l0,0
		c-0.1,0.7,1.9,2.6,2.3,2.9c0.1,0.1,0.3,0.1,0.4,0.1C156.6,81.3,156.7,81.3,156.8,81.2"/>
	<path id="パス_2470_00000167392306763463797990000000378674510828552073_" class="st2" d="M169.1,112.3L169.1,112.3
		c-0.1,0-1.2-0.1-3.4-0.1c0-0.5,0-1.5,0-2.4c0-3.5-0.1-4.8-0.4-5c-0.1-0.1-0.2-0.1-0.3-0.1c-1.8,0-3.7,0.1-5.3,0.2
		c-2.5,0.1-2.6,0.2-2.7,0.3c-0.2,0.2-0.3,1-0.3,1.6c0,0.6,0,1.1,0.2,1.3c0.2,0.2,0.5,0.1,3.8,0.1c0.4,0,0.7,0,1,0
		c0.1,0.9,0.1,3.2,0.1,4c-0.6,0.1-1.8,0.2-2.5,0.2l-0.4,0c-1.6,0-1.9,0.1-2.2,0.3c-0.5,0.5-0.3,2.2,0.2,2.6c0.2,0.2,0.3,0.3,5.8,0.3
		l0.3,0c4.2-0.1,5.8-0.1,6.2-0.2C169.3,115.3,169.4,112.4,169.1,112.3"/>
	<path id="パス_2471_00000119808521155301158920000000648803990209173138_" class="st2" d="M237.6,75.3c0.4,0.2,1,0.3,1.3,0.2
		c0,0,0,0,0,0c0.3-0.2,1.4-0.9,3.3-2.5c2.2-1.8,2.4-2.1,2.4-2.3c0-0.4-0.5-1-0.5-1s-0.1-0.1-0.2-0.2v0c-0.2-0.3-0.7-0.9-1.1-0.9
		c-0.3,0-1,0.6-1.9,1.2c-0.2,0.2-0.5,0.3-0.7,0.5c-0.1,0.1-0.3,0.1-0.3-0.1c0,0,0-0.1,0-0.1c-0.4-2.3-1.3-8.3-1.4-8.9
		c0-0.1,0-0.1,0-0.2c-0.1-0.3-0.2-0.5-0.4-0.7c-0.2-0.1-0.3-0.2-0.5-0.2c-0.1,0-0.2,0-0.2,0c-1.6,0.3-2.5,0.7-2.7,0.9
		c-0.1,0.3-0.1,0.8,0,1.6c0,0.2,0,0.3,0,0.4c0.1,0.7,2,11,2.1,11.5C237,74.9,237.4,75.2,237.6,75.3"/>
	<path id="パス_2472_00000039847107913947244170000012706590710568279710_" class="st2" d="M252.4,63.4c-0.4-1.8-0.8-3.6-1-3.8
		c-0.1-0.1-1.1,0-1.8,0.2l0,0c-0.7,0.2-1.7,0.4-1.8,0.6c-0.1,0.2-0.1,0.6,0.6,3.9c0.7,3.1,1.1,4.8,1.3,4.9c0.1,0.1,0.2,0.1,0.3,0.1
		h0c0.7,0,2.5-0.3,2.8-0.5c0.2-0.1,0.6-0.3,0.5-0.6c0,0,0,0,0,0C253.2,68,252.9,65.6,252.4,63.4"/>
	<path id="パス_2473_00000183928740824463897680000005753963342183364250_" class="st2" d="M255,110.8c-0.1-2.9-0.2-4.4-0.4-4.6
		l0,0c-0.2-0.2-0.8-0.3-1.2-0.2c-0.7,0-1.8,0.2-2,0.4c-0.2,0.2-0.3,2.2-0.2,6.1c0,0.1-0.1,0.2-0.2,0.2h0l-3.7,0.1
		c-0.1,0-0.2-0.1-0.2-0.2l-0.3-7.9c0-0.1,0.1-0.2,0.2-0.2h0c4.6-0.3,6.9-0.6,7.1-0.8l0,0c0.1-0.1,0.3-0.3,0.3-3.7
		c0-2.3-0.1-3.6-0.3-3.7c-0.1-0.1-0.3-0.2-0.7-0.2c-0.6,0-2.3,0-2.6,0.3c-0.1,0.1-0.1,0.5,0.1,4.5c0,0.1-0.1,0.2-0.2,0.2
		c-0.8,0.1-2.5,0.1-4,0.1c-0.1,0-0.2-0.1-0.2-0.2c-0.4-6.7-0.6-7.6-0.8-7.8c-0.4-0.3-2.2-0.3-2.5,0.1c-0.2,0.2-0.3,2.7-0.2,7.6
		c0,0.1-0.1,0.2-0.2,0.2l-4,0.4h0c-0.1,0-0.2-0.1-0.3-0.2c0,0,0,0,0,0c0,0,0,0,0,0l-0.2-4.4l-0.1-0.1c-0.2-0.2-0.9-0.3-1.8-0.2
		l-0.1,0c-0.8,0.1-1,0.2-1,0.3c-0.2,0.2-0.2,1.5-0.1,4c0.1,3.3,0.3,3.9,0.4,4c0.2,0.2,2.6,0.2,7.2-0.1c0.1,0,0.2,0.1,0.2,0.2
		c0,0,0,0,0,0l0.1,7.8c0,0.1-0.1,0.2-0.2,0.2l-3.6,0.1c-0.1,0-0.2-0.1-0.2-0.2c-0.3-3.7-0.5-5.6-0.8-5.9l0,0
		c-0.3-0.3-0.9-0.3-1.3-0.2l-0.2,0c-0.1,0-0.2,0-0.3,0c-0.3,0-0.7,0.1-0.9,0.4c-0.2,0.2-0.3,1.8-0.3,4.6c0,3.9,0.2,4.5,0.3,4.6
		c0.2,0.2,1.6,0.2,9.7-0.1c3.9-0.1,8.7-0.3,9.1-0.4c0.4,0,0.5-0.1,0.5-0.2C255,115.4,255.1,113.5,255,110.8"/>
	<path id="パス_2474_00000034793206224498434750000005830080470951681203_" class="st2" d="M236.7,38.1c0.1,0,0.1,0,0.2-0.1
		c0.4-0.4,2.3-5.4,2.5-5.8c0.1-0.2-0.2-0.4-0.3-0.6l0,0c-0.5-0.3-1.8-1-2.4-1c-0.1,0-0.1,0-0.2,0c-0.1,0.1-0.3,0.2-1.5,2.8
		c-0.6,1.3-1.2,2.7-1.3,3c-0.1,0.2,0.1,0.4,0.4,0.6c0.5,0.3,1,0.6,1.5,0.7C236.1,38,236.5,38.1,236.7,38.1"/>
	<path id="パス_2475_00000036229453647623853350000016812504568926630074_" class="st2" d="M234.4,28.9c0.2,0.1,0.5,0.2,0.8,0.2
		c0.6,0,1.1-0.4,1.4-0.9c0.1-0.2,0.5-0.9,0.8-1.5c0.1-0.1,0.2-0.1,0.3-0.1c0.1,0,0.1,0.1,0.1,0.2c0,2.7,0.2,2.9,0.3,2.9
		c0.4,0.3,1.4,0.4,1.5,0.4c0.3,0,0.5-0.1,0.7-0.1h0c0.2-0.1,0.6-0.6,0.6-4.3c0-0.1,0.1-0.2,0.2-0.2c0,0,0.1,0,0.1,0
		c0.6,0.4,0.9,0.5,1,0.5h0.1c0.4,0,0.9,0,1.3-0.4c0.3-0.3,0.4-0.7,0.3-1.3c0-0.2-0.3-0.5-1-1.3c-0.2-0.2-0.6-0.6-0.8-0.9
		c-0.1-0.1-0.1-0.2,0-0.3c0,0,0.1-0.1,0.1-0.1h0c0.8,0,1-0.2,1.1-0.3c0.4-0.4,0.7-0.8,0.7-1.2c0-0.5-0.2-1-0.5-1.3l0,0
		c-0.3-0.3-0.7-0.2-1.1-0.2c-0.1,0-0.2,0-0.3,0c-0.4,0-0.9,0-1.2,0c-0.1,0-0.2-0.1-0.2-0.2c-0.1-1.3-0.4-1.6-0.4-1.7
		c-0.3-0.3-0.7-0.5-1.1-0.4c-0.1,0-0.1,0-0.2,0c-0.4,0-0.8,0-1.1,0.3c-0.3,0.3-0.3,0.8-0.3,1.2l0,0.1c0,0.2,0,0.4,0,0.6
		c0,0.1-0.1,0.2-0.2,0.2c-0.4,0-0.8,0.1-1,0.1c-1.5,0-1.8,0.2-2,0.4c-0.3,0.3-0.5,0.7-0.6,1.2l0,0l0,0c0,0.5,0.2,0.9,0.6,1.2
		c0.2,0.2,0.8,0.3,1.8,0.2c0.1,0,0.2,0.1,0.2,0.2c0,0,0,0.1,0,0.1c-0.5,0.9-1.6,2.7-2.1,3.5c-0.4,0.5-0.6,0.8-0.6,1
		c-0.2,0.4-0.3,0.9-0.1,1.4C233.6,28.3,234,28.6,234.4,28.9"/>
	<path id="パス_2476_00000035528314428033016960000002626463643379258502_" class="st2" d="M242.3,36.2c-0.2-0.1-0.3-0.5-0.3-1.3
		c0.1-0.8,0.3-1.6,0.5-2.5c0.3-1,0.3-1.2,0.2-1.4l0,0l0,0c-0.2-0.4-2.6-0.9-2.9-0.6c-0.3,0.4-0.4,1.3-0.7,2.8
		c-0.3,1.4-0.5,2.8-0.5,3.1c-0.1,0.9,0.2,1.7,0.8,2.4c0.5,0.5,1.3,0.8,2.2,0.8c0.1,0,12.8-0.2,13.1-0.4s0.2-1.4,0.1-2
		c0-0.4,0-1.6-0.6-1.5C253.6,35.5,243.3,36.5,242.3,36.2"/>
	<path id="パス_2477_00000003786057634747673380000008213761716562221955_" class="st2" d="M246.2,29.5c0,0,6.9-0.1,7-0.1
		c0.6,0,1.1-0.6,1.1-1.2c-0.1-2.3-0.4-8.4-0.5-10.9c0-0.5-0.5-0.9-1-0.9c-1.7,0-5.7,0.1-7.2,0.2c-0.4,0-0.8,0.4-0.8,0.8
		c0.1,2.5,0.2,8.7,0.4,11C245.3,29,245.7,29.4,246.2,29.5 M251.3,26.1l0,0.4c0,0.1-0.1,0.2-0.2,0.2l0,0l-2.8,0.1
		c-0.1,0-0.2-0.1-0.2-0.2v0l0-0.4c0-0.1,0.1-0.2,0.2-0.2l2.8-0.1C251.1,25.8,251.3,25.9,251.3,26.1 M251.1,22.7L251.1,22.7l0,0.4
		c0,0.1-0.1,0.2-0.2,0.2h0l-2.7,0.2c-0.1,0-0.2-0.1-0.2-0.2v0l0-0.5c0-0.1,0.1-0.2,0.2-0.2l2.7-0.1C251,22.5,251.1,22.6,251.1,22.7
		C251.1,22.7,251.1,22.7,251.1,22.7 M248,19.1l2.6-0.1c0.1,0,0.2,0.1,0.2,0.2l0,0.7c0,0.1-0.1,0.2-0.2,0.2h0l-2.6,0.1
		c-0.1,0-0.2-0.1-0.2-0.2v0l0-0.7C247.8,19.2,247.9,19.1,248,19.1"/>
	<path id="パス_2478_00000054946172686779437370000016345585391729862573_" class="st2" d="M253.2,29.4"/>
	<path id="パス_2479_00000096754916779045105890000016472410566124946856_" class="st2" d="M246.3,35.3c0.3,0,0.5-0.1,0.8-0.2
		c1-0.4,1.7-0.9,1.7-1.2l0,0c0-0.5-1-2.5-1.3-2.9c-0.1-0.1-0.3-0.1-0.4-0.1c-0.3,0-0.7,0.1-1,0.3c-1.6,0.6-1.7,1.1-1.7,1.2
		c0,0.4,1.1,2.4,1.5,2.8C246,35.3,246.2,35.4,246.3,35.3"/>
	<path id="パス_2480_00000029766719971550868120000014732010770626136704_" class="st2" d="M251,35c0.3,0,0.5-0.1,0.8-0.2
		c1-0.4,1.7-0.9,1.7-1.2l0,0c0-0.5-1-2.5-1.3-2.9c-0.1-0.1-0.3-0.1-0.4-0.1c-0.3,0-0.7,0.1-1,0.3c-1.6,0.6-1.7,1.1-1.7,1.2
		c0,0.4,1.1,2.4,1.5,2.8C250.6,35,250.8,35,251,35"/>
</g>
</svg>
