<svg xmlns="http://www.w3.org/2000/svg" viewBox="0 0 516.8 108.5"><defs><style>.cls-1{fill:#92ccb3;}</style></defs><g id="レイヤー_2" data-name="レイヤー 2"><g id="レイヤー_1-2" data-name="レイヤー 1"><path class="cls-1" d="M193.86,7H196a4.94,4.94,0,0,1,3.23.84,3.64,3.64,0,0,1,1.3,2,4.7,4.7,0,0,1-.11,2.51,3.29,3.29,0,0,1-1.37,2,3.25,3.25,0,0,1-1.89.57h-1.32c-1,.15-1.43-.6-1.27-2.31.31,1,.75,1.47,1.3,1.41h1.36a2,2,0,0,0,1.32-.62,2.77,2.77,0,0,0,.77-1.45,4.52,4.52,0,0,0,0-1.8,2.91,2.91,0,0,0-.88-1.65A3.34,3.34,0,0,0,196,7.84h-1.52V22.16c-.48,1.3-.9,1.3-1.25,0V7.67C193.18,7.25,193.42,7,193.86,7Z"/><path class="cls-1" d="M203.24,22V7.8c0-.42.36-.62,1.08-.59h5.76c.9.26.9.5,0,.77H204.5v6h4.55c.9.24.9.51,0,.77H204.5v7H210c.91.26.91.5,0,.77h-5.67C203.62,22.64,203.27,22.44,203.24,22Z"/><path class="cls-1" d="M215.47,7.67l5,12.6V7.65c.38-.68.79-.68,1.26,0V22.4c-.25,1.06-.66,1.06-1.24,0l-5-12.55V22.31c-.48,1.28-.9,1.28-1.25,0V7.56C214.59,6.85,215,6.88,215.47,7.67Z"/><path class="cls-1" d="M230.33,15.45h2.55l0,0a.65.65,0,0,1,.62.51v6.86q-.63,2.14-1.26,0V20a2.4,2.4,0,0,1-2.46,2.66,4.49,4.49,0,0,1-4-1.62c-1-1.21-1.47-3.35-1.41-6.36s.55-5,1.5-6.05a4.26,4.26,0,0,1,2.88-1.54,4.59,4.59,0,0,1,3,1.17c1.36,1.94,1.19,2.22-.55.86a4.09,4.09,0,0,0-2.42-.86,2.85,2.85,0,0,0-2.06,1.36q-1,1.32-1,5.21c-.06,2.6.31,4.38,1.1,5.39A3.46,3.46,0,0,0,230,21.52c1.29-.13,2-1.89,2.26-5.3h-1.91C229.16,16,229.16,15.74,230.33,15.45Z"/><path class="cls-1" d="M242.37,21.85a3.54,3.54,0,0,1-2.86,1.1,3,3,0,0,1-2.41-1.56,10.39,10.39,0,0,1-1-4.44V8.46c.31-1.32.71-1.32,1.21,0V17a8.45,8.45,0,0,0,.88,3.72,2.19,2.19,0,0,0,1.43,1.07,2.51,2.51,0,0,0,1.78-.57c.64-.44,1-2.22,1.13-5.3V8.31c.28-1.15.65-1.15,1.12,0v7.6Q243.63,20.6,242.37,21.85Z"/><path class="cls-1" d="M249.36,7.27h1.19a.47.47,0,0,1,.72,0h0a2.86,2.86,0,0,0,1.74-.5c.55-.38.57-.27.11.3a2.62,2.62,0,0,1-1.63,1V22.38a.18.18,0,0,1-.07.15h.09a2.84,2.84,0,0,1,1.89.93c.51.52.46.63-.11.3a3.53,3.53,0,0,0-1.78-.44H251c-.11.07-.17.07-.26,0h-1.12c-1.17-.37-1.17-.63,0-.79h.7a.33.33,0,0,1,0-.15V8.06h-.9C248.22,7.91,248.2,7.65,249.36,7.27Z"/><path class="cls-1" d="M259.43,7.67l5,12.6V7.65c.37-.68.79-.68,1.25,0V22.4c-.24,1.06-.66,1.06-1.23,0l-5-12.55V22.31c-.48,1.28-.9,1.28-1.25,0V7.56C258.55,6.85,259,6.88,259.43,7.67Z"/><path class="cls-1" d="M270.47,20.51a2.47,2.47,0,0,0,1.58,1.38,4.32,4.32,0,0,0,1.78.09,2.46,2.46,0,0,0,1.54-1.27,2.14,2.14,0,0,0-.11-2.38A10.09,10.09,0,0,0,273,15.91c-.94-.74-1.8-1.43-2.57-2.06s-1.05-1.7-.83-3.21a3.53,3.53,0,0,1,1.87-3,3.21,3.21,0,0,1,2.85-.15,3.73,3.73,0,0,1,1.94,2.27q.63,1.68-.88,4.46a7.4,7.4,0,0,0,0-3.94A3.31,3.31,0,0,0,274,8.57a2,2,0,0,0-1.93,0,2.62,2.62,0,0,0-1.3,2.14,2.47,2.47,0,0,0,.46,2.24,18.05,18.05,0,0,0,1.67,1.34,15.29,15.29,0,0,1,1.89,1.6,10.32,10.32,0,0,1,1.7,2.31,3,3,0,0,1,0,3A3.16,3.16,0,0,1,274.33,23a5.57,5.57,0,0,1-2.63,0A3.22,3.22,0,0,1,269.63,21c-.48-1.12-.13-2.53,1.08-4.17C270.14,18.51,270.05,19.74,270.47,20.51Z"/><path class="cls-1" d="M292.6,7.21v8.44a8,8,0,0,0,1.56-1.83A28,28,0,0,0,296.4,8c.73-1.27,1.19-1.21,1.43.2-.92,3.21-1.8,5.32-2.63,6.29l4.13,7c.33,1.71-.07,1.84-1.17.41l-3.8-6.72a3.89,3.89,0,0,1-1.76,1.16V22c-.5,1.37-.9,1.37-1.25,0V7.21C291.72,6.52,292.14,6.52,292.6,7.21Z"/><path class="cls-1" d="M301.59,21.87l3.59-14.95c.19-.33.39-.5.61-.5s.44.17.64.5l3.74,15c-.11,1.39-.51,1.45-1.21.2l-1.1-4.47h-4l-1.08,4.42C302.1,23.24,301.68,23.17,301.59,21.87Zm2.44-5h3.63l-1.87-7.49Z"/><path class="cls-1" d="M314.23,7.25h2a4,4,0,0,1,2.81.84,3.77,3.77,0,0,1,1.28,2.06,5.41,5.41,0,0,1-.11,2.55,3.49,3.49,0,0,1-1.34,2,2.83,2.83,0,0,1-1.63.62,7.94,7.94,0,0,0,.33,3,3.93,3.93,0,0,0,1.63,2.29,21.68,21.68,0,0,1,3,2.44,24,24,0,0,1-3.87-2,4.44,4.44,0,0,1-1.82-2.42A14.38,14.38,0,0,1,316,15.3c-.88.15-1.25-.64-1.12-2.35.33,1,.75,1.47,1.29,1.4h1.32c.25,0,.55-.22,1-.61a2.77,2.77,0,0,0,.79-1.45,5.11,5.11,0,0,0,0-1.83,3.06,3.06,0,0,0-.86-1.67,2.63,2.63,0,0,0-2-.7h-1.52V22.14c-.46,1.32-.86,1.32-1.19,0V7.87C313.57,7.45,313.79,7.25,314.23,7.25Z"/><path class="cls-1" d="M324.06,7.6h5.45a5.16,5.16,0,0,0,3-.66c.79-.46.79-.35,0,.33a5,5,0,0,1-3,1.15h-.95v13.3c-.48,1.43-.9,1.43-1.23,0V8.42h-3.25C322.8,8.42,322.8,8.13,324.06,7.6Z"/><path class="cls-1" d="M335.14,22V7.8c0-.42.35-.62,1.07-.59H342c.91.26.91.5,0,.77h-5.58v6h4.55c.9.24.9.51,0,.77h-4.55v7h5.5c.9.26.9.5,0,.77h-5.68C335.51,22.64,335.16,22.44,335.14,22Z"/><path class="cls-1" d="M89.12,75.24l19.06-20c11.82-14.83,23-16.28,33.77-4.1l19.29,24c2.9,4,6.28,6.52,10,7.36s5.91-.12,6.4-3.26-.24-4.94-2.42-5.66-4.58,0-7.47,2.17-2.9,1.32-.24-2.54,5.91-4.7,9.89-2.53,5.18,5.55,3.49,10.37-4.94,6.88-9.89,6-9.52-3.61-14.11-8.44L137.24,54.14c-7.23-8.68-15.43-7.24-24.36,4.34L94,78.86C85.75,84.65,84.06,83.45,89.12,75.24Zm71.64-44.38A7.55,7.55,0,0,1,167,28.09a7.67,7.67,0,0,1,5.91,2.77,9.5,9.5,0,0,1,2.54,6.64,13.92,13.92,0,0,1-2.78,6.39,7.27,7.27,0,0,1-5.67,3,7.72,7.72,0,0,1-6.27-3,11.34,11.34,0,0,1-2-6.52A10.79,10.79,0,0,1,160.76,30.86Zm2.78,10.25A4.53,4.53,0,0,0,167,42.68a3.07,3.07,0,0,0,2.66-1.81,6.61,6.61,0,0,0,1.32-3.5,5.15,5.15,0,0,0-1.2-3.49A3.09,3.09,0,0,0,167,32.31a4.17,4.17,0,0,0-3.49,1.57,3.77,3.77,0,0,0-1.09,3.49A4,4,0,0,0,163.54,41.11Z"/><path class="cls-1" d="M189.43,47.14c-2.11-3.07-1.23-4.3,2.67-3.62,4.64,2.12,8.94,6.49,12.76,13.11A70.57,70.57,0,0,0,189.43,47.14Zm33.51,6.21c-.06-3.21,1.51-4.91,4.71-5.12s5,1.5,5.53,5.05-.34,7.58-2.66,12.29-6.35,8.8-12.08,12.21-15,6.28-27.85,8.67c-2-1.5-2.18-2.93-.41-4.44,11.95-2,20.55-4.5,25.87-7.3s9.21-6.48,11.67-10.92,3.48-7.78,2.94-10-1.64-3.34-3.42-3.21a2.33,2.33,0,0,0-2.45,2.8c.06,1.64,2,2.53,5.8,2.53C225.54,57.38,223,56.49,222.94,53.35Z"/><path class="cls-1" d="M190.5,86.84l-.12-.09a3.61,3.61,0,0,1-1.8-2.6A3.11,3.11,0,0,1,190,81.73l.07-.06.1,0c11.76-2,20.42-4.46,25.76-7.26A27.71,27.71,0,0,0,227.4,63.61a22.38,22.38,0,0,0,2.94-7.28c-3.08.87-5.2.84-6.47-.09a3.41,3.41,0,0,1-1.29-2.88h0c-.08-3.43,1.62-5.28,5-5.5s5.35,1.66,5.91,5.37c.56,3.54-.35,7.74-2.69,12.5s-6.47,9-12.22,12.37-14.92,6.28-28,8.71Zm-.15-4.48a2.37,2.37,0,0,0-1,1.76,2.86,2.86,0,0,0,1.36,1.94c12.71-2.37,22-5.27,27.57-8.59s9.65-7.41,11.94-12.07A23.69,23.69,0,0,0,233,55.55l-1.87.56A22.06,22.06,0,0,1,228,64,28.52,28.52,0,0,1,216.22,75C210.83,77.87,202.13,80.34,190.35,82.36Zm33-29a2.72,2.72,0,0,0,1,2.3c.79.58,2.07.73,3.81.44-2.91-.43-3.65-1.65-3.69-2.71a2.91,2.91,0,0,1,.59-2.23,3,3,0,0,1,2.21-1c2-.15,3.21,1,3.79,3.49a6.26,6.26,0,0,1,.15,1.83H233a12.75,12.75,0,0,0-.15-2.17c-.51-3.32-2.19-4.87-5.15-4.74s-4.42,1.74-4.36,4.74Zm4.24-2.43h-.28a2.34,2.34,0,0,0-1.7.7,2.23,2.23,0,0,0-.42,1.7c.08,1.85,3.27,2.17,5.28,2.19a5.83,5.83,0,0,0-.13-1.66C229.82,51.83,229,50.91,227.55,50.91Zm-21.43,7.16-1.49-1.15a70.19,70.19,0,0,0-15.34-9.44l-.1,0-.06-.09c-1.13-1.65-1.45-2.82-1-3.58s1.81-1,4-.61l.09,0c4.75,2.16,9.1,6.62,12.93,13.25ZM189.68,46.84a68.09,68.09,0,0,1,13.87,8.32c-3.49-5.57-7.37-9.36-11.56-11.28-2.36-.41-3,0-3.2.29S188.52,45.13,189.68,46.84Z"/><path class="cls-1" d="M301.33,61.76c-1.75-2.54-1-3.56,2.21-3,3.85,1.76,7.42,5.38,10.59,10.87A59.09,59.09,0,0,0,301.33,61.76Zm27.8,5.16c-.06-2.67,1.24-4.08,3.9-4.25s4.14,1.25,4.59,4.19-.28,6.28-2.21,10.19-5.26,7.3-10,10.13-12.45,5.21-23.1,7.19c-1.69-1.24-1.81-2.43-.34-3.68,9.91-1.7,17-3.73,21.46-6.06a23.1,23.1,0,0,0,9.68-9c2.09-3.63,2.89-6.46,2.43-8.32s-1.35-2.78-2.83-2.67a1.94,1.94,0,0,0-2,2.33c0,1.35,1.69,2.09,4.81,2.09C331.28,70.26,329.18,69.52,329.13,66.92Z"/><path class="cls-1" d="M302.24,94.63l-.09-.06a2.92,2.92,0,0,1-1.46-2.11,2.52,2.52,0,0,1,1.11-2l.05,0h.06c9.76-1.67,16.95-3.7,21.39-6a23.11,23.11,0,0,0,9.57-9,18.17,18.17,0,0,0,2.46-6.15c-2.58.73-4.35.72-5.4,0a2.78,2.78,0,0,1-1.05-2.34h0c-.06-2.8,1.33-4.32,4.14-4.49s4.37,1.35,4.84,4.39-.29,6.4-2.23,10.34-5.35,7.4-10.11,10.23-12.36,5.21-23.18,7.22Zm-.18-3.71a2,2,0,0,0-.88,1.52,2.41,2.41,0,0,0,1.17,1.67c10.56-2,18.27-4.37,22.92-7.14s8-6.16,9.92-10,2.63-7.22,2.19-10-1.84-4.09-4.34-4-3.72,1.46-3.67,4a2.31,2.31,0,0,0,.85,2c.72.52,1.92.63,3.59.3-2.7-.3-3.36-1.34-3.4-2.24a2.43,2.43,0,0,1,.47-1.81,2.51,2.51,0,0,1,1.79-.77c1.6-.12,2.61.81,3.09,2.85a5.21,5.21,0,0,1,.12,1.56h1.27l-1.31.39a17.87,17.87,0,0,1-2.54,6.55,23.57,23.57,0,0,1-9.77,9.15C319.05,87.2,311.83,89.24,302.06,90.92ZM333,64.83h-.24a2,2,0,0,0-1.45.6,1.92,1.92,0,0,0-.36,1.46c.05,1.19,1.64,1.85,4.49,1.86a5.17,5.17,0,0,0-.1-1.45C334.88,65.61,334.16,64.83,333,64.83ZM315,70.6l-1-.77A58.36,58.36,0,0,0,301.24,62l-.07,0,0-.06c-.93-1.34-1.19-2.29-.8-2.9s1.48-.79,3.25-.48l.06,0c3.93,1.79,7.53,5.48,10.7,11Zm-13.48-9a56.19,56.19,0,0,1,11.77,7.09c-2.94-4.78-6.23-8-9.79-9.66-1.9-.33-2.53,0-2.72.27S300.55,60.18,301.49,61.57Z"/><path class="cls-1" d="M387.81,86.28c-7.87-2.94-8.64-3.55-2.25-1.64s9.85.69,10.46-3.37l1.38-35.53L376.14,46a90.87,90.87,0,0,1-4.84,24.2c-2.77,8.13-6.74,13.23-11.75,15.39s-9.43,1.47-12.88-1.82-3.2-6.31.86-8.9S355.74,74.35,360,81c-4.58-3.72-7.87-4.93-9.86-3.81s-2,2.68.09,4.58,4.75,2,8,0,6.14-6.48,8.65-13.65a75.94,75.94,0,0,0,4.06-22l-19.62.43c-5-.52-5.1-1.47-.09-3l19.45-.44V31.14c1.81-4.84,3.72-4.76,5.44.43V43l23-.52c2.34,0,3.38.95,3.12,2.94l-1.3,36.12C400,87.57,395.67,89.22,387.81,86.28Z"/><path class="cls-1" d="M394.32,87.82a19.2,19.2,0,0,1-6.55-1.43c-6.73-2.51-6.67-2.69-6.61-2.86s.1-.3,4.44,1c3.85,1.11,6.67,1.11,8.38,0a4.47,4.47,0,0,0,1.92-3.28l1.38-35.38-21,.25a92.12,92.12,0,0,1-4.84,24.12c-2.75,8.06-6.72,13.26-11.83,15.46s-9.52,1.47-13-1.84c-1.77-1.69-2.6-3.31-2.46-4.82s1.27-3,3.35-4.27a6.11,6.11,0,0,1,4.72-1c2.48.55,5,2.79,7.58,6.65,2.55-2.29,4.83-6.37,6.92-12.36a76,76,0,0,0,4.05-21.88l-19.49.43c-3.41-.35-3.89-.83-3.93-1.21s.36-1,3.81-2h0l19.33-.43V31.09c.91-2.4,1.85-3.62,2.8-3.62h0c1,0,2,1.38,2.86,4.06V42.85L399,42.34a3.51,3.51,0,0,1,2.75.89,2.66,2.66,0,0,1,.49,2.18L401,81.53c-.37,2.62-1.4,4.44-3.05,5.42A6.94,6.94,0,0,1,394.32,87.82Zm-12.61-4.11c.57.29,2.11,1,6.14,2.45,4.45,1.67,7.8,1.86,10,.57,1.58-.93,2.57-2.69,2.93-5.22L402,45.39a2.41,2.41,0,0,0-.42-2,3.34,3.34,0,0,0-2.57-.81l-23.11.52V31.59c-.84-2.52-1.75-3.86-2.62-3.88s-1.72,1.18-2.58,3.45v12h-.12l-19.43.43c-3.2,1-3.64,1.54-3.61,1.78s.53.67,3.69,1L371,46v.13a76,76,0,0,1-4.07,22.08c-2.11,6-4.42,10.17-7,12.49l.18.28.41.64-.59-.48-.26-.21a9.93,9.93,0,0,1-1.42,1c-3.25,2-6,2-8.09,0-1.19-1.08-1.73-2.07-1.63-2.93a2.6,2.6,0,0,1,1.57-1.84c2-1.12,5.13,0,9.39,3.34-2.47-3.72-4.93-5.87-7.32-6.4a5.91,5.91,0,0,0-4.54.93c-2,1.28-3.09,2.66-3.23,4.09s.66,3,2.38,4.62c3.41,3.24,7.7,3.85,12.75,1.79s9-7.32,11.68-15.31A91.26,91.26,0,0,0,376,46v-.11l21.51-.26v.13l-1.39,35.52a4.73,4.73,0,0,1-2,3.47c-1.78,1.14-4.67,1.14-8.59,0C383.23,84.07,382.18,83.81,381.71,83.71Zm-29.93-6.79a3.18,3.18,0,0,0-1.59.39c-.88.48-1.37,1-1.44,1.66-.1.78.42,1.69,1.54,2.72,2,2,4.66,2,7.81,0a9.43,9.43,0,0,0,1.34-1C356.23,78.2,353.66,76.92,351.78,76.92Z"/><path class="cls-1" d="M420.6,53.18c1.95-3,3.4-2.82,4.42.51q1.2,37.62-20.59,43.64C416.32,91,421.76,76.31,420.6,53.18Zm22.32,36.18c2.11-.22,5.22-1.38,9.36-3.56s6.67-4,7.68-5.72a4.35,4.35,0,0,0,.29-4.64c-.87-1.45-1.88-2.1-3.12-2s-2.17,1.45-3,3.92-1.23,2.32-1.38-.58,1.09-4.86,3.63-5.73,4.56-.29,6.3,2,1.89,4.93.29,7.9-5.36,6-11.38,9.28-10.15,4.2-12.25,2.75S436.47,86.53,437,78V50.43c1.16-3.26,2.54-3.26,4.06-.07V78C440.24,85.73,440.82,89.57,442.92,89.36Z"/><path class="cls-1" d="M401.31,98.57,404.26,97c11.74-6.23,17.12-21,16-43.81v-.12l.07-.1c1.09-1.66,2.06-2.4,3-2.27s1.57,1.07,2.12,2.87l0,.1c.8,25.17-6.22,40-20.86,44ZM421,53.29c1,21.17-3.51,35.48-13.52,42.61,12.14-5.11,17.92-19.26,17.2-42.15-.55-1.81-1.13-2.25-1.51-2.31S422.06,51.66,421,53.29Zm20.86,40.79a4.62,4.62,0,0,1-2.67-.72C437,91.78,436.1,86.6,436.61,78V50.37l0-.06c.63-1.78,1.35-2.66,2.19-2.7s1.7.8,2.55,2.59l0,.16V78c-.62,6.07-.4,9.67.66,10.72a.93.93,0,0,0,.82.29h0c2.1-.22,5.2-1.4,9.21-3.51s6.57-4,7.55-5.59a4,4,0,0,0,.28-4.27c-.8-1.33-1.68-1.9-2.75-1.77s-1.91,1.32-2.67,3.66c-.49,1.56-.82,2.07-1.29,2s-.69-.5-.8-2.69c-.08-3.13,1.22-5.18,3.87-6.09s4.89-.28,6.72,2.16,2,5.19.32,8.29-5.43,6.12-11.53,9.43C447.49,92.93,444.19,94.08,441.83,94.08Zm-4.48-43.59V78c-.48,8.16.31,13.4,2.24,14.77s5.92.4,11.86-2.78,9.75-6.3,11.23-9.12,1.45-5.32-.26-7.5-3.55-2.81-5.88-1.92-3.46,2.57-3.39,5.38a10,10,0,0,0,.19,1.74,9.74,9.74,0,0,0,.47-1.26c.87-2.69,1.91-4,3.28-4.17s2.52.53,3.48,2.13a4.74,4.74,0,0,1-.29,5c-1.06,1.73-3.62,3.65-7.83,5.87s-7.29,3.37-9.49,3.59h0a1.64,1.64,0,0,1-1.41-.5c-1.26-1.25-1.54-4.84-.88-11.28V50.44c-.9-1.86-1.53-2.12-1.81-2.1S438,48.66,437.35,50.49Zm5.57,38.87h0Z"/><path class="cls-1" d="M471.05,54.93h43.41c2.63.71,2.63,1.47,0,2.24H493.84c0,6.28,0,11.85-.12,16.65s-1.61,8-4.42,9.54-5.25,2-7.11,1.28a5.2,5.2,0,0,1-3.46-4c-.51-1.92.26-3.52,2.24-4.74s4,.52,6.28,5.32q-3.75-4.43-5.38-3.46a2,2,0,0,0-1.09,2.56,3.82,3.82,0,0,0,2.37,2.31q1.83.68,4.42-1c1.66-1,2.56-3.65,2.62-7.75s.07-9.73-.06-16.78h-19C467.33,56.72,467.33,56,471.05,54.93Zm8.51-15.3H504c2.63.77,2.63,1.53,0,2.24H479.63C475.85,41.42,475.85,40.72,479.56,39.63Z"/><path class="cls-1" d="M484.11,85.35a5.74,5.74,0,0,1-2.05-.36,5.57,5.57,0,0,1-3.69-4.24c-.54-2,.29-3.83,2.41-5.13a2.56,2.56,0,0,1,2.13-.36c1.52.44,3,2.35,4.67,5.83l.05.11c1.38-1.07,2.14-3.56,2.2-7.26.05-3.19.08-8.62-.06-16.4H471.11c-2.61-.31-3.17-.71-3.21-1.23s.47-1,3.05-1.73l.1,0,43.51,0c1.56.42,2.23.85,2.24,1.44s-.66,1-2.23,1.51H494.21c0,6.2,0,11.58-.13,16.29-.13,4.94-1.68,8.26-4.61,9.85A11.28,11.28,0,0,1,484.11,85.35Zm-1.88-9.45a1.92,1.92,0,0,0-1.06.34c-1.85,1.14-2.55,2.59-2.08,4.34a4.86,4.86,0,0,0,3.23,3.72c1.66.63,3.75.31,6.22-1l-1-1.2c-1.72,1-3.24,1.32-4.51.85a4.18,4.18,0,0,1-2.59-2.54,2.32,2.32,0,0,1,1.25-3c1-.56,2.28,0,4,1.56-1.05-1.76-2.05-2.79-3-3.06A1.59,1.59,0,0,0,482.23,75.9Zm5.72,6,.67,1.42.5-.27c2.68-1.46,4.1-4.57,4.23-9.23s.13-10.28.13-16.64V56.8h20.93c1.52-.45,1.65-.77,1.65-.78h0s-.15-.31-1.65-.72H471.1a6.66,6.66,0,0,0-2.42,1,6.69,6.69,0,0,0,2.48.56h19.33v.37c.14,8,.11,13.53.06,16.78C490.5,78,489.62,80.71,488,81.89ZM482.51,78a.8.8,0,0,0-.45.12,1.61,1.61,0,0,0-.93,2.12,3.49,3.49,0,0,0,2.16,2.09,4.52,4.52,0,0,0,3.76-.74l-.08-.09C484.55,78.64,483.22,78,482.51,78ZM504,42.24H479.63c-2.62-.31-3.17-.69-3.21-1.21s.45-1,3-1.75l.1,0,24.5,0c1.58.46,2.24.91,2.24,1.5s-.68,1-2.24,1.44ZM477.2,41a7.2,7.2,0,0,0,2.47.53h24.24c1.51-.41,1.65-.72,1.65-.74h0s-.14-.32-1.65-.76H479.62A7.11,7.11,0,0,0,477.2,41Z"/><path class="cls-1" d="M239.93,77l24.16-2.46-3.2-14.26-14.68,1.64c-4.3.06-4.37-.76-.13-2.39l14.26-1.71-2.46-10.92c.75-2.25,2-2.32,3.82-.27l2.46,10.78,6.83-.75a21.3,21.3,0,0,0,8.94-2.93c2.39-1.57,2.45-1.23.27,1a16.3,16.3,0,0,1-8.87,4.51l-6.62.68,3.21,14.26,22-2.25c3,.48,3.07,1.3.27,2.39l-21.7,2.25L272.9,96.3q-.93,6.45-3.89.21l-4.3-19.59-24.5,2.53C236.18,79.45,236.11,78.63,239.93,77Z"/><path class="cls-1" d="M271.43,100c-.83,0-1.68-1-2.76-3.28l-4.25-19.35-24.18,2.49h0c-2.72,0-3.34-.35-3.45-.88s.36-1.14,3-2.28l.11,0,23.74-2.41-3-13.54-14.35,1.6c-2.9,0-3.56-.29-3.66-.82s.42-1.14,3.35-2.28l13.95-1.68L257.5,46.87l0-.1c.4-1.18.93-1.82,1.63-2s1.72.35,2.82,1.57l.08.17L264.45,57l6.5-.72a20.76,20.76,0,0,0,8.78-2.88c1.69-1.1,2.06-1.19,2.32-.87s.19.62-1.59,2.4a16.57,16.57,0,0,1-9.06,4.61l-6.24.64,3,13.54L290,71.5h0c1.77.28,2.55.66,2.62,1.28S292,74,290.37,74.6l-.1,0L269,76.83l4.29,19.46v.07c-.33,2.35-.85,3.45-1.68,3.58ZM265,76.52l4.37,19.91c1.32,2.75,2,2.8,2.1,2.78s.67-.23,1-2.89l-4.44-20.13,22.07-2.29c1.67-.66,1.75-1,1.76-1h0s-.17-.34-2-.63l-22.32,2.28-3.37-15,7-.72a15.84,15.84,0,0,0,8.64-4.39c.29-.29.52-.52.7-.72l-.5.32a21.61,21.61,0,0,1-9.1,3l-7.15.78-2.51-11c-.86-.93-1.56-1.37-2.06-1.27s-.75.55-1.05,1.39l2.53,11.22-14.67,1.75a8.13,8.13,0,0,0-2.76,1.42,7.66,7.66,0,0,0,2.85.24l15-1.67,3.37,15L240,77.35c-2.34,1-2.53,1.43-2.54,1.47a7.76,7.76,0,0,0,2.72.26Z"/><path class="cls-1" d="M287.73,54c-1,.73-4.41-1.5-6-4.55-.63-1.23-1-2.64-.67-2.83s1.83,1.63,2.23,1.37-.23-1-.35-2.63c0-.3-.17-2.11.28-2.24s1.16,1.11,1.58,2.07c.79,1.8.61,3.2,1.05,3.28s1-1.8,1.49-1.72.33,1.18.47,4.24C287.94,53.5,288,53.8,287.73,54Z"/><path class="cls-1" d="M290.71,48c1.09.6,4.18-2.06,5.34-5.29.47-1.3.65-2.74.3-2.89s-1.6,1.86-2,1.65c-.28-.14.1-1.07,0-2.66,0-.3-.11-2.11-.56-2.18s-1,1.25-1.3,2.25c-.56,1.9-.2,3.26-.62,3.39s-1.26-1.65-1.71-1.5-.17,1.21.09,4.26C290.44,47.56,290.43,47.86,290.71,48Z"/><path class="cls-1" d="M80.44,89a.25.25,0,0,0-.16-.08.55.55,0,0,0-.18,0l-.26.06s-.08,0-.09,0,0,0,0,0l0-.18a.11.11,0,0,0,0-.08h-.33s-.06,0-.07,0,.29-.35.34-.4l.28-.29c.08-.09.21-.19.2-.31a.3.3,0,0,0,0-.19c-.07-.11-.37,0-.47.06l-.58.17-.55.16c-.15,0-.46.16-.47.11s.24-.22.29-.26l.18-.15.47-.38a.39.39,0,0,0,.14-.47.31.31,0,0,0-.09-.11l-.07,0-.33,0s0,0,0,0c.11-.17.21-.33.3-.5l.22-.38a1.4,1.4,0,0,0,.16-.26c.1-.32-.91,0-1.05,0h0s.08-.24.1-.28l.12-.34a.49.49,0,0,0,0-.24s0-.17-.09-.2a.67.67,0,0,0-.37,0,2.29,2.29,0,0,0-.37.12c-.21.09-.43.17-.65.24a11.65,11.65,0,0,1-1.4.39,9.84,9.84,0,0,1-1.8.22,7,7,0,0,1-1.93-.19A5,5,0,0,1,70,84.2h0a50.19,50.19,0,0,1-4.88-6c-3.38-4.7-5.58-13-9.3-28.52C52.6,36.25,45.53,24.71,45.68,20.7,46.1,10,40.09.47,30.8,0c-13-.62-14.06,8.68-19,9.92S0,16.15,0,18.63s4.4-2,9.3-1.24a14.56,14.56,0,0,1,7,3.22h0A21.63,21.63,0,0,1,20,24.93h0c3.48,5.72,3.89,15.29-1.84,30.56C5.62,88.92,33.75,93.79,41.08,94.26c1.56.11,2.11-1.08,1.53-2.86-1.47-4.44-4-13.06-3.54-18.82C46.55,90.36,59.75,93.59,68,93.1a28,28,0,0,0,3-.23L72,92.73c.73-.11,1.47-.24,2.19-.41A14.51,14.51,0,0,0,76,91.79a12.11,12.11,0,0,0,1.61-.71,12.38,12.38,0,0,0,1.47-.91c.25-.18.49-.36.72-.55l.36-.3C80.29,89.25,80.52,89.07,80.44,89Z"/><path class="cls-1" d="M36.53,97.36c-5.2-.15-7.08-.32-7.24.26-.2.77,3,1.88,2.72,2.74s-2.53.26-5.69,1.38c-1.68.59-3.85,1.73-3.71,2.41s3.25.76,3.76.76c2.71,0,4.25-.73,4.51-.27.39.7-3,2.87-2.6,3.6.28.57,2.71.14,4.87-.78,5.37-2.28,9.59-7.78,8.47-9.55C41.33,97.43,40.82,97.49,36.53,97.36Z"/></g></g></svg>