<svg xmlns="http://www.w3.org/2000/svg" width="260.901" height="78.729" viewBox="0 0 260.901 78.729">
  <g id="グループ_11607" data-name="グループ 11607" transform="translate(-41.139 -114.529)">
    <g id="グループ_11604" data-name="グループ 11604" transform="translate(41.139 114.529)">
      <g id="グループ_11603" data-name="グループ 11603">
        <circle id="楕円形_628" data-name="楕円形 628" cx="22.744" cy="22.744" r="22.744" transform="translate(1.365 66.814) rotate(-76.59)" fill="#302d2c"/>
        <path id="パス_56535" data-name="パス 56535" d="M86.33,140.89c-.031-3.184-.063-6.256-.095-10.081a16.311,16.311,0,0,0-3.528-9.866,17.076,17.076,0,0,0-1.46-1.66A16.79,16.79,0,0,0,76.2,115.9a15.27,15.27,0,0,0-4.031-1.151c-.513-.067-1.032-.109-1.547-.165a.608.608,0,0,1-.152-.057l-2.092.022c-.284.043-.571.074-.854.13a21.918,21.918,0,0,0-2.631.537,23.884,23.884,0,0,0-3.134,1.268,13.288,13.288,0,0,0-2.971,2.026c-.458.406-.925.806-1.34,1.255a16.859,16.859,0,0,0-3.493,5.617,18.637,18.637,0,0,0-.9,3.5,9.176,9.176,0,0,0-.109,1.531c.022,4.17.041,7.32.063,10.815a28.764,28.764,0,1,0,33.331-.337Zm-27.353-9.868a9.878,9.878,0,0,1,.734-3.714,10.528,10.528,0,0,1,2.765-3.982,10.606,10.606,0,0,1,7.965-2.685,9.891,9.891,0,0,1,3.916,1.1,10.5,10.5,0,0,1,3.15,2.428,10.713,10.713,0,0,1,1.508,2.19,9.449,9.449,0,0,1,1.045,3.326c.061.578.128,1.158.133,1.738.028,2.417.05,4.342.069,6.234a28.745,28.745,0,0,0-21.222.2C59.02,135.768,59,133.726,58.977,131.022Zm11.171,57.941a24.47,24.47,0,1,1,24.223-24.714A24.47,24.47,0,0,1,70.148,188.963Z" transform="translate(-41.139 -114.529)" fill="#302d2c"/>
      </g>
    </g>
    <path id="パス_56536" data-name="パス 56536" d="M48.8,152.521c.541.482,1.6-.708,1.964-1.027,1.19-1.066,2.554-2.164,3.1-3.727a3.053,3.053,0,0,0,.146-.6,9.177,9.177,0,0,1,.193,1.959,19.151,19.151,0,0,1-.4,2.533c-.2,1.1-.054,2.148-.25,3.206-.163.893-.376,1.583.235,2.281a.535.535,0,0,1-.05.063c-.38.486-1.525,1.077-1.312,1.727.261.812,1.366.461,1.972.36a14.832,14.832,0,0,0,2.074-.056.94.94,0,0,0,.315-.145,5.769,5.769,0,0,0,1.849.046c.4-.043.789-.046,1.173-.087.1.015.215,0,.308.017a2.254,2.254,0,0,0,.5-.009,1.8,1.8,0,0,1,.747.119,5.69,5.69,0,0,0,.782.126,3.955,3.955,0,0,0,.838-.015,4.327,4.327,0,0,0,.613-.041,4.582,4.582,0,0,0,.619.03,3.989,3.989,0,0,0,.841-.013,6.925,6.925,0,0,0,.773-.137,1.8,1.8,0,0,1,.741-.139,1.81,1.81,0,0,0,.51-.006c.091-.013.2-.006.3-.024.389.033.778.03,1.18.057a5.581,5.581,0,0,0,1.846-.089.745.745,0,0,0,.321.133,14.481,14.481,0,0,0,2.074.015c.61.087,1.718.4,1.968-.41.195-.658-.973-1.218-1.358-1.694l-.048-.059c.591-.708.371-1.4.183-2.292-.222-1.049-.1-2.1-.322-3.189a16.886,16.886,0,0,1-.469-2.535,9.465,9.465,0,0,1,.137-1.957,4.418,4.418,0,0,0,.169.6c.578,1.542,1.975,2.607,3.193,3.645.365.311,1.457,1.483,1.983.982.587-.55-1.1-2.35-1.418-2.809a17.92,17.92,0,0,1-1.987-4.59,19.29,19.29,0,0,0-.871-2.932,7.52,7.52,0,0,0-2.1-2.207,5.067,5.067,0,0,1-1.494-1.786c.006-.041.011-.083.019-.12a5.978,5.978,0,0,0,.311-1.177,2.3,2.3,0,0,0-1.2-1.9c-.026-.015-.059-.035-.089-.05a3.047,3.047,0,0,0-1.807-.321,3.658,3.658,0,0,0-1.294.578,2.564,2.564,0,0,1-1.625.041c-.189-.043-.793-.256-1.2-.33a.276.276,0,0,0-.174-.02.285.285,0,0,0-.176.024c-.4.085-1,.311-1.186.356a2.572,2.572,0,0,1-1.627,0,3.836,3.836,0,0,0-1.31-.55,3.106,3.106,0,0,0-1.8.365.825.825,0,0,1-.091.054,2.308,2.308,0,0,0-1.156,1.933,5.792,5.792,0,0,0,.341,1.166.658.658,0,0,1,.019.119,5.009,5.009,0,0,1-1.447,1.829,7.275,7.275,0,0,0-2.042,2.253,18.728,18.728,0,0,0-.806,2.95,17.685,17.685,0,0,1-1.874,4.631C49.852,150.145,48.207,151.986,48.8,152.521Zm18.343-14.347,0,.03-.009.028a.714.714,0,0,1-.233.237,2.945,2.945,0,0,0-.263.263c-.148.17-.287.35-.439.515a10.542,10.542,0,0,0-2.2,2.961,13.254,13.254,0,0,0-.58,1.944,14.1,14.1,0,0,0-.634-1.931,10.414,10.414,0,0,0-2.268-2.9c-.158-.167-.295-.341-.448-.508-.089-.091-.176-.182-.267-.258a.67.67,0,0,1-.241-.237l-.011-.017a.207.207,0,0,1,0-.035,2.428,2.428,0,0,1,1.108-1.853,16.555,16.555,0,0,0,2.559-1.423.516.516,0,0,0,.085-.082.877.877,0,0,0,.085.08A16.56,16.56,0,0,0,66,136.35,2.43,2.43,0,0,1,67.146,138.174Z" transform="translate(6.429 16.823)" fill="#fdfdfd"/>
    <g id="グループ_11606" data-name="グループ 11606" transform="translate(110.977 142.71)">
      <g id="グループ_11605" data-name="グループ 11605">
        <path id="パス_56537" data-name="パス 56537" d="M78.825,129.736h9.257v21.089l18.445-21.089h11.966L97.864,152.875l20.628,23.139H106.526L88.082,154.924v21.089H78.825Z" transform="translate(-78.825 -129.736)" fill="#302d2c"/>
        <path id="パス_56538" data-name="パス 56538" d="M101.657,149.713h9.257v9.257h-9.257Z" transform="translate(-59.346 -112.692)" fill="#302d2c"/>
        <path id="パス_56539" data-name="パス 56539" d="M108.792,129.736h9.255v46.277h-9.255Z" transform="translate(-53.258 -129.736)" fill="#302d2c"/>
        <path id="パス_56540" data-name="パス 56540" d="M115.927,149.713h9.257v9.257h-9.257Z" transform="translate(-47.171 -112.692)" fill="#302d2c"/>
        <path id="パス_56541" data-name="パス 56541" d="M124.563,168.08h24.13c3.438,0,6.28-1.388,6.28-5.619,0-4.166-2.843-5.619-6.28-5.619H137.456c-8.662,0-14.216-3.439-14.216-13.554,0-10.313,5.554-13.552,14.216-13.552h25.451v7.933H138.775c-3.438,0-6.28,1.388-6.28,5.619,0,4.166,2.843,5.621,6.28,5.621h11.241c8.66,0,14.212,3.438,14.212,13.552,0,10.313-5.552,13.552-14.212,13.552H124.563Z" transform="translate(-40.932 -129.736)" fill="#302d2c"/>
        <path id="パス_56542" data-name="パス 56542" d="M146.964,149.713h9.257v9.257h-9.257Z" transform="translate(-20.691 -112.692)" fill="#302d2c"/>
        <path id="パス_56543" data-name="パス 56543" d="M154.887,168.08h24.13c3.438,0,6.28-1.388,6.28-5.619,0-4.166-2.843-5.619-6.28-5.619H167.78c-8.662,0-14.216-3.439-14.216-13.554,0-10.313,5.554-13.552,14.216-13.552h25.451v7.933H169.1c-3.438,0-6.28,1.388-6.28,5.619,0,4.166,2.843,5.621,6.28,5.621H180.34c8.66,0,14.212,3.438,14.212,13.552,0,10.313-5.552,13.552-14.212,13.552H154.887Z" transform="translate(-15.06 -129.736)" fill="#302d2c"/>
        <path id="パス_56544" data-name="パス 56544" d="M176.931,149.713h9.257v9.257h-9.257Z" transform="translate(4.875 -112.692)" fill="#302d2c"/>
      </g>
    </g>
  </g>
</svg>
