<svg xmlns="http://www.w3.org/2000/svg" width="133.192" height="40" viewBox="0 0 133.192 40">
  <g id="グループ_44738" data-name="グループ 44738" transform="translate(-480 -4829)">
    <g id="グループ_43397" data-name="グループ 43397" transform="translate(1191 7114) rotate(180)">
      <g id="楕円形_291" data-name="楕円形 291" transform="translate(671 2245)" fill="#fff" stroke="#000" stroke-width="1">
        <circle cx="20" cy="20" r="20" stroke="none"/>
        <circle cx="20" cy="20" r="19.5" fill="none"/>
      </g>
      <path id="パス_9498" data-name="パス 9498" d="M8376.566-1442.182l5,4.883-5,4.883" transform="translate(-7688.008 3702.298)" fill="none" stroke="#000" stroke-width="2"/>
    </g>
    <path id="パス_22978" data-name="パス 22978" d="M15.184-7.408a19.306,19.306,0,0,1-2.432.112H3.28A20.633,20.633,0,0,1,.832-7.408V-5.3c.72-.064,1.552-.112,2.448-.112h9.472a21.815,21.815,0,0,1,2.432.112Zm6.928-1.648h.768c.528,0,.816.016,1.136.032a4.74,4.74,0,0,1-.048-.768v-.272a6.107,6.107,0,0,1,.752.912,8.31,8.31,0,0,0,1.52-1.68h3.472a8.912,8.912,0,0,1,1.408.08V-12.3a10.98,10.98,0,0,1-1.408.08H27.056c.144-.272.224-.448.432-.928l-1.68-.32a5.376,5.376,0,0,1-1.84,2.816,5.371,5.371,0,0,1,.048-.768c-.224.016-.576.032-1.072.032h-.832V-11.9H23.1c.56,0,.928.016,1.264.048V-13.12a9.7,9.7,0,0,1-1.536.08H19.008c-.8,0-1.232-.016-1.632-.048a13.69,13.69,0,0,1,.064,1.632V-9.1c0,.8-.016,1.168-.048,1.6.448-.032.736-.048,1.248-.048h4.432c.576,0,.88.016,1.312.048V-8.592a7.977,7.977,0,0,1-1.312.064h-.96Zm-1.456,0v.528h-1.7v-.528Zm-1.7-.928v-.48h3.568v.48Zm0-1.408V-11.9h1.7v.512Zm2.256,10c-.72.816-2.064,1.248-3.952,1.248-.112,0-.272,0-.48-.016a6.326,6.326,0,0,1,.8,1.568C20.5,1.28,22.3.352,23.072-1.392h1.52V-.048c0,1.04.512,1.248,3.1,1.248,1.888,0,2.624-.112,3.024-.448.4-.32.592-.88.736-2.192a5.827,5.827,0,0,1-1.584-.544,3.331,3.331,0,0,1-.24,1.5c-.192.224-.608.288-1.936.288-1.248,0-1.424-.064-1.424-.48v-.72h1.392c.688,0,1.36.016,1.68.048-.032-.224-.064-.976-.064-1.7V-6.048A10.717,10.717,0,0,1,29.328-7.2a12.357,12.357,0,0,1-1.552.064h-7.36c-.768,0-1.28-.016-1.6-.048.032.448.032.656.032,1.152v3.088c0,.656-.032,1.328-.064,1.6.3-.032,1.056-.048,1.7-.048ZM20.5-6.1h7.12v.528H20.5Zm0,1.488h7.12v.544H20.5Zm0,1.5h7.12v.576H20.5Zm4.88-5.12a10.38,10.38,0,0,1,1.376-.064h2.48a10.535,10.535,0,0,1,1.376.064V-9.7a10.191,10.191,0,0,1-1.392.064h-2.56a9.116,9.116,0,0,1-1.28-.064Zm8.576,4.848a2.638,2.638,0,0,1,.336-.432A45.171,45.171,0,0,0,37.44-7.68c.544-.72.7-.864.96-.864.3,0,.4.08,1.392,1.216,1.712,1.952,1.744,2,2.96,3.248,1.168,1.168,2.432,2.368,3.264,3.1a3.161,3.161,0,0,1,.464.464l.976-2.272a10.26,10.26,0,0,1-1.744-1.344,50.9,50.9,0,0,1-4.784-4.9,10.681,10.681,0,0,0-1.072-1.152,2.268,2.268,0,0,0-1.44-.608,2.2,2.2,0,0,0-1.28.48A4.9,4.9,0,0,0,36.144-9.3c-2.112,2.656-2.8,3.44-3.488,3.92Zm27.312.1a14.137,14.137,0,0,1,1.712.1v-1.68a11.78,11.78,0,0,1-1.712.08H57.808c.048-.368.064-.512.08-.7a3.1,3.1,0,0,1,.08-.688H56.16c.016.176.032.272.032.336a6.586,6.586,0,0,1-.08,1.056H53.744a11.179,11.179,0,0,1-1.664-.08V-3.2a13.329,13.329,0,0,1,1.664-.08H55.7C54.928-1.76,53.5-.912,50.864-.416a6.008,6.008,0,0,1,.88,1.664,10.688,10.688,0,0,0,3.5-1.568,5.319,5.319,0,0,0,1.808-2.048,6.663,6.663,0,0,0,2.08,2.192,9.721,9.721,0,0,0,3.616,1.424A7.2,7.2,0,0,1,63.376-.5a9.148,9.148,0,0,1-3.088-.9A5.021,5.021,0,0,1,58.256-3.28Zm1.84-9.712a14.1,14.1,0,0,1-1.856.1H50.8a14.964,14.964,0,0,1-1.856-.1v1.728a15.36,15.36,0,0,1,1.856-.08H61.248a14.27,14.27,0,0,1,1.856.08ZM60.7-6.464a11.647,11.647,0,0,1,1.44.064c-.032-.368-.048-.672-.048-1.232V-9.344a11.611,11.611,0,0,1,.048-1.184,10.7,10.7,0,0,1-1.44.064h-8.88c-.72,0-1.248-.016-1.744-.064.048.512.064.976.064,1.6,0,5.12-.352,6.816-1.824,8.88a7.314,7.314,0,0,1,1.392,1.312c1.5-2.144,2.016-4.032,2.1-7.728Zm-8.88-1.392c.016-.192.016-.4.016-.656v-.56h8.592v1.216ZM70.3-6.64a6.28,6.28,0,0,0,.656-.416c.32-.208,1.472-1.072,1.76-1.312.544-.464,1.712-1.5,2.512-2.24a3.43,3.43,0,0,1,.832-.656l-.992-1.408a2.358,2.358,0,0,1-.992.208c-1.552.112-3.5.192-4.864.192a14.47,14.47,0,0,1-1.888-.1l.08,1.92a5.4,5.4,0,0,1,.768-.08c2.9-.128,3.92-.192,4.528-.272l.016.016-.288.288a53.424,53.424,0,0,1-4.784,4.16,14.389,14.389,0,0,1-2.256,1.5L66.48-3.1a9.858,9.858,0,0,1,6.592-2.688c1.936,0,3.168.816,3.168,2.064,0,1.136-.576,1.824-1.9,2.32a4.3,4.3,0,0,0-.736-1.44A3.444,3.444,0,0,0,70.832-4.16c-1.6,0-2.752.96-2.752,2.288a2.284,2.284,0,0,0,.96,1.84,5.413,5.413,0,0,0,3.1.736,7.916,7.916,0,0,0,3.872-.912,3.91,3.91,0,0,0,2.176-3.536c0-2.192-1.76-3.6-4.5-3.6a7.81,7.81,0,0,0-3.36.736Zm2.3,5.7a4.331,4.331,0,0,1-.832.064c-1.184,0-1.9-.368-1.9-1.008,0-.448.368-.736.944-.736C71.712-2.624,72.32-2.048,72.608-.944Z" transform="translate(535 4855)"/>
  </g>
</svg>
