<svg width="49" height="49" viewBox="0 0 49 49" fill="none" xmlns="http://www.w3.org/2000/svg">
<circle cx="24.5" cy="24.5" r="24.5" fill="#D4A242"/>
<path d="M23.1183 27.1733H26.6467L28.4205 29.4553L30.1655 31.4879L33.4542 35.6108H29.5806L27.3178 32.8303L26.1577 31.1811L23.1183 27.1733ZM33.7514 24.1818C33.7514 26.3232 33.3455 28.1449 32.5337 29.647C31.7283 31.1491 30.6289 32.2965 29.2354 33.0891C27.8484 33.8754 26.2887 34.2685 24.5565 34.2685C22.8114 34.2685 21.2454 33.8722 19.8583 33.0795C18.4712 32.2869 17.375 31.1396 16.5696 29.6374C15.7642 28.1353 15.3615 26.3168 15.3615 24.1818C15.3615 22.0405 15.7642 20.2188 16.5696 18.7166C17.375 17.2145 18.4712 16.0703 19.8583 15.2841C21.2454 14.4915 22.8114 14.0952 24.5565 14.0952C26.2887 14.0952 27.8484 14.4915 29.2354 15.2841C30.6289 16.0703 31.7283 17.2145 32.5337 18.7166C33.3455 20.2188 33.7514 22.0405 33.7514 24.1818ZM29.5423 24.1818C29.5423 22.7947 29.3345 21.625 28.919 20.6726C28.5099 19.7202 27.9315 18.9979 27.1836 18.5057C26.4357 18.0135 25.56 17.7674 24.5565 17.7674C23.5529 17.7674 22.6772 18.0135 21.9293 18.5057C21.1815 18.9979 20.5998 19.7202 20.1843 20.6726C19.7752 21.625 19.5707 22.7947 19.5707 24.1818C19.5707 25.5689 19.7752 26.7386 20.1843 27.6911C20.5998 28.6435 21.1815 29.3658 21.9293 29.858C22.6772 30.3501 23.5529 30.5962 24.5565 30.5962C25.56 30.5962 26.4357 30.3501 27.1836 29.858C27.9315 29.3658 28.5099 28.6435 28.919 27.6911C29.3345 26.7386 29.5423 25.5689 29.5423 24.1818Z" fill="white"/>
</svg>
