<?xml version="1.0" encoding="UTF-8"?>
<svg xmlns="http://www.w3.org/2000/svg" version="1.1" viewBox="0 0 25.6 25.6">
  <defs>
    <style>
      .cls-1 {
        fill: #fff;
      }
    </style>
  </defs>
  <!-- Generator: Adobe Illustrator 28.7.1, SVG Export Plug-In . SVG Version: 1.2.0 Build 142)  -->
  <g>
    <g id="_レイヤー_1" data-name="レイヤー_1">
      <g id="Capa_1">
        <path class="cls-1" d="M21.2,17.8c-1.5-1.3-3.1-2.1-4.6-.8l-.9.8c-.7.6-1.9,3.3-6.7-2.2-4.8-5.5-1.9-6.4-1.3-7l.9-.8c1.5-1.3.9-3-.1-4.7l-.7-1C6.7.4,5.5-.7,3.9.6l-.8.7C2.4,1.8.6,3.4,0,6.4c-.6,3.6,1.2,7.8,5.2,12.4,4,4.6,7.9,6.9,11.5,6.8,3.1,0,4.9-1.7,5.5-2.3l.8-.7c1.5-1.3.6-2.7-1-4l-.9-.8h.1Z"/>
        <g>
          <path class="cls-1" d="M21.1,11h-.1c-.3,0-.5-.4-.4-.7.4-1.5,0-3.1-1.1-4.2s-2.6-1.6-4.1-1.3c-.3,0-.6,0-.7-.4,0-.3.1-.6.4-.7,1.9-.4,3.8.2,5.1,1.6s1.9,3.3,1.4,5.2c0,.3-.3.4-.5.4h0Z"/>
          <path class="cls-1" d="M23.5,10.7h-.1c-.3,0-.5-.4-.4-.7.5-2.1,0-4.4-1.6-6-1.5-1.6-3.7-2.3-5.9-1.8-.3,0-.6,0-.7-.4,0-.3.1-.6.4-.7,2.5-.5,5.1.3,6.9,2.1,1.8,1.9,2.5,4.5,1.9,7,0,.3-.3.4-.5.4h0Z"/>
          <path class="cls-1" d="M18.7,10.7h0c-.3,0-.5-.3-.5-.6,0-.7-.2-1.5-.7-2s-1.2-.8-2-.7c-.3,0-.6-.2-.6-.5s.2-.6.5-.6c1.1,0,2.1.3,2.9,1.1.8.8,1.1,1.8,1,2.9,0,.3-.3.5-.6.5h0Z"/>
        </g>
      </g>
    </g>
  </g>
</svg>