<svg width="139" height="117" viewBox="0 0 139 117" fill="none" xmlns="http://www.w3.org/2000/svg">
<g clip-path="url(#clip0_118_2)">
<path fill-rule="evenodd" clip-rule="evenodd" d="M12.4318 97.9534H41.1559V88.4928C41.3731 76.518 32.183 72.7712 32.726 66.8831C32.9894 64.0125 34.9686 47.9727 35.2319 45.1021C35.5088 42.1063 33.2065 39.4371 30.1142 39.1705C29.2536 39.097 28.488 39.233 27.8092 39.5296L34.7188 10.8537C36.66 2.10594 26.202 -0.168755 23.6445 6.92471C21.9449 11.8006 12.6001 32.3708 6.95027 47.4693C2.88599 58.3285 2.343 61.6154 2.8887 73.0515C3.42083 84.2427 9.4806 87.5432 12.4318 97.9589V97.9534Z" fill="#F5C6AF"/>
<path fill-rule="evenodd" clip-rule="evenodd" d="M106.274 66.883C106.817 72.7711 97.6296 76.5178 97.8441 88.4926V97.9533H126.568C129.517 87.5403 135.579 84.2398 136.111 73.0459C136.657 61.6071 136.111 58.323 132.05 47.4637C126.4 32.3653 117.055 11.7951 115.356 6.91914C112.798 -0.1716 102.34 2.10038 104.281 10.8482L111.191 39.5241C110.512 39.2275 109.746 39.0914 108.886 39.1649C105.796 39.4343 103.494 42.1035 103.768 45.0965C104.031 47.9671 106.011 64.0097 106.274 66.8776V66.883Z" fill="#F5C6AF"/>
<path fill-rule="evenodd" clip-rule="evenodd" d="M69.5 84.0769C86.6612 84.0769 101.069 72.2545 105.055 56.2935C104.482 51.4666 103.901 46.5662 103.765 45.1023C103.605 43.3664 104.314 41.7393 105.538 40.6237C102.389 23.5471 87.4512 10.6118 69.4973 10.6118C51.5433 10.6118 36.6084 23.5471 33.4563 40.6237C34.6807 41.7365 35.3893 43.3637 35.2292 45.1023C35.0934 46.5662 34.5124 51.4666 33.9396 56.2935C37.9278 72.2545 52.3333 84.0769 69.4973 84.0769H69.5ZM69.5 71.8327C56.004 71.8327 45.0654 60.8701 45.0654 47.3444C45.0654 33.8186 56.004 22.856 69.5 22.856C82.996 22.856 93.9345 33.8186 93.9345 47.3444C93.9345 60.8701 82.9933 71.8327 69.5 71.8327Z" fill="#FFDA8F"/>
<path d="M69.5 71.8327C82.9948 71.8327 93.9345 60.8689 93.9345 47.3443C93.9345 33.8198 82.9948 22.856 69.5 22.856C56.0051 22.856 45.0654 33.8198 45.0654 47.3443C45.0654 60.8689 56.0051 71.8327 69.5 71.8327Z" fill="#FFF3DB"/>
<path fill-rule="evenodd" clip-rule="evenodd" d="M76.2874 83.4453V96.9221H84.1607L69.5 113.114L54.8393 96.9221H62.7126V83.4453C64.9118 83.8589 67.1815 84.0766 69.5 84.0766C71.8186 84.0766 74.0883 83.8589 76.2874 83.4453Z" fill="#28A5A5"/>
<path fill-rule="evenodd" clip-rule="evenodd" d="M43.9686 114.279V97.9536H41.1559H12.4318H9.61908V114.279H43.9686Z" fill="#28A5A5"/>
<path fill-rule="evenodd" clip-rule="evenodd" d="M95.0314 97.9536V114.279H129.381V97.9536H126.568H97.8441H95.0314Z" fill="#28A5A5"/>
<path d="M69.5 115.833C68.7344 115.833 68.004 115.509 67.4882 114.94L52.8275 98.7482C52.1053 97.951 51.9207 96.8027 52.3551 95.8178C52.7895 94.8328 53.7641 94.1988 54.8365 94.1988H59.9949V84.0715C59.9949 82.5696 61.2112 81.3506 62.7099 81.3506C64.2085 81.3506 65.4248 82.5696 65.4248 84.0715V96.9197C65.4248 98.4217 64.2085 99.6407 62.7099 99.6407H60.9669L69.4973 109.063L78.0276 99.6407H76.2846C74.786 99.6407 73.5697 98.4217 73.5697 96.9197V84.0715C73.5697 82.5696 74.786 81.3506 76.2846 81.3506C77.7833 81.3506 78.9996 82.5696 78.9996 84.0715V94.1988H84.158C85.2331 94.1988 86.2051 94.8328 86.6395 95.8178C87.0739 96.8027 86.8892 97.951 86.1671 98.7482L71.5063 114.94C70.9905 115.509 70.2629 115.833 69.4946 115.833H69.5Z" fill="black"/>
<path d="M33.5568 42.89C33.3803 42.89 33.2038 42.8736 33.0246 42.8383C31.5531 42.5444 30.6002 41.1132 30.8934 39.6384C32.6662 30.7111 37.5097 22.6163 44.5306 16.8425C51.5514 11.0687 60.4185 7.89062 69.5 7.89062C78.5815 7.89062 87.2992 11.017 94.2902 16.6956C101.278 22.3741 106.155 30.3573 108.014 39.1786C108.324 40.6479 107.387 42.0927 105.921 42.4029C104.455 42.7131 103.013 41.7744 102.704 40.3051C101.099 32.7001 96.8965 25.8161 90.8721 20.9212C84.8476 16.0262 77.2566 13.3298 69.5027 13.3298C53.3677 13.3298 39.3722 24.8393 36.2201 40.6969C35.9622 41.992 34.8301 42.8872 33.5595 42.8872L33.5568 42.89Z" fill="black"/>
<path d="M69.5 74.5534C54.5298 74.5534 42.3505 62.3473 42.3505 47.3441C42.3505 37.4508 47.7153 28.3275 56.3542 23.5387C57.6656 22.8122 59.319 23.2883 60.0438 24.6026C60.7687 25.9168 60.2936 27.5738 58.9823 28.3003C52.0728 32.1314 47.7804 39.4316 47.7804 47.3468C47.7804 59.3488 57.5244 69.1143 69.5 69.1143C81.4757 69.1143 91.2196 59.3488 91.2196 47.3468C91.2196 39.4316 86.9273 32.1341 80.015 28.3003C78.7037 27.5738 78.2286 25.9168 78.9535 24.6026C79.6784 23.2883 81.3318 22.8122 82.6431 23.5387C91.2821 28.3302 96.6468 37.4508 96.6468 47.3468C96.6468 62.35 84.4675 74.5561 69.4973 74.5561L69.5 74.5534Z" fill="black"/>
<path d="M12.1439 99.7166C10.9901 99.7166 9.92039 98.9738 9.55388 97.812C8.4326 94.2421 6.88508 91.5266 5.38643 88.9009C2.99184 84.6998 0.515809 80.3545 0.173726 73.1767C-0.382839 61.4631 0.20902 57.7245 4.40633 46.5088C7.77016 37.5162 12.3421 26.8202 16.0127 18.2275C18.3748 12.6985 20.4164 7.92604 21.0788 6.02411C21.0816 6.01594 21.0843 6.00506 21.087 5.9969C22.963 0.808083 27.8146 -0.775498 31.6427 0.337362C33.7414 0.949572 35.4816 2.32908 36.5405 4.22829C37.678 6.26355 37.9658 8.75864 37.3685 11.4415C37.3658 11.4578 37.3604 11.4741 37.3577 11.4905L31.3088 36.5965C33.1794 36.9747 34.8463 37.9624 36.0789 39.4398C37.4744 41.1132 38.1314 43.2111 37.936 45.3524C37.8002 46.8245 37.2545 51.4337 36.6762 56.3178C36.1278 60.9488 35.5604 65.7349 35.4301 67.1335C35.2997 68.5429 36.3314 70.0585 38.0256 72.4148C40.5477 75.9221 44.0039 80.7272 43.8708 88.5145V96.593C43.8708 98.0949 42.6545 99.3139 41.1559 99.3139C39.6572 99.3139 38.4409 98.0949 38.4409 96.593V88.4928C38.4409 88.4765 38.4409 88.4601 38.4409 88.4438C38.5495 82.4496 35.9296 78.809 33.6219 75.5983C31.6047 72.793 29.7015 70.1455 30.0246 66.6355C30.1603 65.1662 30.7061 60.557 31.2843 55.6784C31.8328 51.0446 32.4002 46.2558 32.5305 44.8545C32.5929 44.1661 32.3757 43.4832 31.9142 42.9308C31.4092 42.324 30.687 41.9513 29.8807 41.8805C29.3622 41.8343 27.9938 41.7173 26.4843 45.2082C23.2671 52.6554 20.6879 58.8564 19.2001 65.2071C18.858 66.6709 17.3947 67.577 15.9367 67.2342C14.4761 66.8913 13.572 65.4247 13.9141 63.9636C15.5023 57.1885 18.2906 50.4814 21.5024 43.0478C22.6481 40.3949 24.03 38.746 25.4445 37.7583L32.0744 10.2415C32.859 6.65808 30.7848 5.75745 30.1278 5.56699C28.7296 5.15885 26.9784 5.70576 26.202 7.83897C25.4716 9.9232 23.5006 14.5379 21.0082 20.3743C17.3566 28.918 12.8145 39.5487 9.49415 48.4244C5.55204 58.9625 5.07964 61.9365 5.60091 72.9209C5.88055 78.7954 7.83803 82.2292 10.105 86.2045C11.6688 88.9472 13.439 92.0545 14.7367 96.1821C15.1874 97.6161 14.3919 99.1425 12.9611 99.5942C12.6896 99.6785 12.4154 99.7193 12.1439 99.7193V99.7166Z" fill="black"/>
<path d="M43.9686 117H9.61906C8.12041 117 6.90411 115.781 6.90411 114.279V97.9534C6.90411 96.4514 8.12041 95.2324 9.61906 95.2324H43.9686C45.4673 95.2324 46.6836 96.4514 46.6836 97.9534V114.279C46.6836 115.781 45.4673 117 43.9686 117ZM12.334 111.558H41.2537V100.674H12.334V111.558Z" fill="black"/>
<path d="M126.856 99.7166C126.585 99.7166 126.31 99.6757 126.039 99.5914C124.608 99.1397 123.815 97.6133 124.263 96.1793C125.561 92.0517 127.331 88.9444 128.895 86.2017C131.162 82.2264 133.119 78.7899 133.399 72.9154C133.923 61.931 133.448 58.9543 129.506 48.4188C126.185 39.5432 121.641 28.9098 117.992 20.3688C115.497 14.5324 113.526 9.92041 112.798 7.83618C112.024 5.70297 110.27 5.15878 108.872 5.5642C108.215 5.75466 106.141 6.65529 106.926 10.2388L113.555 37.7555C114.97 38.7432 116.352 40.3921 117.498 43.045C120.709 50.4813 123.498 57.1857 125.086 63.9608C125.428 65.4247 124.524 66.8885 123.063 67.2314C121.605 67.5742 120.142 66.6681 119.8 65.2043C118.312 58.8536 115.733 52.6526 112.516 45.2054C111.006 41.7145 109.635 41.8315 109.119 41.8777C108.316 41.9485 107.593 42.3212 107.086 42.9253C106.624 43.4776 106.407 44.1606 106.469 44.849C106.597 46.2475 107.167 51.0391 107.716 55.6729C108.294 60.5515 108.84 65.1607 108.975 66.63C109.298 70.14 107.393 72.7902 105.378 75.5928C103.068 78.8062 100.45 82.4468 100.559 88.4383C100.559 88.4546 100.559 88.4709 100.559 88.4873V96.5875C100.559 98.0894 99.3427 99.3084 97.844 99.3084C96.3454 99.3084 95.1291 98.0894 95.1291 96.5875V88.5118C94.9961 80.7217 98.4495 75.9193 100.974 72.4093C102.669 70.053 103.7 68.5374 103.57 67.128C103.442 65.7294 102.872 60.9406 102.324 56.3123C101.745 51.4309 101.2 46.8189 101.064 45.3469C100.866 43.2056 101.526 41.105 102.921 39.4343C104.154 37.9569 105.821 36.9692 107.691 36.591L101.642 11.4849C101.64 11.4686 101.634 11.4523 101.631 11.436C101.037 8.75313 101.322 6.25804 102.459 4.22006C103.518 2.32357 105.259 0.941338 107.357 0.329129C111.183 -0.786452 116.037 0.79985 117.908 5.98866C117.91 5.99683 117.913 6.00771 117.918 6.01587C118.581 7.9178 120.622 12.693 122.984 18.2192C126.658 26.8119 131.227 37.5079 134.591 46.5033C138.788 57.719 139.38 61.4576 138.823 73.1712C138.481 80.3517 136.005 84.6943 133.611 88.8954C132.115 91.5211 130.567 94.2366 129.446 97.8065C129.082 98.9683 128.01 99.7111 126.856 99.7111V99.7166Z" fill="black"/>
<path d="M129.381 117H95.0314C93.5327 117 92.3164 115.781 92.3164 114.279V97.9534C92.3164 96.4514 93.5327 95.2324 95.0314 95.2324H129.381C130.88 95.2324 132.096 96.4514 132.096 97.9534V114.279C132.096 115.781 130.88 117 129.381 117ZM97.7463 111.558H126.666V100.674H97.7463V111.558Z" fill="black"/>
<path d="M69.5 86.7976C51.6139 86.7976 35.9541 74.6868 31.4201 57.3463C31.04 55.8933 31.9088 54.405 33.3586 54.024C34.8084 53.6431 36.2935 54.5138 36.6736 55.9668C40.5831 70.9156 54.0818 81.3558 69.5027 81.3558C84.9237 81.3558 98.398 70.9319 102.321 56.0076C102.704 54.5546 104.189 53.6866 105.639 54.0703C107.089 54.4539 107.955 55.9423 107.572 57.3953C103.022 74.7085 87.3671 86.8004 69.5027 86.8004L69.5 86.7976Z" fill="black"/>
<path d="M77.2457 33.3802C77.7453 32.7626 78.1308 32.3408 79.0132 32.3408C80.2811 32.3408 81.2422 33.3802 81.2422 34.3815C81.2422 34.6128 81.2041 35.2305 80.7806 35.7311L73.2846 44.517C73.0159 44.8244 72.3996 45.5945 71.71 45.9428V46.8679H78.8611C80.015 46.8679 80.8593 47.8311 80.8593 48.8705C80.8593 50.065 79.8602 50.835 78.8611 50.835H71.71V53.107H78.8611C80.015 53.107 80.8593 54.0321 80.8593 55.0715C80.8593 56.266 79.8602 57.036 78.8611 57.036H71.71V62.0452C71.71 63.3948 70.6321 64.0859 69.519 64.0859C67.6348 64.0859 67.29 62.584 67.29 62.0452V57.036H60.1389C58.985 57.036 58.1406 56.1109 58.1406 55.0715C58.1406 53.877 59.1398 53.107 60.1389 53.107H67.29V50.835H60.1389C58.985 50.835 58.1406 49.9099 58.1406 48.8705C58.1406 47.676 59.1398 46.8679 60.1389 46.8679H67.29V45.9428C66.6357 45.5972 65.9841 44.8653 65.7126 44.517L58.2167 35.7311C58.0239 35.5379 57.7551 35.1134 57.7551 34.4604C57.7551 33.1898 58.8302 32.3408 60.0221 32.3408C60.8692 32.3408 61.252 32.7653 61.7895 33.3802L69.5163 42.5878L77.243 33.3802H77.2457Z" fill="black"/>
</g>
<defs>
<clipPath id="clip0_118_2">
<rect width="139" height="117" fill="white"/>
</clipPath>
</defs>
</svg>
