<svg width="115" height="114" viewBox="0 0 115 114" fill="none" xmlns="http://www.w3.org/2000/svg">
<g clip-path="url(#clip0_116_2)">
<path fill-rule="evenodd" clip-rule="evenodd" d="M3.18721 110.835H111.815V37.3662L57.6168 79.8434L24.6666 58.4767L3.18721 74.5274V110.835Z" fill="#36C1C1"/>
<path d="M111.811 114H3.18945C1.42627 114 0 112.585 0 110.835V74.5273C0 73.5332 0.473926 72.597 1.27129 71.9997L22.7507 55.949C23.8221 55.1465 25.291 55.093 26.4118 55.8286L57.4438 75.9516L109.836 34.8809C110.795 34.1342 112.096 33.9937 113.199 34.5153C114.301 35.0458 114.998 36.1536 114.998 37.3639V61.8401C114.998 63.5898 113.571 65.0052 111.808 65.0052C110.045 65.0052 108.619 63.5898 108.619 61.8401V43.897L59.5889 82.3287C58.5175 83.1667 57.0104 83.2403 55.8716 82.4914L24.7946 62.3372L6.37217 76.1032V107.667H108.619V89.8871C108.619 88.1373 110.045 86.7219 111.808 86.7219C113.571 86.7219 114.998 88.1373 114.998 89.8871V110.833C114.998 112.582 113.571 113.998 111.808 113.998L111.811 114ZM111.811 83.0464C110.047 83.0464 108.621 81.631 108.621 79.8813V71.8503C108.621 70.1006 110.047 68.6852 111.811 68.6852C113.574 68.6852 115 70.1006 115 71.8503V79.8813C115 81.631 113.574 83.0464 111.811 83.0464Z" fill="#242121"/>
<path d="M52.3317 54.2704C51.6849 54.2704 51.0357 54.0765 50.4832 53.6842L23.9276 34.9209L5.26934 49.4893C3.88125 50.5548 1.88223 50.3319 0.79063 48.9588C-0.298726 47.5858 -0.0628858 45.5976 1.32071 44.5143L21.859 28.4792C22.9731 27.6054 24.5296 27.5764 25.6818 28.39L52.2127 47.1333L103.168 6.3278H92.7435C90.9803 6.3278 89.554 4.91241 89.554 3.16268C89.554 1.41295 90.9803 -0.00244141 92.7435 -0.00244141H111.669C113.394 -0.00244141 114.802 1.35722 114.858 3.05569C114.908 3.38112 114.908 3.71323 114.858 4.0342V21.9572C114.858 23.707 113.432 25.1224 111.669 25.1224C109.906 25.1224 108.48 23.707 108.48 21.9572V10.2017L54.3353 53.5638C53.749 54.0297 53.0393 54.266 52.3295 54.266L52.3317 54.2704Z" fill="#242121"/>
</g>
<defs>
<clipPath id="clip0_116_2">
<rect width="115" height="114" fill="white"/>
</clipPath>
</defs>
</svg>
