<svg width="127" height="123" viewBox="0 0 127 123" fill="none" xmlns="http://www.w3.org/2000/svg">
<g clip-path="url(#clip0_118_122)">
<path d="M80.0814 48.8488L81.5894 24.5526C81.6322 23.8507 81.7133 23.1531 81.8329 22.4598L83.311 13.7163C84.1654 8.66192 80.7607 3.7402 75.6856 3.07256C71.3112 2.4948 67.2529 5.14396 65.9414 9.23968L62.1223 21.1502C61.4601 23.2173 60.6399 25.2331 59.6745 27.1718L47.995 50.6077C46.3033 54.0016 42.8431 56.1457 39.0539 56.1457H30.8262V112.745H44.1119C47.1791 112.745 50.2079 113.439 52.9761 114.77L54.5952 115.549C59.4438 117.881 64.7538 119.092 70.1321 119.092H104.03V48.8488H80.0814Z" fill="#FFAF9E"/>
<path d="M115.244 83.9728H93.7346C88.8945 83.9728 84.9686 80.0397 84.9686 75.1907C84.9686 70.3418 88.8945 66.4087 93.7346 66.4087H115.244C120.084 66.4087 124.01 70.3418 124.01 75.1907C124.01 80.0397 120.084 83.9728 115.244 83.9728Z" fill="#FFAF9E"/>
<path d="M115.244 101.537H93.7346C88.8945 101.537 84.9686 97.6037 84.9686 92.7547C84.9686 87.9057 88.8945 83.9727 93.7346 83.9727H115.244C120.084 83.9727 124.01 87.9057 124.01 92.7547C124.01 97.6037 120.084 101.537 115.244 101.537Z" fill="#FFAF9E"/>
<path d="M112.813 119.097H99.6212C94.7811 119.097 90.8552 115.164 90.8552 110.315C90.8552 105.466 94.7811 101.533 99.6212 101.533H112.813C117.653 101.533 121.579 105.466 121.579 110.315C121.579 115.164 117.653 119.097 112.813 119.097Z" fill="#FFAF9E"/>
<path d="M24.4653 120.004H9.35125C5.83973 120.004 2.99036 117.149 2.99036 113.631V53.1328C2.99036 49.6148 5.83973 46.7603 9.35125 46.7603H24.4653C27.9768 46.7603 30.8262 49.6148 30.8262 53.1328V113.631C30.8262 117.149 27.9768 120.004 24.4653 120.004Z" fill="#359E80"/>
<path d="M24.4653 46.7603H10.6713C14.1828 46.7603 17.0322 49.6148 17.0322 53.1328V113.631C17.0322 117.149 14.1828 120.004 10.6713 120.004H24.4653C27.9768 120.004 30.8262 117.149 30.8262 113.631V53.1328C30.8262 49.6148 27.9768 46.7603 24.4653 46.7603Z" fill="#62B597"/>
<path d="M115.244 66.4132H100.57C95.7295 66.4132 91.8036 62.4801 91.8036 57.6312C91.8036 52.7822 95.7295 48.8491 100.57 48.8491H115.244C120.084 48.8491 124.01 52.7822 124.01 57.6312C124.01 62.4801 120.084 66.4132 115.244 66.4132Z" fill="#FFAF9E"/>
<path d="M115.244 66.4131H101.45C106.29 66.4131 110.216 70.3462 110.216 75.1951C110.216 80.0441 106.29 83.9772 101.45 83.9772H115.244C120.084 83.9772 124.01 80.0441 124.01 75.1951C124.01 70.3462 120.084 66.4131 115.244 66.4131Z" fill="#F0957D"/>
<path d="M115.244 83.9727H101.45C106.29 83.9727 110.216 87.9057 110.216 92.7547C110.216 97.6037 106.29 101.537 101.45 101.537H115.244C120.084 101.537 124.01 97.6037 124.01 92.7547C124.01 87.9057 120.084 83.9727 115.244 83.9727Z" fill="#F0957D"/>
<path d="M112.813 101.537H99.6212C99.5187 101.537 99.4205 101.55 99.3222 101.554C104.021 101.712 107.785 105.573 107.785 110.319C107.785 115.065 104.021 118.926 99.3222 119.084C99.4205 119.084 99.523 119.097 99.6212 119.097H112.813C117.653 119.097 121.579 115.164 121.579 110.315C121.579 105.466 117.653 101.533 112.813 101.533" fill="#F0957D"/>
<path d="M115.244 48.8491H101.45C106.29 48.8491 110.216 52.7822 110.216 57.6312C110.216 62.4801 106.29 66.4132 101.45 66.4132H115.244C120.084 66.4132 124.01 62.4801 124.01 57.6312C124.01 52.7822 120.084 48.8491 115.244 48.8491Z" fill="#F0957D"/>
<path d="M115.244 69.4088H100.57C94.0891 69.4088 88.8133 64.1276 88.8133 57.6309C88.8133 51.1342 94.0848 45.853 100.57 45.853H115.244C121.724 45.853 127 51.1342 127 57.6309C127 64.1276 121.728 69.4088 115.244 69.4088ZM100.57 51.8447C97.387 51.8447 94.794 54.4382 94.794 57.6309C94.794 60.8236 97.3828 63.4171 100.57 63.4171H115.244C118.426 63.4171 121.019 60.8236 121.019 57.6309C121.019 54.4382 118.431 51.8447 115.244 51.8447H100.57Z" fill="black"/>
<path d="M115.244 86.9688H93.7345C87.254 86.9688 81.9782 81.6876 81.9782 75.191C81.9782 68.6943 87.2498 63.4131 93.7345 63.4131H115.244C121.724 63.4131 127 68.6943 127 75.191C127 81.6876 121.728 86.9688 115.244 86.9688ZM93.7345 69.409C90.552 69.409 87.9589 72.0025 87.9589 75.1952C87.9589 78.3879 90.5477 80.9815 93.7345 80.9815H115.244C118.426 80.9815 121.019 78.3879 121.019 75.1952C121.019 72.0025 118.431 69.409 115.244 69.409H93.7345Z" fill="black"/>
<path d="M115.244 104.533H93.7345C87.254 104.533 81.9782 99.2516 81.9782 92.7549C81.9782 86.2583 87.2498 80.9771 93.7345 80.9771H115.244C121.724 80.9771 127 86.2583 127 92.7549C127 99.2516 121.728 104.533 115.244 104.533ZM93.7345 86.9687C90.552 86.9687 87.9589 89.5622 87.9589 92.7549C87.9589 95.9476 90.5477 98.5411 93.7345 98.5411H115.244C118.426 98.5411 121.019 95.9476 121.019 92.7549C121.019 89.5622 118.431 86.9687 115.244 86.9687H93.7345Z" fill="black"/>
<path d="M112.813 122.092H99.6213C93.1408 122.092 87.8649 116.811 87.8649 110.314C87.8649 103.818 93.1365 98.5366 99.6213 98.5366H112.813C119.293 98.5366 124.569 103.818 124.569 110.314C124.569 116.811 119.298 122.092 112.813 122.092ZM99.6213 104.533C96.4387 104.533 93.8456 107.126 93.8456 110.319C93.8456 113.511 96.4344 116.105 99.6213 116.105H112.813C115.996 116.105 118.589 113.511 118.589 110.319C118.589 107.126 116 104.533 112.813 104.533H99.6213Z" fill="black"/>
<path d="M104.03 51.8447H80.0815C78.4282 51.8447 77.0911 50.5051 77.0911 48.8489C77.0911 47.1926 78.4282 45.853 80.0815 45.853H104.03C105.683 45.853 107.02 47.1926 107.02 48.8489C107.02 50.5051 105.683 51.8447 104.03 51.8447Z" fill="black"/>
<path d="M104.03 122.093H70.1322C64.3395 122.093 58.5211 120.766 53.3008 118.254L51.6818 117.475C49.3322 116.345 46.7178 115.746 44.1162 115.746H30.8305C29.1773 115.746 27.8401 114.406 27.8401 112.75V56.1502C27.8401 54.4939 29.1773 53.1544 30.8305 53.1544H39.0582C41.7282 53.1544 44.129 51.6693 45.3209 49.2726L45.4148 49.0843L57.0003 25.8367C57.8974 24.035 58.6663 22.1476 59.2772 20.2345L63.0963 8.324C64.694 3.34237 69.2735 -0.00439453 74.4938 -0.00439453C78.0267 -0.00439453 81.3588 1.54487 83.64 4.24968C85.9212 6.95448 86.8867 10.5067 86.2971 13.9947L84.7806 22.9565C84.6824 23.5428 84.614 24.142 84.5756 24.7368L83.0676 49.0287C82.965 50.6807 81.5468 51.9346 79.8978 51.8319C78.2488 51.7292 76.9972 50.3083 77.0997 48.6564L78.6077 24.3602C78.6589 23.5513 78.7529 22.7382 78.8854 21.9507L80.4019 12.9889C80.6967 11.2428 80.2139 9.46669 79.0733 8.11429C77.9327 6.76189 76.2624 5.98298 74.4981 5.98298C71.8837 5.98298 69.5939 7.65636 68.7951 10.1515L64.976 22.062C64.2711 24.2661 63.3868 26.4359 62.353 28.5073L50.6693 51.9475C48.4607 56.3813 44.0094 59.1417 39.0582 59.1417H33.8208V109.75H44.1162C47.6106 109.75 51.1221 110.55 54.2748 112.069L55.8939 112.848C60.311 114.975 65.2366 116.097 70.1365 116.097H104.034C105.687 116.097 107.025 117.436 107.025 119.092C107.025 120.749 105.687 122.088 104.034 122.088L104.03 122.093Z" fill="black"/>
<path d="M24.4653 123H9.35124C4.19503 123 0 118.797 0 113.632V99.5469C0 97.8906 1.33711 96.5511 2.99035 96.5511C4.64358 96.5511 5.98069 97.8906 5.98069 99.5469V113.632C5.98069 115.493 7.49295 117.008 9.35124 117.008H24.4653C26.3236 117.008 27.8359 115.493 27.8359 113.632V53.133C27.8359 51.2713 26.3236 49.7563 24.4653 49.7563H9.35124C7.49295 49.7563 5.98069 51.2713 5.98069 53.133V79.2095C5.98069 80.8658 4.64358 82.2054 2.99035 82.2054C1.33711 82.2054 0 80.8658 0 79.2095V53.133C0 47.9674 4.19503 43.7646 9.35124 43.7646H24.4653C29.6215 43.7646 33.8165 47.9674 33.8165 53.133V113.632C33.8165 118.797 29.6215 123 24.4653 123Z" fill="black"/>
</g>
<defs>
<clipPath id="clip0_118_122">
<rect width="127" height="123" fill="white"/>
</clipPath>
</defs>
</svg>
