<?xml version="1.0" encoding="UTF-8"?>
<svg xmlns="http://www.w3.org/2000/svg" version="1.1" viewBox="0 0 153.1 153.1">
  <defs>
    <style>
      .cls-1 {
        fill: #e8a320;
      }

      .cls-2 {
        fill: #231815;
      }

      .cls-3 {
        fill: #fff;
      }
    </style>
  </defs>
  <!-- Generator: Adobe Illustrator 28.7.1, SVG Export Plug-In . SVG Version: 1.2.0 Build 142)  -->
  <g>
    <g id="_レイヤー_1" data-name="レイヤー_1">
      <g>
        <g>
          <path class="cls-3" d="M97,102.6l-1.4,16.9-.8.7c0,.2,0,.3,0,.5h-.1s-3.7-34.8-3.7-34.8c1.9-1.2,3.5-2.6,4.8-4.1,0,0,15.8,17.2,19.2,21.4,4.3,5.2,4.1,10-1.8,16.2-2.6,2.7-11.4,10.2-11.4,10.2,0,0-.5-.2-1.1-.7-1.5-1.1-4.3-3.3-5.4-6.1h0s.3-3.2.3-3.2l9.5-8.9-8.1-7.9h0Z"/>
          <path class="cls-2" d="M99.1,51c-3.8.1-9.5-1.8-10.3-7-2.9,4.3-17.7,6.2-20.3-6.6-1.3,9.8-11.6,17.7-17.3,19.9v.2c.5,4.4,2.3,15,7.9,22.9-1,.4-1.7,1.7-1.1,3.4.1.4.3.9.5,1.3-5.3-1.5-9.1-6.2-11.9-12.3-7.1-15.2-1.9-48.4,17.1-44.4,6.9-15,30.1-6.9,39.1,7.8,5.9,9.7,6.3,20.5,6.2,22.3-.7,12.1-4.6,17.1-10.5,19.3,4.2-8.7,2.4-19.8.6-26.6h0Z"/>
          <path class="cls-3" d="M98.8,133.7v1.3c-.1,0,4.4,2.6,3.7,3.9-1.1,2.1-5.7-.9-5.7-.9h-.2s-1.8-17.3-1.8-17.3h.1c0,.7.2,1.3.5,1.9h0c1.1,2.9,3.8,5.1,5.4,6.1h0c.7,1.6,1.4,4.3-1.9,4.9Z"/>
          <path class="cls-3" d="M99.2,51.1c1.8,6.8,3.6,17.9-.6,26.6-.7,1.5-1.6,2.9-2.7,4.1-1.3,1.5-2.9,2.9-4.8,4.1-1.3.8-2.8,1.5-4.5,2.2-.6.2-1.2.4-1.8.6.7-1.6-.7-3.6-2.6-2.8-4.7,1.9-9.3,2.9-14.6,3.3h0c-.8-.7-2.9-3-4.5-6.3-1.1-2.3-2.8-2.9-4-2.4-5.6-7.9-7.4-18.5-7.8-22.9v-.2c5.6-2.2,15.9-10.1,17.2-19.9,2.6,12.9,17.4,10.9,20.3,6.6.8,5.2,6.5,7.1,10.3,7h0Z"/>
          <path class="cls-1" d="M75.2,157.9c-4.1-.2-8.1-.9-11.3-2-2.6-1-4.7-2.3-5.9-3.9l3.7-40.3c2.1-3.2,3.3-4.9,3.3-4.9h0c1.9,0,3.9-.1,6.1-.4,3.8.8,10.4,1.4,16.6-1.4l-1-16.9h0c1.7-.7,3.2-1.4,4.5-2.2l3.7,34.9,1.8,17.4,1.4,13.6c-1.2,1.6-3.2,2.9-5.8,3.9h0c-3.2,1.2-7.2,2-11.3,2.2-1.9.1-3.8.1-5.7,0Z"/>
          <path class="cls-3" d="M91.8,175.7c1.3,1.7,4.6,7.6,1,9-3.7,1.4-9.5-4.8-8.5-8.6,1.5.4,4.8,1,7.5-.4Z"/>
          <path class="cls-2" d="M92.2,155.6h0c0,0,0,19.8,0,19.8-.2.1-.3.2-.5.3-2.7,1.4-6,.8-7.5.4-.5-.1-.8-.2-.8-.2,0,0-.2-12.2-2.5-17.9h0c4.1-.3,8.1-1.1,11.3-2.3Z"/>
          <path class="cls-3" d="M86.6,88.1l1,16.9c-6.3,2.9-12.8,2.2-16.6,1.4.2,0,.5,0,.8-.1,1.3-.2,3.6-.6,5.1-1.6,2.3-1.6,1.3-4-.8-3.7,0,0,.2,0,.3,0,3-1.1,1.5-4.6-.8-4.1.5-.1.9-.3,1.4-.4,2.8-1.1,1.3-4.4-.9-4.2,2.5-.6,4.9-1.3,7.4-2.3.7-.3,1.1-.7,1.3-1.2.6-.2,1.2-.4,1.8-.6h0Z"/>
          <path class="cls-3" d="M76.1,92.1c-.2,0-.3,0-.5.1.2,0,.3,0,.5-.1ZM76.1,92.1c2.2-.2,3.7,3.1.9,4.2-.4.1-.9.3-1.4.4,0,0-.2,0-.3,0,0,0,.2,0,.3,0,2.3-.5,3.8,3,.8,4.1,0,0-.2,0-.3,0-.2,0-.5,0-.8.2.3,0,.5-.1.8-.2,2-.2,3,2.1.8,3.7-1.5,1-3.8,1.4-5.1,1.6-.3,0-.5,0-.8.1-2.1.3-4.2.5-6.1.4-2.3-.1-4.4-.6-6.3-1.7-2.2-1.2-4.1-4.8-3.5-8.4,0-.5.2-.9.4-1.4,1-2.6,2.9-3.9,3.6-5.5.6-1.3,0-3-.7-4.7-.2-.4-.3-.9-.5-1.3-.6-1.6,0-2.9,1.1-3.4,1.2-.5,2.9,0,4,2.4,1.5,3.3,3.7,5.6,4.5,6.3h0c5.3-.4,9.9-1.5,14.6-3.3,1.9-.8,3.3,1.3,2.6,2.8-.2.5-.6.9-1.3,1.2-2.5,1-4.9,1.7-7.4,2.3Z"/>
          <path class="cls-2" d="M75.2,157.9c-2.4,5.7-2.5,17.9-2.5,17.9,0,0-.3.1-.8.2-1.5.4-4.8,1-7.5-.4-.2,0-.3-.2-.5-.3v-19.5c3.2,1.2,7.2,1.8,11.3,2Z"/>
          <path class="cls-3" d="M71.9,176.1c1,3.8-4.8,10.1-8.5,8.6-3.7-1.4-.3-7.3,1-9,2.7,1.4,6,.8,7.5.4Z"/>
          <path class="cls-3" d="M64.9,106.8h0s-1.2,1.8-3.3,5c-.8,1.2-1.7,2.6-2.8,4.2-6.2,9.3-17.7-.6-10.9-10,4.1-5.6,7.1-9.1,7.2-9.2-.6,3.6,1.3,7.2,3.5,8.4,1.9,1.1,4,1.5,6.3,1.7Z"/>
        </g>
        <g>
          <path class="cls-2" d="M77.6,159.3h0c-7.7,0-17.1-1.7-20.6-6.5-.2-.3-.3-.6-.2-.9l3.7-40.3c0-.7.7-1.2,1.4-1.2.7,0,1.2.7,1.2,1.4l-3.7,39.7c2.7,3.1,9.8,5.1,18.3,5.1h0c8.7,0,16.3-2.1,19.1-5.3l-6.9-65.3c0-.7.4-1.3,1.2-1.4.7,0,1.3.4,1.4,1.2l6.9,65.9c0,.3,0,.6-.2.9-3.7,5-13.5,6.8-21.5,6.8Z"/>
          <path class="cls-2" d="M77.5,108.3c-2.7,0-5.1-.4-6.7-.7-.7-.1-1.1-.8-1-1.5.1-.7.8-1.1,1.5-1,3.2.7,9.2,1.4,15-1l-1-16c0-.7.5-1.3,1.2-1.4.7,0,1.3.5,1.4,1.2l1,16.9c0,.5-.3,1-.8,1.3-3.7,1.7-7.5,2.2-10.7,2.2Z"/>
          <path class="cls-2" d="M95.3,125.2s0,0-.1,0c-.7,0-1.2-.7-1.2-1.4l2.1-26c0-.7.7-1.2,1.4-1.2.7,0,1.2.7,1.2,1.4l-2.1,26c0,.7-.6,1.2-1.3,1.2Z"/>
          <path class="cls-2" d="M101.9,130.8c-.2,0-.4,0-.6-.2-.3-.2-7.5-4.2-7.7-10.4,0-.4.1-.7.4-1l9.3-8.7-7.2-7c-.5-.5-.5-1.3,0-1.8.5-.5,1.3-.5,1.8,0l8.1,8c.3.2.4.6.4.9s-.2.7-.4.9l-9.8,9.2c.4,3.4,4,6.2,5.5,7.2,2.1-1.8,8.5-7.3,10.6-9.5,6-6.4,5.1-10.4,1.7-14.5-3.3-4-19-21.1-19.1-21.3-.5-.5-.4-1.3,0-1.8.5-.5,1.3-.4,1.8,0,.6.7,15.9,17.3,19.2,21.4,4.8,5.9,4.3,11.5-1.9,17.9-2.6,2.7-11.1,10-11.5,10.3-.2.2-.5.3-.8.3Z"/>
          <path class="cls-2" d="M101.1,141c-2.1,0-4.5-1.5-5-1.8-.6-.4-.8-1.2-.4-1.8s1.2-.8,1.8-.4c1.2.8,2.9,1.5,3.6,1.4-.5-.6-1.8-1.5-3-2.3-.4-.3-.7-.7-.6-1.2l.2-2.3c0-.7.7-1.2,1.4-1.2.7,0,1.2.7,1.2,1.4v1.5c2.2,1.4,4.4,3.4,3.5,5.2-.4.7-1,1.1-1.7,1.3-.3,0-.6.1-.9.1Z"/>
          <path class="cls-2" d="M98.8,135c-.6,0-1.2-.4-1.3-1.1-.1-.7.3-1.4,1-1.5.7-.1,1.1-.4,1.3-.7.3-.5.1-1.4-.3-2.4-.3-.7,0-1.4.7-1.7.7-.3,1.4,0,1.7.7.8,1.9.9,3.5.2,4.7-.6,1.1-1.6,1.7-3.1,2,0,0-.2,0-.2,0Z"/>
          <path class="cls-2" d="M68.3,177.8c-1.7,0-3.5-.3-5.1-1.4-.4-.2-.6-.6-.6-1.1v-19.5c0-.7.5-1.3,1.2-1.3h0c.7,0,1.3.6,1.3,1.3v18.7c2.2,1,4.9.6,6.2.2,0-3,.5-12.5,2.6-17.4.3-.7,1-1,1.7-.7.7.3,1,1,.7,1.7-2.3,5.4-2.4,17.3-2.4,17.4,0,.5-.3,1-.8,1.2-.1,0-2.2.8-4.8.8Z"/>
          <path class="cls-2" d="M64.6,186.2c-.6,0-1.1,0-1.6-.3-1.2-.5-2-1.3-2.3-2.5-1-3.5,2.7-8.5,2.7-8.5.4-.6,1.2-.7,1.8-.3.6.4.7,1.2.3,1.8-1.2,1.7-2.7,4.7-2.3,6.3,0,.3.2.6.8.8,1,.4,2.6-.2,4.1-1.5,1.9-1.7,3.1-4.1,2.7-5.6-.2-.7.2-1.4.9-1.6.7-.2,1.4.2,1.6.9.8,2.8-1.2,6.1-3.5,8.2-1.7,1.5-3.5,2.3-5.1,2.3Z"/>
          <path class="cls-2" d="M87.8,177.8c-2.5,0-4.6-.7-4.8-.8-.5-.2-.8-.7-.8-1.2,0-.1-.2-12-2.4-17.4-.3-.7,0-1.4.7-1.7.7-.3,1.4,0,1.7.7,2.1,5,2.5,14.4,2.6,17.4,1.3.3,4,.8,6.2-.2v-18.9c0-.7.6-1.3,1.3-1.3h0c.7,0,1.3.6,1.3,1.3v19.7c0,.4-.3.9-.7,1.1-1.6,1-3.5,1.4-5.1,1.4Z"/>
          <path class="cls-2" d="M91.6,186.2c-1.6,0-3.4-.8-5.1-2.3-2.3-2-4.2-5.3-3.5-8.2.2-.7.9-1.1,1.6-.9.7.2,1.1.9.9,1.6-.4,1.5.8,3.9,2.7,5.6,1.5,1.3,3,1.9,4.1,1.5.5-.2.7-.5.8-.8.4-1.5-1.1-4.6-2.3-6.3-.4-.6-.3-1.4.3-1.8.6-.4,1.4-.3,1.8.3,0,0,3.7,5,2.7,8.5-.3,1.2-1.1,2-2.3,2.5-.5.2-1,.3-1.6.3Z"/>
          <path class="cls-2" d="M84.8,89.9c-.6,0-1.1-.4-1.2-.9-.2-.7.2-1.4.9-1.6,8.2-2.4,13.2-7.8,14.8-16,1.5-7.5-.2-15.7-1.4-19.9-.2-.7.2-1.4.9-1.6.7-.2,1.4.2,1.6.9,1.5,5.4,2.9,13.5,1.4,21.1-1.8,9.3-7.4,15.3-16.6,18-.1,0-.2,0-.4,0Z"/>
          <path class="cls-2" d="M59.2,81.7c-.4,0-.8-.2-1.1-.5-6.2-8.7-7.7-20.2-8.1-23.5,0-.7.4-1.3,1.2-1.4.7,0,1.3.4,1.4,1.2.2,2.2,1.7,13.9,7.6,22.3.4.6.3,1.4-.3,1.8-.2.2-.5.2-.7.2Z"/>
          <path class="cls-2" d="M58.5,86.3c-.1,0-.2,0-.4,0-5.2-1.5-9.4-5.8-12.7-13-2.5-5.4-3.6-13-3-20.8.6-8.2,3-15.3,6.7-19.9,3.7-4.6,8.4-6.5,13.8-5.7,2.5-4.7,7-7.5,12.6-7.8,10.1-.6,22.3,6.5,28.4,16.4,5.9,9.7,6.5,20.6,6.4,23-.7,11.5-4.2,17.8-11.3,20.4-.7.2-1.4,0-1.7-.8-.2-.7,0-1.4.8-1.7,4.1-1.5,8.8-4.9,9.6-18.1,0-.1.3-11.2-6-21.5-5.5-9.1-16.9-15.7-26-15.2-3.5.2-8.3,1.6-10.8,7.2-.3.6-.9.9-1.4.7-4.9-1-9,.5-12.2,4.6-3.3,4.2-5.6,10.9-6.2,18.5-.6,7.3.4,14.5,2.7,19.5,3,6.5,6.7,10.4,11.1,11.6.7.2,1.1.9.9,1.6-.2.6-.7.9-1.2.9Z"/>
          <path class="cls-2" d="M48.6,59.2c0,0-.1,0-.2,0-.7,0-1.3-.7-1.2-1.4,0-.7.7-1.3,1.4-1.2,1.4,0,5.7-1.8,10-5.5,2.9-2.5,7.9-7.5,8.7-13.9,0-.6.6-1.1,1.2-1.1.6,0,1.2.4,1.3,1,1.2,6,5.1,8,8.1,8.6,4.1.8,8.6-.6,9.8-2.4.3-.4.8-.6,1.3-.5.5.1.9.5,1,1.1.4,2.6,2.3,4,3.7,4.7,2.9,1.4,6.1,1.4,7.3.8.6-.3,1.4,0,1.7.6.3.6,0,1.4-.6,1.7-2.3,1.2-6.5.8-9.7-.7-2.1-1.1-3.6-2.6-4.5-4.5-2.6,1.8-6.9,2.6-10.8,1.9-2.5-.5-6.4-2-8.7-6.4-3.9,10.2-15.9,17.4-20.1,17.4Z"/>
          <path class="cls-2" d="M81,96.5c-.2,0-.4,0-.6-.2-.5-.3-.6-.4-2.1-4.7-.2-.7.1-1.4.8-1.6.7-.2,1.4.1,1.6.8.4,1.3.7,2.1.9,2.7,1.1-.6,2.8-1.7,4.4-2.7.6-.4,1.4-.2,1.8.4.4.6.2,1.4-.4,1.8,0,0-1.4.9-2.8,1.8-2.2,1.4-3,1.9-3.7,1.9Z"/>
          <path class="cls-2" d="M87.2,61c-2.4.4-3-3.5-.6-3.9,2.4-.4,3,3.5.6,3.9Z"/>
          <path class="cls-2" d="M66.9,63.9c-2.4.4-3-3.5-.6-3.9,2.4-.4,3,3.5.6,3.9Z"/>
          <path class="cls-2" d="M77.6,67.1c-.2,0-.5,0-.7-.2l-2.1-1.4c-.3-.2-.5-.5-.6-.9,0-.3,0-.7.2-1l1.7-2.4c.4-.6,1.2-.7,1.8-.3.6.4.7,1.2.3,1.8l-.9,1.3,1,.6c.6.4.8,1.2.4,1.8-.2.4-.7.6-1.1.6Z"/>
          <path class="cls-2" d="M69,94.5c-.6,0-1.2-.5-1.3-1.1,0-.7.4-1.3,1.1-1.4,5.6-.6,9.8-1.6,14.2-3.3.9-.4.7-1,.6-1.3-.1-.3-.4-.6-.9-.4-5.2,2.1-10.4,3.2-16.9,3.5-.7,0-1.3-.5-1.4-1.2,0-.7.5-1.3,1.2-1.4,6.2-.4,11.2-1.4,16.1-3.4,1.7-.7,3.6,0,4.3,1.8.7,1.6.2,3.7-2,4.6,0,0,0,0,0,0-4.6,1.8-9,2.8-14.8,3.5,0,0,0,0-.1,0Z"/>
          <path class="cls-2" d="M70.5,98.9c-.7,0-1.2-.5-1.3-1.2,0-.7.5-1.3,1.2-1.4,2.1-.2,4.2-.6,6.1-1.2.8-.3.7-.7.6-1-.1-.4-.6-.8-1.2-.6-.7.2-1.4-.1-1.7-.8-.2-.7.1-1.4.8-1.7,2-.7,3.8.5,4.5,2.2.6,1.5.1,3.5-2.2,4.4,0,0,0,0,0,0-2.2.7-4.4,1.2-6.8,1.4,0,0,0,0-.1,0Z"/>
          <path class="cls-2" d="M71.6,103.1c-.7,0-1.2-.5-1.3-1.2,0-.7.5-1.3,1.2-1.4,1.5-.1,3-.4,4.5-.9.5-.2,1-.5.7-1.1,0-.3-.4-.7-1-.5-.7.2-1.4-.1-1.6-.8-.2-.7.1-1.4.8-1.6,2-.7,3.7.5,4.3,2.1.5,1.5,0,3.5-2.3,4.4,0,0,0,0,0,0-1.6.5-3.3.8-5,1,0,0,0,0-.1,0Z"/>
          <path class="cls-2" d="M66.1,108.1c-2.7,0-5.5-.5-8-1.9-3.1-1.7-5.4-6.8-3.7-11.4.6-1.7,1.6-2.9,2.4-3.9.5-.6,1-1.2,1.2-1.7.4-.9-.2-2.3-.7-3.8-.2-.4-.3-.8-.4-1.2-.8-2.4.3-4.4,1.9-5,1.7-.7,4.1,0,5.6,3.1,1.4,3,3.4,5.2,4.1,5.8.5.5.6,1.3.2,1.8-.5.5-1.3.6-1.8.2-1-.9-3.3-3.5-4.8-6.7-.7-1.6-1.7-2-2.3-1.8-.4.2-.7.8-.4,1.8.1.4.3.8.4,1.2.7,2,1.5,4,.7,5.8-.4.9-1,1.6-1.6,2.3-.7.9-1.5,1.8-2,3.1-1.3,3.5.6,7.2,2.5,8.2,3,1.6,6.7,1.9,12.3,1,1.1-.2,3.3-.6,4.6-1.4.6-.4.8-.9.7-1.2-.1-.2-.5-.3-1,0-.7.3-1.4,0-1.7-.7-.3-.7,0-1.4.7-1.7,1.7-.7,3.5-.2,4.3,1.2.7,1.2.5,3.2-1.5,4.5-1.8,1.2-4.3,1.6-5.6,1.8-1.9.3-3.9.6-5.9.6Z"/>
          <path class="cls-2" d="M52.9,120.9c-.2,0-.4,0-.6,0-2.9-.2-5.5-2.1-6.9-5-1.6-3.4-1-7.3,1.4-10.7,4.1-5.7,7.2-9.2,7.3-9.3.5-.5,1.3-.6,1.8-.1.5.5.6,1.3.1,1.8,0,0-3.1,3.6-7.2,9.1-1.9,2.6-2.4,5.6-1.2,8.1.9,2,2.8,3.4,4.7,3.5,2,.1,3.8-1,5.3-3.1,3.7-5.6,6.1-9.1,6.1-9.1.4-.6,1.2-.7,1.8-.3.6.4.7,1.2.3,1.8,0,0-2.4,3.5-6.1,9.1-1.8,2.8-4.3,4.3-7,4.3Z"/>
          <path class="cls-2" d="M76.7,76c-.4,0-.8-.2-1.1-.6-.4-.6-.2-1.4.4-1.8.1,0,2.7-1.7,6-1.5.7,0,1.3.7,1.2,1.4,0,.7-.7,1.3-1.4,1.2-2.5-.1-4.4,1.1-4.4,1.1-.2.1-.5.2-.7.2Z"/>
        </g>
        <path class="cls-1" d="M81.6,29.1c-1.4-.3-2.4-1.6-2.1-2.9.3-1.7.9-4.2,2.5-6.2,1.6-2.1,4.1-3.1,6.2-3.9,1.8-.7,3.5-1.4,3.8-2.3.2-.5-.1-1.1-.9-1.8-1.1-1-3.1-1.9-5.1-2.3-1.7-.3-3.3-.3-4.7,0-.9.2-1.3.7-1.3.9,0,.2.3.4.7.6.7.3,1.2.8,1.5,1.5.2.6.2,1.3,0,1.9-.5,1.1-1.7,1.7-2.9,1.4-.2,0-.4,0-.5-.2-2.6-1.1-4.1-3.2-4-5.6.1-2.5,2.1-4.7,5.1-5.4,2.2-.6,4.7-.6,7.3,0,3,.6,5.7,1.9,7.6,3.7,2.2,2,3.1,4.5,2.4,6.9-.9,3.2-4.1,4.5-6.7,5.5-1.7.7-3.3,1.4-4.1,2.3-.9,1.2-1.3,2.9-1.5,4.1-.1.6-.5,1.2-1,1.6-.6.4-1.3.6-2,.4h0Z"/>
        <path class="cls-1" d="M80.1,35.7c-3.7-.8-2.6-6.4,1.1-5.6,3.7.8,2.6,6.4-1.1,5.6Z"/>
      </g>
    </g>
  </g>
</svg>