<?xml version="1.0" encoding="UTF-8"?>
<svg xmlns="http://www.w3.org/2000/svg" version="1.1" viewBox="0 0 153.1 153.1">
  <defs>
    <style>
      .cls-1 {
        fill: none;
      }

      .cls-2 {
        fill: #959596;
      }

      .cls-3 {
        fill: #040000;
      }

      .cls-4 {
        fill: #231815;
      }

      .cls-5 {
        fill: #fff;
      }

      .cls-6 {
        fill: #f9be00;
      }
    </style>
  </defs>
  <!-- Generator: Adobe Illustrator 28.7.1, SVG Export Plug-In . SVG Version: 1.2.0 Build 142)  -->
  <g>
    <g id="_レイヤー_1" data-name="レイヤー_1">
      <g id="_レイヤー_1-2" data-name="_レイヤー_1">
        <g>
          <g>
            <path class="cls-6" d="M59.5,145.9c-.2-1.9-4.9-22.7-6-29.2-1.3-7.8-5.7-27.9-5.7-27.9-.2.2-13.5-2.8-24.4-5.1-7.8-1.6-11.3-4.7-12.7-7.4-4.1-7.8,7-7.6,16.3-11.3,0,0,22.7-1.2,27.8-3.2,5.3-2,9.5,4.5,14.9,3.9,11.6-1.2,25.2-.4,24.2.3,0,0,11.4-5.6,15-3,1.6,1.2,3.3,2.5,4.8,4,4,3.6,7.5,7.4,9.4,9.2,2.9,2.8,10.5,9.5,12.6,11.2,5.5,4.5,10.2,10.2,9.3,15.2-1.7,9.6-34.4,29.9-34.4,29.9,0,0-1.8,11.7-2.2,13.4h-48.8,0ZM126,101.9l-11.1-6-2,14.6c.2-.2,13.1-8.6,13.1-8.6h.1Z"/>
            <path class="cls-4" d="M108.3,146.7h-48.8c-.4,0-.8-.3-.8-.7-.1-.9-1.2-6.1-2.3-11.6-1.4-6.5-3-14.1-3.6-17.5-1.2-6.9-4.8-23.9-5.5-27.3-.3,0-.7-.1-1.1-.2-1-.2-2.3-.5-4.3-.8-3.5-.7-8.3-1.7-12.8-2.8-1.9-.4-3.8-.8-5.7-1.2-3.7-.8-6.7-1.9-9.1-3.5-1.9-1.2-3.5-2.8-4.3-4.5-1-1.9-1.2-3.6-.6-5,1.2-2.8,5.3-3.9,10.1-5.2,2.3-.6,4.9-1.3,7.2-2.2h.3c.2,0,22.6-1.2,27.5-3.2,3.3-1.3,6,.3,8.7,1.7,2.1,1.2,4.2,2.3,6.4,2,4.9-.5,10.8-.7,16.3-.6,2.2,0,4.3.2,5.8.3,1.2.1,1.9.2,2.3.4,2.1-1,4.4-1.8,6.3-2.4,4.4-1.3,7.3-1.4,9.1-.2,1.5,1.1,3.2,2.4,4.9,4.1,2.7,2.4,5.2,5,7,6.8.9.9,1.7,1.8,2.3,2.3,3,2.9,10.5,9.5,12.5,11.2,3.2,2.5,5.6,5.1,7.2,7.5,2,3.1,2.9,5.9,2.3,8.5-.8,4.2-6.9,10.6-18.2,19.1-7.3,5.5-14.7,10.2-16.2,11.2-.3,2-1.8,11.5-2.2,13.1,0,.4-.4.6-.8.6h-.1ZM60.2,144.9h47.4c.6-3,2.1-12.5,2.1-12.6,0-.2.2-.4.4-.6,0,0,8.3-5.1,16.4-11.3,13.6-10.2,17-15.4,17.5-18,.4-2.1-.3-4.5-2.1-7.1-1.5-2.3-3.9-4.7-6.8-7.2-2-1.7-9.7-8.5-12.6-11.2l-2.4-2.4c-1.9-1.9-4.3-4.4-6.9-6.7-1.7-1.5-3.4-2.9-4.8-4-1.1-.8-3.9-.7-7.5.4-2,.6-4.3,1.5-6.5,2.5-.6.3-1,0-1.1-.2-2-.5-13.1-1-23.5,0h-.8c-2.4,0-4.6-1.2-6.6-2.3-2.5-1.4-4.8-2.7-7.2-1.6-5,2-25.9,3.2-27.9,3.3-2.4.9-4.9,1.6-7.2,2.2-4.4,1.2-8.2,2.2-9.1,4.3-.4.9-.2,2,.5,3.6,2.1,4.1,7.9,6.1,12.2,7,1.8.4,3.8.8,5.7,1.2,8.2,1.7,17.3,3.8,18.5,3.9h.4c.3,0,.5.3.5.6s4.3,20.2,5.7,27.9c.6,3.5,2.1,10.9,3.6,17.4,1.1,5.1,1.9,9.3,2.3,11.1h0ZM47.2,88h0ZM47.2,88h0ZM47.2,88h0ZM113,111.2h-.3c-.3-.1-.6-.5-.5-.9l2-14.6c0-.3.2-.5.4-.6.2-.1.5-.1.8,0l11.1,6c.3.1.4.4.4.7s-.1.6-.4.7c-4.9,3.2-12.3,8-13,8.5-.2.1-.4.2-.6.2ZM113.7,110.9h0ZM113.7,110.9h0ZM115.6,97.1l-1.5,11.5c1-.6,2.5-1.6,5.1-3.3,2-1.3,4.1-2.7,5.3-3.5l-8.8-4.8h-.1Z"/>
          </g>
          <g>
            <path class="cls-5" d="M87.7,57s-.7,10.6,2,15c2.9,4.4,5,3.9,5,3.9l-13.2,39.6-15.5-38.5s3.4.6,6.4-5.3c3.1-5.8.9-13.7.9-13.7"/>
            <path class="cls-4" d="M81.7,116.3c-.3,0-.6-.2-.8-.5l-15.5-38.5c-.1-.3,0-.6.1-.8.2-.2.5-.3.8-.3s2.9.2,5.5-4.8c2.9-5.5.8-13,.8-13.1-.1-.4.1-.9.6-1,.4-.1.9.1,1,.6,0,.3,2.2,8.2-.9,14.3-2.1,4.1-4.5,5.3-5.9,5.6l14.2,35.4,12-36.5c-1.1-.3-2.8-1.3-4.6-4.2-3-4.5-2.2-15-2.2-15.5s.4-.8.9-.8.8.4.8.9c0,0-.2,2.7,0,5.7.2,4,.9,7,1.9,8.7,2.2,3.5,4,3.6,4.2,3.6.3,0,.6,0,.8.2.2.2.2.5.2.8l-13.2,39.6c-.1.3-.4.6-.8.6h0Z"/>
          </g>
          <g>
            <polygon class="cls-4" points="83.4 79.5 77.8 79.5 75.4 70.7 85.9 70.7 83.4 79.5"/>
            <polygon class="cls-4" points="86.8 101.5 81.7 113.9 76 102.2 77.8 79.5 83.4 79.5 86.8 101.5"/>
          </g>
          <g>
            <g>
              <path class="cls-5" d="M81.2,71.6l7.5,7.9c.1,0,3.4-4.3,5-7.3,1.7-3.2,2.5-6.2,2.4-6.2l-2.9-4.5s-4.2,4.6-6.2,6.3-5.9,3.9-5.9,3.9Z"/>
              <path class="cls-4" d="M88.7,80.4h-.3c-.1,0-.2-.1-.3-.2l-7.5-7.9c-.2-.2-.3-.4-.2-.7s.2-.5.4-.6c0,0,3.8-2.1,5.8-3.8,2-1.7,6.1-6.2,6.1-6.2.2-.2.4-.3.7-.3s.5.2.6.4l2.9,4.5h0c.1.4.2.6-.5,2.8-.4,1-1,2.7-1.9,4.4-.7,1.3-1.8,3.2-3.2,4.9-.5.7-1,1.3-1.3,1.8-.5.6-.8,1-1.2,1h0ZM82.6,71.8l6.1,6.4c.9-1.2,3.1-4.2,4.3-6.5,1.3-2.5,2.1-4.9,2.3-5.7l-2-3.4c-1.3,1.4-4,4.3-5.6,5.6-1.5,1.3-3.9,2.8-5.1,3.5h0ZM95.6,66.4c.1.2.3.3.5.3-.2,0-.4-.2-.5-.3Z"/>
            </g>
            <g>
              <path class="cls-5" d="M80.3,71.6l-7.5,7.9c-.1,0-3.4-4.3-5-7.3-1.7-3.2-2.5-6.2-2.4-6.2l2.9-4.5s4.2,4.6,6.2,6.3,5.9,3.9,5.9,3.9Z"/>
              <path class="cls-4" d="M72.7,80.4c-.4,0-.8-.4-1.2-1-.4-.5-.8-1.1-1.3-1.8-1.2-1.7-2.3-3.6-3.2-4.9-.9-1.7-1.6-3.4-1.9-4.4-.8-2.1-.7-2.3-.5-2.7h0c0-.1,2.9-4.6,2.9-4.6.1-.2.4-.4.6-.4.3,0,.5,0,.7.3,0,0,4.2,4.6,6.1,6.2,1.9,1.7,5.7,3.8,5.8,3.8.2.1.4.3.4.6s0,.5-.2.7l-7.5,7.9s-.2.1-.3.2h-.3,0ZM66.2,66.1c.2.8,1,3.2,2.3,5.7,1.2,2.3,3.4,5.2,4.3,6.5l6.1-6.4c-1.3-.7-3.7-2.1-5.1-3.5-1.5-1.3-4.3-4.2-5.6-5.6l-2,3.4h0ZM66,66.4c-.1.2-.3.3-.5.3.2,0,.4-.2.5-.3Z"/>
            </g>
          </g>
          <g>
            <path class="cls-6" d="M104.6,74.6l-7.1-12.3-4,1.3s-1.8,17.3-2.7,22.6c-1.4,9.6-8.9,30.3-9.1,29.3,0,0,8.3-9.3,12.2-14.3,4-5,10.5-19.8,10.5-19.8l-7.9-3.2,8.1-3.7h-.1Z"/>
            <path class="cls-4" d="M81.7,116.3c-.4,0-.8-.3-.8-.7s0-.5.2-.7l.2-.2c1.2-2.4,7.4-20.1,8.8-28.7.8-5.2,2.7-22.4,2.7-22.5,0-.3.3-.6.6-.7l4-1.3c.4-.1.8,0,1,.4l7.1,12.3c.1.2.1.4,0,.7,0,.2-.2.4-.4.5l-6.2,2.9,6,2.4c.2,0,.4.2.5.5v.6c-.3.6-6.6,15-10.6,20-3.5,4.4-10.4,12.2-11.9,14-.2.4-.5.6-.9.6h-.2ZM94.2,64.2c-.3,3-1.9,17.4-2.7,22.1-.8,5.4-3.5,13.8-4.9,18.3-.7,2.2-1.5,4.5-2.2,6.4,2.8-3.2,6.5-7.5,8.8-10.4,3.4-4.2,8.6-15.7,10-18.8l-7-2.9c-.3-.1-.5-.4-.5-.7s.2-.6.5-.8l7.2-3.3-6.3-10.9-2.9.9h0Z"/>
          </g>
          <g>
            <path class="cls-6" d="M58.7,73.3l4.3-11.4,6.3,1.6s.7,16.3,1.9,21.5c3,13.3,10.3,30.4,10.3,30.4,0,0-12.7-15.3-16.3-21.2-3.3-5.4-6.5-13.4-6.5-13.4l6.9-3.4s-6.9-4.2-6.9-4.2Z"/>
            <path class="cls-4" d="M81.7,116.3c-.2,0-.5-.1-.6-.3-.5-.6-12.8-15.4-16.4-21.3-3.3-5.4-6.5-13.4-6.6-13.5-.2-.4,0-.9.4-1.1l5.5-2.7-5.6-3.4c-.3-.2-.5-.6-.3-1l4.3-11.4c.1-.4.6-.6,1-.5l6.3,1.6c.4,0,.6.4.6.8s.7,16.3,1.8,21.4c3,13.1,10.2,30.1,10.3,30.2.2.4,0,.8-.3,1-.1,0-.3.1-.4.1ZM59.9,81.3c.9,2,3.6,8.2,6.2,12.5,2.3,3.9,8.8,11.9,12.7,16.8-2.4-6.1-6.3-16.6-8.3-25.4-1-4.7-1.7-18-1.9-21.1l-5-1.2-3.8,10.1,6.3,3.8c.3.2.4.4.4.7s-.2.6-.5.7l-6.2,3h0Z"/>
          </g>
          <g>
            <circle class="cls-5" cx="82.2" cy="124.3" r="2.1"/>
            <path class="cls-4" d="M82.1,127.2c-1.6,0-3.1-1.3-3.1-3.1s1.3-3.1,3.1-3.1,3.1,1.3,3.1,3.1-1.3,3.1-3.1,3.1ZM82.1,122.9c-.7,0-1.3.6-1.3,1.3s.6,1.3,1.3,1.3,1.3-.6,1.3-1.3-.6-1.3-1.3-1.3Z"/>
          </g>
          <g>
            <path class="cls-4" d="M99.9,13.1h0c-.5,0-.9-.5-.8-1l.4-4.8c0-.5.5-.9,1-.8.5,0,.9.5.8,1l-.4,4.8c0,.5-.4.8-.9.8h-.1Z"/>
            <path class="cls-4" d="M105.4,16.1c-.2,0-.4,0-.6-.2-.4-.3-.5-.9-.2-1.3l3.1-4c.3-.4.9-.5,1.3-.2s.5.9.2,1.3l-3.1,4c-.2.2-.5.4-.7.4Z"/>
            <path class="cls-4" d="M109.6,20.8c-.4,0-.8-.3-.9-.7-.2-.5.1-1,.6-1.2l4.3-1.3c.5-.2,1,.1,1.2.6s-.1,1-.6,1.2l-4.3,1.3h-.3,0Z"/>
          </g>
          <g>
            <path class="cls-5" d="M28.9,57.2c.3,0,22.6-11,22.6-11l3.7,11.1-18.3,11.2-8.1-11.2h0Z"/>
            <path class="cls-4" d="M36.9,69.3c-.3,0-.5-.1-.7-.3l-8.1-11.2c-.2-.2-.2-.5-.1-.7,0-.2.3-.4.5-.5.7-.3,16.5-8.1,22.5-11,.2-.1.5-.1.7,0,.2,0,.4.3.5.5l3.7,11.1c.1.4,0,.8-.3,1l-18.3,11.2c-.1,0-.3.1-.4.1v-.2ZM30.1,57.5l7,9.8,17-10.5-3.2-9.5c-11.4,5.6-18.5,9-20.9,10.2ZM28.6,56.4h0Z"/>
          </g>
          <g>
            <path class="cls-5" d="M97.3,54.9c3.3.5,7.1-3,7.2-7.3,0-2.8-3.8-5.3-6.1-3.2-.9.8-1.9,2-2.2,2.5"/>
            <path class="cls-4" d="M97.9,55.8h-.8c-.4,0-.7-.5-.7-.9s.5-.7.9-.7c1.1.2,2.4-.2,3.7-1.2,1.6-1.3,2.5-3.4,2.7-5.4,0-1.1-.8-2.2-1.9-2.8-.5-.2-1.7-.6-2.9.3-.8.8-1.8,1.9-2.1,2.3-.2.4-.7.5-1.1.3s-.5-.7-.3-1.1c.4-.6,1.4-1.9,2.4-2.8,1.2-1.1,3-1.3,4.6-.5,1.8.8,3,2.5,3,4.4s-1.3,5-3.3,6.6c-1.3,1-2.8,1.6-4.2,1.6v-.2Z"/>
          </g>
          <g>
            <path class="cls-5" d="M100.2,48.5c-.7.3-1.5.7-1.7,1.8"/>
            <path class="cls-4" d="M98.5,51.1h-.2c-.4,0-.7-.5-.6-1,.3-1.6,1.6-2.1,2.2-2.4.4-.2.9,0,1.1.4s0,.9-.4,1.1c-.6.3-1.1.5-1.2,1.2,0,.4-.4.7-.8.7h-.1Z"/>
          </g>
          <g>
            <path class="cls-5" d="M64.6,54.7c-3.3.5-7.1-3-7.2-7.3,0-2.8,3.8-5.3,6.1-3.2.9.8,1.9,2,2.2,2.5"/>
            <path class="cls-4" d="M63.9,55.6c-1.4,0-2.9-.6-4.2-1.6-1.9-1.6-3.2-4.1-3.3-6.6,0-1.7,1.1-3.5,3-4.4,1.6-.8,3.4-.5,4.6.5.9.8,2,2.1,2.4,2.8.2.4.1.9-.3,1.1-.4.2-.9.1-1.1-.3-.3-.4-1.2-1.6-2.1-2.3-1.1-.9-2.3-.5-2.9-.3-1.2.5-1.9,1.7-1.9,2.8,0,2,1,4.1,2.7,5.4,1.1.9,2.4,1.4,3.7,1.2.4,0,.9.2.9.7s-.2.9-.7.9h-.8v.2Z"/>
          </g>
          <g>
            <path class="cls-5" d="M61.3,34.3c-.6,4.4.9,11.6,1.8,17.8,2.2,16.1,13.3,19.1,17.1,18.9,8.9-.5,15.4-6.8,17.4-16.8,1-5.2,2.2-13.9.2-19.6-2-5.7-9-20.2-22.5-11.7-8,5-12.7,3.4-14,11.4h-.1Z"/>
            <path class="cls-4" d="M79.7,71.9c-2.3,0-6-.9-9.3-3.6-2-1.6-3.8-3.7-5.1-6-1.5-2.9-2.7-6.2-3.2-10.1-.2-1.5-.5-3.1-.7-4.6-.8-4.9-1.6-9.9-1.1-13.4.8-5.9,3.8-7,7.8-8.8,1.9-.8,4.1-1.6,6.6-3.3,4.3-2.7,8.4-3.4,12.1-2.1,6.8,2.4,10.4,10.8,11.6,14.3.9,2.7,1.3,6.1,1.1,10.3-.2,3.9-.8,7.4-1.2,9.7-1,5.1-3.3,9.3-6.4,12.3-3.2,3.1-7.2,4.9-11.8,5.1h-.4ZM83.2,21.1c-2.3,0-4.9.8-7.5,2.4s-5,2.7-6.8,3.4c-3.9,1.6-6,2.4-6.7,7.4h0c-.5,3.2.3,8.2,1.1,12.8.2,1.5.5,3.2.7,4.7.5,3.7,1.5,6.8,3,9.5,1.2,2.2,2.8,4.1,4.7,5.5,3.3,2.5,6.6,3.3,8.7,3.2,4.1-.2,7.9-1.8,10.7-4.6,2.9-2.9,5-6.8,5.9-11.5.8-3.8,2.3-13.2.2-19.2-.9-2.5-4.3-11-10.6-13.3-1-.4-2.1-.5-3.2-.5h-.1ZM61.3,34.3h0Z"/>
          </g>
          <g>
            <path class="cls-5" d="M78.5,53.7l-2.3-1.9s1.7-5.4,1.9-7.6"/>
            <path class="cls-4" d="M78.5,54.5c-.2,0-.4,0-.5-.2l-2.3-1.9c-.3-.2-.3-.6-.2-.9,0,0,1.7-5.4,1.9-7.4,0-.5.4-.8.9-.7.5,0,.8.4.7.9-.2,1.8-1.3,5.8-1.8,7.2l1.9,1.6c.3.3.4.8,0,1.2-.2.2-.4.3-.6.3h0Z"/>
          </g>
          <path class="cls-4" d="M88.4,43.6c.3.7,0,1.5-.8,1.8-.7.3-1.5,0-1.8-.8-.3-.7,0-1.5.8-1.8.7-.3,1.5,0,1.8.8Z"/>
          <path class="cls-4" d="M73.8,43.6c.3.7,0,1.5-.8,1.8-.7.3-1.5,0-1.8-.8-.3-.7,0-1.5.8-1.8.7-.3,1.5,0,1.8.8Z"/>
          <g>
            <path class="cls-4" d="M62.8,36.2c-.6,4.4-.7,10.9-.7,10.9,0,0-2.9-7.9-4-12.1-1.1-4.3-1.4-11.8,5.2-15.6,2.9-1.6,11-4.8,14.3-5.6,5.3-1.3,11.2-.3,15.2,2.3,4.4,2.9,4.1,7,4.1,7,0,0,2.2-.9,4.9,2,6.1,6.8-4,24-3.7,23.7,0,0,.8-6.5-3-11-4-4.7-5-11.1-4.8-14.9,0,0-9.2,7.8-18.6,11.8,0,0,3.8-6.1,5-8,0,0-7.8,4.4-10.5,8.6l1.8-8.3s-4.8,5-5.4,9.2h.1Z"/>
            <path class="cls-4" d="M98.2,49.7c-.2,0-.3,0-.5-.1-.1,0-.4-.3-.3-.8,0-.3.7-6.3-2.8-10.4-3.4-4-4.9-9.4-5-13.6-3,2.3-10,7.6-17.3,10.8-.3.1-.7,0-.9-.2-.2-.3-.3-.7,0-1,0,0,1.6-2.5,3.1-4.9-2.4,1.6-5.6,4.1-7.1,6.3-.2.3-.6.5-1,.3s-.6-.5-.5-.9l1.1-4.8c-1.2,1.7-2.7,4-3,6h0c-.6,4.3-.7,10.7-.7,10.8,0,.4-.3.7-.7.8-.4,0-.8-.2-.9-.5s-2.9-8-4-12.1c-.4-1.6-1-4.9-.3-8.4.8-3.6,2.8-6.3,5.9-8.2,3-1.6,11.2-4.9,14.5-5.7,5.3-1.3,11.5-.4,15.8,2.4,3.5,2.2,4.3,5.2,4.5,6.7h.8c1.3.2,2.8,1,4,2.4,2.4,2.9,2.9,7.3,1,13.7-1.3,4.8-3.6,9.1-4.4,10.5,0,.1-.1.3-.2.3,0,.1,0,.2-.2.3-.2.2-.4.3-.6.3l-.2-.2ZM90.5,22.1h.4c.3.1.5.5.4.8-.2,3.1.5,9.5,4.6,14.3,2.1,2.5,3,5.6,3.2,8.1.9-1.9,2-4.7,2.9-7.4,1.6-5.6,1.4-9.7-.7-12-2.2-2.5-4-1.8-4-1.8-.3.1-.6,0-.8,0-.2-.2-.4-.4-.3-.7,0,0,0-.9-.4-2.1-.6-1.6-1.7-3-3.4-4.1-4-2.5-9.6-3.5-14.5-2.2-3.2.8-11.2,4-14.1,5.5-2.7,1.5-4.4,4-5.1,7-.5,2.3-.4,5.1.3,7.5.6,2.1,1.6,5.3,2.4,7.9,0-2,.3-4.5.5-6.5h0c.6-4.4,5.4-9.4,5.6-9.6.3-.3.7-.3,1-.2.3.2.5.5.4.9l-1.1,5c3.4-3.3,8.3-6,8.6-6.2s.7-.1,1,.2.3.7,0,1c-.7,1.1-2.3,3.7-3.5,5.6,8.3-4.1,15.8-10.4,15.9-10.5.2-.1.3-.2.5-.2h.1ZM62.8,36.2h0Z"/>
          </g>
          <path class="cls-4" d="M98.8,36.3c-.2,0-.4,0-.6-.2-2.4-2.3-3.9-5.7-3.9-8.8s.4-.8.8-.8.8.4.8.8c0,2.5,1.2,5.5,3.4,7.4.3.3.3.8,0,1.2-.2.2-.4.3-.6.3h.1Z"/>
          <path class="cls-2" d="M68.1,23.5c-.2,0-.4,0-.6-.2-.3-.3-.4-.8,0-1.2.9-1,4.4-2.4,8.5-4.2.9-.4,1.6-.7,2.1-.9.4-.2.9,0,1.1.4s0,.9-.4,1.1c-.5.2-1.2.5-2.1.9-2.3.9-7.1,3-7.9,3.8-.2.2-.4.3-.6.3h-.1Z"/>
          <path class="cls-2" d="M73.2,25.4c-.3,0-.6-.1-.7-.4-.2-.4,0-.9.3-1.1.8-.4,2.5-1.3,4.4-2.1,2.1-1,4.6-2.1,5.4-2.7.4-.2.9-.1,1.1.2.2.4.1.9-.2,1.1-.9.6-3.3,1.7-5.5,2.8-1.7.8-3.6,1.7-4.3,2.1-.1,0-.3.1-.4.1h-.1Z"/>
          <g>
            <line class="cls-1" x1="88.4" y1="35.2" x2="84.5" y2="37.2"/>
            <path class="cls-4" d="M84.5,38.1c-.3,0-.6-.2-.7-.4-.2-.4,0-.9.3-1.1l4-2c.4-.2.9,0,1.1.3.2.4,0,.9-.3,1.1l-4,2h-.4Z"/>
          </g>
          <g>
            <path class="cls-5" d="M83.3,63.2c.4,2.5-.9,3.8-2.2,3.9-1.3.1-2.2-.6-2.5-3.2-.4-2.5.4-4.8,1.7-5,1.3-.2,2.8,1.7,3.2,4.3h-.1Z"/>
            <path class="cls-4" d="M80.8,68c-2.2,0-2.9-2.1-3.2-3.9-.5-3.1.5-5.6,2.3-5.9.9-.1,1.9.3,2.8,1.4.7.9,1.1,2.1,1.3,3.5h0c.3,1.8-.2,3-.7,3.6-.5.7-1.3,1.1-2.2,1.2h-.3ZM80.4,59.9h0c-.6,0-1.3,1.7-1,4,.4,2.5,1.1,2.4,1.7,2.4s.8-.2,1.1-.6c.4-.5.5-1.3.4-2.3h0c-.2-1.1-.5-2.1-1-2.8-.3-.5-.7-.7-1-.7h-.2Z"/>
          </g>
          <g>
            <path class="cls-5" d="M66.1,52.5s5.1-.2,6-.1c.9,0,.7-2.4-1.5-3.2-2.2-.8-9.2-.7-9.2-.7"/>
            <path class="cls-4" d="M66.1,53.4c-.4,0-.8-.3-.8-.8s.3-.8.8-.8,4.3-.1,5.8-.1c0-.1,0-.3-.2-.6s-.6-.7-1.3-1c-1.7-.6-7-.7-9-.7h0c-.5,0-.8-.4-.8-.8s.4-.8.8-.8,7.1,0,9.5.8c1.9.6,2.9,2.4,2.7,3.7-.1.7-.7,1.2-1.3,1.1-.7,0-4.6,0-6,.1h-.1Z"/>
          </g>
          <g>
            <path class="cls-5" d="M49.4,47c.9-1.1,4.2-6,5.1-6.7,1.3-1,5.3-4.1,6.2-4.8s2.8-.4,4-.2c.9,0,2.8-.1,3.5.3,1,.5,4.7,1.9,4.3,2.7-.8,1.5-1.9,1.8-3.8,1.4-.4,0-2.2-.9-2.2-.9-.5.2-3.3.3-3.3.3l-4,2.7s3.4-.2,4.3.9c.9,1.2.1,1.9.1,1.9,0,0,1,.5,1.1,1.2,0,.7-.5,2-.5,2,0,0,1.3.5,1.4,1.4,0,.9,1,2.8-1.2,4.5s-4.8,2.1-4.8,2.1c0,0-.6,1.4-3,3-2.3,1.5-4.8.4-4.8.4"/>
            <path class="cls-4" d="M54.3,60.6c-1.4,0-2.4-.5-2.4-.5-.4-.2-.6-.7-.4-1.1.2-.4.7-.6,1.1-.4,0,0,2,.9,4-.3,2-1.4,2.7-2.7,2.7-2.7.1-.3.3-.4.6-.5,0,0,2.3-.4,4.4-1.9,1.4-1.1,1.2-2.2,1-3.2,0-.2,0-.4-.1-.6,0-.2-.5-.6-.9-.7-.2,0-.4-.2-.5-.4v-.6c.2-.4.4-1.2.4-1.6s-.3-.4-.7-.6c-.3-.1-.5-.4-.5-.6,0-.3,0-.5.3-.7,0-.1,0-.4-.2-.8-.4-.5-2.3-.7-3.6-.6-.4,0-.7-.2-.8-.5-.1-.4,0-.7.3-.9l4-2.7c.1,0,.3-.1.4-.1,1.2,0,2.7-.1,3-.2h.6c.8.4,1.8.8,2,.8,1.3.3,2,.1,2.7-.7-.5-.4-1.9-1-2.5-1.3-.5-.2-.9-.4-1.1-.5-.3-.2-1.3-.1-1.9-.1h-1.7c-1-.1-2.3-.3-2.9.1h0c-4.1,3.1-5.6,4.3-6.2,4.8-.5.4-2.1,2.8-3.3,4.3-.7,1-1.3,1.8-1.6,2.2s-.8.4-1.2.1c-.4-.3-.4-.8-.1-1.2.3-.4.9-1.2,1.6-2.2,1.7-2.4,3-4.2,3.6-4.6.6-.5,2.1-1.7,6.3-4.8h0c1.1-.8,2.8-.6,4.1-.5h1.5c1,0,2,0,2.8.3l1,.5c2.3,1,3.4,1.6,3.7,2.4v.9c-1.2,2.3-3.3,2.2-4.7,1.8-.4,0-1.4-.5-2.1-.8-.7.1-2,.2-3,.2l-1.6,1.1c.9.2,1.8.5,2.3,1.1.7.9.7,1.6.6,2.1h0c.4.3.8.8.9,1.4,0,.5,0,1.2-.3,1.7.5.3,1.1.9,1.2,1.7v.4c.2,1,.6,3-1.6,4.8-1.8,1.4-3.9,2-4.8,2.2-.4.6-1.2,1.7-3.1,3-1.1.7-2.1.9-3.2.9h.1Z"/>
          </g>
          <g>
            <polyline class="cls-5" points="39.9 50.3 45.3 47.4 52 61.2 46.9 63.9"/>
            <path class="cls-4" d="M46.9,64.8c-.3,0-.6-.2-.7-.4-.2-.4,0-.9.3-1.1l4.4-2.3-6-12.2-4.7,2.4c-.4.2-.9,0-1.1-.4-.2-.4,0-.9.4-1.1l5.5-2.8c.2-.1.4-.1.6,0,.2,0,.4.2.5.4l6.7,13.7c.2.4,0,.9-.4,1.1l-5.1,2.8c-.1,0-.3,0-.4,0Z"/>
          </g>
          <g>
            <g>
              <path class="cls-4" d="M74.8,49.2h-5.8c-1.8,0-3.6-1.5-3.7-3.4l-.3-3c0-.9.2-1.8.8-2.4s1.4-1,2.3-1h6.7c1.9,0,3.5,1.5,3.5,3.5v3c0,1.9-1.5,3.5-3.5,3.5h-.1ZM68,40.7c-.6,0-1.1.2-1.4.6-.3.4-.5.9-.5,1.5l.3,3c.1,1.2,1.2,2.2,2.4,2.2h5.8c1.2,0,2.1-1,2.1-2.1v-3c0-1.2-1-2.1-2.1-2.1h-6.7.1Z"/>
              <path class="cls-4" d="M90.3,49.2h-5.8c-1.9,0-3.5-1.5-3.5-3.5v-3c0-1.9,1.5-3.5,3.5-3.5h6.7c.9,0,1.7.4,2.3,1,.6.6.9,1.5.8,2.4l-.3,3c-.2,1.8-1.8,3.4-3.7,3.4h-.1ZM84.4,40.7c-1.2,0-2.1,1-2.1,2.1v3c0,1.2,1,2.1,2.1,2.1h5.8c1.2,0,2.3-1,2.4-2.2l.3-3c0-.6-.1-1.1-.5-1.5-.3-.4-.8-.6-1.4-.6h-6.7.1Z"/>
              <path class="cls-4" d="M81.4,43.3h-3.8c-.3,0-.6-.3-.6-.6s.3-.6.6-.6h3.8c.3,0,.6.3.6.6s-.3.6-.6.6Z"/>
            </g>
            <path class="cls-4" d="M94.1,44.1c-.3,0-.5-.2-.6-.5,0-.3.1-.7.5-.7l4.5-.9c.3,0,.7.1.7.5s-.1.7-.5.7l-4.5.9h-.1Z"/>
          </g>
          <g>
            <line class="cls-1" x1="60.2" y1="44.7" x2="63.7" y2="44.6"/>
            <path class="cls-4" d="M60.2,45.5c-.4,0-.8-.4-.8-.8s.3-.8.8-.8h3.6c.5-.1.8.3.8.7s-.3.8-.8.8h-3.6Z"/>
          </g>
          <g>
            <path class="cls-5" d="M61.7,48.2h2.8"/>
            <path class="cls-4" d="M64.6,49.1h-2.8c-.5,0-.8-.4-.8-.8s.4-.8.8-.8h2.8c.5,0,.8.4.8.8s-.4.8-.8.8Z"/>
          </g>
          <g>
            <polyline class="cls-5" points="59.9 55.5 60.6 52.6 62.2 53.1"/>
            <path class="cls-4" d="M59.9,56.3h-.2c-.4-.1-.7-.6-.6-1l.7-2.9c.1-.4.5-.7,1-.6l1.5.3c.4,0,.7.5.6,1,0,.4-.5.7-1,.6l-.8-.2-.5,2c0,.4-.4.6-.8.6h.1Z"/>
          </g>
          <g>
            <path class="cls-6" d="M22.1,83.3c-9.4-1.4-20.6-11.1-9.8-18.8,7.4-5.3,28.2-16.3,28.2-16.3l8.7,17.5s-11,6.5-19.9,11.1"/>
            <path class="cls-4" d="M22.1,84.2h-.1c-3.2-.5-6.5-1.8-9.2-3.8-3-2-4.9-4.6-5.5-7.1-.6-2.3-.2-5.9,4.6-9.4,7.4-5.3,27.5-15.9,28.3-16.4.2-.1.4-.1.6,0,.2,0,.4.2.5.4l8.7,17.5c.2.4,0,.9-.3,1.1-.1,0-11.1,6.5-19.9,11.1-.4.2-.9,0-1.1-.3-.2-.4,0-.9.3-1.1,7.4-3.9,16.6-9.3,19.2-10.7l-8-16c-3.8,2-20.9,11.2-27.4,15.9-3.3,2.3-4.6,4.9-4,7.6.5,2.1,2.2,4.3,4.9,6.1,2.5,1.7,5.6,3.1,8.5,3.5.4,0,.8.5.7.9,0,.4-.4.7-.8.7h0Z"/>
          </g>
          <path class="cls-6" d="M57.5,22.1c-9.6.6-10.1,1.2-10.7,10.7-.6-9.6-1.2-10.1-10.7-10.7,9.6-.6,10.1-1.2,10.7-10.7.6,9.6,1.2,10.1,10.7,10.7Z"/>
          <path class="cls-6" d="M44.5,37c-6.7.5-7.1.8-7.6,7.6-.5-6.7-.8-7.1-7.6-7.6,6.7-.5,7.1-.8,7.6-7.6.5,6.7.8,7.1,7.6,7.6Z"/>
          <g>
            <path class="cls-5" d="M113,110.4s-2.2,18-2.4,22"/>
            <path class="cls-4" d="M110.5,133.2h0c-.5,0-.8-.4-.8-.9.2-3.9,2.3-21.3,2.4-22,0-.4.5-.8.9-.7.4,0,.8.5.7.9,0,.2-2.2,18-2.4,21.9,0,.4-.4.8-.8.8h0Z"/>
          </g>
          <g>
            <line class="cls-1" x1="47.8" y1="88.6" x2="46.3" y2="81.7"/>
            <path class="cls-4" d="M47.8,89.6c-.4,0-.7-.3-.8-.6l-1.5-6.9c0-.4.2-.9.6-1,.4,0,.9.2,1,.6l1.5,6.9c0,.4-.2.9-.6,1h-.2Z"/>
          </g>
          <g>
            <line class="cls-1" x1="114.9" y1="96.5" x2="116.2" y2="90.4"/>
            <path class="cls-4" d="M114.9,97.3h-.2c-.4,0-.7-.5-.6-1l1.2-6.1c0-.4.5-.7,1-.6.4,0,.7.5.6,1l-1.2,6.1c0,.4-.4.7-.8.7h0Z"/>
          </g>
          <g>
            <line class="cls-1" x1="126" y1="101.9" x2="129.5" y2="99.6"/>
            <path class="cls-4" d="M126.1,102.7c-.3,0-.5-.1-.7-.4-.3-.4-.2-.9.2-1.1l3.5-2.3c.4-.3.9-.2,1.1.2.3.4.2.9-.2,1.1l-3.5,2.3c-.1,0-.3.1-.5.1h.1Z"/>
          </g>
          <circle class="cls-3" cx="42.1" cy="64.6" r="1"/>
          <circle class="cls-3" cx="38.3" cy="67.1" r="1"/>
        </g>
      </g>
    </g>
  </g>
</svg>