<?xml version="1.0" encoding="UTF-8"?>
<svg xmlns="http://www.w3.org/2000/svg" version="1.1" viewBox="0 0 153.1 153.1">
  <defs>
    <style>
      .cls-1 {
        fill: none;
      }

      .cls-2 {
        fill: #c5c5c6;
      }

      .cls-3 {
        fill: #231815;
      }

      .cls-4 {
        fill: #fff;
      }

      .cls-5 {
        fill: #f9be00;
      }

      .cls-6 {
        fill: #e5e5e6;
      }
    </style>
  </defs>
  <!-- Generator: Adobe Illustrator 28.7.1, SVG Export Plug-In . SVG Version: 1.2.0 Build 142)  -->
  <g>
    <g id="_レイヤー_1" data-name="レイヤー_1">
      <g id="_レイヤー_1-2" data-name="_レイヤー_1">
        <path class="cls-5" d="M137.4,25.3c-10.5.3-10.7.6-11,11-.3-10.5-.6-10.7-11-11,10.5-.3,10.7-.6,11-11,.3,10.5.6,10.7,11,11Z"/>
        <g>
          <g>
            <g>
              <path class="cls-4" d="M39,128.1c-.2.2-4.4,3.9-5.3,4.5-1,.5-.9,1.7.6,1.7s4-2.3,4-2.3c0,0-.5,1.3.6,1.5,1.1.1,3.3-1.5,3.3-1.5,0,0,.3.7,1,.6.6,0,3.7-1.6,3.7-1.6"/>
              <path class="cls-3" d="M34.2,135.1h0c-1.2,0-1.8-.6-1.9-1.2-.2-.7.2-1.5,1-1.9.5-.3,2.5-2,5.1-4.3h0c.3-.3.8-.3,1.1,0s.3.8,0,1.1h0c-1.7,1.5-4.6,4.1-5.4,4.6,0,0-.2.1-.2.2h.4c.8,0,2.5-1.2,3.4-2.1.3-.2.7-.3,1,0,.3.2.4.6.3.9v.4h0c.5,0,1.8-.7,2.8-1.4.2-.1.4-.2.7-.1.2,0,.4.2.5.4v.2c.5,0,2.2-.8,3.6-1.5.4-.2.8,0,1,.4s0,.8-.4,1c-.9.5-3.2,1.5-3.9,1.6-.5,0-.9,0-1.2-.3-.8.5-2.3,1.4-3.3,1.2-.6,0-1-.4-1.2-.7-.9.7-2.3,1.5-3.3,1.5h0Z"/>
            </g>
            <g>
              <path class="cls-4" d="M54.5,126.9c-.3.2-9.1-2.7-12.6-1.7s-5.9,1.8-8,2.2c-2.4.4-2.9,2.5-.9,2.6,1.2,0,4.7-1,7.1-.8,1.8.1,3.1,1,3.8,1.5,1.6,1-.5,2.8-2.2,4.4-1.8,1.6-3.5,1.7-3.3,3,0,1,1.1,1.5,3.4,1,2.4-.5,2.3-1.4,5.8-2,3.6-.6,6.8-2.8,7.4-4.1,0-.2,6.4-2.1,6.4-2.1"/>
              <path class="cls-3" d="M40.3,140c-.8,0-1.4-.2-1.9-.5s-.7-.8-.8-1.4c-.2-1.3.8-1.9,1.8-2.5s1.2-.7,1.8-1.2c.9-.8,2.6-2.3,2.5-3,0,0,0-.1-.2-.2h-.2c-.7-.5-1.8-1.3-3.3-1.4-1.3,0-3.1.2-4.5.5-1.1.2-2,.4-2.6.3-1.4-.1-1.9-1-2-1.7,0-1,.9-2.2,2.8-2.5,1.3-.2,2.7-.6,4.5-1.2,1-.3,2.1-.6,3.4-1,2.8-.8,8.3.6,11.3,1.3.6.2,1.3.3,1.5.4.3,0,.6,0,.8.4.2.4,0,.8-.3,1s-.5,0-2.3-.3c-2.6-.6-8.1-2-10.5-1.3-1.2.3-2.4.7-3.4,1-1.9.6-3.3,1-4.7,1.2-.8.1-1.3.5-1.4.7v.2s0,.1.5.2c.4,0,1.3-.1,2.2-.3,1.5-.3,3.4-.6,4.9-.5,1.9.1,3.3,1,4,1.5h0c.7.5.9,1.1.9,1.5,0,1.4-1.5,2.9-3,4.3-.7.7-1.5,1.1-2,1.4-.9.6-1.1.7-1,.9,0,.2,0,.3.2.3.2.1.7.4,2.3,0,.9-.2,1.4-.4,2-.7.8-.4,1.7-.9,3.8-1.3,3.5-.6,6.4-2.7,6.8-3.6.2-.4.4-.5,1.5-.8.5-.2,1.3-.4,2.2-.7l3.2-1c.4-.1.8.1,1,.5s0,.8-.5,1c-2.5.8-5.3,1.6-6.1,1.9-.6,1-2.1,2-2.7,2.4-1.6.9-3.4,1.6-5.1,1.9-1.9.3-2.6.7-3.4,1.1-.6.3-1.3.7-2.4.9-.6.1-1.2.2-1.6.2h0ZM54.1,126.2h0ZM54.1,126.2h0Z"/>
            </g>
            <g>
              <path class="cls-4" d="M41.4,129.6s-2.8,2-3.2,2.4"/>
              <path class="cls-3" d="M38.2,132.8c-.2,0-.4,0-.5-.2-.3-.3-.3-.8,0-1.1.4-.5,2.6-2,3.3-2.5.4-.2.8-.2,1.1.2.2.4.2.8-.2,1.1-1.3.9-2.8,2-3.1,2.3-.2.2-.4.3-.6.3h0Z"/>
            </g>
            <g>
              <line class="cls-1" x1="43.3" y1="130.8" x2="41.3" y2="132.4"/>
              <path class="cls-3" d="M41.3,133.2c-.2,0-.5-.1-.6-.3-.3-.3-.2-.8,0-1.1l2-1.6c.3-.3.8-.2,1.1.1s.2.8,0,1.1l-2,1.6c0,.1-.3.2-.5.2Z"/>
            </g>
            <g>
              <polyline class="cls-4" points="56.4 123.8 53.2 126.3 60.7 134.7 64.9 130.9"/>
              <path class="cls-3" d="M60.7,135.5h0c-.2,0-.4-.1-.5-.3l-7.5-8.4c0-.2-.2-.4-.2-.6s0-.4.3-.5l3.2-2.4c.3-.3.8-.2,1.1,0,.3.3.2.8,0,1.1l-2.5,1.9,6.4,7.2,3.6-3.3c.3-.3.8-.3,1.1,0,.3.3.3.8,0,1.1l-4.2,3.8c0,.1-.3.2-.5.2h-.2Z"/>
            </g>
            <g>
              <path class="cls-4" d="M44.3,132.3s1.1-1.9,1.1-2.7"/>
              <path class="cls-3" d="M44.3,133h-.4c-.4-.2-.5-.7-.3-1.1.5-.9,1-2,1-2.2,0-.4.3-.8.7-.8s.8.3.8.7c0,.9-.8,2.4-1.1,3.1,0,.3-.4.4-.7.4h0Z"/>
            </g>
          </g>
          <g>
            <path class="cls-5" d="M69.6,74.3s.3,30-1.7,33.4c-2.1,3.4-12,15.4-12,15.4l8.1,9.8s17.9-15.2,18.8-18.3"/>
            <path class="cls-3" d="M63.9,133.7h0c-.2,0-.4-.1-.5-.3l-8.1-9.8c-.2-.3-.2-.7,0-1,0,0,10-12,12-15.3.4-.6,1.2-3.5,1.5-17.6.2-7.8,0-15.3,0-15.4,0-.4.3-.8.8-.8s.8.3.8.8v15.4c-.3,16.1-1.4,17.8-1.7,18.4-1.9,3.1-9.8,12.7-11.7,15l7.2,8.7c8.4-7.2,17.4-15.6,18-17.4,0-.4.5-.7,1-.5.4,0,.7.5.5,1-.3.9-1.6,3-9.9,10.7-4.5,4.1-9.1,8-9.1,8,0,.1-.3.2-.5.2h-.3Z"/>
          </g>
          <path class="cls-3" d="M77.5,134.2s0-2,9.9-2.8,20.5,6.1,20.5,6.1c0,0-8.5-26.6-8.4-27.2s6.1-40.2,6.1-40.2l-27.7-1.2s-1.7,24.7-1,31.7c.7,7.1.5,33.5.5,33.5h.1Z"/>
          <g>
            <path class="cls-5" d="M111.2,107.1c7.1,5.9,15.7,1.6,15.7-4.1,1.5-11.4-9.4-25.4-11-30.1-.9-2.7-2.3-5.8-6.4-7-.9-.3-10.5-2.5-14.2-2.7,0,0-14,14.9-13.6,41.4-10.2-30.7.5-40.3.5-40.3l-7.3,1.6c-7,3.9-9,18.7-8.4,24.9.4,8.2,5.3,12.1,8.1,23.8,1.5,6.5-2.5,29.8-2.8,30.6,0,0,11,4.7,13,2.5.4-.5,1.3-1.6,1.3-4.2,1,2.9,3.3,3.9,4.3,4.5,2.7,1.5,35.5-2.7,35.5-2.7,0,0-12.5-16.1-14.7-25.9-1.4-6.3-.4-12.1-.3-12l.3-.3Z"/>
            <path class="cls-3" d="M83,148.8c-1.7,0-3.8-.5-5.4-1-3-.9-5.7-2-5.8-2.1-.4-.2-.6-.6-.4-1,0-.5,1.2-6.4,2.1-13.2,1.1-8.5,1.3-14.4.7-16.9-1.3-5.4-3-9.1-4.6-12.4-1.8-3.8-3.3-7-3.5-11.5-.3-3,0-8.4,1.4-13.6,1.1-4.2,3.3-9.8,7.4-12h.2l7.3-1.6c.3,0,.7,0,.9.4.2.3,0,.7-.2.9-.9.8-2.8,3.6-3.9,8.4-.8,3.5-1,7.6-.6,12.2.4,4.4,1.3,9.2,2.7,14.3.2-4.4.9-8.8,1.9-12.9,1.1-4.6,2.7-9,4.7-13.1,3.5-7.1,6.9-10.8,7.1-10.9.2-.2.4-.3.6-.2,3.8.2,13.5,2.4,14.3,2.7,4.3,1.3,5.9,4.5,6.9,7.5.4,1.2,1.5,3.3,2.9,5.6,3.7,6.5,9.2,16.3,8.1,24.8,0,2.8-1.9,5.4-4.8,6.7-1.8.8-3.8,1.1-5.9.9-1.9-.3-3.7-1-5.4-2.1-.2,1.9-.5,6,.5,10.5,1.1,5,5,11.7,8.1,16.4,3.3,5.2,6.5,9.2,6.5,9.2.2.2.2.5.1.8s-.3.4-.6.5c0,0-8.3,1.1-16.8,1.9-17.3,1.7-18.7,1-19.2.7,0,0-.2-.1-.3-.2-.8-.4-2.1-1.1-3.2-2.5-.3.9-.7,1.6-1.2,2.2-.6.6-1.5.8-2.6.8v-.2ZM72.9,144.5c1,.4,3,1.2,5.1,1.8,5.3,1.6,6.3.8,6.5.6.8-.8,1.1-2.1,1.1-3.7s.3-.7.7-.8c.4,0,.7.2.9.5.8,2.3,2.6,3.3,3.6,3.8,0,0,.3.1.4.2.4.2,2.7.7,18.3-.9,6.4-.6,12.7-1.4,15.3-1.7-2.9-3.8-12.2-16.6-14-25.2-.7-3.3-.8-6.5-.7-8.5,0-1.2.2-2.2.2-2.7.2-1.1.2-1.4.6-1.6.3-.2.7,0,.9,0,1.7,1.4,3.6,2.3,5.6,2.6,1.7.2,3.5,0,5-.7,2.4-1.1,3.9-3.2,3.9-5.4h0c1.1-8.1-4.4-17.6-7.9-23.9-1.4-2.5-2.6-4.5-3-5.9-.9-2.7-2.2-5.4-5.8-6.5-.8-.2-9.8-2.3-13.6-2.6-.8,1-3.8,4.5-6.6,10.3-2,4-3.5,8.3-4.6,12.8-1.4,5.6-2,11.4-1.9,17.4,0,.4-.3.7-.6.8-.4,0-.7-.2-.9-.5-2.3-7.1-3.8-13.6-4.2-19.4-.4-4.7-.2-9,.7-12.7.8-3.5,2-5.8,2.9-7.3l-5.1,1.1c-2,1.2-4.7,4-6.6,11-1.3,5-1.6,10.2-1.3,13.1h0c.2,4.2,1.6,7.1,3.4,10.9,1.6,3.4,3.4,7.2,4.7,12.7.5,1.9.7,6.6-.7,17.7-.7,5.3-1.5,10.6-1.9,12.6h-.4ZM71.3,144.7h0Z"/>
          </g>
          <g>
            <path class="cls-5" d="M98.9,40.1c3.9-.5,9.6-1.9,13.9,5.6,4.2,7.3,9.4,15.6,11.7,15.6-6.3.5-16-1-20.6-5.5-4.7-4.5-5.7-9.2-6.3-9.6"/>
            <path class="cls-3" d="M122.1,62.2c-2.9,0-6-.3-8.8-1-3-.7-7.3-2.1-10.1-4.9-3.5-3.4-5-6.8-5.8-8.6-.2-.4-.4-.8-.5-1-.3-.3-.4-.7,0-1,.2-.4.7-.4,1.1-.2.3.2.5.6.9,1.5.8,1.7,2.2,5,5.5,8.1,2,2,5.2,3.5,9.3,4.5,2.6.6,5.5.9,8.2,1-1.9-1.9-4.8-5.9-9.7-14.5-3.8-6.6-8.5-5.9-12.3-5.4-.3,0-.6,0-.9,0-.4,0-.8-.2-.9-.7,0-.4.2-.8.7-.9.3,0,.6,0,.8,0,1.9-.3,4.4-.6,6.8,0,2.9.8,5.2,2.8,7.1,6.1,2.5,4.4,4.7,7.9,6.5,10.5,3.2,4.6,4.3,4.7,4.5,4.7h0c.4,0,.8.3.8.7s-.3.8-.7.8h-2.4v.3ZM97.1,46.8h0Z"/>
          </g>
          <g>
            <path class="cls-5" d="M104.8,50.2c1.9,3,5.5,5.3,7.6,5.9"/>
            <path class="cls-3" d="M112.4,56.9h-.2c-2.4-.7-6.1-3.2-8.1-6.2-.2-.4,0-.8.2-1.1.4-.2.8,0,1.1.2,1.7,2.7,5.1,5,7.2,5.6.4,0,.7.5.5,1,0,.3-.4.6-.7.6h0Z"/>
          </g>
          <g>
            <path class="cls-4" d="M92.9,48.6s-.8,9.9,2.1,13.5c2.8,3.6,4,3.7,4,3.7,0,0-12.5,12.6-17.7,12.5-6.7-.2-5.3-9.6-5.3-9.6,0,0,4.3.9,6.4-4.5,2.2-5.4-.3-12.9-.3-12.9"/>
            <path class="cls-3" d="M81.4,79.1h0c-1.8,0-3.3-.7-4.3-2-2.5-3-1.7-8.2-1.7-8.5s0-.4.3-.5c.2,0,.4-.2.6,0,0,0,3.7.6,5.5-4.1,2-5.1-.3-12.3-.3-12.3,0-.4,0-.8.5-1,.4,0,.8,0,1,.5,0,.3,2.5,7.8.3,13.4-1.2,3.1-3.1,4.3-4.5,4.7-.8.3-1.4.3-2,.3,0,1.4,0,4.7,1.4,6.5.8.9,1.8,1.4,3.2,1.4h0c3.7,0,12.4-7.7,16.3-11.5-.7-.5-1.8-1.5-3.3-3.4-3-3.8-2.3-13.6-2.2-14,0-.4.4-.7.8-.7s.7.4.7.8c0,0-.2,2.5,0,5.3.2,3.7.9,6.3,1.9,7.6,2.2,2.8,3.3,3.4,3.5,3.5.3,0,.5.2.6.5s0,.6-.2.8c0,0-3.2,3.2-7,6.3-5.1,4.2-8.8,6.3-11.1,6.3v.2ZM99.1,65.1h0Z"/>
          </g>
          <g>
            <path class="cls-5" d="M76.6,10.4s-12.9-.8-14.6,10.9c-1.4,9.6,5.9,16.1,5.9,16.1l8.8-27h-.1Z"/>
            <path class="cls-3" d="M67.9,38.2c-.2,0-.4,0-.5-.2,0,0-1.9-1.7-3.6-4.6-2.2-3.9-3.1-8-2.5-12.1.9-6.4,5.1-9.3,8.4-10.5,3.6-1.3,6.9-1.1,7-1.1.2,0,.5.1.6.3s.2.4,0,.7l-8.8,27c0,.3-.3.4-.5.5h-.2,0ZM75.6,11.2c-1.2,0-3.3.2-5.4,1-4.3,1.6-6.7,4.7-7.4,9.2-.5,3.8.2,7.5,2.3,11.1.9,1.5,1.8,2.7,2.5,3.4l8-24.8h0Z"/>
          </g>
          <g>
            <path class="cls-4" d="M66.7,24.5c-.8,4.4-.2,9.6,0,15.7.3,9.3,6.8,18.4,16,17.6,8.6-.7,15.4-7.1,18.5-14.4,2-4.8,3.1-14.1,1.4-19.8-1.8-5.7-12.6-14.8-21.3-12.2-8.7,2.6-13.2,5.2-14.6,13.1Z"/>
            <path class="cls-3" d="M81.6,58.6c-3.3,0-6.4-1.2-9-3.5-3.9-3.5-6.4-9-6.6-14.9,0-1.5,0-3-.2-4.4-.2-4.4-.4-8.1.2-11.5,1.4-8.1,6-10.9,15.1-13.7,9.2-2.8,20.4,6.7,22.3,12.7.8,2.7,1.1,6.5.8,10.6-.3,3.7-1.1,7.3-2.2,9.8-1.6,3.8-4.2,7.3-7.4,9.9-3.5,2.9-7.6,4.6-11.7,4.9h-1.3ZM67.5,24.6c-.6,3.2-.4,6.9,0,11.1,0,1.4.2,2.9.2,4.4.2,5.4,2.5,10.6,6.1,13.7,2.6,2.3,5.8,3.4,9.1,3.1,3.9-.3,7.6-1.9,10.9-4.6,3-2.4,5.5-5.7,7-9.3,2-4.7,3-13.8,1.3-19.3-.8-2.8-4-6.3-7.7-8.8-6-4-10.5-3.5-12.6-2.9-8.7,2.6-12.7,5.1-14,12.5h-.2Z"/>
          </g>
          <g>
            <path class="cls-5" d="M73.6,10.6c-.7.7.6,8.3,12.5,11.9,11.5,3.5,18,17.6,18,17.6,0,0,9.6-19-4.1-29.5-9.1-7-21.2-4.9-26.5,0h0Z"/>
            <path class="cls-3" d="M104.1,40.8h0c-.3,0-.6-.2-.7-.5,0,0-1.6-3.5-4.6-7.4-2.7-3.5-7.2-8.1-12.9-9.8-4.1-1.2-7.4-3.1-9.8-5.4-2.3-2.3-3.1-4.4-3.3-5.5-.2-.8-.3-1.8.3-2.3,2.9-2.7,7.5-4.4,12.3-4.7,5.5-.3,10.9,1.3,15.2,4.6,3.3,2.5,5.5,5.7,6.7,9.4.9,3,1.2,6.3.8,10-.7,6.1-3.1,10.9-3.2,11.1,0,.3-.4.4-.7.4h-.1ZM74.2,11c0,.3,0,1.3.8,2.7,1.1,2,3.9,5.7,11.3,8,3.4,1,8.5,3.7,13.7,10.4,1.9,2.5,3.2,4.7,4,6.1.7-1.8,1.9-5.2,2.4-9.1.4-3.4,0-6.5-.7-9.3-1.1-3.4-3.2-6.3-6.1-8.6-4-3-9-4.6-14.2-4.3-4.4.2-8.6,1.8-11.2,4.2h0ZM74.1,11.1h0ZM74.2,11h0ZM73.6,10.6h0Z"/>
          </g>
          <path class="cls-3" d="M91.8,32.7c.3.8,0,1.6-.9,1.8-.8.3-1.6,0-1.8-.9-.3-.8,0-1.6.9-1.8.8-.3,1.6.1,1.8.9Z"/>
          <path class="cls-3" d="M73.4,33.6c.3.8,0,1.6-.9,1.8-.8.3-1.6,0-1.8-.9-.3-.8,0-1.6.9-1.8.8-.3,1.6,0,1.8.9Z"/>
          <path class="cls-3" d="M101.3,25.5c-.2,0-.4,0-.6-.2-2.1-2.2-7.6-6.2-11.7-8.9-.4-.2-.5-.7-.2-1.1.2-.4.7-.5,1.1-.2,1.5,1,9.2,6.2,12,9.2.3.3.3.8,0,1.1,0,.1-.3.2-.5.2h-.1Z"/>
          <path class="cls-3" d="M103.1,21c-.2,0-.4,0-.6-.3-1.8-2-5.6-5.1-8.4-6.9-.4-.2-.5-.7-.2-1.1.2-.4.7-.5,1.1-.2,2.9,1.9,6.9,5.2,8.7,7.2.3.3.3.8,0,1.1,0,.1-.3.2-.5.2h0Z"/>
          <g>
            <path class="cls-4" d="M75.8,34.2c-.5,3.7-2.2,6.5-2.2,6.5l4,1.6"/>
            <path class="cls-3" d="M77.6,43.1h-.3l-4-1.6c-.2,0-.4-.3-.4-.5v-.6s1.6-2.7,2-6.2c0-.4.5-.7.9-.7s.7.5.7.9c-.4,2.7-1.3,4.8-1.8,6l3.2,1.3c.4.2.6.6.4,1,0,.3-.4.5-.7.5h0Z"/>
          </g>
          <g>
            <path class="cls-4" d="M85.8,46.7s.4,5.2-2.5,5.5-4.5-4.1-4.5-4.1l7-1.4Z"/>
            <path class="cls-3" d="M83,53c-3.2,0-4.9-4.5-4.9-4.7v-.6c0-.2.3-.3.5-.4l7-1.4c.2,0,.4,0,.6,0s.3.3.3.6.4,6-3.2,6.3h-.3ZM79.9,48.6c.6,1.1,1.7,3,3.3,2.8.8,0,1.3-.8,1.6-2.2,0-.6.2-1.1.2-1.6l-5.1,1Z"/>
          </g>
          <g>
            <path class="cls-4" d="M100.7,35.5c2.9.2,5.3,1.4,5.2,4.2-.2,2.8-2.7,4.9-5.6,4.7"/>
            <path class="cls-3" d="M100.6,45.1h-.4c-.4,0-.8-.4-.7-.8,0-.4.4-.8.8-.7,2.5,0,4.6-1.6,4.8-4,0-1.2-.4-3.1-4.5-3.4-.4,0-.8-.4-.7-.8,0-.4.4-.8.8-.7,3.9.2,6.1,2.1,5.9,5-.2,3.1-2.8,5.5-6,5.5h0Z"/>
          </g>
          <g>
            <path class="cls-4" d="M102.8,44.8c.2,1-.5,2-1.5,2.1-1,.2-2-.5-2.1-1.5-.2-1,.5-2,1.5-2.1,1-.2,2,.5,2.1,1.5Z"/>
            <path class="cls-3" d="M101,47.7c-1.3,0-2.4-.9-2.6-2.2-.2-1.4.7-2.8,2.1-3s2.8.7,3,2.1h0c.2,1.4-.7,2.8-2.1,3h-.4ZM101,44h-.2c-.6,0-1,.7-.9,1.2,0,.6.7,1,1.2.9.6,0,1-.7.9-1.2h0c0-.5-.5-.9-1.1-.9h0Z"/>
          </g>
          <g>
            <path class="cls-5" d="M98.5,72.8s.7-9.5,1.3-9.7c.6-.2-5.3-2.7-5.3-2.7,0,0-7.1,11.7-8.7,16.5-5.7,17.3-3.9,27.6-3.9,27.6,0,0,6.1-10.6,8.8-15.5,3.6-6.7,7-9.2,6.2-9.1l-4.1-3.4c3.5-2.4,5.7-3.7,5.7-3.7Z"/>
            <path class="cls-3" d="M81.9,105.3h0c-.3,0-.6-.3-.6-.6s-.5-2.7-.2-7.5c.2-4.4,1.2-11.5,4.1-20.5,1.6-4.9,8.5-16.2,8.7-16.7.2-.3.6-.5,1-.3,0,0,1.4.6,2.7,1.2.8.4,1.4.7,1.9.9.7.4,1.3.7,1.2,1.3,0,.2,0,.4-.2.5-.3.9-.8,5.3-1.1,9.2,0,.2-.2.5-.4.6,0,0-1.9,1.2-4.8,3.1l3.2,2.6c.3,0,.4.3.5.4.3.6,0,1-.9,1.9-1.1,1.3-3.2,3.8-5.5,7.9-2.7,4.9-8.7,15.4-8.8,15.5,0,.2-.4.4-.7.4h0ZM94.7,61.4c-1.4,2.4-6.9,11.7-8.2,15.8-2.9,8.8-3.8,15.8-4,20,0,2,0,3.6,0,4.8,1.9-3.4,5.6-9.8,7.5-13.3,2.3-4.2,4.5-6.8,5.6-8.1,0,0,.2-.3.3-.4l-3.7-3c-.2-.2-.3-.4-.3-.6s0-.5.3-.6c2.7-1.8,4.7-3.1,5.4-3.5,0-.8.2-2.6.4-4.4,0-1.4.3-2.5.4-3.4,0-.5.2-.9.3-1.3-.8-.4-2.4-1.2-4-1.9h0ZM98.5,72.8h0ZM99.9,63.9h0Z"/>
          </g>
          <g>
            <path class="cls-5" d="M78,77.5c1.1-5.3,4.7-14.7,4.7-14.7l-4.4,1.2-6.9,9.8,2.5,4.1s-3.9,2-3.9,2.2c0,.4.5,7.5,2.6,12s9.3,12.4,9.3,12.4c0,0-5.6-18.9-3.9-27Z"/>
            <path class="cls-3" d="M81.9,105.3c-.2,0-.4,0-.6-.3-.3-.3-7.3-8-9.5-12.5-2.2-4.7-2.7-12.2-2.7-12.3,0-.5.4-.8,1-1.1.3-.2.8-.5,1.4-.8.4-.2.9-.5,1.2-.6l-2-3.4c-.2-.3,0-.6,0-.8l6.9-9.8c0,0,.3-.3.4-.3l4.4-1.2c.3,0,.6,0,.8.2.2.2.3.5.2.8,0,0-3.6,9.4-4.7,14.6-1.7,7.8,3.8,26.5,3.9,26.6,0,.3,0,.7-.4.9,0,0-.3,0-.4,0h0ZM70.7,80.5c0,1.6.7,7.5,2.5,11.3,1.3,2.8,4.7,7,7,9.7-.5-1.9-1.1-4.5-1.7-7.3-1.6-7.7-2-13.4-1.3-16.9h0c.9-4.1,3.2-10.6,4.2-13.4l-2.7.8-6.5,9.2,2.2,3.7c0,.2,0,.4,0,.6,0,.2-.2.4-.4.5-1.3.7-2.8,1.5-3.5,1.8h.2Z"/>
          </g>
          <path class="cls-3" d="M111.2,107.8c-.2,0-.3,0-.5-.2-2.2-1.8-13.5-19.6-14.7-21.6,0-.2,0-.4,0-.6s.2-.4.4-.5l14.6-8.6c.3-.2.8,0,1,.2l10.1,13.9c.3.3.2.8-.2,1.1-.3.3-.8.2-1.1-.2l-9.7-13.4-13.3,7.9c5,7.8,12.5,19.3,14,20.6.3.3.4.8,0,1.1-.2.2-.4.3-.6.3h-.1Z"/>
          <g>
            <g>
              <g>
                <rect class="cls-4" x="96.6" y="51.4" width="3.6" height="8.5" transform="translate(-6.6 13.7) rotate(-7.7)"/>
                <path class="cls-3" d="M97.2,60.7c-.4,0-.7-.3-.8-.7l-1.1-8.4c0-.4.2-.8.7-.9l3.6-.5c.4,0,.8.2.9.7l1.1,8.4c0,.2,0,.4-.2.6s-.3.3-.5.3l-3.6.5h0ZM96.9,52.2l.9,6.8,2.1-.3-.9-6.8-2.1.3Z"/>
              </g>
              <g>
                <circle class="cls-4" cx="95.5" cy="33.8" r="16.4"/>
                <path class="cls-3" d="M95.5,51c-8.5,0-15.9-6.3-17-14.9-.6-4.6.6-9.1,3.4-12.7,2.8-3.7,6.8-6,11.4-6.6s9.1.6,12.7,3.4c3.7,2.8,6,6.8,6.6,11.4,1.3,9.4-5.3,18.1-14.7,19.4-.8,0-1.6.2-2.3.2v-.2ZM95.5,18.1c-.7,0-1.4,0-2.1.1-4.1.6-7.8,2.7-10.3,6s-3.6,7.4-3.1,11.6c1.1,7.8,7.8,13.5,15.5,13.5s1.4,0,2.1,0c8.5-1.2,14.6-9.1,13.4-17.6-.6-4.1-2.7-7.8-6-10.3-2.8-2.1-6-3.2-9.4-3.2h0Z"/>
              </g>
              <g>
                <circle class="cls-4" cx="95.6" cy="33.7" r="13.5"/>
                <path class="cls-3" d="M95.4,48c-3.1,0-6.1-1-8.6-2.9-3-2.3-5-5.6-5.5-9.4-.5-3.8.5-7.5,2.8-10.5s5.6-5,9.4-5.5c7.8-1.1,15,4.4,16,12.2.5,3.8-.5,7.5-2.8,10.5s-5.6,5-9.4,5.5c-.7,0-1.3,0-1.9.1ZM95.5,21.1c-.6,0-1.1,0-1.7.1-3.4.5-6.3,2.2-8.4,4.9-2.1,2.7-2.9,6-2.5,9.4.5,3.4,2.2,6.3,4.9,8.4,2.7,2.1,6,2.9,9.4,2.5,3.4-.5,6.3-2.2,8.4-4.9s2.9-6,2.5-9.4c-.9-6.4-6.3-11-12.6-11Z"/>
              </g>
              <g>
                <path class="cls-2" d="M103,41.3c-.3,0-.6,0-.8-.3-.5-.4-.5-1.2,0-1.6,0-.2.3-.3.4-.5,1.2-1.6,1.8-3.7,1.7-5.7,0-.6.4-1.2,1.1-1.2s1.2.4,1.2,1.1c.2,2.6-.6,5.2-2.2,7.3-.2.2-.3.4-.5.6-.2.3-.6.4-.9.4h0Z"/>
                <path class="cls-2" d="M104.5,31c-.4,0-.9-.3-1.1-.7-.2-.5-.5-1.1-.9-1.5-.4-.5-.3-1.2.2-1.6s1.2-.3,1.6.2c.5.6.8,1.3,1.2,2,.3.6,0,1.3-.6,1.5-.2,0-.3.1-.5.1h.1Z"/>
              </g>
              <g>
                <polygon class="cls-6" points="95.7 56.9 101.8 56.1 106 86.8 99.9 87.6 95.7 56.9"/>
                <path class="cls-3" d="M99.9,88.4c-.4,0-.7-.3-.8-.7l-4.2-30.7c0-.2,0-.4.2-.6,0-.2.3-.3.5-.3l6.1-.8c.4,0,.8.2.9.7l4.2,30.7c0,.2,0,.4-.2.6,0,.2-.3.3-.5.3l-6.1.8h0ZM96.6,57.6l4,29.1,4.6-.6-4-29.1-4.6.6Z"/>
              </g>
              <g>
                <rect class="cls-4" x="94.2" y="50.1" width="7.3" height="2.5" transform="translate(-6 13.6) rotate(-7.7)"/>
                <path class="cls-3" d="M94.4,53.8c-.4,0-.7-.3-.8-.7l-.3-2.5c0-.2,0-.4.2-.6s.3-.3.5-.3l7.2-1c.4,0,.8.2.9.7l.3,2.5c0,.2,0,.4-.2.6s-.3.3-.5.3l-7.2,1h0ZM94.9,51.2v.9c0,0,5.8-.8,5.8-.8v-.9c0,0-5.8.8-5.8.8Z"/>
              </g>
              <path class="cls-3" d="M93.2,32c.8,1.5.3,3.5-1.3,4.3-1.5.8-3.5.3-4.3-1.3-.8-1.5-.3-3.5,1.3-4.3,1.5-.8,3.5-.3,4.3,1.3Z"/>
              <path class="cls-4" d="M92.5,31.9c.4.6,0,1.5-.5,1.8-.6.4-1.5,0-1.8-.5-.4-.6,0-1.5.5-1.8.6-.4,1.5-.1,1.8.5Z"/>
              <g>
                <line class="cls-1" x1="91.5" y1="24.2" x2="87.5" y2="26.6"/>
                <path class="cls-3" d="M87.5,27.1c-.2,0-.3,0-.4-.3,0-.2,0-.6.2-.7l4-2.4c.2-.1.6,0,.7.2s0,.6-.2.7l-4,2.4h-.3,0Z"/>
              </g>
            </g>
            <g>
              <g>
                <path class="cls-4" d="M95.4,67.4c-.5,0-4.5-4.7-5.5-3.2-1.3,2,1,5.5,2.3,7.3s4,3.7,4,3.7"/>
                <path class="cls-3" d="M96.2,76c-.2,0-.3,0-.4,0,0,0-2.9-2-4.2-3.9-1.3-1.8-3.9-5.6-2.3-8.2.2-.4.6-.6,1-.6,1.3-.2,2.8,1.2,4.6,2.8.3.3.7.6.8.7.3,0,.5.5.5.9,0,.4-.5.7-.9.6-.3,0-.6-.3-1.4-1-.6-.5-1.3-1.2-2-1.7-.8-.6-1.2-.7-1.3-.7-1,1.7,1.4,5.1,2.3,6.4,1.2,1.7,3.8,3.5,3.8,3.5.4.2.4.7.2,1.1-.2.2-.4.3-.6.3h0ZM95.6,66.6h0Z"/>
              </g>
              <g>
                <path class="cls-4" d="M108.5,71.2c0-.5,0-6.2-.8-6.8-.7-.6-5.4-6.5-9.1-5.2-3.8,1.3-6.2,2.2-5.6,4.6.6,2.3,1,3.7,1,3.7,0,0-1.5,3.1-.7,5.1s1.7,2.9,1.7,2.9c0,0-1.3,1.1-.7,2.8.5,1.4,1.8,2.6,3.3,3.3,1.3.6,1.4.6,1.4.6,0,0-.5-2.3,2.9-2.2.8,0,2.2.9,2.8,1.2,1.2.4,2.8-.6,3.4-1.7.8-1.5.9-3.2.4-8.2h0Z"/>
                <path class="cls-3" d="M99,83c-.2,0-.6,0-1.8-.6-1.9-.9-3.2-2.2-3.7-3.7-.5-1.4,0-2.5.4-3.1-.4-.5-.9-1.4-1.4-2.6-.4-1-.4-2.3,0-3.8.2-.7.4-1.3.6-1.6-.2-.5-.5-1.7-1-3.5-.4-1.4,0-2.6,1.5-3.5,1.1-.7,2.6-1.3,4.6-2,3.7-1.3,7.8,3.1,9.4,4.8.2.2.4.4.5.5.5.5.9,1.7,1.1,6.7v.6h-.8.8c.5,5.2.4,7-.5,8.7-.8,1.4-2.8,2.6-4.3,2.1-.2,0-.5-.2-.8-.4-.5-.3-1.3-.7-1.7-.7-.9,0-1.6,0-1.9.5-.3.3-.2.8-.2.8,0,.2,0,.4,0,.6s-.3.3-.5.3h-.2ZM99.7,59.9c-.3,0-.6,0-.9,0-3.9,1.4-5.5,2.1-5.1,3.6.6,2.3,1,3.7,1,3.7v.6c-.4.8-1.2,3.1-.7,4.4.7,1.8,1.5,2.6,1.5,2.6,0,.2.2.4.2.6s0,.4-.3.6c0,0-.9.8-.5,2,.4,1.1,1.4,2.2,2.9,2.9.2,0,.3,0,.4.2,0-.3.2-.6.5-.9.6-.7,1.7-1.1,3.1-1,.8,0,1.7.5,2.4.9.3,0,.5.3.7.3.6.2,1.9-.3,2.4-1.4.7-1.3.8-2.9.3-7.8h0v-.7c-.2-4.2-.4-5.4-.6-5.7l-.6-.6c-1.2-1.3-4.3-4.5-6.8-4.5h0ZM107.1,65h0Z"/>
              </g>
              <g>
                <path class="cls-4" d="M100.6,64.1s-6.1,3.3-6.6,3.9"/>
                <path class="cls-3" d="M94,68.8c-.2,0-.3,0-.4,0-.4-.2-.4-.7-.2-1.1,0-.2.4-.6,3.7-2.4,1.6-.9,3.1-1.7,3.1-1.7.4-.2.8,0,1.1.3.2.4,0,.8-.3,1.1-2.8,1.5-5.9,3.3-6.3,3.7-.2.2-.4.3-.6.3h0ZM94.7,68.5h0Z"/>
              </g>
              <g>
                <line class="cls-1" x1="99.2" y1="64.6" x2="96.9" y2="64.3"/>
                <path class="cls-3" d="M99.2,65.4h0l-2.3-.3c-.4,0-.7-.4-.7-.9s.4-.7.9-.7l2.3.3c.4,0,.7.4.7.9s-.4.7-.8.7Z"/>
              </g>
              <g>
                <line class="cls-1" x1="100.9" y1="69" x2="93.8" y2="71.6"/>
                <path class="cls-3" d="M93.8,72.4c-.3,0-.6-.2-.7-.5,0-.4,0-.8.5-1l7-2.6c.4,0,.8,0,1,.5,0,.4,0,.8-.5,1l-7,2.6h-.3Z"/>
              </g>
              <g>
                <line class="cls-1" x1="100.4" y1="73.7" x2="95.6" y2="75.3"/>
                <path class="cls-3" d="M95.6,76.1c-.3,0-.6-.2-.7-.5,0-.4,0-.8.5-1l4.8-1.7c.4,0,.8,0,1,.5,0,.4,0,.8-.5,1l-4.8,1.7h-.3Z"/>
              </g>
            </g>
          </g>
          <g>
            <circle class="cls-4" cx="83.4" cy="112.5" r="2.5"/>
            <path class="cls-3" d="M83.4,115.7c-1.8,0-3.3-1.5-3.3-3.3s1.5-3.3,3.3-3.3,3.3,1.5,3.3,3.3-1.5,3.3-3.3,3.3ZM83.4,110.7c-1,0-1.7.8-1.7,1.7s.8,1.7,1.7,1.7,1.7-.8,1.7-1.7-.8-1.7-1.7-1.7Z"/>
          </g>
        </g>
        <g>
          <g>
            <path class="cls-4" d="M63.5,47.7l-7.2-3.4c0-2.3-.7-4.7-1.9-6.8-4-7.2-13-9.8-20.2-5.8s-9.8,13-5.8,20.2,13,9.8,20.2,5.8,5.9-5.1,7-8.6c0,0,7.9-1.4,7.9-1.4Z"/>
            <path class="cls-3" d="M49,58.4c-7.6,4.2-17.1,1.4-21.3-6.1s-1.4-17.1,6.1-21.3,17.1-1.4,21.3,6.1c4.2,7.5,1.8,4.4,1.9,6.7l6.8,3.2c.3,0,.5.5.4.8s-.3.6-.6.7l-7.4,1.3c-1.3,3.7-3.8,6.7-7.2,8.6ZM34.6,32.3c-6.8,3.8-9.3,12.4-5.5,19.2s12.4,9.3,19.2,5.5,5.6-4.7,6.6-8.1c0-.3.3-.5.6-.5l5.5-1-5-2.4c-.3,0-.4-.4-.4-.7,0-2.3-.7-4.5-1.8-6.5-3.8-6.8-12.4-9.3-19.2-5.5Z"/>
          </g>
          <g>
            <circle class="cls-3" cx="43" cy="51.4" r="2.3"/>
            <path class="cls-3" d="M43,36.7c-.3-1.5-1.7-2.5-3.2-2.2s-2.5,1.7-2.2,3.2h0v.2c0,.6,3.2,9.7,3.2,9.7,0,.6.2.7.7.6l1.4-.3c.5,0,.6-.2.5-.8,0,0-.4-9-.6-10.1v-.4h.2Z"/>
          </g>
        </g>
      </g>
    </g>
  </g>
</svg>