<?xml version="1.0" encoding="UTF-8"?>
<svg xmlns="http://www.w3.org/2000/svg" version="1.1" viewBox="0 0 153.1 153.1">
  <defs>
    <style>
      .cls-1 {
        fill: none;
      }

      .cls-2 {
        fill: #231815;
      }

      .cls-3 {
        fill: #fff;
      }

      .cls-4 {
        fill: #f9be00;
      }
    </style>
  </defs>
  <!-- Generator: Adobe Illustrator 28.7.1, SVG Export Plug-In . SVG Version: 1.2.0 Build 142)  -->
  <g>
    <g id="_レイヤー_1" data-name="レイヤー_1">
      <g id="_レイヤー_1-2" data-name="_レイヤー_1">
        <g>
          <g>
            <path class="cls-3" d="M27.9,25.7c0-1.5-2.7-1.2-3.1.3-1.2,4.3-.3,13.4-.9,13.6-.6.2-2.1-2.4-3.6-1.5-1.3.7-1.4,4.8-2.6,4.5,0,0-1.9-.5-2.6-.2-1.3.5-.9,4.2-.9,4.2,0,0-2.4,1.4-2.3,3.3.1,1.9,1.5,4.1,3,4,1.5,0-1,2.2,2,5.2,1.9,1.9,3.4,2.1,4.4,2l1.7,8.1,7.5-2-1.3-8.4s.4-7.6.3-9.6c0-2.1-1-4.9-1-6,0-4.4-.9-12.6-.7-17.4"/>
            <path class="cls-2" d="M23.1,70.1c-.2,0-.3,0-.5,0s-.4-.3-.4-.6l-1.6-7.4c-1.2,0-2.6-.6-4.3-2.3-2.1-2.1-1.9-4-1.8-5-.9,0-1.7-.7-2.3-1.6-.6-.9-1.1-2.1-1.1-3.2s.4-2.1,1.3-3c.3-.3.6-.6.9-.8,0-1.4,0-4,1.5-4.6.8-.3,2.2,0,2.9,0,.1-.3.3-.9.5-1.3.4-1.2.8-2.5,1.7-3,1.3-.7,2.6,0,3.4.8v-2.1c0-3.2,0-7.6.7-10.2.4-1.4,2-2.1,3.2-1.9,1,.2,1.6.9,1.6,1.8,0,2.5,0,5.9.4,9.3.2,3.1.4,6,.4,8.1s.2,1.4.4,2.3c.2,1.2.5,2.5.6,3.7,0,2-.3,8.7-.3,9.6l1.3,8.3c0,.4-.2.9-.6,1l-7.5,2h-.4ZM21.4,60.3c.4,0,.8.3.9.7l1.6,7.2,5.9-1.6-1.2-7.6v-.2s.4-7.6.3-9.5c0-1-.3-2.3-.6-3.4-.2-1.1-.4-2.1-.4-2.7,0-2-.2-4.9-.4-7.9-.2-3.4-.5-6.9-.4-9.5h-.7c-.3,0-.6.3-.7.6-.7,2.4-.7,6.7-.7,9.7v2.6c0,.8,0,1.6-.7,1.9-.7.3-1.3-.2-1.8-.7-.7-.6-1.3-1.1-1.7-.9-.3.2-.7,1.4-.9,2-.2.6-.4,1.2-.6,1.6-.6,1.1-1.4,1-1.7.9-.9-.2-1.9-.3-2.1-.3-.3.2-.5,1.8-.3,3.2,0,.3-.1.7-.4.9-.5.3-1.9,1.4-1.8,2.5,0,.8.4,1.6.8,2.3.4.6.9.9,1.2.9.5,0,.9,0,1.1.4.4.4.3,1,.3,1.5-.1.9-.2,2.1,1.3,3.6,1.6,1.6,2.8,1.8,3.8,1.8h0ZM27.9,25.7h0Z"/>
          </g>
          <path class="cls-2" d="M24.2,53.1c0,0-.3,0-.4,0-2.1-1.2-2.9-4.4-3.2-5.9h-1.4c-1.8,0-3-.4-3.4-1.3-.1-.3-.3-.8.1-1.5,1-1.6,5.7-3.3,6.8-3.3s0,0,0,0c1.2,0,3.4,1,3.9,1.2.4.2.7.7.5,1.2-.2.4-.7.7-1.2.5-1-.4-2.6-1-3.2-1s-1.4.3-2.9,1c-1.4.6-2.1,1.1-2.3,1.4.6.3,2.2.3,3.6,0,.2,0,.5,0,.7.2.2,0,.3.4.3.6,0,1.2.8,4.5,2.5,5.4.4.2.6.8.3,1.2-.2.3-.5.4-.8.4h0Z"/>
          <g>
            <path class="cls-3" d="M14.2,46.5s.8,3.7,1.9,4.8,2.7,0,3.1-.6"/>
            <path class="cls-2" d="M17.1,52.6c-.6,0-1.2-.2-1.7-.7-1.2-1.2-2-4.5-2.1-5.2-.1-.5.2-.9.7-1s.9.2,1,.7c.3,1.4,1,3.7,1.7,4.3.1,0,.3.2.4.2.5,0,1.2-.5,1.4-.7.3-.4.9-.4,1.2,0,.4.3.4.9,0,1.2-.3.4-1.4,1.3-2.6,1.3h0Z"/>
          </g>
          <g>
            <path class="cls-3" d="M18.7,46.7s-.9,2.1,1.2,2.9"/>
            <path class="cls-2" d="M19.9,50.5h-.3c-.8-.3-1.4-.9-1.7-1.6-.5-1.2,0-2.4,0-2.5.2-.4.7-.7,1.1-.5s.7.7.5,1.1c0,0-.1.4-.1.8s.2.7.8,1c.5.2.7.7.5,1.1-.1.3-.5.6-.8.6Z"/>
          </g>
          <g>
            <path class="cls-3" d="M14.9,53.9s2.6-.7,2.9-1.2"/>
            <path class="cls-2" d="M14.9,54.7c-.4,0-.7-.3-.8-.6-.1-.5.1-1,.6-1.1,1-.3,2.2-.7,2.4-.9.3-.3.8-.4,1.1-.2.4.3.5.8.3,1.2s-.5.7-3.4,1.5h-.2ZM17,52.2h0Z"/>
          </g>
          <g>
            <polyline class="cls-3" points="32 67 31.2 62.1 18.7 64.7 19.2 68.6"/>
            <path class="cls-2" d="M19.2,69.5c-.5,0-.8-.3-.9-.8l-.5-3.9c0-.5.3-.9.7-1l12.5-2.6c.2,0,.5,0,.7,0s.3.4.4.6l.9,4.8c0,.5-.2,1-.7,1.1-.5,0-1-.2-1.1-.7l-.7-3.9-10.7,2.2.4,3c0,.5-.3,1-.8,1h-.2Z"/>
          </g>
          <g>
            <path class="cls-4" d="M49.4,99.9s-13,11.2-19.7,7.3c-6-3.5-12.5-38.2-12.5-38.2l15.6-3.3s3.4,16.9,4.1,16.8c.7,0,11.2-15.2,11.2-15.2.7-1.3,1.7-2.3,3.2-2.1"/>
            <path class="cls-2" d="M33.1,109c-1.4,0-2.7-.3-3.8-.9-2.8-1.6-5.7-8.5-9-21-2.4-9.1-4-17.8-4-17.9,0-.5.2-1,.7-1.1l15.6-3.3c.2,0,.5,0,.7,0s.3.3.4.6c1.2,6.1,2.7,12.7,3.5,15.3,2-2.5,7-9.5,10.2-14.1.9-1.8,2.4-2.7,4.1-2.6.5,0,.9.5.8,1,0,.5-.5.9-1,.8-.9,0-1.7.5-2.3,1.6h0c0,0-2.7,3.9-5.4,7.7-5.7,7.9-6,7.9-6.4,8-.3,0-.5,0-.7,0-.4-.3-.8-.5-2.7-9.1-.7-2.9-1.3-5.9-1.6-7.3l-13.8,2.9c.5,2.4,1.9,9.6,3.8,16.9,1.4,5.3,2.7,9.6,4,12.9,1.9,4.9,3.3,6.5,4.1,7,3,1.8,7.9-.2,11.4-2.2,4-2.2,7.2-5,7.2-5,.4-.3,1-.3,1.3,0,.3.4.3,1,0,1.3,0,0-3.4,2.9-7.5,5.2-3.7,2.1-6.9,3.2-9.5,3.2h-.1Z"/>
          </g>
          <g>
            <line class="cls-1" x1="36.9" y1="82.5" x2="38" y2="86.9"/>
            <path class="cls-2" d="M38,87.8c-.4,0-.8-.3-.9-.7l-1.1-4.4c0-.5.2-1,.7-1.1s1,.2,1.1.7l1.1,4.4c0,.5-.2,1-.7,1.1h-.2Z"/>
          </g>
          <g>
            <path class="cls-4" d="M48.3,90c0,5.4.4,11.6,0,26.3,0,4.4-1.3,28.9-1.7,29.7s13.6,2.8,24.7,3.1c14.6.4,24.8-2.1,24.8-2.1,0,0-1.9-25.9-2.1-26.5-.5-7.8-.5-15.7-.5-16.1,0-7.3,11.4-23.6,10.7-27.4-.5-2.8-1.5-6.3-3.8-7-.9-.2-10.9-3.5-11-3.5-1.1-.3-22.8-3-25.2-3.2-5.1-.4-13.6,0-14.6,1.9"/>
            <path class="cls-2" d="M74.8,150.1h-3.4c-4.9-.1-10.8-.6-16.3-1.3-8.5-1.1-8.9-1.7-9.1-2.1-.2-.3-.2-.6,0-.9.4-1.7,1.5-24.8,1.6-29.4.2-9.8,0-16,0-20.4v-5.9c0-.5.4-.9.9-.9h0c.5,0,.9.4.9.9v5.9c0,4.5.2,10.6,0,20.5,0,2.2-.4,9.3-.7,16.2-.5,8.6-.7,11.7-.9,13,2.5.8,14,2.4,23.7,2.6,10.7.3,19.8-1,23.8-1.9-.8-10.1-1.9-24.7-2-25.6h0c-.5-7.7-.5-15.4-.5-16.3,0-4.2,3.4-10.9,6.4-16.8,2.1-4.2,4.5-9,4.3-10.4-.7-3.8-1.7-5.9-3.1-6.3-.6-.2-5.1-1.6-9.2-3-.9-.3-1.6-.5-1.8-.6-1.3-.3-22.6-3-25.1-3.2-2.6-.2-5.9-.2-8.6,0-4.6.5-5.2,1.3-5.2,1.3-.3.4-.8.6-1.3.3-.4-.3-.6-.8-.3-1.3.4-.7,1.5-1.7,6.5-2.2,2.9-.3,6.3-.3,9,0,2.1.2,24.1,2.9,25.4,3.2,0,0,.6.2,1.9.6,2.8.9,8.5,2.8,9.1,2.9,2.9.8,3.9,4.8,4.5,7.7.3,1.9-1.5,5.6-4.5,11.5-2.9,5.8-6.2,12.3-6.2,16s0,8.5.5,16.1h0c.2,1.8,1.4,17.2,2.1,26.5,0,.5-.3.9-.7,1,0,0-9,2.1-21.7,2.1v.2ZM46,145.6h0ZM93.3,120.8h0Z"/>
          </g>
          <g>
            <path class="cls-3" d="M79.2,52.6s-.7,9.2,1.8,13c2.5,3.8,2.2,3.7,2.2,3.7,0,0-10.2,12.6-15.2,11.9-6.5-.9-7.5-11.3-7.5-11.3,0,0,2.9.5,5.6-4.6,2.6-5.1.8-11.9.8-11.9"/>
            <path class="cls-2" d="M68.4,82.2h-.5c-3-.4-5.4-2.7-7-6.6-1.1-2.8-1.4-5.5-1.4-5.6,0-.3,0-.6.3-.8.2-.2.5-.3.8-.2,0,0,.6,0,1.4-.4s2-1.4,3.2-3.7c2.4-4.7.7-11.2.7-11.2,0-.5.2-1,.6-1.1.5,0,1,.2,1.1.6,0,.3,1.9,7.2-.8,12.6-1.2,2.3-2.6,3.8-4.2,4.6-.4.2-.8.3-1.1.4.4,2.5,2,8.9,6.6,9.6,3.2.4,10.1-6.4,14-11.2-.3-.4-.8-1.3-1.9-3.1-2.6-4-2-13.2-1.9-13.6,0-.5.5-.9,1-.9s.9.5.9,1c0,0-.6,9,1.6,12.4.9,1.5,1.6,2.5,2,3.2.3.6.6,1.1.2,1.6h0c-.3.4-2.8,3.3-5.8,6.3-4.2,4-7.4,6-9.7,6h0Z"/>
          </g>
          <path class="cls-3" d="M60.6,68s25.1,2.3,24.4,2c-.8-.3-18.7,35.4-18.7,35.4,0,0-9.6-17.8-8.4-22.3,1.2-4.4,3.6-13.4,2.8-15.1h0Z"/>
          <path class="cls-2" d="M65.1,103.8h0c-.3,0-.6-.2-.8-.6-2.9-6.8-3.2-16.2-3-22.8,0-3.9.5-7.2.7-9.3.5-3.9.7-4.2.8-4.3.2-.3.5-.4.8-.4.5,0,.9.5.8,1v.2c-.2.7-1.1,6.4-1.3,13.3-.2,5.8,0,13.8,2.2,20,1.2-1.7,3.4-4.6,6.2-8,1.7-2,3.7-7,5.8-14.4,1.6-5.7,2.7-10.8,2.8-10.9,0-.5.6-.8,1.1-.7.5,0,.8.6.7,1.1-.2.8-4.6,20.8-9,26.1-4.3,5-7.1,9.2-7.1,9.2-.2.3-.5.4-.8.4h.1ZM63.4,68.3h0ZM64.3,67.8h0Z"/>
          <polygon class="cls-2" points="66.5 69.3 75.4 69.8 71.8 74.8 67.5 74.8 66.5 69.3"/>
          <path class="cls-2" d="M67.5,74.8s-4.5,11.5-6.2,18.1l4.5,11.2,6.4-8.9s-.6-17.1-.5-20.4c0,0-4.2,0-4.2,0Z"/>
          <g>
            <path class="cls-4" d="M89.2,77.6c0-.3-.5-12.3-.5-12.3l-6.7-2.3s-4.1,10.6-6.1,14.7c-2.5,5-9.7,27.7-9.7,27.7,0,0,5.8-7.1,9.8-10.8,4-3.8,10.3-11.4,10.3-11.4l-3.5-3.5c4-1.3,6.4-2,6.4-2h0Z"/>
            <path class="cls-2" d="M66.2,106.3c0,0-.3,0-.4,0-.4-.2-.6-.7-.4-1.1.3-.9,7.2-22.8,9.7-27.8,2-4.1,6.1-14.6,6.1-14.7.2-.5.7-.7,1.2-.5l6.7,2.3c.4,0,.6.5.6.8.6,12.2.5,12.4.5,12.5,0,.3-.3.6-.6.7,0,0-1.9.5-5,1.5l2.5,2.5c.3.3.4.9,0,1.2-.3.3-6.4,7.8-10.4,11.5-3.9,3.7-9.7,10.7-9.7,10.8-.2.2-.4.3-.7.3h0ZM82.6,64.1c-1,2.6-4.1,10.5-5.9,14s-6,16.3-8.2,23.1c2-2.3,4.7-5.3,6.9-7.4,3.3-3.1,8.1-8.8,9.7-10.7l-2.9-2.9c-.2-.2-.3-.6-.2-.9,0-.3.3-.6.6-.7,2.8-.9,4.8-1.5,5.8-1.8,0-1.8-.3-7.1-.5-11l-5.2-1.8h-.1ZM89.2,77.6h0Z"/>
          </g>
          <g>
            <path class="cls-4" d="M63.1,75.5c1.1-5.3,3-12.7,3-12.7l-6.8-.7s-6.6,13.5-5.5,13.3c.7,0,3.1,1,5,2.1-1.8.8-4.6,2-4.6,2.2,0,.4,1,6.8,2.9,11.3s9.2,14.3,9.2,14.3c0,0-4.8-21.7-3.2-29.9h0Z"/>
            <path class="cls-2" d="M66.2,106.3c-.3,0-.6,0-.7-.4-.3-.4-7.4-10-9.3-14.5-1.9-4.6-2.9-11.2-2.9-11.6s.6-1,1.5-1.4c.5-.3,1.2-.6,1.9-.9-1.5-.8-2.6-1.1-2.9-1.2-.4,0-.7,0-.9-.4-.3-.5-.3-1.1.5-3.3.4-1.2,1.1-2.7,2-4.6,1.5-3.2,3-6.3,3-6.4.2-.3.5-.5.9-.5l6.8.7c.3,0,.5.2.7.4s.2.5,0,.8c0,0-1.9,7.5-3,12.7h0c-1.6,7.9,3.1,29.3,3.2,29.5,0,.4,0,.9-.5,1h-.4,0ZM55.1,80.2c.2,1.6,1.1,6.7,2.7,10.5,1.1,2.7,4.3,7.4,6.6,10.6-1.3-6.8-3.5-19.9-2.3-26h0c.8-4.1,2.2-9.5,2.7-11.7l-5.1-.5c-2.3,4.7-4.6,9.8-5.1,11.6,1.4.4,3.6,1.5,4.6,2.1.3.2.5.5.5.8s-.2.7-.5.8c-.4.2-.9.4-1.4.6-.8.4-2,.9-2.6,1.2h0ZM53.8,76.3h0ZM53.8,76.3h0ZM53.6,74.5h0Z"/>
          </g>
          <g>
            <path class="cls-3" d="M62.8,63.6l3.8-2.2s0,5,3.5,8.1l-7.1,6s-1.7-7.1-.3-11.9h0Z"/>
            <path class="cls-2" d="M63.1,76.4h-.3c-.3,0-.5-.4-.6-.7,0,0-.4-1.9-.7-4.3-.3-3.3-.2-6,.4-8.1,0-.2.2-.4.4-.5l3.8-2.2c.3-.2.6-.2.9,0s.5.5.5.8c0,0,0,4.6,3.2,7.4.2.2.3.4.3.7s0,.5-.3.7l-7.1,6c-.2,0-.4.2-.6.2h0ZM63.6,64.2c-.8,3.2-.3,7.3,0,9.6l5.1-4.3c-2-2.2-2.7-4.9-2.9-6.5l-2.3,1.3h.1Z"/>
          </g>
          <g>
            <path class="cls-3" d="M70.1,69.5l6.8,6.6c0,0,2.9-3.6,4.4-6.3,1.5-2.8,3.2-6,3.1-6l-3.3-3.7s-4.5,4.1-6.3,5.6-4.6,3.8-4.6,3.8h0Z"/>
            <path class="cls-2" d="M76.9,77h-.4c0,0-.2,0-.3-.2l-6.8-6.6c-.2-.2-.3-.4-.3-.7s0-.5.3-.7c0,0,2.8-2.3,4.6-3.8,1.8-1.5,6.2-5.6,6.3-5.6.2-.2.4-.3.7-.2.2,0,.5,0,.6.3l3.3,3.7s0,0,.2.2c.2.5,0,.7-1,2.8-.6,1.2-1.4,2.7-2.1,4-.9,1.6-2.1,3.4-2.7,4.3-.4.6-.9,1.2-1.2,1.6-.4.5-.8.9-1.2.9h0ZM71.5,69.6l5.4,5.2c.9-1.1,2.6-3.5,3.6-5.4,1.2-2.2,2.4-4.5,2.8-5.4l-2.3-2.6c-1.3,1.2-4.2,3.9-5.6,5-1.2,1-2.9,2.4-3.8,3.2h0Z"/>
          </g>
          <g>
            <path class="cls-2" d="M63.9,15.2c-2.8-.3-4.7-1.9-4.7-1.9-.8,2.4.6,4.5,1.8,5.7,0,.2-.2.3-.3.5-3.6,7.7.8,15,.8,15l11-19.2s-4.7-5.9-8.6,0Z"/>
            <path class="cls-2" d="M61.5,34.9c-.2,0-.3,0-.4-.2,0,0-1.1-1.9-1.8-4.8-.6-2.6-.9-6.6,1-10.7,0,0,0-.2,0-.3-1.3-1.4-2.5-3.4-1.7-5.9,0-.1.2-.2.3-.3h.4s1.8,1.5,4.2,1.8c1.2-1.6,2.5-2.5,4-2.5,2.8,0,5.1,2.7,5.2,2.8s0,.3,0,.5l-11,19.2c0,0-.2.2-.4.2h0v.2ZM59.5,14c-.3,1.9.8,3.6,1.8,4.6,0,.1.2.3,0,.5,0,.2-.2.4-.3.5-2.9,6.1-.5,12,.4,14l10.5-18.2c-.6-.6-2.3-2.4-4.3-2.3-1.3,0-2.4.8-3.5,2.3,0,.1-.2.2-.4.2-2-.2-3.6-1.1-4.4-1.6h.2Z"/>
          </g>
          <g>
            <path class="cls-3" d="M62,24.5c-1.9,3.7-3.1,11.4-4.2,17-2.7,14.3,1.6,18.6,8.4,20.3,8,1.9,14.8-.7,20.3-9,2.7-4.1,6.7-11.9,6.7-17.5s-7.3-16.9-15.8-16.9-12-.7-15.4,6.1Z"/>
            <path class="cls-2" d="M71,63.3c-1.6,0-3.3-.2-5-.6-4.2-1-6.8-2.8-8.4-5.8-1.8-3.5-2-8.5-.7-15.4,0-.8.3-1.6.4-2.4,1-5.4,2.1-11.6,3.8-14.9h0c3.4-6.7,7-6.6,14.1-6.6h2.1c9.1,0,16.7,11.8,16.7,17.7s-4.3,14.2-6.9,18c-2.8,4.2-6,7.1-9.6,8.6-2.1.9-4.3,1.3-6.7,1.3h.2ZM73.5,19.3c-5.7,0-8.1.5-10.7,5.6-1.6,3.1-2.7,9.1-3.6,14.4-.2.8-.3,1.6-.4,2.4-2.8,14.7,2.1,17.9,7.8,19.2,1.6.4,3.1.6,4.5.6,5.9,0,10.7-3,14.8-9.2,1.6-2.4,3.1-5.3,4.3-8,1.5-3.5,2.3-6.6,2.3-9s-1.8-6.7-4.5-10c-4.3-5.2-8.4-6-10.4-6h-4.1ZM62,24.5h0Z"/>
          </g>
          <g>
            <path class="cls-2" d="M91.5,45.1s12-11.4,3.2-23.7c-5.9-8.2-22.8-11-25.2-5-.3.8,4.6,2.7,6.5,12.3,0,0,2-.8,2.8-3.4,0,0,1.9,4.1,5.8,6.2,4.5,2.4,3.4,6.3,3.4,7.4s-1.5,7.5-1.5,7.5c0,0,3.4-2.9,4.6-2.3,1.2.7.5,1,.5,1"/>
            <path class="cls-2" d="M86.4,46.9h-.2c-.2,0-.2-.3-.2-.5.6-2.6,1.5-6.6,1.5-7.4v-.6c0-1.5.4-4.4-3.2-6.4-2.9-1.6-4.7-4.2-5.5-5.5-1,2-2.6,2.7-2.7,2.7h-.4c0,0-.2-.2-.2-.3-1.3-6.9-4.2-9.7-5.6-11.1-.6-.6-1-1-.8-1.5.7-1.8,2.7-3,5.6-3.4,3.2-.4,7.2.2,10.9,1.6,4.1,1.6,7.4,3.9,9.4,6.7,4.7,6.5,3.5,12.8,1.8,16.9-1.6,3.6-3.9,6.2-4.7,7.1,0,.2-.3.3-.5.4-.2,0-.4,0-.5-.2s0-.4,0-.5h0s-.2,0-.4-.3c-.5-.3-2.2.5-4.1,2.2,0,0-.2,0-.3,0h0ZM78.7,25c.2,0,.3,0,.4.2,0,0,1.9,4,5.6,6,4.2,2.2,3.8,5.7,3.7,7.2v.5c0,.8-.8,4.4-1.2,6.4,1.2-.9,3.1-2.1,4.1-1.5.2,0,.4.2.6.4,1-1.1,2.9-3.4,4.2-6.5,1.1-2.5,1.6-5,1.5-7.4,0-3-1.2-5.9-3.1-8.7-4-5.6-13.5-8.7-19.5-7.9-1.8.2-4.1.9-4.9,2.8,0,.1.4.4.6.7,1.4,1.4,4.3,4.2,5.7,11,.6-.4,1.6-1.2,2.1-2.8,0-.2.2-.3.4-.3h-.2Z"/>
          </g>
          <g>
            <path class="cls-3" d="M76,52.8s-2.1,5.5-6.8,4.8c-2.7-.4-3.9-5.5-3.9-5.5l10.6.7h.1Z"/>
            <path class="cls-2" d="M70.1,58.5h-1c-1.4-.2-2.6-1.4-3.6-3.4-.7-1.4-1-2.7-1-2.8,0-.3,0-.6.2-.8s.5-.3.7-.3l10.6.7c.3,0,.5.2.7.4s.2.5,0,.8c-.7,2-3.1,5.4-6.8,5.4h.2ZM66.6,53c.5,1.5,1.5,3.5,2.8,3.7,1.6.2,3.1-.4,4.3-1.8.4-.4.7-.9.9-1.3,0,0-8-.6-8-.6Z"/>
          </g>
          <g>
            <path class="cls-3" d="M90.1,43.8c2.9-.2,5.2,2.1,4.3,4.5-.9,2.5-5,4-7.6,2.5"/>
            <path class="cls-2" d="M89.2,52.3c-1,0-1.9-.2-2.8-.6-.4-.2-.6-.8-.4-1.2s.8-.6,1.2-.4c1.1.6,2.5.6,3.9,0,1.2-.5,2.1-1.3,2.5-2.1.3-.9,0-1.6-.3-2.1-.7-.9-1.9-1.4-3.1-1.3-.5,0-.9-.3-.9-.8s.3-.9.8-.9c1.9,0,3.7.6,4.7,2,.8,1.1,1,2.5.6,3.8-.5,1.4-1.8,2.5-3.5,3.2-.9.3-1.8.5-2.6.5h0Z"/>
          </g>
          <g>
            <path class="cls-3" d="M65.6,37.8c-4.4,2.2-6.4,3.8-6.4,3.8l3.1,3.6"/>
            <path class="cls-2" d="M62.4,46.2c-.2,0-.5,0-.7-.3l-3.1-3.6c-.2-.2-.2-.4-.2-.7s0-.5.3-.6c0,0,2.1-1.7,6.6-3.9.4-.2,1,0,1.2.4s0,1-.4,1.2c-2.8,1.4-4.6,2.6-5.5,3.2l2.5,2.9c.3.4.3.9,0,1.2-.2,0-.4.2-.6.2h-.1Z"/>
          </g>
          <path class="cls-2" d="M78.2,37.8c0,.7-.5,1.3-1.2,1.3s-1.3-.5-1.3-1.2.5-1.3,1.2-1.3,1.3.5,1.3,1.2Z"/>
          <path class="cls-2" d="M65,34.4c0,.7-.5,1.3-1.2,1.3s-1.3-.5-1.3-1.2.5-1.3,1.2-1.3,1.3.5,1.3,1.2Z"/>
          <g>
            <path class="cls-3" d="M88.1,48.4c.5-.9,1.4-1.1,2-1.1"/>
            <path class="cls-2" d="M88.1,49.3c0,0-.3,0-.4,0-.4-.2-.6-.8-.3-1.2.8-1.3,2.1-1.5,2.7-1.6.5,0,.9.3,1,.8,0,.5-.3.9-.8,1-.7,0-1.1.2-1.4.7-.2.3-.5.4-.8.4h0Z"/>
          </g>
          <path class="cls-3" d="M89.6,29.1h-.2c-1.5-1.1-3.7-3.5-5.4-8.7,0-.2,0-.4.3-.5.2,0,.4,0,.5.3,1.7,5,3.7,7.3,5.1,8.3.2.1.2.4,0,.6,0,.1-.2.2-.3.2v-.2Z"/>
          <path class="cls-3" d="M86,29.2h-.3c-1.5-1.2-3.5-3.6-5.1-8.9,0-.2,0-.4.3-.5.2,0,.4,0,.5.3,1.5,5.1,3.5,7.4,4.9,8.5.2.1.2.4,0,.6,0,.1-.2.2-.3.2v-.2Z"/>
          <g>
            <circle class="cls-3" cx="64.6" cy="112.5" r="2"/>
            <path class="cls-2" d="M64.6,115.4c-1.6,0-2.9-1.3-2.9-2.9s1.3-2.9,2.9-2.9,2.9,1.3,2.9,2.9-1.3,2.9-2.9,2.9ZM64.6,111.4c-.6,0-1.1.5-1.1,1.1s.5,1.1,1.1,1.1,1.1-.5,1.1-1.1-.5-1.1-1.1-1.1Z"/>
          </g>
          <g>
            <circle class="cls-3" cx="65" cy="125.4" r="2"/>
            <path class="cls-2" d="M64.9,128.2c-1.6,0-2.9-1.3-2.9-2.9s1.3-2.9,2.9-2.9,2.9,1.3,2.9,2.9-1.3,2.9-2.9,2.9ZM64.9,124.1c-.6,0-1.1.5-1.1,1.1s.5,1.1,1.1,1.1,1.1-.5,1.1-1.1-.5-1.1-1.1-1.1Z"/>
          </g>
          <g>
            <path class="cls-4" d="M48.3,90s0-.7-.2-2.4"/>
            <path class="cls-2" d="M48.3,90.9c-.5,0-.9-.4-.9-.8,0,0,0-.7-.2-2.4,0-.5.3-.9.8-1,.5,0,.9.3,1,.8.2,1.8.2,2.4.2,2.5,0,.5-.3.9-.8,1h0Z"/>
          </g>
          <g>
            <path class="cls-4" d="M99,69.6s3.1.9,3.9,1.9c1.3,1.5,8.7,13.9,13.9,24.8,2.8,5.7,6.7,11.2,5.6,15.3-.6,2.2-3.4,3.7-6.6,6-7.5,5.5-18.9,10.4-18.9,10.4l-4.3-15.1,12.3-5.6-10-13.2"/>
            <path class="cls-2" d="M96.9,128.7h-.3c-.2,0-.4-.3-.4-.5l-4.3-15.1c0-.4,0-.8.4-.9l11.4-5.2-9.4-12.4c-.3-.4-.2-.9.2-1.1.4-.3.9-.2,1.1.2l10,13.2c0,.2.2.4,0,.7s-.2.4-.4.5l-11.6,5.3,3.8,13.5c2.8-1.2,11.8-5.4,17.9-9.9.7-.5,1.3-.9,1.9-1.4,2.2-1.5,3.9-2.7,4.3-4.2.8-2.8-1.3-6.7-3.5-10.8-.7-1.3-1.4-2.6-2-3.9-5.2-10.7-12.6-23.1-13.8-24.6-.5-.6-2.4-1.3-3.5-1.7-.4,0-.7-.6-.5-1,0-.4.6-.7,1-.5.6.2,3.3,1,4.3,2.2,1.3,1.6,8.7,13.9,14.1,24.9.6,1.3,1.3,2.6,2,3.8,2.4,4.4,4.6,8.6,3.6,12-.6,2-2.5,3.4-5,5.1-.6.4-1.2.9-1.9,1.3-7.5,5.5-19,10.4-19.1,10.5h-.4Z"/>
          </g>
          <g>
            <g>
              <path class="cls-3" d="M97.6,128.3c3.4-1.7,5-6.2,7.4-9.6,2.3-3.2,5.3-7.9,4-8.8-.9-.6-3.6,3.1-5.2,4.9-1.2,1.3-2.3,2.8-2.5,2.6,0,0,1.3-1.7,2.4-3.5,2.3-3.5,4.4-7.8,2.6-9.2-.6-.4-4,4.7-5.6,6.7-1.6,1.9-2.1,3.2-2.1,3.2,0,0,.9-1.3,1.7-3.3.8-2.1,3.8-8,2.3-9.1-1.1-.8-4.2,5.3-5.2,7.3-1,1.9-1.9,3-1.9,3,0,0,2.6-10.1,0-11-1.8-.6-3.2,10.5-3.8,13.4,0,.3-.3,1.4-.8,1.5-1,.2-1.7-3.4-2.7-4.9-1.4-2.1-2.3-1.8-3.2-1.3-.9.5.4,2.1.4,5s2,8.3,2,8.3c0,0,.7,2.2,2.3,3.5,3.1,2.6,6.6,2,7.7,1.4h.2Z"/>
              <path class="cls-2" d="M95,129.6c-1.7,0-3.8-.5-5.7-2.1-1.7-1.4-2.5-3.6-2.5-3.9,0-.4-2.1-5.6-2.1-8.6s-.3-2.2-.5-3c-.3-1-.6-2.1.5-2.7,1.2-.6,2.6-.9,4.2,1.6.4.6.8,1.6,1.1,2.5.2.6.5,1.4.8,1.9,0,0,0-.3.2-.6h0c0-.7.3-1.7.5-2.9.3-2,.7-4.4,1.2-6.5.8-3.4,1.5-4.2,2-4.6.3-.2.7-.3,1.1,0,1.5.5,2,2.6,1.6,6.7v.7c2.9-5.6,4-6.6,4.8-6.8.4,0,.7,0,1,.2,1.2.9.8,2.9-.2,5.6,1.8-2.4,2.6-3.2,3.2-3.3.3,0,.5,0,.7.2,1.3,1.1,1.3,3.1,0,6,.9-.9,1.8-1.3,2.5-.8.2.2.5.5.6,1,0,.6,0,1.6-1.4,4.2-.9,1.7-2.2,3.5-3,4.7-.7,1-1.4,2.1-2,3.2-1.6,2.6-3.2,5.4-5.7,6.7h0c-.6.3-1.6.6-2.9.6h0ZM97.6,128.3h0ZM85.6,110.7c0,.2,0,.6.2.9.2.8.5,2,.5,3.4,0,2.7,2,8,2,8h0s.6,2,2.1,3.2c2.9,2.5,6.2,1.6,6.8,1.3h0c2.1-1.1,3.6-3.5,5.1-6.1.7-1.1,1.3-2.3,2.1-3.3,3.3-4.6,4.1-6.8,4.1-7.5-.7.5-2.1,2.2-2.9,3.1-.4.5-.9,1-1.2,1.5-.4.4-.7.8-1.1,1.2-1.2,1.4-1.5,1.7-2,1.7s-.5,0-.6-.3c-.4-.5,0-1.1.2-1.4.2-.2.4-.6.7-.9.5-.6,1-1.4,1.5-2.2,2.8-4.3,3.4-6.7,3-7.8-.7.8-2.1,2.6-3,3.9-.7.9-1.3,1.7-1.7,2.3-.4.5-.7.9-1,1.3-.6,1.1-1.1,1.8-1.1,1.9-.2.3-.7.4-1,.2-.4-.2-.5-.6-.4-1,0,0,.3-.8,1.1-1.9.2-.4.4-.9.6-1.4.2-.4.4-1,.7-1.6.5-1.3,1.2-2.8,1.6-4.2.4-1.2.4-1.8.4-2.1-.5.5-1.6,1.9-4,6.7-1,2-1.9,3.1-2,3.2-.2.3-.6.4-1,.2-.3-.2-.5-.5-.4-.9,0,0,.6-2.5.9-5.1.4-3.6,0-4.6-.3-4.9-.2.3-.6,1.1-1.2,3.5-.5,2-.9,4.4-1.2,6.3-.2,1.2-.4,2.3-.5,2.9h0c0,.6-.4,1.9-1.5,2.1-1.3.3-1.9-1.4-2.6-3.1-.3-.8-.6-1.7-.9-2.1-1-1.5-1.4-1.4-2-1.1h0Z"/>
            </g>
            <g>
              <path class="cls-3" d="M94.6,113.1c1.2.4,5.8,4.2,6.1,5.2"/>
              <path class="cls-2" d="M100.7,119.1c-.3,0-.7-.2-.8-.6-.4-.8-4.6-4.3-5.6-4.6-.4,0-.6-.6-.5-1s.6-.6,1-.5c1,.3,3.2,2.1,3.6,2.5,1.8,1.5,2.8,2.6,3,3.2,0,.4,0,.9-.5,1h-.2ZM99.9,118.5h0ZM99.9,118.5h0Z"/>
            </g>
          </g>
        </g>
        <g>
          <g>
            <path class="cls-3" d="M120.6,16.4c-10.4,0-18.9,8.5-18.9,18.9s1,7,2.8,9.9l-5.3,4.9,7.4-2.1c3.5,3.8,8.5,6.2,14,6.2,10.4,0,18.9-8.5,18.9-18.9s-8.5-18.9-18.9-18.9Z"/>
            <path class="cls-2" d="M120.6,54.8c-5.4,0-10.5-2.2-14.2-6.1l-7.1,2c-.3,0-.5,0-.7-.3,0-.2,0-.5,0-.7l5-4.6c-1.7-3-2.6-6.3-2.6-9.8,0-10.7,8.7-19.5,19.5-19.5s19.5,8.7,19.5,19.5-8.7,19.5-19.5,19.5h0ZM106.6,47.5c.2,0,.3,0,.4.2,3.5,3.8,8.4,6,13.6,6,10.1,0,18.3-8.2,18.3-18.3s-8.2-18.3-18.3-18.3-18.3,8.2-18.3,18.3.9,6.7,2.7,9.6c0,.2,0,.5,0,.7l-3.6,3.3,5.1-1.5h.2,0Z"/>
          </g>
          <g>
            <g>
              <circle class="cls-4" cx="120.7" cy="34.5" r="7.3"/>
              <path class="cls-2" d="M120.7,42.3c-4.3,0-7.7-3.5-7.7-7.7s3.5-7.7,7.7-7.7,7.7,3.5,7.7,7.7-3.5,7.7-7.7,7.7ZM120.7,27.7c-3.8,0-6.8,3.1-6.8,6.8s3.1,6.8,6.8,6.8,6.8-3.1,6.8-6.8-3.1-6.8-6.8-6.8Z"/>
            </g>
            <path class="cls-2" d="M118.6,43.2c-.2,0-.4,0-.4-.3s-1.4-5.7-1.4-7.4,1.3-2.7,2.5-2.7,1,0,1.4.3c.4-.2.8-.3,1.2-.3,2,0,2.7,1.6,2.7,3.1s-1.1,6.4-1.2,7c0,.2-.3.4-.5.4s-.4-.3-.4-.5c.3-1.6,1.2-6,1.2-6.8s-.2-2.1-1.8-2.1-.2,0-.3,0c.5.5.7,1.1.7,1.7,0,2.1-1,2.5-1.6,2.5-1.1,0-1.8-1.2-1.8-2.2s.3-1.3.8-1.9h-.5c-.5,0-1.6.2-1.6,1.8s1.4,7.1,1.4,7.2c0,.2,0,.5-.3.6h-.1v-.4ZM120.7,34.2c-.5.5-.8,1.2-.8,1.5,0,.5.3,1.3.8,1.3s.7-.5.7-1.5-.3-1-.7-1.3Z"/>
            <g>
              <polygon class="cls-3" points="122.1 50.7 119.3 50.7 119 48.7 122.3 48.7 122.1 50.7"/>
              <path class="cls-2" d="M122.1,51.1h-2.8c-.2,0-.4-.2-.5-.4l-.3-2c0,0,0-.3.1-.4,0,0,.2-.2.3-.2h3.4c.1,0,.3,0,.3.2s.1.2.1.4l-.3,2c0,.2-.2.4-.5.4h.2ZM119.6,50.2h2l.2-1.1h-2.3l.2,1.1h0Z"/>
            </g>
            <g>
              <path class="cls-3" d="M124.8,41.9c0,.5-1.9,1-4.1,1s-4.1-.4-4.1-1,1.9-1,4.1-1,4.1.4,4.1,1Z"/>
              <path class="cls-2" d="M123.1,43.3h-4.9c-1.2,0-2.2-.6-2.2-1.4s.9-1.4,2.2-1.4h4.9c1.2,0,2.2.6,2.2,1.4s-.9,1.4-2.2,1.4ZM118.2,41.4c-.8,0-1.2.3-1.2.5s.5.5,1.2.5h4.9c.8,0,1.2-.3,1.2-.5s-.5-.5-1.2-.5h-4.9Z"/>
            </g>
            <g>
              <path class="cls-3" d="M124.8,43.9c0,.5-1.9,1-4.1,1s-4.1-.4-4.1-1,1.9-1,4.1-1,4.1.4,4.1,1Z"/>
              <path class="cls-2" d="M123.1,45.3h-4.9c-1.2,0-2.2-.6-2.2-1.4s.9-1.4,2.2-1.4h4.9c1.2,0,2.2.6,2.2,1.4s-.9,1.4-2.2,1.4ZM118.2,43.3c-.8,0-1.2.3-1.2.5s.5.5,1.2.5h4.9c.8,0,1.2-.3,1.2-.5s-.5-.5-1.2-.5h-4.9Z"/>
            </g>
            <g>
              <path class="cls-3" d="M124.8,45.8c0,.5-1.9,1-4.1,1s-4.1-.4-4.1-1,1.9-1,4.1-1,4.1.4,4.1,1Z"/>
              <path class="cls-2" d="M123.1,47.3h-4.9c-1.2,0-2.2-.6-2.2-1.4s.9-1.4,2.2-1.4h4.9c1.2,0,2.2.6,2.2,1.4s-.9,1.4-2.2,1.4ZM118.2,45.3c-.8,0-1.2.3-1.2.5s.5.5,1.2.5h4.9c.8,0,1.2-.3,1.2-.5s-.5-.5-1.2-.5h-4.9Z"/>
            </g>
            <g>
              <path class="cls-3" d="M124.8,47.8c0,.5-1.9,1-4.1,1s-4.1-.4-4.1-1,1.9-1,4.1-1,4.1.4,4.1,1Z"/>
              <path class="cls-2" d="M123.1,49.3h-4.9c-1.2,0-2.2-.6-2.2-1.4s.9-1.4,2.2-1.4h4.9c1.2,0,2.2.6,2.2,1.4s-.9,1.4-2.2,1.4ZM118.2,47.3c-.8,0-1.2.3-1.2.5s.5.5,1.2.5h4.9c.8,0,1.2-.3,1.2-.5s-.5-.5-1.2-.5h-4.9Z"/>
            </g>
          </g>
          <g>
            <path class="cls-4" d="M124.2,25.4h-.3c-.3-.2-.4-.6-.2-.9l2-3.4c.2-.3.6-.4.9-.2.3.2.4.6.2.9l-2,3.4c-.1.2-.3.3-.6.3h0Z"/>
            <path class="cls-4" d="M121.1,24.6c-.4,0-.7-.3-.7-.7v-3.9c0-.4.3-.7.7-.7s.7.3.7.7v3.9c0,.4-.3.7-.7.7Z"/>
            <path class="cls-4" d="M117.9,25.4c-.2,0-.4-.1-.6-.3l-2-3.4c-.2-.3,0-.7.2-.9.3-.2.7,0,.9.2l2,3.4c.2.3,0,.7-.2.9h-.3Z"/>
          </g>
        </g>
      </g>
    </g>
  </g>
</svg>