<?xml version="1.0" encoding="UTF-8"?>
<svg xmlns="http://www.w3.org/2000/svg" xmlns:xlink="http://www.w3.org/1999/xlink" version="1.1" viewBox="0 0 153.1 153.1">
  <defs>
    <style>
      .cls-1, .cls-2, .cls-3 {
        fill: none;
      }

      .cls-4 {
        fill: url(#_6_lpi_10_-2);
      }

      .cls-2 {
        stroke-width: 1.2px;
      }

      .cls-2, .cls-3 {
        stroke: #231815;
      }

      .cls-3 {
        stroke-width: .7px;
      }

      .cls-5 {
        fill: url(#_10_lpi_10_);
      }

      .cls-6 {
        fill: url(#_10_dpi_20_);
      }

      .cls-7 {
        fill: url(#_10_lpi_10_-2);
      }

      .cls-8 {
        fill: #231815;
      }

      .cls-9 {
        fill: #fff;
      }

      .cls-10 {
        fill: url(#_6_lpi_10_);
      }

      .cls-11 {
        fill: #f9be00;
      }
    </style>
    <pattern id="_10_dpi_20_" data-name=" 10 dpi 20 " x="0" y="0" width="28.8" height="28.8" patternTransform="translate(-11901.7 -4504.4) scale(.3 -.3)" patternUnits="userSpaceOnUse" viewBox="0 0 28.8 28.8">
      <g>
        <rect class="cls-1" width="28.8" height="28.8"/>
        <g>
          <rect class="cls-1" width="28.8" height="28.8"/>
          <g>
            <path class="cls-8" d="M28.8-1.4C29.6-1.4,30.2-.8,30.2,0s-.6,1.4-1.4,1.4S27.4.8,27.4,0s.6-1.4,1.4-1.4Z"/>
            <path class="cls-8" d="M14.4-1.4C15.2-1.4,15.8-.8,15.8,0s-.6,1.4-1.4,1.4S13,.8,13,0s.6-1.4,1.4-1.4Z"/>
            <path class="cls-8" d="M28.8,13c.8,0,1.4.6,1.4,1.4s-.6,1.4-1.4,1.4-1.4-.6-1.4-1.4.6-1.4,1.4-1.4Z"/>
            <path class="cls-8" d="M14.4,13c.8,0,1.4.6,1.4,1.4s-.6,1.4-1.4,1.4-1.4-.6-1.4-1.4.6-1.4,1.4-1.4Z"/>
            <path class="cls-8" d="M7.2,5.8c.8,0,1.4.6,1.4,1.4s-.6,1.4-1.4,1.4-1.4-.6-1.4-1.4.6-1.4,1.4-1.4Z"/>
            <path class="cls-8" d="M21.6,5.8c.8,0,1.4.6,1.4,1.4s-.6,1.4-1.4,1.4-1.4-.6-1.4-1.4.6-1.4,1.4-1.4Z"/>
            <path class="cls-8" d="M7.2,20.2c.8,0,1.4.6,1.4,1.4s-.6,1.4-1.4,1.4-1.4-.6-1.4-1.4.6-1.4,1.4-1.4Z"/>
            <path class="cls-8" d="M21.6,20.2c.8,0,1.4.6,1.4,1.4s-.6,1.4-1.4,1.4-1.4-.6-1.4-1.4.6-1.4,1.4-1.4Z"/>
          </g>
          <g>
            <path class="cls-8" d="M0-1.4C.8-1.4,1.4-.8,1.4,0S.8,1.4,0,1.4-1.4.8-1.4,0-.8-1.4,0-1.4Z"/>
            <path class="cls-8" d="M0,13c.8,0,1.4.6,1.4,1.4s-.6,1.4-1.4,1.4-1.4-.6-1.4-1.4.6-1.4,1.4-1.4Z"/>
          </g>
          <g>
            <path class="cls-8" d="M28.8,27.4c.8,0,1.4.6,1.4,1.4s-.6,1.4-1.4,1.4-1.4-.6-1.4-1.4.6-1.4,1.4-1.4Z"/>
            <path class="cls-8" d="M14.4,27.4c.8,0,1.4.6,1.4,1.4s-.6,1.4-1.4,1.4-1.4-.6-1.4-1.4.6-1.4,1.4-1.4Z"/>
          </g>
          <path class="cls-8" d="M0,27.4c.8,0,1.4.6,1.4,1.4s-.6,1.4-1.4,1.4-1.4-.6-1.4-1.4.6-1.4,1.4-1.4Z"/>
        </g>
      </g>
    </pattern>
    <pattern id="_10_lpi_10_" data-name=" 10 lpi 10 " x="0" y="0" width="72" height="72" patternTransform="translate(-12477.9 -3731.5) rotate(-30) scale(.3 -.3)" patternUnits="userSpaceOnUse" viewBox="0 0 72 72">
      <g>
        <rect class="cls-1" width="72" height="72"/>
        <g>
          <rect class="cls-1" width="72" height="72"/>
          <g>
            <line class="cls-3" x1="71.8" y1="3.6" x2="144.2" y2="3.6"/>
            <line class="cls-3" x1="71.8" y1="18" x2="144.2" y2="18"/>
            <line class="cls-3" x1="71.8" y1="32.4" x2="144.2" y2="32.4"/>
            <line class="cls-3" x1="71.8" y1="46.8" x2="144.2" y2="46.8"/>
            <line class="cls-3" x1="71.8" y1="61.2" x2="144.2" y2="61.2"/>
            <line class="cls-3" x1="71.8" y1="10.8" x2="144.2" y2="10.8"/>
            <line class="cls-3" x1="71.8" y1="25.2" x2="144.2" y2="25.2"/>
            <line class="cls-3" x1="71.8" y1="39.6" x2="144.2" y2="39.6"/>
            <line class="cls-3" x1="71.8" y1="54" x2="144.2" y2="54"/>
            <line class="cls-3" x1="71.8" y1="68.4" x2="144.2" y2="68.4"/>
          </g>
          <g>
            <line class="cls-3" x1="-.2" y1="3.6" x2="72.2" y2="3.6"/>
            <line class="cls-3" x1="-.2" y1="18" x2="72.2" y2="18"/>
            <line class="cls-3" x1="-.2" y1="32.4" x2="72.2" y2="32.4"/>
            <line class="cls-3" x1="-.2" y1="46.8" x2="72.2" y2="46.8"/>
            <line class="cls-3" x1="-.2" y1="61.2" x2="72.2" y2="61.2"/>
            <line class="cls-3" x1="-.2" y1="10.8" x2="72.2" y2="10.8"/>
            <line class="cls-3" x1="-.2" y1="25.2" x2="72.2" y2="25.2"/>
            <line class="cls-3" x1="-.2" y1="39.6" x2="72.2" y2="39.6"/>
            <line class="cls-3" x1="-.2" y1="54" x2="72.2" y2="54"/>
            <line class="cls-3" x1="-.2" y1="68.4" x2="72.2" y2="68.4"/>
          </g>
          <g>
            <line class="cls-3" x1="-72.2" y1="3.6" x2=".2" y2="3.6"/>
            <line class="cls-3" x1="-72.2" y1="18" x2=".2" y2="18"/>
            <line class="cls-3" x1="-72.2" y1="32.4" x2=".2" y2="32.4"/>
            <line class="cls-3" x1="-72.2" y1="46.8" x2=".2" y2="46.8"/>
            <line class="cls-3" x1="-72.2" y1="61.2" x2=".2" y2="61.2"/>
            <line class="cls-3" x1="-72.2" y1="10.8" x2=".2" y2="10.8"/>
            <line class="cls-3" x1="-72.2" y1="25.2" x2=".2" y2="25.2"/>
            <line class="cls-3" x1="-72.2" y1="39.6" x2=".2" y2="39.6"/>
            <line class="cls-3" x1="-72.2" y1="54" x2=".2" y2="54"/>
            <line class="cls-3" x1="-72.2" y1="68.4" x2=".2" y2="68.4"/>
          </g>
        </g>
      </g>
    </pattern>
    <pattern id="_6_lpi_10_" data-name=" 6 lpi 10 " x="0" y="0" width="72" height="72" patternTransform="translate(-21277.8 -3693.7) rotate(-150) scale(.3)" patternUnits="userSpaceOnUse" viewBox="0 0 72 72">
      <g>
        <rect class="cls-1" width="72" height="72"/>
        <g>
          <rect class="cls-1" width="72" height="72"/>
          <g>
            <line class="cls-2" x1="71.8" y1="6" x2="144.2" y2="6"/>
            <line class="cls-2" x1="71.8" y1="30" x2="144.2" y2="30"/>
            <line class="cls-2" x1="71.8" y1="54" x2="144.2" y2="54"/>
            <line class="cls-2" x1="71.8" y1="18" x2="144.2" y2="18"/>
            <line class="cls-2" x1="71.8" y1="42" x2="144.2" y2="42"/>
            <line class="cls-2" x1="71.8" y1="66" x2="144.2" y2="66"/>
          </g>
          <g>
            <line class="cls-2" x1="-.2" y1="6" x2="72.2" y2="6"/>
            <line class="cls-2" x1="-.2" y1="30" x2="72.2" y2="30"/>
            <line class="cls-2" x1="-.2" y1="54" x2="72.2" y2="54"/>
            <line class="cls-2" x1="-.2" y1="18" x2="72.2" y2="18"/>
            <line class="cls-2" x1="-.2" y1="42" x2="72.2" y2="42"/>
            <line class="cls-2" x1="-.2" y1="66" x2="72.2" y2="66"/>
          </g>
          <g>
            <line class="cls-2" x1="-72.2" y1="6" x2=".2" y2="6"/>
            <line class="cls-2" x1="-72.2" y1="30" x2=".2" y2="30"/>
            <line class="cls-2" x1="-72.2" y1="54" x2=".2" y2="54"/>
            <line class="cls-2" x1="-72.2" y1="18" x2=".2" y2="18"/>
            <line class="cls-2" x1="-72.2" y1="42" x2=".2" y2="42"/>
            <line class="cls-2" x1="-72.2" y1="66" x2=".2" y2="66"/>
          </g>
        </g>
      </g>
    </pattern>
    <pattern id="_6_lpi_10_-2" data-name=" 6 lpi 10 -2" x="0" y="0" width="72" height="72" patternTransform="translate(-12477.9 -3731.5) rotate(-30) scale(.3 -.3)" patternUnits="userSpaceOnUse" viewBox="0 0 72 72">
      <g>
        <rect class="cls-1" width="72" height="72"/>
        <g>
          <rect class="cls-1" width="72" height="72"/>
          <g>
            <line class="cls-2" x1="71.8" y1="6" x2="144.2" y2="6"/>
            <line class="cls-2" x1="71.8" y1="30" x2="144.2" y2="30"/>
            <line class="cls-2" x1="71.8" y1="54" x2="144.2" y2="54"/>
            <line class="cls-2" x1="71.8" y1="18" x2="144.2" y2="18"/>
            <line class="cls-2" x1="71.8" y1="42" x2="144.2" y2="42"/>
            <line class="cls-2" x1="71.8" y1="66" x2="144.2" y2="66"/>
          </g>
          <g>
            <line class="cls-2" x1="-.2" y1="6" x2="72.2" y2="6"/>
            <line class="cls-2" x1="-.2" y1="30" x2="72.2" y2="30"/>
            <line class="cls-2" x1="-.2" y1="54" x2="72.2" y2="54"/>
            <line class="cls-2" x1="-.2" y1="18" x2="72.2" y2="18"/>
            <line class="cls-2" x1="-.2" y1="42" x2="72.2" y2="42"/>
            <line class="cls-2" x1="-.2" y1="66" x2="72.2" y2="66"/>
          </g>
          <g>
            <line class="cls-2" x1="-72.2" y1="6" x2=".2" y2="6"/>
            <line class="cls-2" x1="-72.2" y1="30" x2=".2" y2="30"/>
            <line class="cls-2" x1="-72.2" y1="54" x2=".2" y2="54"/>
            <line class="cls-2" x1="-72.2" y1="18" x2=".2" y2="18"/>
            <line class="cls-2" x1="-72.2" y1="42" x2=".2" y2="42"/>
            <line class="cls-2" x1="-72.2" y1="66" x2=".2" y2="66"/>
          </g>
        </g>
      </g>
    </pattern>
    <pattern id="_10_lpi_10_-2" data-name=" 10 lpi 10 -2" x="0" y="0" width="72" height="72" patternTransform="translate(-21275.7 -3708.1) rotate(-150) scale(.3)" patternUnits="userSpaceOnUse" viewBox="0 0 72 72">
      <g>
        <rect class="cls-1" width="72" height="72"/>
        <g>
          <rect class="cls-1" width="72" height="72"/>
          <g>
            <line class="cls-3" x1="71.8" y1="3.6" x2="144.2" y2="3.6"/>
            <line class="cls-3" x1="71.8" y1="18" x2="144.2" y2="18"/>
            <line class="cls-3" x1="71.8" y1="32.4" x2="144.2" y2="32.4"/>
            <line class="cls-3" x1="71.8" y1="46.8" x2="144.2" y2="46.8"/>
            <line class="cls-3" x1="71.8" y1="61.2" x2="144.2" y2="61.2"/>
            <line class="cls-3" x1="71.8" y1="10.8" x2="144.2" y2="10.8"/>
            <line class="cls-3" x1="71.8" y1="25.2" x2="144.2" y2="25.2"/>
            <line class="cls-3" x1="71.8" y1="39.6" x2="144.2" y2="39.6"/>
            <line class="cls-3" x1="71.8" y1="54" x2="144.2" y2="54"/>
            <line class="cls-3" x1="71.8" y1="68.4" x2="144.2" y2="68.4"/>
          </g>
          <g>
            <line class="cls-3" x1="-.2" y1="3.6" x2="72.2" y2="3.6"/>
            <line class="cls-3" x1="-.2" y1="18" x2="72.2" y2="18"/>
            <line class="cls-3" x1="-.2" y1="32.4" x2="72.2" y2="32.4"/>
            <line class="cls-3" x1="-.2" y1="46.8" x2="72.2" y2="46.8"/>
            <line class="cls-3" x1="-.2" y1="61.2" x2="72.2" y2="61.2"/>
            <line class="cls-3" x1="-.2" y1="10.8" x2="72.2" y2="10.8"/>
            <line class="cls-3" x1="-.2" y1="25.2" x2="72.2" y2="25.2"/>
            <line class="cls-3" x1="-.2" y1="39.6" x2="72.2" y2="39.6"/>
            <line class="cls-3" x1="-.2" y1="54" x2="72.2" y2="54"/>
            <line class="cls-3" x1="-.2" y1="68.4" x2="72.2" y2="68.4"/>
          </g>
          <g>
            <line class="cls-3" x1="-72.2" y1="3.6" x2=".2" y2="3.6"/>
            <line class="cls-3" x1="-72.2" y1="18" x2=".2" y2="18"/>
            <line class="cls-3" x1="-72.2" y1="32.4" x2=".2" y2="32.4"/>
            <line class="cls-3" x1="-72.2" y1="46.8" x2=".2" y2="46.8"/>
            <line class="cls-3" x1="-72.2" y1="61.2" x2=".2" y2="61.2"/>
            <line class="cls-3" x1="-72.2" y1="10.8" x2=".2" y2="10.8"/>
            <line class="cls-3" x1="-72.2" y1="25.2" x2=".2" y2="25.2"/>
            <line class="cls-3" x1="-72.2" y1="39.6" x2=".2" y2="39.6"/>
            <line class="cls-3" x1="-72.2" y1="54" x2=".2" y2="54"/>
            <line class="cls-3" x1="-72.2" y1="68.4" x2=".2" y2="68.4"/>
          </g>
        </g>
      </g>
    </pattern>
  </defs>
  <!-- Generator: Adobe Illustrator 28.7.1, SVG Export Plug-In . SVG Version: 1.2.0 Build 142)  -->
  <g>
    <g id="_レイヤー_1" data-name="レイヤー_1">
      <g id="_レイヤー_1-2" data-name="_レイヤー_1">
        <g>
          <g>
            <g>
              <path class="cls-11" d="M86.2,5.7l-32.6,14.7s7.1,1.9,15.3,4.1c-5.6,29.1-18,47.3-53.5,63.6,0,0,45.5-8.1,69.9-59.1,4.7,1.3,8.1,2.3,8.2,2.4-.3-.6-7.3-25.8-7.3-25.8h0Z"/>
              <path class="cls-8" d="M15.3,88.6c-.2,0-.4,0-.5-.4,0-.2,0-.5.3-.6,17.5-8,29.5-16.5,37.8-26.8,7.6-9.4,12.3-20.5,15.3-35.9-7.9-2.1-14.8-4-14.8-4-.2,0-.4-.2-.4-.5s0-.4.3-.5l32.6-14.7h.4c0,0,.2.2.3.3,2.8,10,7,25,7.3,25.7,0,.2,0,.5-.2.7-.2.1-.4,0-.6,0-.3-.1-1.6-.6-7.6-2.3-5.6,11.5-12.7,21.8-21.1,30.5-6.8,7.1-14.6,13.1-23,18-7.5,4.4-14.1,7-18.4,8.4-4.6,1.5-7.4,2.1-7.6,2.1h-.1ZM55.1,20.3c2.5.7,7.9,2.1,13.9,3.7.3,0,.4.3.4.6-3,15.8-7.8,27.2-15.6,36.8-7.6,9.4-18.3,17.4-33.3,24.8,4.7-1.4,12.1-4.1,20.5-9,8.3-4.9,16-10.9,22.8-17.8,8.5-8.7,15.6-19,21.1-30.6,0-.2.4-.3.6-.3,4.1,1.1,6.2,1.8,7.3,2.1-1.2-4.2-5.5-19.6-6.8-24.2l-30.7,13.9h-.2ZM93.2,31.8h0s0,0,0,0ZM93,31.7h0s0,0,0,0ZM93,31.7h0ZM93.9,31.2h0Z"/>
            </g>
            <g>
              <path class="cls-11" d="M93.5,31.4h0Z"/>
              <path class="cls-8" d="M93.5,31.9c-.2,0-.4,0-.5-.3,0-.2,0-.5.2-.7.2-.1.4,0,.6,0,0,.1.2.2.2.4s-.2.5-.4.5h0,0ZM93.5,31.4h0ZM93.5,31.4h0ZM93.5,31.4h0l.5-.2h0l-.4.3h0ZM93.5,30.9h0v.5c0,0,.4-.4.4-.4h-.3Z"/>
            </g>
          </g>
          <g>
            <g>
              <rect class="cls-6" x="89.5" y="37.5" width="11.7" height="72.6"/>
              <path class="cls-8" d="M101.1,110.5h-11.7c-.3,0-.5-.2-.5-.5V37.5c0-.3.2-.5.5-.5h11.7c.3,0,.5.2.5.5v72.6c0,.3-.2.5-.5.5h0ZM90,109.5h10.6V38h-10.6v71.5Z"/>
            </g>
            <g>
              <rect class="cls-5" x="72.3" y="69.2" width="11.7" height="40.8"/>
              <path class="cls-8" d="M84,110.5h-11.7c-.3,0-.5-.2-.5-.5v-40.8c0-.3.2-.5.5-.5h11.7c.3,0,.5.2.5.5v40.8c0,.3-.2.5-.5.5ZM72.8,109.5h10.6v-39.8h-10.6s0,39.8,0,39.8Z"/>
            </g>
            <g>
              <polygon class="cls-10" points="55.2 110 66.9 110 66.9 84.5 55.2 84.5 55.2 110"/>
              <path class="cls-8" d="M66.9,110.5h-11.7c-.3,0-.5-.2-.5-.5v-25.5c0-.3.2-.5.5-.5h11.7c.3,0,.5.2.5.5v25.5c0,.3-.2.5-.5.5ZM55.7,109.5h10.6v-24.5h-10.6v24.5Z"/>
            </g>
            <g>
              <rect class="cls-4" x="38.1" y="95.1" width="11.7" height="14.9"/>
              <path class="cls-8" d="M49.7,110.5h-11.7c-.3,0-.5-.2-.5-.5v-14.9c0-.3.2-.5.5-.5h11.7c.3,0,.5.2.5.5v14.9c0,.3-.2.5-.5.5ZM38.6,109.5h10.6v-13.9h-10.6v13.9Z"/>
            </g>
            <g>
              <polygon class="cls-7" points="21 110 32.6 110 32.6 101.6 21 101.6 21 110"/>
              <path class="cls-8" d="M32.6,110.5h-11.7c-.3,0-.5-.2-.5-.5v-8.4c0-.3.2-.5.5-.5h11.7c.3,0,.5.2.5.5v8.4c0,.3-.2.5-.5.5ZM21.5,109.5h10.6v-7.4h-10.6s0,7.4,0,7.4Z"/>
            </g>
            <path class="cls-8" d="M112.6,110.5H9.4c-.3,0-.5-.2-.5-.5s.2-.5.5-.5h103.2c.3,0,.5.2.5.5s-.2.5-.5.5Z"/>
          </g>
        </g>
        <g>
          <g>
            <path class="cls-11" d="M126.5,54.3c2.7.7,6.8,1.2,7.8,7.4,1,6.1,2.2,12.8,3.7,13.4,1.5.5-1.5-.5-1.5-.5,0,0-1.1.4-4-1.6s-4.9-2.6-6.8-6.9c-1.9-4.2-1.4-7.6-1.7-8"/>
            <path class="cls-8" d="M138.3,75.8h-.2l-1.7-.6c-1.4.2-3.8-1.4-4.3-1.8-.6-.4-1.1-.7-1.6-1.1-2.1-1.3-3.8-2.5-5.4-6.1-1.4-3.2-1.5-5.8-1.6-7.3v-.7c-.1-.3,0-.7.2-.8.3-.2.7,0,.9.2s.2.6.2,1.3c0,1.3.2,3.8,1.5,6.8,1.5,3.2,2.9,4.2,5,5.5.5.3,1,.7,1.6,1.1,2.2,1.6,3.2,1.6,3.4,1.5h0c-.8-1.8-1.6-5.4-2.7-12.1-.8-5.3-4.1-6.1-6.7-6.7-.2,0-.4,0-.6,0-.4,0-.6-.5-.5-.8,0-.4.5-.6.8-.5.2,0,.4,0,.6,0,2.7.6,6.7,1.6,7.7,7.8.4,2.7,1,6,1.6,8.7.9,3.8,1.6,4.1,1.6,4.1h.3c.6.4.4.9.4,1,0,0-.2.4-.6.4h.1ZM136.2,73.9h0ZM123.4,58.3h0Z"/>
          </g>
          <g>
            <path class="cls-11" d="M128.1,60.9c.3,2.5,1.9,5.1,3,6.2"/>
            <path class="cls-8" d="M131.1,67.8c-.2,0-.3,0-.4-.2-1.4-1.2-2.9-4-3.3-6.6,0-.4.2-.7.6-.7s.7.2.7.6c.3,2.4,1.8,4.9,2.8,5.7.3.2.3.7,0,.9-.1,0-.3.2-.5.2h0Z"/>
          </g>
          <g>
            <path class="cls-9" d="M81.4,66.5v-7.3c0-1.4-.3-3.5-.4-4.3,0-.6,1.9-7.3,1.8-10.2,0-1-1.2-.8-1.7-.2-.5.7-2.7,8.1-3.1,8.3-.4,0-1.3-1.7-2.4-1.2-.9.5-1.1,3.2-1.9,2.9,0,0-1.3-.4-1.8-.3s-.8,2.8-.8,2.8c0,0-1.7.9-1.7,2.2s.9,2.9,1.9,2.9-.6,2.6,1.9,4.1c1.8,1,2.2,1.2,2.2,1.2l.5,5.1,5-1,.4-4.9h0Z"/>
            <path class="cls-8" d="M76,73c0,0-.3,0-.4,0s-.2-.3-.3-.4l-.5-4.8c-.3-.2-.9-.5-1.9-1-1.9-1-1.9-2.7-1.9-3.6v-.3c-1.3-.2-2.3-1.9-2.3-3.5s.4-1.4,1-2c.2-.2.5-.4.7-.5.3-2.8.9-3,1.2-3.1.5,0,1.5,0,1.9.2,0-.2.2-.6.3-.8.3-.8.6-1.7,1.3-2,1.1-.5,2,.3,2.5.8.3-.8.8-2.3,1.2-3.5.9-2.7,1.3-3.9,1.6-4.2.4-.6,1.3-.9,1.9-.7.5.2.9.6.9,1.2,0,2-.7,5.4-1.3,7.9-.2.9-.5,2-.5,2.3,0,.8.4,3,.4,4.4v7.3h0l-.4,4.9c0,.3-.2.5-.5.6l-5,1h0,.2ZM72.2,54.8c-.2.4-.3,1.3-.4,2.3,0,.2,0,.4-.3.5-.4.2-1.3.9-1.3,1.6,0,1.1.7,2.2,1.3,2.2s.6,0,.7.3c.3.3.3.8.3,1.3,0,.9,0,1.9,1.2,2.5,1.7.9,2.1,1.1,2.1,1.1.2,0,.4.3.4.5l.4,4.4,3.8-.8.3-4.4v-7.3c0-1.4-.2-3.4-.4-4.2,0-.3,0-.8.5-2.7.5-2.3,1.3-5.8,1.3-7.6h0c0,0-.4,0-.5.3-.2.3-.9,2.4-1.4,3.9-1.4,4.3-1.5,4.5-2,4.6-.5.2-.9-.2-1.3-.6-.4-.4-.8-.8-1.1-.6-.2,0-.5.9-.7,1.3-.3.8-.7,2-1.7,1.7-.5,0-1-.2-1.3-.3h0ZM81.4,66.5h0ZM81.6,54.7h0Z"/>
          </g>
          <g>
            <path class="cls-9" d="M84,71.5c-.5-1.2-2.2-4.5-2.2-4.5,0,0-1.3,1.8-4.2,3.2-3.8,1.8-4.3,2-4.7,2s2.1,4.5,2.1,4.5c0,0,9-5.2,9-5.2Z"/>
            <path class="cls-8" d="M75,77.3h-.2c-.2,0-.3-.2-.4-.3-2.5-4.5-2.3-4.8-2.1-5.1,0-.2.4-.3.6-.3s1.1-.3,4.4-1.9c2.7-1.3,3.9-3,3.9-3,0-.2.4-.3.6-.3s.4,0,.5.3c0,0,1.8,3.3,2.3,4.5,0,.3,0,.7-.3.8l-9,5.2h-.3ZM73.7,72.7c.3.7.9,1.9,1.6,3l7.9-4.5c-.4-.9-1.1-2.2-1.5-3-.7.7-1.9,1.8-3.8,2.6-2.5,1.2-3.6,1.7-4.2,1.9Z"/>
          </g>
          <path class="cls-8" d="M77.2,60.1h-.3c-.7-.4-1.2-1.6-1.4-2.3-1.1,0-2.9,0-3.3-1.1,0-.2,0-.5,0-.8.5-1,3.2-1.8,4.7-2.3h.2l2.9.4c.3,0,.6.4.5.7,0,.3-.4.6-.7.5l-2.8-.4c-1.6.4-3.1,1-3.6,1.4.4,0,1.3.3,2.4.2.3,0,.6.2.7.5.2.9.6,1.9.8,2,.3.2.4.5.3.8,0,.2-.3.3-.6.3h.2Z"/>
          <g>
            <path class="cls-9" d="M71.2,57s.4,2.6,1.1,3.3c.7.8,2,.6,2.3.3"/>
            <path class="cls-8" d="M73.7,61.5h0c-.4,0-1.2,0-1.8-.8-.8-.9-1.2-3.2-1.3-3.6,0-.3.2-.7.5-.7s.7.2.7.5c.2,1,.6,2.6,1,3,.4.5,1.2.4,1.4.3.2-.2.6-.2.9,0,.2.2.2.6,0,.9s-.7.4-1.3.4h0ZM74.1,60.2h0ZM74.1,60.2h0Z"/>
          </g>
          <g>
            <path class="cls-9" d="M74.2,57.3s0,1.7.7,2"/>
            <path class="cls-8" d="M75,60h-.3c-1-.5-1.1-2.3-1.1-2.6s.3-.6.6-.6.6.3.6.6c0,.7.2,1.4.4,1.5.3.2.4.5.3.8,0,.2-.3.3-.6.3h0ZM74.9,57.3h0Z"/>
          </g>
          <g>
            <path class="cls-9" d="M71.4,62.1s1.8-.4,2-.7"/>
            <path class="cls-8" d="M71.4,62.7c-.3,0-.5-.2-.6-.5,0-.3,0-.7.5-.7.7-.2,1.5-.4,1.7-.5.2-.2.6-.3.8,0,.3.2.3.6,0,.9,0,0-.4.5-2.4.9h0ZM72.9,61h0Z"/>
          </g>
          <g>
            <path class="cls-11" d="M102.7,120.4v28.6h32s-5.7-26.5-7.4-30.4c0,0-24.6,1.8-24.6,1.8Z"/>
            <path class="cls-8" d="M134.7,149.7h-32c-.4,0-.7-.3-.7-.7v-28.6c0-.3.3-.6.6-.7l24.6-1.8c.3,0,.6,0,.7.4,1.6,4,7.2,29.5,7.4,30.5,0,.2,0,.4-.1.6-.1.2-.3.2-.5.2h0ZM103.3,148.4h30.5c-.9-4.3-5.4-24.5-7-29.1l-23.5,1.7s0,27.4,0,27.4Z"/>
          </g>
          <g>
            <path class="cls-11" d="M136.6,73.2c-1.9-.3-9.5-2.2-9.5-2.2,0,0-7.1-1.5-11.9-1.5s-4.4,1.6-8.4,2.1-6.8-.3-7.7.8c-1,1.1-6,18-6,18,0,0-7.4-20.7-7.8-20.7s-2.3,1.6-6.3,3.7c-4,2-6.8,3.1-6.8,3.1,0,0,11.9,22.9,16.5,25.8,4.6,2.9,10.8-4.1,10.8-4.1,0,0,1.8.8,2.5,6.3s-1.4,17.1-1.6,17.6c-.3.5,8.2,2.4,13.8,2.1,9.6-.5,17-3.3,17-3.3,0,0-2-2.5-3-6.3,1.9,0,3.1,0,3.4,0,1.2-.8,6.8-35.2,6.8-37.2s.1-3.8-1.8-4.1h0Z"/>
            <path class="cls-8" d="M113,124.8c-2.2,0-5-.3-7.7-.7-1.3-.2-2.6-.5-3.5-.7-1.5-.4-1.8-.7-2-.9,0-.2-.2-.5,0-.7.3-.9,2.2-12.1,1.6-17.2-.4-3.4-1.3-4.9-1.7-5.4-1.2,1.3-4.8,4.5-8.3,4.5s-1.9-.2-2.8-.8c-2-1.2-5.5-6-10.2-14.2-3.5-6-6.5-11.8-6.5-11.8v-.5c0-.2.2-.3.4-.4,0,0,2.9-1.1,6.8-3.1,2.3-1.2,3.9-2.2,4.9-2.9.9-.6,1.3-.9,1.7-.9s.7.4,1.1,1.3c.2.5.6,1.3.9,2.4.7,1.7,1.6,4.1,2.7,7.1,1.2,3.2,2.4,6.5,3.1,8.5,1.6-5.2,4.7-15.3,5.5-16.3.8-.9,2-.8,3.8-.8s2.6,0,4.3-.2c1.6-.2,2.4-.6,3.3-1,1.1-.5,2.3-1.1,5.2-1.1,4.8,0,11.7,1.5,12,1.5h0s7.6,1.9,9.5,2.2h0c2.4.3,2.4,2.5,2.3,4.4v.4c0,1.1-1.4,10.3-3,19.2-.9,5-1.7,9.2-2.3,12.3-1.2,5.9-1.6,6.1-1.9,6.3-.3.2-.7.3-2.9.2,1,3.1,2.6,5.1,2.6,5.1.1.2.2.4.1.6s-.2.4-.4.4c-.3,0-7.6,2.9-17.2,3.3h-1.4ZM101,121.7c1.6.6,8.3,1.9,13,1.7,7.6-.4,13.8-2.2,16-2.9-.7-1-1.9-3.1-2.6-5.8,0-.2,0-.4.1-.6s.3-.3.6-.2c2,0,2.7,0,2.9,0,.4-1,1.7-6.2,3.7-18.2,1.6-9.1,2.8-17.6,2.8-18.4s0-.3,0-.4c0-2.1,0-2.9-1.2-3-1.9-.3-9.1-2.1-9.6-2.2-.3,0-7.2-1.5-11.7-1.5s-3.5.5-4.6,1c-.9.4-1.9.9-3.7,1.1-1.7.2-3.3.2-4.5.2s-2.5,0-2.8.3c-.6.8-3.4,9.7-5.8,17.8,0,.3-.3.5-.6.5s-.5-.2-.6-.4c-2.5-6.9-6.4-17.7-7.5-20.1-.2,0-.4.3-.7.4-1,.7-2.7,1.8-5,3-2.8,1.5-5.1,2.4-6.2,2.9.9,1.7,3.3,6.3,6.2,11.1,5.8,9.9,8.5,13,9.8,13.7,4.1,2.5,9.9-3.9,9.9-4,.2-.2.5-.3.8-.2.2,0,2.1,1.1,2.8,6.8.6,5-1,14.9-1.5,17.4h0ZM100.9,122.2h0q0,0,0,0ZM99.7,121.7h0ZM131,114.1h0ZM131.2,113.9h0Z"/>
          </g>
          <path class="cls-8" d="M106.8,71.6s18.2,1.7,17.6,1.5-13.6,25.6-13.6,25.6c0,0-6.9-12.9-6.1-16.1s2.6-9.7,2-10.9h0Z"/>
          <g>
            <path class="cls-9" d="M118.3,60.5s0,6.1,1.9,8.9c1.8,2.7,3.5,2.2,3.5,2.2,0,0-7.4,9.1-11,8.6-4.7-.6-5.5-8.2-5.5-8.2,0,0,3,.9,4.9-2.8,1.9-3.7.7-9.1.7-9.1"/>
            <path class="cls-8" d="M113,80.9h-.4c-2.2-.3-3.9-1.9-5-4.7-.8-2-1-4-1-4,0-.2,0-.4.2-.6s.4-.2.6,0c0,0,2.5.7,4.1-2.4,1.8-3.4.6-8.6.6-8.7,0-.4,0-.7.5-.8.4,0,.7,0,.8.5,0,.2,1.3,5.7-.7,9.6-1.1,2.1-2.6,2.9-3.6,3.1-.4,0-.8,0-1.1,0,.3,1.9,1.5,6.3,4.8,6.8,2.1.3,6.7-4.1,9.6-7.4-.8-.3-1.8-.9-2.8-2.4-1.9-2.9-2-9-2-9.2,0-.4.3-.7.7-.7s.7.3.7.7c0,0,.2,6,1.8,8.5,1.5,2.2,2.8,1.9,2.8,1.9.3,0,.6,0,.7.3.2.2.2.6,0,.8-.8.9-7.3,8.9-11.3,8.9v-.2Z"/>
          </g>
          <path class="cls-8" d="M110,97.5h0c-.2,0-.5-.2-.6-.4-2.1-4.9-2.3-11.7-2.1-16.5,0-2.8.3-5.2.5-6.7.3-2.8.5-3,.6-3.1,0-.2.4-.3.6-.3.4,0,.6.4.6.7v.2c-.3,1.3-2.3,15.4.7,24,.9-1.2,2.5-3.4,4.5-5.8,1.2-1.4,2.7-5,4.2-10.4,1.2-4.1,2-7.8,2-7.9,0-.4.4-.6.8-.5.4,0,.6.4.5.8-.1.6-3.3,15.1-6.5,18.8-3.1,3.6-5.1,6.6-5.1,6.7,0,.2-.3.3-.6.3h0ZM109.5,71.5h0Z"/>
          <g>
            <path class="cls-11" d="M127.5,78.5s-1.2-8.6-.8-8.6-5.4-1-5.4-1c0,0-2,6.7-3.5,9.7-1.8,3.6-7,20-7,20,0,0,4.2-5.1,7.1-7.8,2.9-2.7,7.5-8.3,7.5-8.3l-2.6-2.6c2.9-.9,4.6-1.4,4.6-1.4h0Z"/>
            <path class="cls-8" d="M110.8,99.3h-.3c-.3-.2-.4-.5-.3-.8.2-.7,5.2-16.5,7-20.1,1.5-2.9,3.4-9.5,3.5-9.6,0-.3.4-.5.7-.5,0,0,1.3.2,2.7.5.8,0,1.4.2,1.9.3.3,0,.5,0,.6,0,.2,0,.8.2.8.8s0,.2-.1.3c0,.9.4,4.7.9,8.2,0,.3-.2.6-.5.7,0,0-1.4.4-3.6,1.1l1.8,1.8c.2.2.3.6,0,.9s-4.6,5.6-7.5,8.3c-2.8,2.7-7,7.7-7,7.8,0,.2-.3.2-.5.2h0ZM121.8,69.7c-.5,1.7-2.1,6.7-3.4,9.2-1.3,2.6-4.3,11.8-5.9,16.7,1.5-1.7,3.4-3.8,5-5.3,2.4-2.2,5.9-6.4,7-7.7l-2.1-2.1c-.2-.2-.2-.4-.2-.6s.2-.4.4-.5c1.9-.6,3.4-1.1,4.1-1.3-.1-.8-.3-2.2-.4-3.6-.3-2.2-.3-3.4-.3-4-.9-.2-2.7-.5-4.1-.7h0ZM126.7,70.6h0ZM126.7,69.2h0Z"/>
          </g>
          <g>
            <path class="cls-11" d="M109.1,77.2c.5-3.9,3-8,3-8l-6,1.1s-4.6,7.9-3.8,7.8c.5,0,1.8.3,3.2,1.1-1.3.6-2.9,1.3-2.9,1.4,0,.3,0,5.4,1.5,8.6,1.4,3.3,6.6,9.3,6.6,9.3,0,0-2.1-18.8-1.7-21.5v.2Z"/>
            <path class="cls-8" d="M110.8,99.3c-.2,0-.4,0-.5-.2-.2-.2-5.4-6.1-6.8-9.5-1.5-3.5-1.5-8.8-1.5-8.9,0-.5.3-.7,2-1.4-.8-.3-1.4-.5-1.6-.4-.3,0-.6,0-.7-.3-.2-.4-.2-.9.4-2.1.3-.7.8-1.6,1.4-2.7,1-1.9,2.1-3.7,2.1-3.7,0-.2.3-.3.5-.3l6-1.1c.3,0,.5,0,.7.3,0,.2.2.5,0,.7,0,0-2.5,4-3,7.7h0c-.3,2,1,14.8,1.7,21.3,0,.3,0,.6-.4.7h-.3,0ZM103.4,81.1c0,1.2.3,5.3,1.4,8.1.9,2.1,3.5,5.4,5.1,7.4-.5-5.1-1.8-17.3-1.5-19.5h0c.3-2.7,1.6-5.4,2.4-6.9l-4.3.8c-1.5,2.6-3,5.4-3.5,6.6.8.2,1.8.6,2.8,1.1s.4.4.3.6c0,.3-.2.5-.4.6-.2,0-.4.2-.7.3-.6.3-1.4.6-1.8.8h.2Z"/>
          </g>
          <g>
            <path class="cls-9" d="M101.7,103.1l12.4-11.2-26.3,1.8-19.9,10.7s34.6-1.3,33.8-1.3Z"/>
            <path class="cls-8" d="M67.8,105c-.3,0-.6-.2-.6-.5s0-.6.3-.8l19.9-10.7h.3l26.3-1.8c.3,0,.5,0,.7.4,0,.3,0,.6-.2.8l-12.3,11.1c0,0-.3.2-.6.3h-1.4c-.9,0-2.2,0-3.8,0-3.2,0-7.4.3-11.6.4-8.5.3-16.9.6-16.9.6h0ZM87.9,94.3l-17.3,9.3c11.2-.4,28.5-1.1,30.7-1.2l10.8-9.7-24.3,1.6h.1Z"/>
          </g>
          <g>
            <polyline class="cls-9" points="96.4 94.9 107.3 94.2 101.3 99.7 92.4 100.4"/>
            <path class="cls-8" d="M92.4,100.8c-.2,0-.4-.2-.4-.4s.2-.4.4-.4l8.8-.6,5-4.7-9.8.7c-.2,0-.4-.2-.4-.4s.2-.4.4-.4l10.9-.7c.2,0,.3,0,.4.2v.5l-6,5.5h-.2c0,0-8.9.7-8.9.7h-.2Z"/>
          </g>
          <g>
            <line class="cls-1" x1="94.7" y1="96.5" x2="105.7" y2="95.8"/>
            <path class="cls-8" d="M94.7,97c-.2,0-.4-.2-.4-.4s.2-.4.4-.4l10.9-.7c.2,0,.4.2.4.4s-.2.4-.4.4l-10.9.7h0Z"/>
          </g>
          <g>
            <line class="cls-1" x1="92.9" y1="98.2" x2="103.8" y2="97.5"/>
            <path class="cls-8" d="M92.9,98.6c-.2,0-.4-.2-.4-.4s.2-.4.4-.4l10.9-.7c.2,0,.4.2.4.4s-.2.4-.4.4l-10.9.7h0Z"/>
          </g>
          <g>
            <line class="cls-1" x1="104.5" y1="94.3" x2="98.5" y2="99.8"/>
            <path class="cls-8" d="M98.5,100.2c0,0-.2,0-.3,0-.2-.2,0-.4,0-.6l6-5.5c.2-.2.4,0,.6,0,.2.2,0,.4,0,.6l-6,5.5s-.2,0-.3,0Z"/>
          </g>
          <g>
            <line class="cls-1" x1="101.5" y1="94.5" x2="95.5" y2="100.1"/>
            <path class="cls-8" d="M95.5,100.5c0,0-.2,0-.3,0-.2-.2,0-.4,0-.6l6-5.5c.2-.2.4,0,.6,0,.2.2,0,.4,0,.6l-6,5.5s-.2,0-.3,0Z"/>
          </g>
          <g>
            <path class="cls-9" d="M106.2,101s-4.4-3.6-5.5-3.6,1.5,5.4,1.1,5.4-.7,0-3.3.2l1.5-.2s-2.1,1.8-3.5,1.8-4.6-1-6.2-1.4c-2.2.3-4.7.4-4.7.4,0,0,4.6,4.6,8.1,5.1,3.6.5,12.1,0,12.1,0,0,0,2.9-1.6,3.1-3.4,0-1.8-1.6-3.6-2.5-4.5h-.2Z"/>
            <path class="cls-8" d="M99.4,109.7c-2.2,0-4.4,0-5.9-.3-3.7-.6-8.3-5.1-8.5-5.3-.2-.2-.2-.5,0-.7,0-.2.3-.4.6-.4,0,0,2.5,0,4.7-.3h.2c.3,0,.7.2,1.1.3,1.5.4,4.1,1.1,4.9,1.1s1-.3,1.5-.6c0,0,0-.2,0-.3,0-.4.2-.7.6-.7l1.5-.2h1c0-.2-.2-.5-.3-.8-.9-2.5-1.2-3.6-.8-4.2.2-.2.4-.4.8-.4,1.3,0,4.6,2.6,6,3.8h0c.7.7,2.9,2.7,2.8,5-.2,2.1-3.1,3.8-3.4,4h-.3c-.2,0-3.2,0-6.3,0h0ZM87,104.2c1.5,1.4,4.4,3.6,6.7,3.9,3.2.5,10.7.2,11.8,0,.8-.4,2.5-1.7,2.6-2.8,0-1.6-1.7-3.4-2.3-3.9-1.7-1.4-3.8-3-4.8-3.4,0,.7.6,2.1.9,2.8.5,1.4.7,1.8.4,2.2,0,.2-.3.3-.6.3s0,0,0,0h-1.4c-.6.5-2.3,1.7-3.7,1.8-.9,0-3-.5-5.3-1.1-.4,0-.7-.2-1-.3-1.1,0-2.2.2-3.1.3h-.2Z"/>
          </g>
          <g>
            <path class="cls-9" d="M61.1,81l34-2.2s7,24.3,6.5,24.3-33.4,1.3-33.8,1.3-6.7-23.4-6.7-23.4Z"/>
            <path class="cls-8" d="M67.8,105c-.6,0-.7-.5-1-1.5-.2-.6-.5-1.5-.8-2.7-.6-1.9-1.3-4.6-2.3-8-1.6-5.8-3.2-11.6-3.2-11.7,0-.2,0-.4,0-.6s.3-.3.5-.3l34-2.2c.3,0,.6.2.7.5,0,0,1.7,6,3.4,12,1,3.5,1.7,6.3,2.3,8.3,1.1,4.1,1,4.2.8,4.5,0,.2-.3.3-.5.3-.3,0-8.7.3-16.9.6-10.4.4-16.7.6-16.9.6l-.2.2ZM62,81.6c2.2,8.2,5.4,19.9,6.2,22.1,1.8,0,9.3-.3,16.5-.6,8.4-.3,14.2-.5,16.2-.6-.6-2.9-3.9-14.7-6.3-22.9l-32.6,2.1h0Z"/>
          </g>
          <g>
            <circle class="cls-9" cx="81.5" cy="91.9" r="1.8"/>
            <path class="cls-8" d="M81.5,94.4c-1.4,0-2.5-1.1-2.5-2.5s1.1-2.5,2.5-2.5,2.5,1.1,2.5,2.5-1.1,2.5-2.5,2.5ZM81.5,90.8c-.6,0-1.2.5-1.2,1.2s.5,1.2,1.2,1.2,1.2-.5,1.2-1.2-.5-1.2-1.2-1.2Z"/>
          </g>
          <g>
            <path class="cls-9" d="M110.7,101.8l-2.9-.6s.9,2.6-.3,5c-1.2,2.4-3.6,3.9-3.6,3.9l4.9,1.4s2.3-1.7,2.7-3.3c.4-1.6.7-4.5-.7-6.3h0Z"/>
            <path class="cls-8" d="M108.8,112h-.2l-4.9-1.4c-.3,0-.4-.3-.5-.6,0-.3,0-.5.3-.7,0,0,2.3-1.4,3.4-3.6,1.1-2.1.3-4.4.3-4.4,0-.2,0-.5,0-.7.2-.2.4-.3.6-.2l2.9.6c.2,0,.3,0,.4.2,1.8,2.2,1.2,5.6.9,6.9-.4,1.8-2.7,3.5-2.9,3.7,0,0-.3,0-.4,0h0ZM105.4,109.7l3.3.9c.7-.6,1.9-1.7,2.2-2.7.8-3.2,0-4.9-.5-5.6l-1.6-.3c.2,1.1.2,2.8-.6,4.4-.7,1.5-1.9,2.6-2.7,3.3h-.1Z"/>
          </g>
          <g>
            <path class="cls-11" d="M128.1,114.6c-.3-.2-21.9-2.7-21.9-2.7,0,0,2.7-1.3,3.9-4s1.4-6.7,1.4-6.7l12.6,1.5,2.7-13.3"/>
            <path class="cls-8" d="M128.1,115.2h-.2c-.9-.2-13.5-1.7-21.8-2.7-.3,0-.5-.3-.6-.6,0-.3,0-.6.4-.7,0,0,2.5-1.2,3.6-3.7,1.1-2.6,1.3-6.5,1.3-6.5,0-.2,0-.4.2-.5,0,0,.3-.2.5-.2l12,1.4,2.6-12.7c0-.4.4-.6.8-.5.4,0,.6.4.5.8l-2.7,13.3c0,.3-.4.6-.7.5l-11.9-1.4c0,1.3-.4,4.1-1.4,6.3-.6,1.5-1.7,2.6-2.6,3.3,2.1.2,5.5.7,9,1.1,11.1,1.3,11.2,1.4,11.4,1.5.3.2.4.6.2.9-.1.2-.3.3-.6.3h0ZM127.8,115.1h0ZM127.8,115.1h0Z"/>
          </g>
          <g>
            <line class="cls-1" x1="124.8" y1="104.1" x2="126.2" y2="106.2"/>
            <path class="cls-8" d="M126.2,106.9c-.2,0-.4,0-.6-.3l-1.4-2.1c-.2-.3-.1-.7.2-.9.3-.2.7,0,.9.2l1.4,2.1c.2.3.1.7-.2.9-.1,0-.2,0-.4,0h.1Z"/>
          </g>
          <g>
            <path class="cls-8" d="M78.3,39.9c-.2,0-.5,0-.6-.3l-2.3-4c-.2-.3,0-.7.2-.9.3-.2.7,0,.9.2l2.3,4c.2.3,0,.7-.2.9h-.3Z"/>
            <path class="cls-8" d="M81.2,38.9c-.4,0-.7-.3-.7-.7v-4.6c0-.4.2-.7.6-.7h0c.4,0,.7.3.7.7v4.6c0,.4-.2.7-.6.7h0Z"/>
            <path class="cls-8" d="M84.2,39.9c0,0-.3,0-.4,0-.3-.2-.3-.6,0-.9l2.8-3.6c.2-.3.6-.3.9,0s.3.6,0,.9l-2.8,3.6c0,.2-.3.3-.5.3h0Z"/>
          </g>
          <g>
            <path class="cls-11" d="M112.2,30.8s-7.5-2.3-10.1,5.8c-2.1,6.6,2.2,12,2.2,12l7.9-17.8Z"/>
            <path class="cls-8" d="M104.3,49.2c-.2,0-.4,0-.5-.3-.2-.2-4.5-5.8-2.3-12.6,1.4-4.5,4.3-5.9,6.5-6.4,2.3-.5,4.3.1,4.4.1.2,0,.3.2.4.4v.5l-7.9,17.8c0,.2-.3.4-.5.4h0ZM109.9,31.1c-2.2,0-5.6.9-7.1,5.6-1.5,4.6.4,8.6,1.4,10.4l7.1-15.9c-.4,0-.8-.1-1.4-.1Z"/>
          </g>
          <g>
            <path class="cls-9" d="M105,39.3c-1.1,3-1.3,6.7-1.8,11-.9,6.6,2.5,13.7,9.1,14.3,6.1.5,11.7-3.2,14.7-7.9,2-3.1,3.9-9.5,3.3-13.8-.5-4.2-7.1-11.9-13.5-11.1-6.4.8-9.9,2-11.8,7.4h0Z"/>
            <path class="cls-8" d="M113.4,65.3h-1.2c-2.7-.2-5.1-1.5-6.8-3.7-2.3-2.9-3.4-7.2-2.9-11.3,0-1.1.3-2.1.4-3.1.4-3.1.7-5.8,1.5-8.1,2-5.6,5.6-7,12.3-7.9,6.9-.9,13.7,7.2,14.3,11.7.6,4.4-1.3,10.9-3.4,14.2-3.2,5.1-8.7,8.2-14.2,8.2h0ZM117.8,32.5h-.9c-6.4.8-9.5,2-11.3,7h0c-.8,2.2-1.1,4.8-1.4,7.8,0,1-.2,2-.4,3.1-.5,3.8.5,7.7,2.6,10.3,1.5,1.9,3.6,3,5.9,3.2,2.7.2,5.5-.4,8.1-1.9,2.4-1.3,4.5-3.4,6-5.7,2-3.1,3.8-9.3,3.2-13.3s-2-4.9-4.3-7.1c-3.1-2.9-5.9-3.5-7.6-3.5h.1ZM105,39.3h0Z"/>
          </g>
          <g>
            <path class="cls-11" d="M111.5,30.3c-.6.4,1,8.4,7.4,14.1,6.4,5.7,11.2,8,11.2,8,0,0,8.4-9.9,0-18.9-5.6-6-14.3-6-18.6-3.2Z"/>
            <path class="cls-8" d="M130.1,53.1h-.3c-.2,0-5-2.3-11.4-8.1-5.8-5.2-7.8-12.4-7.7-14.4,0-.1,0-.6.4-.8h0c4.3-2.8,13.4-3.2,19.4,3.3,4.5,4.9,4.3,10,3.3,13.5-1.1,3.7-3.2,6.2-3.3,6.3-.1.2-.3.2-.5.2h.1ZM112.1,30.8c0,1.2,1.5,8,7.3,13.2,5.1,4.6,9.2,6.9,10.6,7.6.6-.8,2-2.9,2.7-5.5,1.3-4.5.3-8.6-3-12.2-2.4-2.6-5.7-4.3-9.4-4.7-3.1-.4-6.1.2-8.2,1.5h0ZM111.9,30.9h0Z"/>
          </g>
          <path class="cls-8" d="M117.5,46.4c0,.6-.3,1.1-.9,1.2-.6,0-1.1-.3-1.2-.9,0-.6.3-1.1.9-1.2.6,0,1.1.3,1.2.9Z"/>
          <path class="cls-8" d="M107.8,45.9c0,.6-.3,1.1-.9,1.2-.6,0-1.1-.3-1.2-.9,0-.6.3-1.1.9-1.2.6,0,1.1.3,1.2.9Z"/>
          <path class="cls-8" d="M127.6,45.3h-.2c-2.9-1.1-6.4-5.2-7.6-8.1,0-.3,0-.7.4-.9.3,0,.7,0,.9.4,1.3,3,4.5,6.6,6.8,7.4.3,0,.5.5.4.9,0,.3-.4.4-.6.4h0Z"/>
          <path class="cls-8" d="M129.4,42.3h-.2c-2.4-.9-4.7-3.9-5.6-6.4-.1-.3,0-.7.4-.9.3,0,.7,0,.9.4.8,2.2,2.9,4.9,4.8,5.6.3,0,.5.5.4.9,0,.3-.4.4-.6.4h0Z"/>
          <g>
            <path class="cls-9" d="M110.6,46.2c-2.2,2.6-4,3-4,3l3,2"/>
            <path class="cls-8" d="M109.6,52c0,0-.3,0-.4,0l-3-2c-.2,0-.3-.4-.3-.7s.2-.5.5-.5c0,0,1.6-.4,3.6-2.8.2-.3.7-.3.9,0,.3.2.3.7,0,.9-1.2,1.4-2.3,2.2-3.1,2.7l2,1.4c.3.2.4.6.2.9,0,.2-.3.3-.6.3h.2Z"/>
          </g>
          <g>
            <path class="cls-9" d="M109.7,56.3l6.7-.4s-1.1,4.6-3.1,4.8c-2,0-3.5-4.4-3.5-4.4h0Z"/>
            <path class="cls-8" d="M113.2,61.4c-2.4,0-3.9-4.3-4.1-4.8v-.6c0-.2.3-.3.5-.3l6.7-.4c.2,0,.4,0,.6.2,0,.2.2.4,0,.6,0,.5-1.3,5.1-3.7,5.3h0ZM110.7,57c.2.4.4.8.6,1.3.7,1.2,1.4,1.8,1.9,1.8,1,0,1.8-2,2.3-3.4,0,0-4.8.3-4.8.3ZM109.7,56.3h0Z"/>
          </g>
          <g>
            <path class="cls-9" d="M127.6,51.1c2,.5,3.6,1.6,3.1,3.6-.4,1.9-2.5,3.1-4.5,2.6"/>
            <path class="cls-8" d="M127.1,58.1c-.3,0-.7,0-1,0-.4,0-.6-.4-.5-.8s.4-.6.8-.5c1.7.4,3.3-.6,3.7-2.1.2-.7,0-1.2-.5-1.7s-1.2-.8-2.2-1.1c-.4,0-.6-.4-.5-.8,0-.4.4-.6.8-.5,1.2.3,2.2.8,2.8,1.4.8.8,1.1,1.8.8,2.9-.4,1.9-2.2,3.3-4.2,3.3h0Z"/>
          </g>
          <g>
            <circle class="cls-9" cx="126.7" cy="57.9" r="1.3"/>
            <path class="cls-8" d="M126.7,59.9c-1.1,0-2-.9-2-2s.9-2,2-2,2,.9,2,2-.9,2-2,2ZM126.7,57.2c-.4,0-.7.3-.7.7s.3.7.7.7.7-.3.7-.7-.3-.7-.7-.7Z"/>
          </g>
        </g>
      </g>
    </g>
  </g>
</svg>