<svg xmlns="http://www.w3.org/2000/svg" width="267" height="151" viewBox="0 0 267 151">
  <g id="グループ_44387" data-name="グループ 44387" transform="translate(-20 -231.791)">
    <rect id="長方形_2733" data-name="長方形 2733" width="187" height="46" transform="translate(20 231.791)" fill="#ca4d2c"/>
    <rect id="長方形_2738" data-name="長方形 2738" width="267" height="46" transform="translate(20 284.791)" fill="#ca4d2c"/>
    <rect id="長方形_2739" data-name="長方形 2739" width="227" height="46" transform="translate(20 336.791)" fill="#ca4d2c"/>
    <path id="パス_22971" data-name="パス 22971" d="M19.158-4.991a1.242,1.242,0,0,0,1.364,1.178,1.253,1.253,0,0,0,1.4-1.178V-15.159c.992-.5,1.829-.93,2.294-1.178a.707.707,0,0,1,.341-.093c.5,0,.527.806.527,2.108,0,5.239-.775,5.673-1.271,5.673a1.556,1.556,0,0,1-.372-.062,1.364,1.364,0,0,0-.31-.062c-.651,0-.992.682-.992,1.364,0,.992.434,1.488,1.829,1.488,3.162,0,3.844-2.449,3.844-9.548,0-1.674-.093-3.875-2.325-3.875a4.431,4.431,0,0,0-2.046.558l-1.519.775v-5.456a1.277,1.277,0,0,0-1.364-1.271,1.286,1.286,0,0,0-1.4,1.271v6.851l-2.821,1.4c0-2.232,0-4.247.031-5.518v-.031A1.283,1.283,0,0,0,15-22.072a1.341,1.341,0,0,0-1.395,1.364c0,1.674-.062,4.216-.062,6.913l-2.976,1.488a1.244,1.244,0,0,0-.744,1.147A1.333,1.333,0,0,0,11.067-9.8a1.516,1.516,0,0,0,.589-.155l1.891-.961c0,3.224,0,6.324.031,8.277.062,3.875,4.03,3.968,7.5,3.968,4,0,8.339,0,8.339-5.611a1.493,1.493,0,0,0-1.581-1.581,1.283,1.283,0,0,0-1.364,1.364c0,3.069-1.8,3.193-5.58,3.193-2.7,0-4.464-.031-4.526-1.86-.031-1.643-.031-5.425-.031-9.176l2.821-1.426ZM5.8-5.332c-1.147.465-2.325.868-3.5,1.271A1.363,1.363,0,0,0,1.3-2.728,1.388,1.388,0,0,0,2.666-1.3c1.271,0,7.967-3.379,9.052-3.968a1.485,1.485,0,0,0,.9-1.24,1.282,1.282,0,0,0-1.333-1.209,1.552,1.552,0,0,0-.775.217c-.589.341-1.24.651-1.891.961v-6.975H11.1a1.211,1.211,0,0,0,1.209-1.3,1.211,1.211,0,0,0-1.209-1.3H8.649v-6.51a1.333,1.333,0,0,0-1.457-1.333A1.324,1.324,0,0,0,5.766-22.63v6.51H2.945a1.277,1.277,0,0,0-1.333,1.3,1.277,1.277,0,0,0,1.333,1.3H5.8ZM57.722-20.584a1.415,1.415,0,0,0,1.271-1.4c0-1.24-2.542-2.542-3.317-2.542a1.427,1.427,0,0,0-1.333,1.271.826.826,0,0,0,.465.682,5.744,5.744,0,0,1,2.17,1.612A.881.881,0,0,0,57.722-20.584Zm.744,3.193a1.36,1.36,0,0,0,1.457-1.364,1.332,1.332,0,0,0-1.457-1.3l-4.836.031c0-1.3,0-2.542.031-3.658v-.031a1.347,1.347,0,0,0-1.457-1.4,1.384,1.384,0,0,0-1.488,1.364v.031c.031,1.178.062,2.418.093,3.689h-.558l-7.626-.031A1.311,1.311,0,0,0,41.2-18.724a1.327,1.327,0,0,0,1.426,1.333H50.9A77.121,77.121,0,0,0,52.235-5.208,15.337,15.337,0,0,1,45.508-.682,1.5,1.5,0,0,0,44.392.713a1.363,1.363,0,0,0,1.4,1.364c.775,0,4.588-1.736,7.254-4.371,1.209,3.317,2.511,3.968,3.844,3.968,3.007,0,3.875-4,3.875-5.022A1.488,1.488,0,0,0,59.241-4.9,1.24,1.24,0,0,0,57.97-3.782c-.217,1.8-.558,2.48-.961,2.48-.341,0-1.209-.868-1.891-3.41A28.015,28.015,0,0,0,59.3-13.361a1.628,1.628,0,0,0-1.674-1.426,1.091,1.091,0,0,0-1.116.806,28.49,28.49,0,0,1-2.139,5.735,77.065,77.065,0,0,1-.713-9.145Zm-8.649,6.479c0-1.023-.031-2.108-.062-3.1-.062-1.643-1.519-1.86-3.379-1.86-2.015,0-3.5.124-3.565,1.891-.031.713-.031,1.674-.031,2.6,0,.713,0,1.364.031,1.891.093,1.86,1.891,1.953,3.441,1.953C49.817-7.533,49.817-8.556,49.817-10.912ZM36.332-6.944c-.868.31-1.767.589-2.728.868a1.333,1.333,0,0,0-1.023,1.3,1.394,1.394,0,0,0,1.4,1.426c.868,0,4.929-1.7,7.843-3.255a1.417,1.417,0,0,0,.868-1.271,1.2,1.2,0,0,0-1.178-1.209,1.509,1.509,0,0,0-.682.186c-.527.279-1.085.558-1.674.806L39.184-15h1.8a1.211,1.211,0,0,0,1.209-1.3,1.211,1.211,0,0,0-1.209-1.3h-1.8v-5.146a1.333,1.333,0,0,0-1.457-1.333A1.324,1.324,0,0,0,36.3-22.754v5.146H34.317a1.251,1.251,0,0,0-1.3,1.3,1.251,1.251,0,0,0,1.3,1.3H36.3ZM50.654-5.27a1.214,1.214,0,0,0,.651-1.116,1.173,1.173,0,0,0-1.054-1.24,1.181,1.181,0,0,0-.527.124A41.677,41.677,0,0,1,41.571-4.65a1.185,1.185,0,0,0-.9,1.209,1.394,1.394,0,0,0,1.3,1.488A37,37,0,0,0,50.654-5.27ZM46.252-9.8c-1.054,0-1.147-.248-1.178-.527,0-.372-.031-.868-.031-1.364,0-2.046,0-2.046,1.271-2.046.961,0,1.178.124,1.178.527.031.527.031,1.085.031,1.643C47.523-9.8,47.523-9.8,46.252-9.8Zm32.736-7.595a8.041,8.041,0,0,1,3.844,1.24c3.069,1.953,3.906,6.014,1.705,9.486-1.023,1.612-3.41,2.945-5.766,3.472-2.666.62-1.7,3.751,1.023,3.038A12.959,12.959,0,0,0,87.358-5.27c2.7-4.433,1.922-10.137-2.883-13.02-3.906-2.356-9.579-1.922-13.392.713-4.154,2.883-6.231,8.649-4.278,12.493,1.364,2.666,3.968,3.875,6.355,1.674,2.976-2.759,5.766-8.618,6.262-12.555A1.551,1.551,0,0,0,78.988-17.391Zm-2.449.155a2.193,2.193,0,0,0-.279.961C75.95-12.927,73.78-8,71.455-5.952c-.775.682-1.581.217-2.046-.682-1.3-2.387.248-6.51,3.131-8.742A10.272,10.272,0,0,1,76.539-17.236Zm33.294-1.3c.093-1.333.124-2.666.124-3.751a1.607,1.607,0,0,0-1.705-1.643,1.6,1.6,0,0,0-1.736,1.55v.093c.062.93.124,1.984.124,2.914,0,2.325-.279,13.206-10.85,17.918A1.686,1.686,0,0,0,94.643.062a1.782,1.782,0,0,0,1.8,1.7,2.009,2.009,0,0,0,.9-.217,20.806,20.806,0,0,0,11.16-12.9c2.7,7.068,9.238,12.71,11.873,12.71a1.976,1.976,0,0,0,2.046-1.891,1.589,1.589,0,0,0-1.209-1.519c-5.177-1.922-10.757-8.525-11.346-16.12a.6.6,0,0,0-.031-.248ZM142.1-6.51a48.169,48.169,0,0,0,5.239-6.975,3.124,3.124,0,0,0,.5-1.612c0-1.24-.961-2.17-2.573-2.17s-3.813.062-5.487.093c1.116-2.015,1.178-2.356,1.178-2.6a1.712,1.712,0,0,0-1.767-1.581,1.683,1.683,0,0,0-1.581,1.116,29.3,29.3,0,0,1-8.122,11.284,1.661,1.661,0,0,0-.682,1.3,1.609,1.609,0,0,0,1.612,1.55,2.094,2.094,0,0,0,1.426-.589,35.929,35.929,0,0,0,6.355-7.781c2.077-.031,3.937-.031,5.208-.031a.5.5,0,0,1,.558.527c0,.527-2.108,3.565-4.371,6.014-2.325-1.178-2.883-1.209-3.162-1.209a1.625,1.625,0,0,0-1.674,1.55,1.3,1.3,0,0,0,.9,1.209,15.15,15.15,0,0,1,5.89,3.875,1.657,1.657,0,0,0,1.24.62,1.757,1.757,0,0,0,1.674-1.8C144.46-4.309,144.367-4.96,142.1-6.51ZM11.5,50.729v-.062c-.062-1.922-.062-3.875-.062-5.8,0-4.433.093-8.587.093-11.067,0-.682,0-1.24-.031-1.643a3.3,3.3,0,0,0-3.6-3.317c-.651,0-.9,0-1.519.031a1.8,1.8,0,0,0-1.612,1.891,1.543,1.543,0,0,0,1.581,1.643h.434c1.054,0,1.209.341,1.209,4.681,0,4.092-.124,10.695-.124,13.578A1.725,1.725,0,0,0,9.7,52.372,1.668,1.668,0,0,0,11.5,50.729ZM35.433,33.462c.093-1.333.124-2.666.124-3.751a1.726,1.726,0,0,0-3.441-.093v.093c.062.93.124,1.984.124,2.914,0,2.325-.279,13.206-10.85,17.918a1.686,1.686,0,0,0-1.147,1.519,1.782,1.782,0,0,0,1.8,1.7,2.009,2.009,0,0,0,.9-.217,20.806,20.806,0,0,0,11.16-12.9c2.7,7.068,9.238,12.71,11.873,12.71a1.976,1.976,0,0,0,2.046-1.891,1.589,1.589,0,0,0-1.209-1.519c-5.177-1.922-10.757-8.525-11.346-16.12a.6.6,0,0,0-.031-.248ZM68.138,50.481c3.968-3.937,4.712-9.8,4-12.617-.093-.31,0-.248.186,0a14.139,14.139,0,0,0,3.348,3.1,1.709,1.709,0,1,0,1.86-2.852c-3.286-1.8-4.836-3.5-6.014-5.828-1.3-2.542-4.433-.93-3.162,1.271.31.527.62,1.271.806,1.674.868,1.984.992,9.083-2.945,12.741-3.224,3.007-7.44,2.6-7.967-2.077-.682-6.107,4-12.276,6.169-13.361a1.606,1.606,0,1,0-1.364-2.883,11.463,11.463,0,0,1-5.89,1.178c-2.449-.062-2.6,3.317-.155,3.193a13.012,13.012,0,0,0,2.325-.279c.248-.062.093.186-.031.372-1.178,2.108-4.185,6.2-3.906,11.78C55.8,54.325,63.736,54.852,68.138,50.481ZM91.853,39.786c-.31.217-.589.465-.9.713-5.022,4-5.208,9.021-.744,11.284,3.069,1.55,8.246.93,10.695.248,2.759-.775,1.829-4.34-.775-3.348-1.86.682-6.293,1.488-8.463.4-2.418-1.178-2.325-3.5.744-6.107a46.6,46.6,0,0,1,8.8-5.487c2.387-1.209.775-4.185-1.333-3.007a59.135,59.135,0,0,0-5.456,3.41A31.466,31.466,0,0,0,90.8,30.672c-1.24-1.767-4.278-.093-2.666,1.891A25.209,25.209,0,0,1,91.853,39.786Zm33.17,13.826a16.929,16.929,0,0,0,6.138-19.778c-1.271-3.5-5.3-4.774-7.564-1.86-.31.4-.62.806-.217-.031a9.3,9.3,0,0,0,.806-2.883,1.561,1.561,0,0,0-3.1-.279c-.248,1.891-.837,3.937-1.178,5.518a27.571,27.571,0,0,0-.713,7.161c.186,2.232,3.534,2.263,3.379-.744-.155-2.7-.093-3.968.806-5.859.9-1.922,3.844-3.069,4.867.031a14.277,14.277,0,0,1-5.394,16.306C120.249,52.9,122.512,55.472,125.023,53.612Zm32.705-19a8.041,8.041,0,0,1,3.844,1.24c3.069,1.953,3.906,6.014,1.705,9.486-1.023,1.612-3.41,2.945-5.766,3.472-2.666.62-1.705,3.751,1.023,3.038A12.96,12.96,0,0,0,166.1,46.73c2.7-4.433,1.922-10.137-2.883-13.02-3.906-2.356-9.579-1.922-13.392.713-4.154,2.883-6.231,8.649-4.278,12.493,1.364,2.666,3.968,3.875,6.355,1.674,2.976-2.759,5.766-8.618,6.262-12.555A1.551,1.551,0,0,0,157.728,34.609Zm-2.449.155a2.193,2.193,0,0,0-.279.961c-.31,3.348-2.48,8.277-4.8,10.323-.775.682-1.581.217-2.046-.682-1.3-2.387.248-6.51,3.131-8.742A10.272,10.272,0,0,1,155.279,34.764Zm35.061-1.178a1.8,1.8,0,0,0,1.7-1.767,1.569,1.569,0,0,0-.651-1.271,21.48,21.48,0,0,0-7.006-2.883,1.694,1.694,0,0,0-1.643,1.643,1.127,1.127,0,0,0,.868,1.116,20.5,20.5,0,0,1,5.735,2.79A1.721,1.721,0,0,0,190.34,33.586Zm9.393,13.237a1.868,1.868,0,0,0,1.8-1.829c0-1.4-2.883-4.216-6.448-6.541a1.849,1.849,0,0,0-.992-.31,1.543,1.543,0,0,0-1.581,1.426,1.393,1.393,0,0,0,.62,1.116,22.518,22.518,0,0,1,5.239,5.332A1.632,1.632,0,0,0,199.733,46.823Zm-4.278.62a1.669,1.669,0,0,0-1.767-1.8,1.446,1.446,0,0,0-1.519,1.581c0,3.379-1.767,3.6-4.34,3.6-1.984,0-3.069-.31-3.069-1.643.031-3.5.155-9.052.31-13.826v-.062a1.59,1.59,0,0,0-3.162.062c-.093,4.774-.248,10.757-.248,14.26,0,3.689,2.79,4.092,5.983,4.092C190.867,53.705,195.455,53.705,195.455,47.443Zm-19.313.775c1.736-1.891,3.813-6.665,3.813-7.9a1.6,1.6,0,0,0-1.674-1.519,1.491,1.491,0,0,0-1.488,1.147,15.7,15.7,0,0,1-3.441,6.231,1.851,1.851,0,0,0-.558,1.271,1.633,1.633,0,0,0,1.705,1.55A2.16,2.16,0,0,0,176.142,48.218Zm50.406-11.47a1.517,1.517,0,1,0,.527-2.976,18.713,18.713,0,0,0-8.153.186,1.46,1.46,0,1,0,.434,2.883A15.7,15.7,0,0,1,226.548,36.748Zm1.674,14.136c2.046-.527,1.891-3.813-.62-3.286-2.418.5-6.138.992-7.812-.527a1.535,1.535,0,0,0-2.2,2.139C219.821,51.628,224.9,51.721,228.222,50.884Zm-16.4,1.488c.775-.682.4-1.643.589-2.48a15.631,15.631,0,0,1,1.829-4.34,1.242,1.242,0,0,0-2.17-1.209c-.124.217-.465.837-.527.992-.124.279-.248.372-.341-.031-.744-2.883,1.116-10.168,1.612-12.679.341-1.8-2.666-2.48-3.007-.186-.558,3.689-3.007,12.865-.527,18.972C209.9,52.93,211.048,53.054,211.823,52.372ZM22.692,87.539a1.033,1.033,0,0,0,1.054-1.085,1.057,1.057,0,0,0-1.085-1.085l-6.169.093a4.967,4.967,0,0,0,.062-.682.99.99,0,0,0-.775-.961c2.511,0,5.022.031,7.037.062,1.581.031,1.581.155,1.581,2.666v.062a1.313,1.313,0,0,0,1.426,1.271c1.426,0,1.55-1.085,1.55-2.294,0-.465,0-.868-.031-1.24-.062-2.046-1.829-2.883-3.441-2.914-2.17-.031-4.5-.093-6.82-.093V79.882a1.425,1.425,0,0,0-1.55-1.4,1.4,1.4,0,0,0-1.519,1.4V81.37c-2.542,0-5.022.031-7.378.062-3.131.031-3.162,2.449-3.162,4.061,0,1.085,0,2.294,1.395,2.294a1.364,1.364,0,0,0,1.457-1.3V85.214c.031-.806.093-1.3,1.705-1.333,1.891-.062,4.34-.062,6.851-.062a1.1,1.1,0,0,0-.775,1.085,3.416,3.416,0,0,1-.062.558l-5.828-.093H8.184a1.008,1.008,0,0,0-1.023,1.085,1.024,1.024,0,0,0,1.023,1.085h.031l4.929-.093c-.961,1.116-2.7,1.829-5.394,2.046A1.139,1.139,0,0,0,6.6,90.639,1.308,1.308,0,0,0,8,91.91c.031,0,5.084-.217,7.409-3.72a8.885,8.885,0,0,0,7.316,3.565,1.355,1.355,0,0,0,1.457-1.333,1.082,1.082,0,0,0-1.085-1.116c-3.1-.155-4.743-.868-5.673-1.86l5.239.093Zm1.271,11.067V94.669H27.28a1.24,1.24,0,0,0,0-2.48H3.72a1.24,1.24,0,0,0,0,2.48H21.08v6.789a1.6,1.6,0,0,1-1.829,1.8,7.723,7.723,0,0,1-1.953-.31,1.509,1.509,0,0,0-.372-.031,1.3,1.3,0,0,0-1.271,1.364c0,.589.155,1.736,3.689,1.736,3.6,0,4.681-2.294,4.681-3.968v-.062Zm-9.114,4.247c1.457-.093,2.852-.806,2.945-2.418.031-.465.031-.93.031-1.426,0-3.131-1.147-3.131-5.673-3.131-3.6,0-5.487,0-5.58,2.2,0,.372-.031.744-.031,1.147s.031.837.031,1.271c.093,2.418,1.953,2.418,5.3,2.418C12.9,102.915,13.919,102.884,14.849,102.853Zm.31-3.534c0,1.426-.031,1.426-3.069,1.426-2.945,0-2.945-.062-2.945-1.4,0-1.395.031-1.395,2.976-1.395C15.035,97.955,15.159,97.986,15.159,99.319Zm31.124,6.293a16.929,16.929,0,0,0,6.138-19.778c-1.271-3.5-5.3-4.774-7.564-1.86-.31.4-.62.806-.217-.031a9.3,9.3,0,0,0,.806-2.883,1.561,1.561,0,0,0-3.1-.279c-.248,1.891-.837,3.937-1.178,5.518a27.571,27.571,0,0,0-.713,7.161c.186,2.232,3.534,2.263,3.379-.744-.155-2.7-.093-3.968.806-5.859.9-1.922,3.844-3.069,4.867.031a14.277,14.277,0,0,1-5.394,16.306C41.509,104.9,43.772,107.472,46.283,105.612Zm42.78-17.05a1.283,1.283,0,0,0,1.426-1.271,1.332,1.332,0,0,0-1.457-1.3l-8.556.062a23.457,23.457,0,0,0,.713-2.635,37.4,37.4,0,0,0,5.394-.806,1.421,1.421,0,0,0-.279-2.821,1.626,1.626,0,0,0-.527.062C81.561,81,77.345,80.936,73.532,81a1.283,1.283,0,0,0-1.3,1.364,1.39,1.39,0,0,0,1.457,1.426h.093c1.271-.062,2.852-.093,4.588-.186a17.13,17.13,0,0,1-.744,2.449l-5.518-.062a1.286,1.286,0,0,0-1.364,1.3,1.236,1.236,0,0,0,1.333,1.271h.031l4.278-.062a14.634,14.634,0,0,1-5.177,5.022,1.343,1.343,0,0,0-.744,1.147,1.5,1.5,0,0,0,1.457,1.457c1.209,0,5.425-3.472,7.533-7.657h2.263c2.728,4.464,6.882,7.44,8.308,7.44A1.662,1.662,0,0,0,91.636,94.3a1.287,1.287,0,0,0-.93-1.24A12.751,12.751,0,0,1,84.785,88.5l4.247.062Zm1.023,14.167a1.505,1.505,0,0,0,1.426-1.519c0-1.364-3.286-5.518-4.774-5.518a1.306,1.306,0,0,0-1.364,1.116,1.062,1.062,0,0,0,.4.775,15.861,15.861,0,0,1,3.069,4.247A1.382,1.382,0,0,0,90.086,102.729ZM69.75,85.121a1.7,1.7,0,0,0,1.55-1.705c0-1.8-4.123-3.472-4.712-3.472a1.527,1.527,0,0,0-1.519,1.426,1.127,1.127,0,0,0,.62.992,11.271,11.271,0,0,1,3.069,2.263A1.337,1.337,0,0,0,69.75,85.121Zm14.725,17.856a1.488,1.488,0,0,0,1.457-1.519c0-1.147-1.767-4.371-2.573-5.115a1.442,1.442,0,0,0-.961-.372,1.152,1.152,0,0,0-1.24,1.023,1.092,1.092,0,0,0,.217.651,13.678,13.678,0,0,1,1.86,4.216A1.292,1.292,0,0,0,84.475,102.977ZM77.841,92.716c.062,4.061.062,8.649.062,8.649,0,1.364-.434,1.705-1.147,1.705a9.048,9.048,0,0,1-1.581-.248,1.272,1.272,0,0,0-.341-.031,1.311,1.311,0,0,0-1.3,1.395c0,1.023.589,1.674,3.1,1.674,3.038,0,4.123-1.8,4.123-3.72v-.155c-.031-1.085-.093-2.294-.093-2.79,0-1.364.031-2.387.031-3.875,0-.713,0-1.55-.031-2.6a1.356,1.356,0,0,0-1.426-1.4,1.324,1.324,0,0,0-1.395,1.364Zm-9.517-1.054a1.643,1.643,0,0,0,1.426-1.705,1.584,1.584,0,0,0-.651-1.3,10.571,10.571,0,0,0-4.309-1.674A1.529,1.529,0,0,0,63.3,88.469a1.03,1.03,0,0,0,.775,1.023,10.426,10.426,0,0,1,3.379,1.829A1.293,1.293,0,0,0,68.324,91.662Zm3.162,11.315c2.015,0,4.588-4.154,4.588-5.766a1.245,1.245,0,0,0-1.3-1.178,1.326,1.326,0,0,0-1.271.961,7.081,7.081,0,0,1-2.666,3.5,1.479,1.479,0,0,0-.775,1.209A1.357,1.357,0,0,0,71.486,102.977ZM66.9,104.4a31.172,31.172,0,0,0,3.379-8.618,1.408,1.408,0,0,0-1.488-1.4,1.311,1.311,0,0,0-1.333.961,29.835,29.835,0,0,1-3.472,7.75,1.43,1.43,0,0,0-.248.806,1.578,1.578,0,0,0,1.612,1.488A1.763,1.763,0,0,0,66.9,104.4Zm43.958-20.739c2.294.434,3.317-2.7.775-3.131a20.841,20.841,0,0,1-4.8-1.364c-2.17-.992-3.472,1.426-1.705,2.418A19.747,19.747,0,0,0,110.856,83.664Zm-2.821,22.413c6.2-4.557,8.835-11.9,6.448-17.081-1.643-3.565-6.2-3.689-9.362-2.294-.868.372-1.86.713-2.666.992-2.263.806-1.488,3.844.961,3.224a19.005,19.005,0,0,0,3.007-1.426c2.139-1.271,4.464-1.147,5.332,1.271,1.271,3.6-.434,9.083-5.983,12.989C103.943,105.054,105.989,107.6,108.035,106.077Zm42.656-20.026a1.427,1.427,0,1,0,0-2.852l-9.734.062.031-3.224c0-.868-.806-1.3-1.612-1.3a1.362,1.362,0,0,0-1.519,1.3l.031,3.224-9.579-.062a1.429,1.429,0,1,0,0,2.852l9.579-.062.031,3.6H131.5a1.414,1.414,0,0,0-1.457,1.457,1.292,1.292,0,0,0,1.364,1.333h.062c2.635-.093,5.735-.093,8.308-.093h3.348c.465,0,.713.186.713.465,0,.651-1.705,3.131-4.247,5.332a18.567,18.567,0,0,1-3.813-4.588,1.259,1.259,0,0,0-1.147-.62,1.479,1.479,0,0,0-1.55,1.364c0,1.24,2.666,4.34,4.092,5.642a21.137,21.137,0,0,1-9.517,3.224,1.459,1.459,0,0,0-1.457,1.519,1.546,1.546,0,0,0,1.55,1.612,24.313,24.313,0,0,0,11.842-4.464,20.394,20.394,0,0,0,11.439,3.751,1.754,1.754,0,0,0,1.86-1.8,1.357,1.357,0,0,0-1.3-1.488,19.255,19.255,0,0,1-9.517-2.418c2.79-2.511,5.58-5.952,5.58-7.812,0-1.426-1.085-2.449-2.914-2.449h-3.813l.031-3.565ZM181.133,82.3c.868-.186,1.209-.682,1.209-1.209a1.439,1.439,0,0,0-1.457-1.364,1.272,1.272,0,0,0-.341.031,51.848,51.848,0,0,1-10.664,1.054c-.558,0-1.054,0-1.55-.031h-.062a1.245,1.245,0,0,0-1.364,1.271,1.327,1.327,0,0,0,1.426,1.333C169.694,83.385,176.979,83.261,181.133,82.3Zm1.612,11.346a1.167,1.167,0,1,0,0-2.325l-8.4.031c.155-.589.279-1.178.372-1.736l7.006.031a1.184,1.184,0,1,0,0-2.356h-1.891c.155-.248,1.674-2.542,1.674-3.224s-.806-1.178-1.55-1.178a1.006,1.006,0,0,0-1.023.651,17.058,17.058,0,0,1-1.8,3.782h-2.139a1.352,1.352,0,0,0,1.147-1.24c0-.31-.62-2.7-1.922-2.7-.62,0-1.3.372-1.3.93a.751.751,0,0,0,.124.4,5.023,5.023,0,0,1,.744,1.829.892.892,0,0,0,.713.775h-3.007a1.316,1.316,0,0,0,.465-.992c0-.713-1.24-2.573-2.2-2.573a1.3,1.3,0,0,0-1.333,1.085.873.873,0,0,0,.248.589,4.783,4.783,0,0,1,1.023,1.612.675.675,0,0,0,.155.248h-1.054a1.178,1.178,0,1,0,0,2.356h3.224c-.093.558-.217,1.116-.341,1.7l-3.906-.031a1.163,1.163,0,1,0,0,2.325h3.255c-1.3,3.689-3.627,7.285-6.789,9.145a3.294,3.294,0,0,0-.341.279,6.482,6.482,0,0,0,.031-.775c-.031-1.085-.124-3.906-.124-4.4,0-.465.031-2.046.031-4.092,2.387-1.364,2.976-1.922,2.976-2.635a1.292,1.292,0,0,0-1.24-1.271,1.092,1.092,0,0,0-.651.217c-.372.248-.713.465-1.085.682V87.632h1.922a1.364,1.364,0,0,0,0-2.728h-1.922V80.068a1.372,1.372,0,0,0-1.426-1.457,1.422,1.422,0,0,0-1.488,1.457l.031,4.836h-2.6a1.364,1.364,0,1,0,0,2.728h2.6v4.681c-1.023.5-2.108.93-3.348,1.457a1.39,1.39,0,0,0-.9,1.271,1.487,1.487,0,0,0,1.488,1.488c.589,0,1.147-.31,2.759-1.147v6.541c0,.806-.62,1.023-1.271,1.023a4.818,4.818,0,0,1-.992-.124.858.858,0,0,0-.279-.031,1.3,1.3,0,0,0-1.209,1.426c0,1.271.992,1.674,2.821,1.674a3.7,3.7,0,0,0,3.534-1.736,1.342,1.342,0,0,0,1.333,1.085c1.147,0,3.937-2.17,6.51-6.7a11.379,11.379,0,0,0,2.449,3.255,15.615,15.615,0,0,1-5.394,1.953,1.155,1.155,0,0,0-.992,1.178,1.236,1.236,0,0,0,1.271,1.271,18.986,18.986,0,0,0,7.161-2.79,17.252,17.252,0,0,0,7.161,2.449A1.506,1.506,0,0,0,184.7,104.4a1.244,1.244,0,0,0-1.178-1.24A17.577,17.577,0,0,1,178,101.706a12.324,12.324,0,0,0,2.511-3.534,2.6,2.6,0,0,0,.248-1.023,1.964,1.964,0,0,0-2.17-1.922c-.5,0-3.844.062-5.611.093.248-.558.434-1.116.651-1.705Zm-6.944,6.7A9.135,9.135,0,0,1,173.29,97.3c1.705,0,3.782-.062,3.968-.062s.465.031.465.31A6.664,6.664,0,0,1,175.8,100.342Z" transform="translate(35.605 266.913)" fill="#fff"/>
  </g>
</svg>
