<svg xmlns="http://www.w3.org/2000/svg" width="610" height="146" viewBox="0 0 610 146">
  <g id="グループ_44744" data-name="グループ 44744" transform="translate(-60 -264)">
    <rect id="長方形_2716" data-name="長方形 2716" width="610" height="67" transform="translate(60 264)" fill="#ca4d2c"/>
    <rect id="長方形_2717" data-name="長方形 2717" width="316" height="67" transform="translate(60 343)" fill="#ca4d2c"/>
    <path id="パス_22976" data-name="パス 22976" d="M27.81-7.245a1.8,1.8,0,0,0,1.98,1.71,1.819,1.819,0,0,0,2.025-1.71V-22c1.44-.72,2.655-1.35,3.33-1.71a1.026,1.026,0,0,1,.495-.135c.72,0,.765,1.17.765,3.06,0,7.605-1.125,8.235-1.845,8.235a2.259,2.259,0,0,1-.54-.09,1.98,1.98,0,0,0-.45-.09c-.945,0-1.44.99-1.44,1.98,0,1.44.63,2.16,2.655,2.16,4.59,0,5.58-3.555,5.58-13.86,0-2.43-.135-5.625-3.375-5.625a6.432,6.432,0,0,0-2.97.81l-2.2,1.125v-7.92a1.854,1.854,0,0,0-1.98-1.845,1.867,1.867,0,0,0-2.025,1.845v9.945l-4.095,2.025c0-3.24,0-6.165.045-8.01v-.045a1.863,1.863,0,0,0-1.98-1.89,1.947,1.947,0,0,0-2.025,1.98c0,2.43-.09,6.12-.09,10.035l-4.32,2.16a1.805,1.805,0,0,0-1.08,1.665,1.935,1.935,0,0,0,1.8,1.98,2.2,2.2,0,0,0,.855-.225l2.745-1.395c0,4.68,0,9.18.045,12.015.09,5.625,5.85,5.76,10.89,5.76,5.8,0,12.105,0,12.105-8.145a2.167,2.167,0,0,0-2.3-2.3,1.862,1.862,0,0,0-1.98,1.98c0,4.455-2.61,4.635-8.1,4.635-3.915,0-6.48-.045-6.57-2.7-.045-2.385-.045-7.875-.045-13.32l4.095-2.07ZM8.415-7.74C6.75-7.065,5.04-6.48,3.33-5.895A1.979,1.979,0,0,0,1.89-3.96,2.015,2.015,0,0,0,3.87-1.89c1.845,0,11.565-4.9,13.14-5.76a2.156,2.156,0,0,0,1.305-1.8A1.86,1.86,0,0,0,16.38-11.2a2.253,2.253,0,0,0-1.125.315c-.855.495-1.8.945-2.745,1.4V-19.62h3.6a1.758,1.758,0,0,0,1.755-1.89A1.758,1.758,0,0,0,16.11-23.4H12.555v-9.45a1.936,1.936,0,0,0-2.115-1.935A1.922,1.922,0,0,0,8.37-32.85v9.45H4.275A1.854,1.854,0,0,0,2.34-21.51a1.854,1.854,0,0,0,1.935,1.89h4.14ZM83.79-29.88A2.054,2.054,0,0,0,85.635-31.9c0-1.8-3.69-3.69-4.815-3.69a2.072,2.072,0,0,0-1.935,1.845,1.2,1.2,0,0,0,.675.99,8.339,8.339,0,0,1,3.15,2.34A1.279,1.279,0,0,0,83.79-29.88Zm1.08,4.635a1.975,1.975,0,0,0,2.115-1.98,1.934,1.934,0,0,0-2.115-1.89l-7.02.045c0-1.89,0-3.69.045-5.31v-.045A1.955,1.955,0,0,0,75.78-36.45a2.008,2.008,0,0,0-2.16,1.98v.045c.045,1.71.09,3.51.135,5.355h-.81l-11.07-.045a1.9,1.9,0,0,0-2.07,1.935,1.926,1.926,0,0,0,2.07,1.935H73.89A111.951,111.951,0,0,0,75.825-7.56,22.264,22.264,0,0,1,66.06-.99a2.173,2.173,0,0,0-1.62,2.025,1.978,1.978,0,0,0,2.025,1.98C67.59,3.015,73.125.5,77-3.33c1.755,4.815,3.645,5.76,5.58,5.76,4.365,0,5.625-5.805,5.625-7.29a2.16,2.16,0,0,0-2.205-2.25A1.8,1.8,0,0,0,84.15-5.49c-.315,2.61-.81,3.6-1.395,3.6-.5,0-1.755-1.26-2.745-4.95A40.666,40.666,0,0,0,86.085-19.4a2.363,2.363,0,0,0-2.43-2.07,1.583,1.583,0,0,0-1.62,1.17A41.357,41.357,0,0,1,78.93-11.97,111.867,111.867,0,0,1,77.9-25.245Zm-12.555,9.4c0-1.485-.045-3.06-.09-4.5-.09-2.385-2.2-2.7-4.9-2.7-2.925,0-5.085.18-5.175,2.745-.045,1.035-.045,2.43-.045,3.78,0,1.035,0,1.98.045,2.745.135,2.7,2.745,2.835,4.995,2.835C72.315-10.935,72.315-12.42,72.315-15.84ZM52.74-10.08c-1.26.45-2.565.855-3.96,1.26a1.936,1.936,0,0,0-1.485,1.89A2.024,2.024,0,0,0,49.32-4.86c1.26,0,7.155-2.475,11.385-4.725a2.057,2.057,0,0,0,1.26-1.845,1.747,1.747,0,0,0-1.71-1.755,2.19,2.19,0,0,0-.99.27c-.765.4-1.575.81-2.43,1.17L56.88-21.78h2.61a1.758,1.758,0,0,0,1.755-1.89,1.758,1.758,0,0,0-1.755-1.89H56.88v-7.47a1.936,1.936,0,0,0-2.115-1.935,1.922,1.922,0,0,0-2.07,1.935v7.47h-2.88a1.816,1.816,0,0,0-1.89,1.89,1.816,1.816,0,0,0,1.89,1.89h2.88ZM73.53-7.65a1.763,1.763,0,0,0,.945-1.62,1.7,1.7,0,0,0-1.53-1.8,1.714,1.714,0,0,0-.765.18A60.5,60.5,0,0,1,60.345-6.75,1.721,1.721,0,0,0,59.04-4.995a2.023,2.023,0,0,0,1.89,2.16A53.7,53.7,0,0,0,73.53-7.65Zm-6.39-6.57c-1.53,0-1.665-.36-1.71-.765,0-.54-.045-1.26-.045-1.98,0-2.97,0-2.97,1.845-2.97,1.4,0,1.71.18,1.71.765.045.765.045,1.575.045,2.385C68.985-14.22,68.985-14.22,67.14-14.22Zm47.52-11.025a11.672,11.672,0,0,1,5.58,1.8c4.455,2.835,5.67,8.73,2.475,13.77-1.485,2.34-4.95,4.275-8.37,5.04-3.87.9-2.475,5.445,1.485,4.41,4.455-1.17,8.865-3.96,10.98-7.425,3.915-6.435,2.79-14.715-4.185-18.9-5.67-3.42-13.9-2.79-19.44,1.035C97.155-21.33,94.14-12.96,96.975-7.38c1.98,3.87,5.76,5.625,9.225,2.43,4.32-4.005,8.37-12.51,9.09-18.225A2.251,2.251,0,0,0,114.66-25.245Zm-3.555.225a3.183,3.183,0,0,0-.405,1.4c-.45,4.86-3.6,12.015-6.975,14.985-1.125.99-2.295.315-2.97-.99-1.89-3.465.36-9.45,4.545-12.69A14.911,14.911,0,0,1,111.105-25.02Zm48.33-1.89c.135-1.935.18-3.87.18-5.445a2.332,2.332,0,0,0-2.475-2.385,2.319,2.319,0,0,0-2.52,2.25v.135c.09,1.35.18,2.88.18,4.23,0,3.375-.4,19.17-15.75,26.01A2.447,2.447,0,0,0,137.385.09a2.587,2.587,0,0,0,2.61,2.475A2.917,2.917,0,0,0,141.3,2.25a30.2,30.2,0,0,0,16.2-18.72c3.915,10.26,13.41,18.45,17.235,18.45a2.869,2.869,0,0,0,2.97-2.745,2.306,2.306,0,0,0-1.755-2.2c-7.515-2.79-15.615-12.375-16.47-23.4a.877.877,0,0,0-.045-.36ZM206.28-9.45a69.923,69.923,0,0,0,7.605-10.125,4.535,4.535,0,0,0,.72-2.34c0-1.8-1.4-3.15-3.735-3.15s-5.535.09-7.965.135c1.62-2.925,1.71-3.42,1.71-3.78a2.485,2.485,0,0,0-2.565-2.3,2.443,2.443,0,0,0-2.295,1.62,42.528,42.528,0,0,1-11.79,16.38,2.411,2.411,0,0,0-.99,1.89,2.336,2.336,0,0,0,2.34,2.25,3.04,3.04,0,0,0,2.07-.855,52.155,52.155,0,0,0,9.225-11.295c3.015-.045,5.715-.045,7.56-.045a.721.721,0,0,1,.81.765c0,.765-3.06,5.175-6.345,8.73-3.375-1.71-4.185-1.755-4.59-1.755a2.359,2.359,0,0,0-2.43,2.25,1.886,1.886,0,0,0,1.3,1.755,21.992,21.992,0,0,1,8.55,5.625,2.406,2.406,0,0,0,1.8.9A2.551,2.551,0,0,0,209.7-5.4C209.7-6.255,209.565-7.2,206.28-9.45Zm35.415,7.6v-.09c-.09-2.79-.09-5.625-.09-8.415,0-6.435.135-12.465.135-16.065,0-.99,0-1.8-.045-2.385-.135-2.97-2.115-4.815-5.22-4.815-.945,0-1.305,0-2.205.045a2.615,2.615,0,0,0-2.34,2.745,2.24,2.24,0,0,0,2.3,2.385h.63c1.53,0,1.755.5,1.755,6.8,0,5.94-.18,15.525-.18,19.71A2.5,2.5,0,0,0,239.085.54,2.422,2.422,0,0,0,241.7-1.845Zm34.74-25.065c.135-1.935.18-3.87.18-5.445a2.332,2.332,0,0,0-2.475-2.385,2.319,2.319,0,0,0-2.52,2.25v.135c.09,1.35.18,2.88.18,4.23,0,3.375-.4,19.17-15.75,26.01A2.447,2.447,0,0,0,254.385.09a2.587,2.587,0,0,0,2.61,2.475,2.917,2.917,0,0,0,1.3-.315,30.2,30.2,0,0,0,16.2-18.72c3.915,10.26,13.41,18.45,17.235,18.45a2.869,2.869,0,0,0,2.97-2.745,2.306,2.306,0,0,0-1.755-2.2c-7.515-2.79-15.615-12.375-16.47-23.4a.877.877,0,0,0-.045-.36ZM323.91-2.2c5.76-5.715,6.84-14.22,5.8-18.315-.135-.45,0-.36.27,0a20.524,20.524,0,0,0,4.86,4.5c3.105,1.935,5.8-2.43,2.7-4.14-4.77-2.61-7.02-5.085-8.73-8.46-1.89-3.69-6.435-1.35-4.59,1.845.45.765.9,1.845,1.17,2.43,1.26,2.88,1.44,13.185-4.275,18.5-4.68,4.365-10.8,3.78-11.565-3.015-.99-8.865,5.8-17.82,8.955-19.4,3.24-1.62.9-5.85-1.98-4.185a16.639,16.639,0,0,1-8.55,1.71c-3.555-.09-3.78,4.815-.225,4.635a18.889,18.889,0,0,0,3.375-.405c.36-.09.135.27-.045.54-1.71,3.06-6.075,9-5.67,17.1C306,3.375,317.52,4.14,323.91-2.2ZM358.335-17.73c-.45.315-.855.675-1.3,1.035-7.29,5.8-7.56,13.095-1.08,16.38,4.455,2.25,11.97,1.35,15.525.36,4.005-1.125,2.655-6.3-1.125-4.86-2.7.99-9.135,2.16-12.285.585-3.51-1.71-3.375-5.085,1.08-8.865a67.638,67.638,0,0,1,12.78-7.965c3.465-1.755,1.125-6.075-1.935-4.365a85.847,85.847,0,0,0-7.92,4.95A45.676,45.676,0,0,0,356.8-30.96c-1.8-2.565-6.21-.135-3.87,2.745A36.6,36.6,0,0,1,358.335-17.73Zm48.15,20.07a24.575,24.575,0,0,0,8.91-28.71c-1.845-5.085-7.7-6.93-10.98-2.7-.45.585-.9,1.17-.315-.045a13.5,13.5,0,0,0,1.17-4.185c.225-2.7-4.14-3.24-4.5-.405-.36,2.745-1.215,5.715-1.71,8.01A40.021,40.021,0,0,0,398.025-15.3c.27,3.24,5.13,3.285,4.9-1.08-.225-3.915-.135-5.76,1.17-8.5,1.305-2.79,5.58-4.455,7.065.045,3.105,9.405-.855,19.125-7.83,23.67C399.555,1.3,402.84,5.04,406.485,2.34ZM453.96-25.245a11.672,11.672,0,0,1,5.58,1.8c4.455,2.835,5.67,8.73,2.475,13.77-1.485,2.34-4.95,4.275-8.37,5.04-3.87.9-2.475,5.445,1.485,4.41,4.455-1.17,8.865-3.96,10.98-7.425,3.915-6.435,2.79-14.715-4.185-18.9-5.67-3.42-13.9-2.79-19.44,1.035-6.03,4.185-9.045,12.555-6.21,18.135,1.98,3.87,5.76,5.625,9.225,2.43,4.32-4.005,8.37-12.51,9.09-18.225A2.251,2.251,0,0,0,453.96-25.245Zm-3.555.225a3.183,3.183,0,0,0-.4,1.4c-.45,4.86-3.6,12.015-6.975,14.985-1.125.99-2.3.315-2.97-.99-1.89-3.465.36-9.45,4.545-12.69A14.911,14.911,0,0,1,450.4-25.02ZM501.3-26.73a2.608,2.608,0,0,0,2.475-2.565,2.278,2.278,0,0,0-.945-1.845,31.181,31.181,0,0,0-10.17-4.185,2.459,2.459,0,0,0-2.385,2.385,1.635,1.635,0,0,0,1.26,1.62,29.765,29.765,0,0,1,8.325,4.05A2.5,2.5,0,0,0,501.3-26.73ZM514.935-7.515a2.712,2.712,0,0,0,2.61-2.655c0-2.025-4.185-6.12-9.36-9.5a2.684,2.684,0,0,0-1.44-.45,2.239,2.239,0,0,0-2.3,2.07,2.023,2.023,0,0,0,.9,1.62,32.688,32.688,0,0,1,7.605,7.74A2.369,2.369,0,0,0,514.935-7.515Zm-6.21.9a2.423,2.423,0,0,0-2.565-2.61,2.1,2.1,0,0,0-2.2,2.3c0,4.9-2.565,5.22-6.3,5.22-2.88,0-4.455-.45-4.455-2.385.045-5.085.225-13.14.45-20.07v-.09a2.107,2.107,0,0,0-2.3-2.025,2.123,2.123,0,0,0-2.295,2.115c-.135,6.93-.36,15.615-.36,20.7,0,5.355,4.05,5.94,8.685,5.94C502.065,2.475,508.725,2.475,508.725-6.615ZM480.69-5.49c2.52-2.745,5.535-9.675,5.535-11.475a2.317,2.317,0,0,0-2.43-2.2,2.165,2.165,0,0,0-2.16,1.665A22.79,22.79,0,0,1,476.64-8.46a2.686,2.686,0,0,0-.81,1.845,2.37,2.37,0,0,0,2.475,2.25A3.136,3.136,0,0,0,480.69-5.49Zm73.17-16.65c3.06.675,3.915-3.555.765-4.32a27.164,27.164,0,0,0-11.835.27c-3.285.81-1.845,4.815.63,4.185A22.8,22.8,0,0,1,553.86-22.14Zm2.43,20.52c2.97-.765,2.745-5.535-.9-4.77-3.51.72-8.91,1.44-11.34-.765a2.228,2.228,0,0,0-3.2,3.1C544.095-.54,551.475-.4,556.29-1.62ZM532.485.54c1.125-.99.585-2.385.855-3.6a22.691,22.691,0,0,1,2.655-6.3,1.8,1.8,0,0,0-3.15-1.755c-.18.315-.675,1.215-.765,1.44-.18.4-.36.54-.5-.045-1.08-4.185,1.62-14.76,2.34-18.4.495-2.61-3.87-3.6-4.365-.27-.81,5.355-4.365,18.675-.765,27.54C529.7,1.35,531.36,1.53,532.485.54ZM32.94,53.1a1.5,1.5,0,0,0,1.53-1.575A1.534,1.534,0,0,0,32.9,49.955l-8.955.135a7.209,7.209,0,0,0,.09-.99,1.437,1.437,0,0,0-1.125-1.4c3.645,0,7.29.045,10.215.09,2.3.045,2.3.225,2.3,3.87v.09a1.905,1.905,0,0,0,2.07,1.845c2.07,0,2.25-1.575,2.25-3.33,0-.675,0-1.26-.045-1.8-.09-2.97-2.655-4.185-5-4.23-3.15-.045-6.525-.135-9.9-.135V41.99a2.068,2.068,0,0,0-2.25-2.025,2.031,2.031,0,0,0-2.2,2.025v2.16c-3.69,0-7.29.045-10.71.09-4.545.045-4.59,3.555-4.59,5.9,0,1.575,0,3.33,2.025,3.33a1.98,1.98,0,0,0,2.115-1.89V49.73c.045-1.17.135-1.89,2.475-1.935,2.745-.09,6.3-.09,9.945-.09a1.6,1.6,0,0,0-1.125,1.575,4.959,4.959,0,0,1-.09.81l-8.46-.135H11.88A1.463,1.463,0,0,0,10.4,51.53,1.486,1.486,0,0,0,11.88,53.1h.045l7.155-.135c-1.4,1.62-3.915,2.655-7.83,2.97A1.653,1.653,0,0,0,9.585,57.6,1.9,1.9,0,0,0,11.61,59.45c.045,0,7.38-.315,10.755-5.4,2.7,3.96,7.38,5.175,10.62,5.175A1.967,1.967,0,0,0,35.1,57.29a1.57,1.57,0,0,0-1.575-1.62c-4.5-.225-6.885-1.26-8.235-2.7L32.9,53.1ZM34.785,69.17V63.455H39.6a1.8,1.8,0,1,0,0-3.6H5.4a1.8,1.8,0,0,0,0,3.6H30.6V73.31c0,1.98-1.125,2.61-2.655,2.61a11.211,11.211,0,0,1-2.835-.45,2.191,2.191,0,0,0-.54-.045,1.881,1.881,0,0,0-1.845,1.98c0,.855.225,2.52,5.355,2.52,5.22,0,6.8-3.33,6.8-5.76v-.09Zm-13.23,6.165c2.115-.135,4.14-1.17,4.275-3.51.045-.675.045-1.35.045-2.07,0-4.545-1.665-4.545-8.235-4.545-5.22,0-7.965,0-8.1,3.195,0,.54-.045,1.08-.045,1.665s.045,1.215.045,1.845c.135,3.51,2.835,3.51,7.695,3.51C18.72,75.425,20.2,75.38,21.555,75.335Zm.45-5.13c0,2.07-.045,2.07-4.455,2.07-4.275,0-4.275-.09-4.275-2.025,0-2.025.045-2.025,4.32-2.025C21.825,68.225,22,68.27,22,70.205Zm45.18,9.135A24.575,24.575,0,0,0,76.1,50.63c-1.845-5.085-7.695-6.93-10.98-2.7-.45.585-.9,1.17-.315-.045A13.5,13.5,0,0,0,65.97,43.7c.225-2.7-4.14-3.24-4.5-.405-.36,2.745-1.215,5.715-1.71,8.01a40.023,40.023,0,0,0-1.035,10.4c.27,3.24,5.13,3.285,4.905-1.08-.225-3.915-.135-5.76,1.17-8.505,1.305-2.79,5.58-4.455,7.065.045,3.105,9.405-.855,19.125-7.83,23.67C60.255,78.305,63.54,82.04,67.185,79.34Zm62.1-24.75a1.862,1.862,0,0,0,2.07-1.845,1.934,1.934,0,0,0-2.115-1.89l-12.42.09a34.053,34.053,0,0,0,1.035-3.825,54.287,54.287,0,0,0,7.83-1.17,2.063,2.063,0,0,0-.4-4.1,2.36,2.36,0,0,0-.765.09c-6.12,1.665-12.24,1.575-17.775,1.665a1.863,1.863,0,0,0-1.89,1.98,2.018,2.018,0,0,0,2.115,2.07h.135c1.845-.09,4.14-.135,6.66-.27a24.867,24.867,0,0,1-1.08,3.555l-8.01-.09a1.866,1.866,0,0,0-1.98,1.89,1.794,1.794,0,0,0,1.935,1.845h.045l6.21-.09a21.243,21.243,0,0,1-7.515,7.29,1.949,1.949,0,0,0-1.08,1.665A2.172,2.172,0,0,0,104.4,65.57c1.755,0,7.875-5.04,10.935-11.115h3.285c3.96,6.48,9.99,10.8,12.06,10.8a2.412,2.412,0,0,0,2.34-2.34,1.868,1.868,0,0,0-1.35-1.8,18.509,18.509,0,0,1-8.6-6.615l6.165.09Zm1.485,20.565a2.185,2.185,0,0,0,2.07-2.205c0-1.98-4.77-8.01-6.93-8.01a1.9,1.9,0,0,0-1.98,1.62,1.542,1.542,0,0,0,.585,1.125,23.024,23.024,0,0,1,4.455,6.165A2.007,2.007,0,0,0,130.77,75.155ZM101.25,49.6a2.463,2.463,0,0,0,2.25-2.475c0-2.61-5.985-5.04-6.84-5.04a2.217,2.217,0,0,0-2.205,2.07,1.636,1.636,0,0,0,.9,1.44,16.361,16.361,0,0,1,4.455,3.285A1.941,1.941,0,0,0,101.25,49.6Zm21.375,25.92a2.161,2.161,0,0,0,2.115-2.205c0-1.665-2.565-6.345-3.735-7.425a2.094,2.094,0,0,0-1.4-.54,1.672,1.672,0,0,0-1.8,1.485,1.585,1.585,0,0,0,.315.945,19.854,19.854,0,0,1,2.7,6.12A1.875,1.875,0,0,0,122.625,75.515Zm-9.63-14.895c.09,5.895.09,12.555.09,12.555,0,1.98-.63,2.475-1.665,2.475a13.135,13.135,0,0,1-2.295-.36,1.846,1.846,0,0,0-.495-.045,1.9,1.9,0,0,0-1.89,2.025c0,1.485.855,2.43,4.5,2.43,4.41,0,5.985-2.61,5.985-5.4v-.225c-.045-1.575-.135-3.33-.135-4.05,0-1.98.045-3.465.045-5.625,0-1.035,0-2.25-.045-3.78a1.969,1.969,0,0,0-2.07-2.025,1.922,1.922,0,0,0-2.025,1.98ZM99.18,59.09a2.385,2.385,0,0,0,2.07-2.475,2.3,2.3,0,0,0-.945-1.89,15.344,15.344,0,0,0-6.255-2.43,2.219,2.219,0,0,0-2.16,2.16,1.5,1.5,0,0,0,1.125,1.485,15.134,15.134,0,0,1,4.9,2.655A1.877,1.877,0,0,0,99.18,59.09Zm4.59,16.425c2.925,0,6.66-6.03,6.66-8.37a1.808,1.808,0,0,0-1.89-1.71,1.925,1.925,0,0,0-1.845,1.4,10.279,10.279,0,0,1-3.87,5.085A2.146,2.146,0,0,0,101.7,73.67,1.969,1.969,0,0,0,103.77,75.515Zm-6.66,2.07a45.249,45.249,0,0,0,4.9-12.51,2.044,2.044,0,0,0-2.16-2.025,1.9,1.9,0,0,0-1.935,1.4,43.309,43.309,0,0,1-5.04,11.25,2.075,2.075,0,0,0-.36,1.17,2.29,2.29,0,0,0,2.34,2.16A2.56,2.56,0,0,0,97.11,77.585Zm63.81-30.1c3.33.63,4.815-3.915,1.125-4.545a30.253,30.253,0,0,1-6.975-1.98c-3.15-1.44-5.04,2.07-2.475,3.51A28.666,28.666,0,0,0,160.92,47.48Zm-4.1,32.535c9-6.615,12.825-17.28,9.36-24.795-2.385-5.175-9-5.355-13.59-3.33-1.26.54-2.7,1.035-3.87,1.44-3.285,1.17-2.16,5.58,1.395,4.68a27.589,27.589,0,0,0,4.365-2.07c3.1-1.845,6.48-1.665,7.74,1.845,1.845,5.22-.63,13.185-8.685,18.855C150.885,78.53,153.855,82.22,156.825,80.015Zm61.92-29.07a2.072,2.072,0,1,0,0-4.14l-14.13.09.045-4.68c0-1.26-1.17-1.89-2.34-1.89a1.977,1.977,0,0,0-2.205,1.89l.045,4.68-13.9-.09a2.074,2.074,0,1,0,0,4.14l13.9-.09.045,5.22H190.89a2.053,2.053,0,0,0-2.115,2.115,1.876,1.876,0,0,0,1.98,1.935h.09c3.825-.135,8.325-.135,12.06-.135h4.86c.675,0,1.035.27,1.035.675,0,.945-2.475,4.545-6.165,7.74a26.952,26.952,0,0,1-5.535-6.66,1.828,1.828,0,0,0-1.665-.9,2.147,2.147,0,0,0-2.25,1.98c0,1.8,3.87,6.3,5.94,8.19a30.682,30.682,0,0,1-13.815,4.68A2.118,2.118,0,0,0,183.2,77.9a2.245,2.245,0,0,0,2.25,2.34,35.293,35.293,0,0,0,17.19-6.48,29.6,29.6,0,0,0,16.6,5.445,2.547,2.547,0,0,0,2.7-2.61,1.969,1.969,0,0,0-1.89-2.16,27.95,27.95,0,0,1-13.815-3.51c4.05-3.645,8.1-8.64,8.1-11.34,0-2.07-1.575-3.555-4.23-3.555H204.57l.045-5.175Zm44.19-5.445c1.26-.27,1.755-.99,1.755-1.755a2.089,2.089,0,0,0-2.115-1.98,1.846,1.846,0,0,0-.495.045,75.264,75.264,0,0,1-15.48,1.53c-.81,0-1.53,0-2.25-.045h-.09a1.808,1.808,0,0,0-1.98,1.845,1.926,1.926,0,0,0,2.07,1.935C246.33,47.075,256.9,46.895,262.935,45.5Zm2.34,16.47a1.694,1.694,0,1,0,0-3.375l-12.195.045c.225-.855.4-1.71.54-2.52l10.17.045a1.719,1.719,0,1,0,0-3.42h-2.745c.225-.36,2.43-3.69,2.43-4.68s-1.17-1.71-2.25-1.71a1.46,1.46,0,0,0-1.485.945,24.761,24.761,0,0,1-2.61,5.49h-3.105a1.962,1.962,0,0,0,1.665-1.8c0-.45-.9-3.915-2.79-3.915-.9,0-1.89.54-1.89,1.35a1.089,1.089,0,0,0,.18.585,7.291,7.291,0,0,1,1.08,2.655A1.294,1.294,0,0,0,253.3,52.79H248.94a1.91,1.91,0,0,0,.675-1.44c0-1.035-1.8-3.735-3.2-3.735a1.879,1.879,0,0,0-1.935,1.575,1.267,1.267,0,0,0,.36.855,6.943,6.943,0,0,1,1.485,2.34.98.98,0,0,0,.225.36h-1.53a1.711,1.711,0,1,0,0,3.42h4.68c-.135.81-.315,1.62-.5,2.475l-5.67-.045a1.688,1.688,0,1,0,0,3.375h4.725c-1.89,5.355-5.265,10.575-9.855,13.275a4.782,4.782,0,0,0-.5.4,9.406,9.406,0,0,0,.045-1.125c-.045-1.575-.18-5.67-.18-6.39,0-.675.045-2.97.045-5.94,3.465-1.98,4.32-2.79,4.32-3.825a1.875,1.875,0,0,0-1.8-1.845,1.585,1.585,0,0,0-.945.315c-.54.36-1.035.675-1.575.99V53.24h2.79a1.98,1.98,0,0,0,0-3.96h-2.79V42.26a1.992,1.992,0,0,0-2.07-2.115,2.064,2.064,0,0,0-2.16,2.115l.045,7.02h-3.78a1.98,1.98,0,0,0,0,3.96h3.78v6.8c-1.485.72-3.06,1.35-4.86,2.115a2.017,2.017,0,0,0-1.3,1.845,2.159,2.159,0,0,0,2.16,2.16c.855,0,1.665-.45,4.005-1.665v9.5c0,1.17-.9,1.485-1.845,1.485a7,7,0,0,1-1.44-.18,1.246,1.246,0,0,0-.4-.045,1.893,1.893,0,0,0-1.755,2.07c0,1.845,1.44,2.43,4.095,2.43,2.61,0,4.32-.99,5.13-2.52a1.949,1.949,0,0,0,1.935,1.575c1.665,0,5.715-3.15,9.45-9.72a16.518,16.518,0,0,0,3.555,4.725,22.667,22.667,0,0,1-7.83,2.835,1.677,1.677,0,0,0-1.44,1.71,1.794,1.794,0,0,0,1.845,1.845,27.56,27.56,0,0,0,10.4-4.05c3.51,2.205,8.415,3.555,10.4,3.555a2.186,2.186,0,0,0,2.385-2.115,1.806,1.806,0,0,0-1.71-1.8,25.514,25.514,0,0,1-8.01-2.115,17.89,17.89,0,0,0,3.645-5.13,3.771,3.771,0,0,0,.36-1.485,2.851,2.851,0,0,0-3.15-2.79c-.72,0-5.58.09-8.145.135.36-.81.63-1.62.945-2.475ZM255.2,71.69a13.26,13.26,0,0,1-3.645-4.41c2.475,0,5.49-.09,5.76-.09s.675.045.675.45A9.673,9.673,0,0,1,255.2,71.69Z" transform="translate(80 315.528)" fill="#fff"/>
  </g>
</svg>
